<?xml version="1.0" encoding="utf-8"?>
<!-- Generator: Adobe Illustrator 19.2.1, SVG Export Plug-In . SVG Version: 6.00 Build 0)  -->
<svg version="1.1" id="Layer_1" xmlns="http://www.w3.org/2000/svg" xmlns:xlink="http://www.w3.org/1999/xlink" x="0px" y="0px"
	 viewBox="0 0 16 16" style="enable-background:new 0 0 16 16;" xml:space="preserve">
<style type="text/css">
	.st0{fill:#010101;}
	.st1{fill:none;stroke:#231F20;stroke-width:0.8;stroke-miterlimit:10;}
	.st2{fill:#231F20;}
</style>
<path class="st0" d="M15.7,15.2H0.5c-0.2,0-0.4-0.2-0.3-0.4L7.5,0.2c0.1-0.2,0.4-0.2,0.6,0l1.4,2.6L8.7,3.2L7.9,1.6L1.5,14.2h13h0
	l-2-3.3l0.9-0.4l2.6,4.3C16.1,14.9,15.9,15.2,15.7,15.2z M4.2,12.3v1h1.1v-1H4.2z M7.4,12.3v1h1.1v-1H7.4z M10.5,12.3v1h1v-1H10.5z"
	/>
<g>
	<g>
		<line class="st1" x1="-29.4" y1="7.8" x2="-24.3" y2="7.8"/>
		<g>
			<polygon class="st2" points="-26.1,10 -26.5,9.6 -24.5,7.8 -26.5,6 -26.1,5.6 -23.8,7.8 			"/>
		</g>
	</g>
</g>
<g>
	<path class="st2" d="M13.3,7.2H8.1C7.9,7.2,7.7,7,7.7,6.8s0.2-0.4,0.4-0.4h5.2c0.2,0,0.4,0.2,0.4,0.4S13.5,7.2,13.3,7.2z"/>
	<path class="st2" d="M13.2,7.1c-0.1,0-0.2,0-0.3-0.1l-2-2c-0.2-0.2-0.2-0.4,0-0.6s0.4-0.2,0.6,0l2,2c0.2,0.2,0.2,0.4,0,0.6
		C13.4,7.1,13.3,7.1,13.2,7.1z"/>
	<path class="st2" d="M11.2,9.3c-0.1,0-0.2,0-0.3-0.1c-0.2-0.2-0.2-0.4,0-0.6l2-2c0.2-0.2,0.4-0.2,0.6,0s0.2,0.4,0,0.6l-2,2
		C11.4,9.2,11.3,9.3,11.2,9.3z"/>
</g>
</svg>
