<?xml version="1.0" encoding="utf-8"?>
<!-- Generator: Adobe Illustrator 18.1.1, SVG Export Plug-In . SVG Version: 6.00 Build 0)  -->
<!DOCTYPE svg PUBLIC "-//W3C//DTD SVG 1.1//EN" "http://www.w3.org/Graphics/SVG/1.1/DTD/svg11.dtd">
<svg version="1.1" id="Layer_1" xmlns="http://www.w3.org/2000/svg" xmlns:xlink="http://www.w3.org/1999/xlink" x="0px" y="0px"
	 viewBox="0 0 200 200" enable-background="new 0 0 200 200" xml:space="preserve">
<g>
	<polygon fill-rule="evenodd" clip-rule="evenodd" fill="#231F20" points="154.5,154.5 154.5,127.3 145.4,127.3 145.4,154.5 
		118.2,154.5 118.2,163.6 145.4,163.6 145.4,190.9 154.5,190.9 154.5,163.6 181.8,163.6 181.8,154.5 	"/>
	<path fill-rule="evenodd" clip-rule="evenodd" fill="#231F20" d="M40.4,154.5H27.3v-1v-11.1v-11.1v-11.1v-11.1V98V86.9V75.8V64.6
		V53.5V42.4V27.3h18.2v7.1v11.1h6.1h11.1h11.1h11.1h11.1h11.1h11.1h9.1V34.3v-7.1h18.2v15.2v11.1v55.6h9.1V53.5V42.4V27.3v-9.1
		h-14.1h-13.1V9.1h-9.1h-11.1H95.9H84.8H73.7H62.6H51.5h-6.1v9.1H29.3H18.2v13.1v11.1v11.1v11.1v11.1v11.1V98v11.1v11.1v11.1v11.1
		v11.1v2h0v8.1h11.1h11.1h11.1H100v-9.1H51.5H40.4z M54.5,27.3v-9.1h8.1h11.1h11.1h11.1h11.1h11.1v9.1v9.1h-11.1H95.9H84.8H73.7
		H62.6h-8.1V27.3z"/>
	<rect x="36.4" y="72.7" fill-rule="evenodd" clip-rule="evenodd" fill="#231F20" width="90.9" height="9.1"/>
	<rect x="36.4" y="100" fill-rule="evenodd" clip-rule="evenodd" fill="#231F20" width="72.7" height="9.1"/>
	<rect x="36.4" y="127.3" fill-rule="evenodd" clip-rule="evenodd" fill="#231F20" width="81.8" height="9.1"/>
</g>
</svg>
