<?xml version="1.0" encoding="utf-8"?>
<!-- Generator: Adobe Illustrator 19.1.0, SVG Export Plug-In . SVG Version: 6.00 Build 0)  -->
<!DOCTYPE svg PUBLIC "-//W3C//DTD SVG 1.1//EN" "http://www.w3.org/Graphics/SVG/1.1/DTD/svg11.dtd">
<svg version="1.1" id="Layer_1" xmlns="http://www.w3.org/2000/svg" xmlns:xlink="http://www.w3.org/1999/xlink" x="0px" y="0px"
	 viewBox="0 0 16 16" style="enable-background:new 0 0 16 16;" xml:space="preserve">
<path d="M12.2,15.3c-2,0-3.6-1.6-3.6-3.6c0-2,1.6-3.6,3.6-3.6c2,0,3.6,1.6,3.6,3.6C15.8,13.7,14.2,15.3,12.2,15.3z M12.3,8.9
	c-1.6,0-2.8,1.3-2.8,2.8c0,1.5,1.3,2.8,2.8,2.8c1.6,0,2.8-1.3,2.8-2.8C15.1,10.2,13.8,8.9,12.3,8.9z"/>
<path d="M3.8,15.3c-2,0-3.6-1.6-3.6-3.6c0-2,1.6-3.5,3.6-3.5c2,0,3.6,1.6,3.6,3.6C7.4,13.7,5.8,15.3,3.8,15.3z M3.8,8.9
	C2.2,8.9,1,10.2,1,11.7c0,1.6,1.3,2.8,2.8,2.8c1.6,0,2.8-1.3,2.8-2.8C6.6,10.2,5.3,8.9,3.8,8.9z"/>
<path d="M8,1c2,0,3.6,1.6,3.6,3.6c0,2-1.6,3.6-3.6,3.6c-2,0-3.6-1.6-3.6-3.7C4.4,2.6,6,1,8,1z M8,7.4c1.6,0,2.8-1.3,2.8-2.8
	C10.8,3,9.6,1.8,8,1.8C6.5,1.8,5.2,3,5.2,4.6C5.2,6.1,6.4,7.4,8,7.4z"/>
<path d="M12.5,12.2c-0.2,0-0.3,0-0.5,0c0-0.7,0-1.5,0-2.2c0.2,0,0.3,0,0.5,0C12.5,10.7,12.5,11.4,12.5,12.2z"/>
<path d="M12,13.2c0-0.2,0-0.3,0-0.5c0.1,0,0.3,0,0.5,0c0,0.2,0,0.3,0,0.5C12.3,13.2,12.2,13.2,12,13.2z"/>
<path d="M3.8,12.5c-0.1,0-0.2,0-0.4,0c0-0.3,0-0.6,0.3-0.8c0.1-0.1,0.3-0.3,0.4-0.5c0.1-0.2,0.1-0.5,0-0.6c-0.1-0.1-0.4-0.2-0.5-0.1
	c-0.1,0-0.2,0.1-0.2,0.2c-0.1,0.1-0.1,0.2-0.1,0.4c-0.1,0-0.2,0-0.3,0c-0.1-0.4,0.1-0.8,0.6-0.9c0.4-0.1,0.8,0,1,0.3
	c0.2,0.3,0.1,0.7-0.1,1c-0.1,0.1-0.1,0.2-0.2,0.2C3.9,12,3.8,12.2,3.8,12.5z"/>
<path d="M3.4,13c0.1,0,0.2,0,0.4,0c0,0.1,0,0.2,0,0.3c-0.1,0-0.2,0-0.4,0C3.4,13.2,3.4,13.1,3.4,13z"/>
<path d="M7.7,5.2C8.4,4.6,9,4,9.6,3.4c0.1-0.1,0.2-0.2,0.3,0c0.1,0.1,0.1,0.2,0,0.3C9.3,4.3,8.6,5,8,5.7c-0.1,0.1-0.2,0.1-0.3,0
	C7.4,5.4,7.1,5.1,6.8,4.8c-0.1-0.1-0.1-0.2,0-0.3c0.1-0.1,0.2,0,0.3,0C7.3,4.8,7.5,5,7.7,5.2z"/>
</svg>
