<?xml version="1.0" encoding="utf-8"?>
<!-- Generator: Adobe Illustrator 18.1.1, SVG Export Plug-In . SVG Version: 6.00 Build 0)  -->
<!DOCTYPE svg PUBLIC "-//W3C//DTD SVG 1.1//EN" "http://www.w3.org/Graphics/SVG/1.1/DTD/svg11.dtd">
<svg version="1.1" id="Layer_1" xmlns="http://www.w3.org/2000/svg" xmlns:xlink="http://www.w3.org/1999/xlink" x="0px" y="0px"
	 viewBox="0 0 200 200" enable-background="new 0 0 200 200" xml:space="preserve">
<g>
	<path fill-rule="evenodd" clip-rule="evenodd" d="M12.6,155.6h13l4.1-13.6h20.8l4.1,13.6h13L47.6,98.2H32.8L12.6,155.6z
		 M40.3,107.1c0.2,0.9,0.6,2.2,1,3.8c0.5,1.6,2.6,8.6,6.5,20.9H32.9C36.9,118.7,39.4,110.4,40.3,107.1z"/>
	<path fill-rule="evenodd" clip-rule="evenodd" d="M124.8,128.5v27h11.3V98.5h-16.5l-14.3,43.7H105L91.5,98.5H75v57.1h10.8V129
		c0-3-0.2-9.1-0.7-18.2h0.4l13.8,44.8h11.1l14.7-44.7h0.4c-0.3,7.2-0.5,11.6-0.5,13.3C124.8,125.8,124.8,127.3,124.8,128.5z"/>
	<path fill-rule="evenodd" clip-rule="evenodd" d="M170.2,144.8c-1.4,1-3.5,1.5-6.1,1.5c-2.2,0-4.7-0.4-7.3-1.1
		c-2.7-0.7-5.9-1.9-9.8-3.6v11.2c4.7,2.3,10.1,3.4,16.2,3.4c6.6,0,11.8-1.5,15.5-4.5s5.6-7,5.6-12.2c0-3.7-1-6.9-3-9.4
		c-2-2.6-5.6-5.1-11-7.7c-4-1.9-6.6-3.3-7.7-4c-1.1-0.7-1.9-1.5-2.4-2.3c-0.5-0.8-0.7-1.7-0.7-2.8c0-1.7,0.6-3.1,1.8-4.2
		c1.2-1.1,3-1.6,5.3-1.6c1.9,0,3.9,0.2,5.9,0.7c2,0.5,4.5,1.4,7.6,2.6l3.9-9.4c-2.9-1.3-5.8-2.3-8.5-3s-5.5-1.1-8.5-1.1
		c-6,0-10.8,1.4-14.2,4.3c-3.4,2.9-5.1,6.9-5.1,11.9c0,2.7,0.5,5,1.6,7c1,2,2.4,3.8,4.2,5.3c1.7,1.5,4.4,3.1,7.9,4.7
		c3.7,1.8,6.2,3.1,7.4,3.9c1.2,0.8,2.1,1.6,2.8,2.5c0.6,0.9,0.9,1.9,0.9,3C172.3,142.3,171.6,143.8,170.2,144.8z"/>
	<polygon fill-rule="evenodd" clip-rule="evenodd" points="177.8,177.8 22.2,177.8 22.2,166.7 11.1,166.7 11.1,177.8 11.1,188.9 
		22.2,188.9 177.8,188.9 188.9,188.9 188.9,177.8 188.9,166.7 177.8,166.7 	"/>
	<polygon fill-rule="evenodd" clip-rule="evenodd" points="59,22.2 140.9,22.2 179.8,77.8 188.9,71.4 146.9,11.1 53.3,11.1 
		11.1,71.4 20.2,77.8 	"/>
	<circle fill-rule="evenodd" clip-rule="evenodd" cx="100" cy="44.5" r="10.5"/>
</g>
</svg>
