<?xml version="1.0" encoding="utf-8"?>
<!-- Generator: Adobe Illustrator 18.1.1, SVG Export Plug-In . SVG Version: 6.00 Build 0)  -->
<!DOCTYPE svg PUBLIC "-//W3C//DTD SVG 1.1//EN" "http://www.w3.org/Graphics/SVG/1.1/DTD/svg11.dtd">
<svg version="1.1" id="Layer_1" xmlns="http://www.w3.org/2000/svg" xmlns:xlink="http://www.w3.org/1999/xlink" x="0px" y="0px"
	 viewBox="0 0 200 200" enable-background="new 0 0 200 200" xml:space="preserve">
<path d="M125.3,38.9c-9,0-17.5,2-25.3,5.5c-7.7-3.5-16.3-5.5-25.3-5.5c-33.7,0-61.1,27.4-61.1,61.1c0,33.7,27.4,61.1,61.1,61.1
	c9,0,17.6-2,25.3-5.5c7.7,3.5,16.2,5.5,25.3,5.5c33.7,0,61.1-27.4,61.1-61.1C186.3,66.3,158.9,38.9,125.3,38.9z M74.7,150
	c-27.6,0-50-22.4-50-50c0-27.6,22.4-50,50-50c4.6,0,9,0.6,13.2,1.8C73.5,62.9,64.2,80.4,64.2,100c0,19.6,9.3,37.1,23.7,48.3
	C83.7,149.4,79.3,150,74.7,150z M125.3,150c-4.5,0-9-0.6-13.1-1.8c14.4-11.2,23.7-28.7,23.7-48.3c0-19.6-9.3-37.1-23.7-48.3
	c4.2-1.1,8.6-1.8,13.1-1.8c27.6,0,50,22.4,50,50C175.3,127.6,152.8,150,125.3,150z"/>
</svg>
