<?xml version="1.0" encoding="utf-8"?>
<!-- Generator: Adobe Illustrator 18.1.1, SVG Export Plug-In . SVG Version: 6.00 Build 0)  -->
<!DOCTYPE svg PUBLIC "-//W3C//DTD SVG 1.1//EN" "http://www.w3.org/Graphics/SVG/1.1/DTD/svg11.dtd">
<svg version="1.1" id="Layer_1" xmlns="http://www.w3.org/2000/svg" xmlns:xlink="http://www.w3.org/1999/xlink" x="0px" y="0px"
	 viewBox="0 0 200 200" enable-background="new 0 0 200 200" xml:space="preserve">
<g>
	<polygon points="66.7,87.6 58.8,79.7 44.4,94.1 44.4,77.8 44.4,77.8 44.4,33.3 66.7,33.3 66.7,22.2 44.4,22.2 33.3,22.2 33.3,33.3 
		33.3,77.8 34,77.8 34,77.8 33.3,77.8 33.3,92.2 20.9,79.7 13,87.6 38.8,113.4 	"/>
	<path d="M155.7,173.7v4H22.1v-11h66.8v-11.1H22.1v-11.1h44.6v-11.1H22.1v-11.1H11v63.4c0,1.8,1.4,3.2,3.1,3.2h141.7h1.7h7.6
		c1.7,0,1.7-1.4,1.7-3.2l0-19h-11.1V173.7z"/>
	<path d="M77.8,77.8V89h33.3l0.1,33.1c0,10.5,9.5,11.2,11.2,11.2h33.3l0,22.2h0l0-7h0l0,7h0v4v7.1h11.1l0-43.9l-44.5-45L77.8,77.8z
		 M122.5,122.1l-0.1-33.2l33.3,33.2H122.5z"/>
	<path d="M144.7,11.1h-64c-1.7,0-3.1,1.4-3.1,3.2v52.3h11.3V55.6h0V44.5h0V22.4h44.6l0.1,33.1c0,10.5,9.5,11.2,11.2,11.2h32.9v0v100
		l0.3,0h1.7h7.6c1.7,0,1.7-1.4,1.7-3.2l0-107.4L144.7,11.1z M144.8,55.4l-0.1-33.2L178,55.4H144.8z"/>
</g>
</svg>
