<?xml version="1.0" encoding="utf-8"?>
<!-- Generated by IcoMoon.io -->
<!DOCTYPE svg PUBLIC "-//W3C//DTD SVG 1.1//EN" "http://www.w3.org/Graphics/SVG/1.1/DTD/svg11.dtd">
<svg version="1.1" xmlns="http://www.w3.org/2000/svg" xmlns:xlink="http://www.w3.org/1999/xlink" width="32" height="32" viewBox="0 0 32 32">
<path d="M29.936 2.096c-0.688-0.672-1.68 0.208-2.288 0.816l-11.168 11.12c-0.144 0.144-0.32 0.32-0.48 0.496-0.16-0.192-0.336-0.368-0.496-0.512l-11.168-11.168c-0.608-0.608-1.6-1.504-2.288-0.816-0.768 0.768 0.208 1.68 0.816 2.288l11.168 11.168c0.384 0.4 0.896 0.96 1.424 1.104 0.16 0.096 0.352 0.16 0.56 0.16 0.256 0 0.48-0.080 0.656-0.224 0.464-0.208 0.896-0.688 1.248-1.024l11.2-11.136c0.608-0.592 1.584-1.504 0.816-2.272z" fill="#000000"></path>
</svg>
