<?xml version="1.0" encoding="utf-8"?>
<!-- Generator: Adobe Illustrator 18.1.1, SVG Export Plug-In . SVG Version: 6.00 Build 0)  -->
<!DOCTYPE svg PUBLIC "-//W3C//DTD SVG 1.1//EN" "http://www.w3.org/Graphics/SVG/1.1/DTD/svg11.dtd">
<svg version="1.1" id="Layer_1" xmlns="http://www.w3.org/2000/svg" xmlns:xlink="http://www.w3.org/1999/xlink" x="0px" y="0px"
	 viewBox="0 0 200 200" enable-background="new 0 0 200 200" xml:space="preserve">
<g>
	<path fill-rule="evenodd" clip-rule="evenodd" d="M172.9,88.1L103,157.6c-0.9,0.9-2,2-3,3.1c-1-1.2-2.1-2.3-3.1-3.2L27.1,87.7
		c-3.8-3.8-10-9.4-14.3-5.1c-4.8,4.8,1.3,10.5,5.1,14.3l69.9,69.8c2.4,2.5,5.6,6,8.9,6.9c1,0.6,2.2,1,3.5,1c1.6,0,3-0.5,4.1-1.4
		c2.9-1.3,5.6-4.3,7.8-6.4L182,97.2c3.8-3.7,9.9-9.4,5.1-14.2C182.9,78.8,176.6,84.3,172.9,88.1z"/>
	<path fill-rule="evenodd" clip-rule="evenodd" d="M18,41.3l69.9,69.8c2.4,2.5,5.6,6,8.9,6.9c1,0.6,2.2,1,3.5,1c1.6,0,3-0.5,4.1-1.4
		c2.9-1.3,5.6-4.3,7.8-6.4L182,41.6c3.8-3.7,9.9-9.4,5.1-14.2c-4.3-4.2-10.5,1.3-14.3,5.1L103,102.1c-0.9,0.9-2,2-3,3.1
		c-1-1.2-2.1-2.3-3.1-3.2L27.1,32.1c-3.8-3.8-10-9.4-14.3-5.1C8.1,31.8,14.2,37.5,18,41.3z"/>
</g>
</svg>
