<?xml version="1.0" encoding="utf-8"?>
<!-- Generator: Adobe Illustrator 19.1.0, SVG Export Plug-In . SVG Version: 6.00 Build 0)  -->
<svg version="1.0" id="Layer_1" xmlns="http://www.w3.org/2000/svg" xmlns:xlink="http://www.w3.org/1999/xlink" x="0px" y="0px"
	 viewBox="0 0 200 200" enable-background="new 0 0 200 200" xml:space="preserve">
<polygon points="-329.81,107.738 -353.378,84.17 -361.233,92.026 -337.666,115.594 -329.81,123.449 -321.954,115.594 
	-275.767,69.406 -283.622,61.551 "/>
<path d="M188.999,96.333l0.074,0c0-3.51-0.366-6.933-1.055-10.238c-6.597-42.572-43.405-75.16-87.825-75.16
	c-49.087,0-88.88,39.793-88.88,88.88c0,49.087,39.793,88.88,88.88,88.88c49.087,0,88.88-39.793,88.88-88.88
	C189.074,98.649,189.044,97.489,188.999,96.333z M100.194,177.585c-42.951,0-77.77-34.819-77.77-77.771
	c0-42.951,34.819-77.77,77.77-77.77c24.676,0,46.651,11.506,60.898,29.43c-6.628-3.251-14.078-5.082-21.958-5.082
	c-27.393,0-49.623,22.057-49.926,49.378h-0.014v12.204l-9.671-9.671l-7.861,7.862l15.733,15.733l7.962,7.962l7.861-7.861
	l15.768-15.768l-7.962-7.962l-10.913,10.913V96.2c0.085-21.466,17.51-38.843,38.996-38.843c17.985,0,33.117,12.177,37.625,28.734
	c0.794,4.457,1.232,9.038,1.232,13.724C177.963,142.766,143.145,177.585,100.194,177.585z"/>
</svg>
