<?xml version="1.0" encoding="utf-8"?>
<!-- Generator: Adobe Illustrator 19.1.1, SVG Export Plug-In . SVG Version: 6.00 Build 0)  -->
<!DOCTYPE svg PUBLIC "-//W3C//DTD SVG 1.1//EN" "http://www.w3.org/Graphics/SVG/1.1/DTD/svg11.dtd">
<svg version="1.1" id="Layer_1" xmlns="http://www.w3.org/2000/svg" xmlns:xlink="http://www.w3.org/1999/xlink" x="0px" y="0px"
	 viewBox="0 0 17 17" style="enable-background:new 0 0 17 17;" xml:space="preserve">
<style type="text/css">
	.st0{fill:#231F20;}
</style>
<path class="st0" d="M8.5,1C12.6,1,16,4.4,16,8.5S12.6,16,8.5,16S1,12.6,1,8.5S4.4,1,8.5,1 M8.5,0C3.8,0,0,3.8,0,8.5S3.8,17,8.5,17
	S17,13.2,17,8.5S13.2,0,8.5,0L8.5,0z"/>
<path class="st0" d="M10.3,4.8c0.7,0.7,1.5,1.5,2.2,2.2c-1.8,1.8-3.5,3.5-5.3,5.3c-0.7-0.7-1.5-1.5-2.2-2.2
	C6.8,8.3,8.5,6.6,10.3,4.8z"/>
<path class="st0" d="M10.7,4.3C11,4,11.3,3.7,11.7,3.4c0.2-0.2,0.5-0.2,0.7,0C12.9,4,13.4,4.5,14,5c0.2,0.2,0.2,0.5,0,0.7
	c-0.3,0.3-0.6,0.6-0.9,0.9C12.3,5.9,11.5,5.1,10.7,4.3z"/>
<path class="st0" d="M4.1,13.2c0.2-1,0.3-1.9,0.5-2.7c0.8,0.8,1.5,1.5,2.3,2.3C6,12.9,5.1,13.1,4.1,13.2z"/>
</svg>
