<?xml version="1.0" encoding="utf-8"?>
<!-- Generated by IcoMoon.io -->
<!DOCTYPE svg PUBLIC "-//W3C//DTD SVG 1.1//EN" "http://www.w3.org/Graphics/SVG/1.1/DTD/svg11.dtd">
<svg version="1.1" xmlns="http://www.w3.org/2000/svg" xmlns:xlink="http://www.w3.org/1999/xlink" width="32" height="32" viewBox="0 0 32 32">
<path d="M6.512 29.728c-1.184 0-2.32-0.512-3.232-1.44-2.016-2.080-2.016-5.472 0-7.552l15.664-17.184c2.448-2.528 6.192-2.304 8.928 0.528 1.232 1.264 1.904 3.088 1.888 5.008-0.032 1.904-0.752 3.712-1.968 4.992l-11.84 13.024c-0.336 0.368-0.88 0.384-1.232 0.032-0.352-0.336-0.368-0.912-0.032-1.28l11.84-13.056c0.928-0.96 1.456-2.32 1.472-3.76s-0.48-2.784-1.376-3.712c-1.664-1.728-4.384-2.64-6.416-0.528l-15.664 17.184c-1.344 1.392-1.344 3.632-0.016 5.008 0.624 0.64 1.36 0.96 2.144 0.912s1.584-0.464 2.256-1.168l12.464-13.712c0.448-0.464 1.36-1.616 0.432-2.576-0.528-0.544-0.896-0.512-1.008-0.496-0.352 0.032-0.752 0.272-1.168 0.72l-9.376 10.304c-0.336 0.368-0.88 0.384-1.232 0.032-0.352-0.336-0.368-0.912-0.032-1.28l9.392-10.304c0.736-0.768 1.488-1.184 2.256-1.248 0.608-0.048 1.488 0.080 2.4 1.024 1.344 1.392 1.184 3.456-0.416 5.104l-12.464 13.696c-0.992 1.024-2.192 1.632-3.408 1.712-0.080 0.016-0.16 0.016-0.256 0.016z" fill="#000000"></path>
</svg>
