<?xml version="1.0" encoding="utf-8"?>
<!-- Generator: Adobe Illustrator 18.1.1, SVG Export Plug-In . SVG Version: 6.00 Build 0)  -->
<!DOCTYPE svg PUBLIC "-//W3C//DTD SVG 1.1//EN" "http://www.w3.org/Graphics/SVG/1.1/DTD/svg11.dtd">
<svg version="1.1" id="Layer_1" xmlns="http://www.w3.org/2000/svg" xmlns:xlink="http://www.w3.org/1999/xlink" x="0px" y="0px"
	 viewBox="0 0 200 200" enable-background="new 0 0 200 200" xml:space="preserve">
<g>
	<path d="M55.5,144.5H44.4v11.1v22.2v11.1h11.1h22.2h11.1v-11.1v-22.2v-11.1H77.8H55.5z M77.8,177.8H55.5v-22.2h22.2V177.8z"/>
	<path d="M122.2,144.5h-11.1v11.1v22.2v11.1h11.1h22.2h11.1v-11.1v-22.2v-11.1h-11.1H122.2z M144.4,177.8h-22.2v-22.2h22.2V177.8z"
		/>
	<path d="M55.5,77.8H44.4v11.1v22.2v11.1h11.1h22.2h11.1v-11.1V88.9V77.8H77.8H55.5z M77.8,111.1H55.5V88.9h22.2V111.1z"/>
	<path d="M122.2,77.8h-11.1v11.1v22.2v11.1h11.1h22.2h11.1v-11.1V88.9V77.8h-11.1H122.2z M144.4,111.1h-22.2V88.9h22.2V111.1z"/>
	<path d="M55.5,11.1H44.4v11.1v22.2v11.1h11.1h22.2h11.1V44.5V22.2V11.1H77.8H55.5z M77.8,44.5H55.5V22.2h22.2V44.5z"/>
	<path d="M144.4,11.1h-22.2h-11.1v11.1v22.2v11.1h11.1h22.2h11.1V44.5V22.2V11.1H144.4z M144.4,44.5h-22.2V22.2h22.2V44.5z"/>
</g>
</svg>
