<?xml version="1.0" encoding="utf-8"?>
<!-- Generated by IcoMoon.io -->
<!DOCTYPE svg PUBLIC "-//W3C//DTD SVG 1.1//EN" "http://www.w3.org/Graphics/SVG/1.1/DTD/svg11.dtd">
<svg version="1.1" xmlns="http://www.w3.org/2000/svg" xmlns:xlink="http://www.w3.org/1999/xlink" width="32" height="32" viewBox="0 0 32 32">
<path d="M23.024 8.896c-0.592 0-1.2 0.176-1.84 0.528s-1.328 1.008-2.080 1.936c-0.816 1.008-1.392 1.808-1.76 2.416s-0.832 1.36-1.392 2.24c-0.192-0.864-0.32-1.44-0.384-1.728s-0.288-1.104-0.656-2.432c-0.32-1.152-0.752-1.92-1.296-2.32s-1.232-0.592-2.048-0.592c-0.256 0-0.768 0.128-1.488 0.368s-1.568 0.56-2.48 0.944l-0.336 1.184c0.336-0.096 0.688-0.192 1.088-0.288 0.384-0.096 0.752-0.144 1.104-0.144 0.64 0 1.152 0.144 1.552 0.416s0.768 0.896 1.072 1.84c0.24 0.768 0.496 1.648 0.752 2.672 0.272 1.008 0.512 1.952 0.736 2.8-0.64 1.152-1.344 2.192-2.080 3.104-0.752 0.912-1.344 1.584-1.792 2-0.4-0.112-0.768-0.24-1.136-0.384s-0.736-0.208-1.12-0.208c-0.752 0-1.344 0.192-1.776 0.592s-0.64 0.88-0.64 1.44c0 0.592 0.176 1.040 0.544 1.376 0.368 0.32 0.832 0.496 1.392 0.496 0.64 0 1.248-0.192 1.856-0.56s1.28-0.992 2-1.888c0.832-1.008 1.44-1.808 1.792-2.384s0.816-1.28 1.36-2.112c0.144 0.592 0.288 1.168 0.432 1.76s0.336 1.328 0.576 2.192c0.336 1.2 0.768 1.984 1.312 2.368s1.232 0.576 2.064 0.576c0.672 0 1.296-0.080 1.872-0.224s1.44-0.464 2.592-0.944l0.32-1.184c-0.272 0.096-0.656 0.192-1.168 0.272-0.496 0.080-0.896 0.128-1.184 0.128-0.784 0-1.424-0.224-1.904-0.656s-0.832-1.024-1.072-1.744c-0.256-0.816-0.512-1.616-0.736-2.432-0.224-0.8-0.48-1.776-0.768-2.912 0.64-1.12 1.296-2.144 2.016-3.088 0.704-0.928 1.328-1.632 1.872-2.112 0.256 0.080 0.624 0.192 1.072 0.32s0.864 0.192 1.216 0.192c0.592 0 1.12-0.16 1.616-0.496s0.752-0.832 0.768-1.536c0.016-0.544-0.16-0.976-0.528-1.312-0.336-0.32-0.784-0.48-1.312-0.48z" fill="#000000"></path>
<path d="M1.776 1.776h26.672v1.776h-26.672v-1.776z" fill="#000000"></path>
</svg>
