<?xml version="1.0" encoding="utf-8"?>
<!-- Generator: Adobe Illustrator 18.1.1, SVG Export Plug-In . SVG Version: 6.00 Build 0)  -->
<!DOCTYPE svg PUBLIC "-//W3C//DTD SVG 1.1//EN" "http://www.w3.org/Graphics/SVG/1.1/DTD/svg11.dtd">
<svg version="1.1" id="Layer_1" xmlns="http://www.w3.org/2000/svg" xmlns:xlink="http://www.w3.org/1999/xlink" x="0px" y="0px"
	 viewBox="0 0 200 200" enable-background="new 0 0 200 200" xml:space="preserve">
<path fill-rule="evenodd" clip-rule="evenodd" d="M155.6,188.9l-0.1-13.1v-7.4v-12.1v-12.1v-12.1V120v-12.1V95.8V83.7V71.6V59.5
	V47.4v-11V24.3V23V11.1h-10.8h0h-14.6h-10.8h-10.8H98H87.2H76.4H65.7H54.9H44.2H33.4v13.2v12.1v11v12.1v12.1v12.1v12.1v12.1V120
	v12.1v12.1v12.1v12.1v7.1l-0.1,13.1l59.4-56.9L155.6,188.9z M45.2,144.2v-12.1V120v-12.1V95.8V83.7V71.6V59.5V47.4v-11V24.3V23h9.7
	h10.8h10.8h10.8H98h10.8h10.8h9.7h14.6h0v1.3v12.1v11v12.1v12.1v12.1v12.1v12.1V120v12.1v12.1v12.1v8.7l-51.1-48.7l-47.3,48.4v-8.4
	V144.2z"/>
</svg>
