<?xml version="1.0" encoding="utf-8"?>
<!-- Generated by IcoMoon.io -->
<!DOCTYPE svg PUBLIC "-//W3C//DTD SVG 1.1//EN" "http://www.w3.org/Graphics/SVG/1.1/DTD/svg11.dtd">
<svg version="1.1" xmlns="http://www.w3.org/2000/svg" xmlns:xlink="http://www.w3.org/1999/xlink" width="32" height="32" viewBox="0 0 32 32">
<path d="M28.032 1.776h-24.064c-1.2 0-2.192 0.976-2.192 2.192v16.96c0 1.184 0.944 2.144 2.112 2.192 0.016 0 0.048 0 0.064 0h13.28l6.784 6.96c0.096 0.096 0.224 0.144 0.352 0.144 0.064 0 0.128-0.016 0.192-0.032 0.192-0.080 0.304-0.256 0.304-0.464v-6.608h3.152c0.032 0 0.048 0 0.064 0 1.168-0.032 2.112-0.992 2.112-2.192v-16.96c0.016-1.216-0.96-2.192-2.16-2.192zM28.448 20.464c0 0.656-0.016 0.848-0.432 0.88s-3.68 0-3.904 0-1.008 0.368-1.008 0.912v5.12l-3.552-4.352c-0.096-0.096-1.216-1.68-2.112-1.68h-12.784c-0.016 0-0.816 0-0.832 0-0.24-0.048-0.272-0.384-0.272-0.624v-16.528c0-0.656 0.384-0.64 0.752-0.64h22.992c0.928 0 1.12 0.128 1.136 0.784v16.128z" fill="#000000"></path>
<path d="M8.88 12.448h14.224v-1.744h-14.224v1.744zM8.88 16h14.224v-1.744h-14.224v1.744zM8.88 7.136v1.744h14.224v-1.744h-14.224z" fill="#000000"></path>
</svg>
