<?xml version="1.0" encoding="utf-8"?>
<!-- Generated by IcoMoon.io -->
<!DOCTYPE svg PUBLIC "-//W3C//DTD SVG 1.1//EN" "http://www.w3.org/Graphics/SVG/1.1/DTD/svg11.dtd">
<svg version="1.1" xmlns="http://www.w3.org/2000/svg" xmlns:xlink="http://www.w3.org/1999/xlink" width="32" height="32" viewBox="0 0 32 32">
<path d="M30.224 6.72c0-0.048 0-0.080 0-0.128v-0.48h0.016c-0.368-1.232-1.936-2.288-4.448-3.072-2.592-0.816-6.032-1.264-9.68-1.264s-7.088 0.448-9.68 1.264c-2.512 0.784-4.256 1.84-4.624 3.648v19.344l0.016 0.048 0.144 0.032c1.104 2.704 7.84 4.128 14.144 4.128 6.288 0 13.008-1.408 14.128-4.096v0.544-19.904c-0.016-0.032-0.016-0.048-0.016-0.064 0 0 0 0 0 0s0 0 0 0v0zM6.848 4.48c2.464-0.768 5.728-1.184 9.232-1.184 7.712 0 12.448 2.032 12.448 3.424 0 0 0 0 0 0 0 0.016 0 0.048 0 0.064v0.048c-0.096 0.544-0.864 1.392-3.2 2.128-2.464 0.768-5.728 1.184-9.232 1.184-7.712 0-12.624-2.032-12.624-3.424-0.016-0.544 0.88-1.456 3.376-2.24zM28.528 25.36c-0.064 0.544-0.864 1.456-3.376 2.224-2.432 0.736-5.648 1.136-9.056 1.136-7.552 0-12.448-1.952-12.624-3.36v-4c0.752 0.48 1.744 0.912 2.944 1.296 2.592 0.816 6.032 1.264 9.68 1.264s7.088-0.448 9.68-1.264c1.136-0.352 2.048-0.768 2.768-1.216v3.888l-0.016 0.032zM25.328 21.216c-2.464 0.768-5.728 1.184-9.232 1.184-7.712 0-12.624-2.032-12.624-3.424v-3.76c0.752 0.48 1.744 0.912 2.944 1.296 2.592 0.816 6.032 1.264 9.68 1.264s7.088-0.448 9.68-1.264c1.136-0.352 2.048-0.768 2.768-1.216v3.68c-0.016 0.544-0.72 1.456-3.216 2.24zM25.328 15.072c-2.464 0.768-5.728 1.184-9.232 1.184-7.712 0-12.624-2.032-12.624-3.424v-3.728c0.752 0.48 1.744 0.912 2.944 1.296 2.592 0.816 6.032 1.264 9.68 1.264s7.088-0.448 9.68-1.264c1.136-0.352 2.048-0.768 2.768-1.216v3.664c-0.016 0.528-0.72 1.44-3.216 2.224z" fill="#000000"></path>
</svg>
