<?xml version="1.0" encoding="utf-8"?>
<!-- Generated by IcoMoon.io -->
<!DOCTYPE svg PUBLIC "-//W3C//DTD SVG 1.1//EN" "http://www.w3.org/Graphics/SVG/1.1/DTD/svg11.dtd">
<svg version="1.1" xmlns="http://www.w3.org/2000/svg" xmlns:xlink="http://www.w3.org/1999/xlink" width="32" height="32" viewBox="0 0 32 32">
<path d="M9.184 30.224c-0.976 0-1.904-0.464-2.496-1.264-0.72-0.032-1.28-0.64-1.28-1.376 0-0.224 0.048-0.432 0.144-0.624-0.096-0.192-0.144-0.4-0.144-0.624s0.048-0.448 0.144-0.624c-0.096-0.192-0.144-0.4-0.144-0.624 0-0.752 0.608-1.376 1.36-1.376h4.832c0.752 0 1.36 0.608 1.36 1.376 0 0.224-0.048 0.432-0.144 0.624 0.096 0.192 0.144 0.4 0.144 0.624s-0.048 0.432-0.144 0.624c0.096 0.192 0.144 0.4 0.144 0.624 0 0.736-0.576 1.328-1.28 1.376-0.592 0.784-1.52 1.264-2.496 1.264zM6.768 25.184v2.288h4.72l0.112-1.264v-1.040h-4.832zM11.6 23.008h-4.816c-0.368 0-1.264-0.144-1.568-1.44l-0.096-0.976c0-1.664-0.848-4.224-2.368-7.28l-0.064-0.128c-0.496-0.928-0.784-1.936-0.88-2.992l-0.032-0.672c0-2.080 0.768-4.016 2.16-5.472 1.904-1.984 4.768-2.752 7.344-1.952 1.184 0.368 2.272 1.040 3.152 1.968 1.392 1.456 2.16 3.376 2.16 5.44l-0.032 0.672c-0.096 1.072-0.384 2.080-0.848 3.008-0.688 1.28-2.448 5.056-2.448 7.344l-0.096 0.944c-0.32 1.408-1.2 1.536-1.568 1.536zM11.6 21.536v0c0 0 0.064-0.080 0.128-0.304l0.064-0.768c0-3.072 2.592-7.92 2.624-7.968 0.384-0.752 0.608-1.568 0.688-2.432l0.032-0.608c0-1.648-0.624-3.216-1.744-4.384-0.704-0.736-1.568-1.28-2.512-1.568-2.080-0.624-4.352-0.016-5.872 1.568-1.12 1.184-1.744 2.752-1.744 4.416l0.032 0.608c0.080 0.832 0.32 1.648 0.704 2.4l0.064 0.128c1.2 2.416 2.528 5.6 2.528 7.904l0.080 0.8c0.048 0.144 0.112 0.208 0.112 0.208h4.816z" fill="#000000"></path>
</svg>
