<?xml version="1.0" encoding="utf-8"?>
<!-- Generator: Adobe Illustrator 18.1.1, SVG Export Plug-In . SVG Version: 6.00 Build 0)  -->
<!DOCTYPE svg PUBLIC "-//W3C//DTD SVG 1.1//EN" "http://www.w3.org/Graphics/SVG/1.1/DTD/svg11.dtd">
<svg version="1.1" id="Layer_1" xmlns="http://www.w3.org/2000/svg" xmlns:xlink="http://www.w3.org/1999/xlink" x="0px" y="0px"
	 viewBox="0 0 200 200" enable-background="new 0 0 200 200" xml:space="preserve">
<g>
	<path fill-rule="evenodd" clip-rule="evenodd" d="M55.5,77.7h22.2v22.2H55.5V77.7z"/>
	<path fill-rule="evenodd" clip-rule="evenodd" d="M55.5,111h22.2v22.2H55.5V111z"/>
	<path fill-rule="evenodd" clip-rule="evenodd" d="M55.5,144.4h22.2v22.2H55.5V144.4z"/>
	<path fill-rule="evenodd" clip-rule="evenodd" d="M88.9,77.7h22.2v22.2H88.9V77.7z"/>
	<path fill-rule="evenodd" clip-rule="evenodd" d="M88.9,111h22.2v22.2H88.9V111z"/>
	<path fill-rule="evenodd" clip-rule="evenodd" d="M88.9,144.4h22.2v22.2H88.9V144.4z"/>
	<path fill-rule="evenodd" clip-rule="evenodd" d="M122.2,77.7h22.2v22.2h-22.2V77.7z"/>
	<path fill-rule="evenodd" clip-rule="evenodd" d="M122.2,111h22.2v22.2h-22.2V111z"/>
	<path fill-rule="evenodd" clip-rule="evenodd" d="M122.2,144.4h22.2v22.2h-22.2V144.4z"/>
	<path d="M166.6,188.8H33.3V22.2h133.3V188.8z M44.4,177.7h111.1V33.3H44.4V177.7z"/>
	<path fill-rule="evenodd" clip-rule="evenodd" d="M55.5,44.4h88.9v22.2H55.5V44.4z"/>
</g>
</svg>
