<?xml version="1.0" encoding="utf-8"?>
<!-- Generator: Adobe Illustrator 18.1.1, SVG Export Plug-In . SVG Version: 6.00 Build 0)  -->
<!DOCTYPE svg PUBLIC "-//W3C//DTD SVG 1.1//EN" "http://www.w3.org/Graphics/SVG/1.1/DTD/svg11.dtd">
<svg version="1.1" id="Layer_1" xmlns="http://www.w3.org/2000/svg" xmlns:xlink="http://www.w3.org/1999/xlink" x="0px" y="0px"
	 viewBox="0 0 200 200" enable-background="new 0 0 200 200" xml:space="preserve">
<path d="M155.5,22.2h-22.2V11.1c-0.6,0-11.1,0-11.1,0v11.1H67.5V11.1H55.6v11.1H31.9c-7.9,0.1-9.7,3.6-9.7,11.1v30.7V105v41v39.5
	c0,1.9,1.6,3.5,1.2,3.5h43.2h45.4H155h8c2,0,3.6-1.6,3.6-3.5V146v-41V64.1V33.4C166.6,25.8,163.6,22.3,155.5,22.2z M55.6,177.8H33.3
	l-0.2-22.2h22.4V177.8z M55.6,144.5H33.3v-22.2h22.2V144.5z M55.6,111.1H33.3V88.9h22.2V111.1z M88.9,177.8h-22l-0.2-22.2h22.2
	V177.8z M88.9,144.5h-22v-22.2h22V144.5z M88.9,111.1h-22V88.9h22V111.1z M122.2,177.8h-22l-0.2-22.2h22.2V177.8z M122.2,144.5h-22
	v-22.2h22V144.5z M122.2,111.1h-22V88.9h22V111.1z M155.5,177.8h-22l-0.2-22.2h22.2V177.8z M155.5,144.5h-22v-22.2h22V144.5z
	 M155.5,111.1h-22V88.9h22V111.1z M155.5,77.8H33.3V33.3h22.2v11.1h11.9V33.3h54.7v11.1c0.7,0,11.1,0,11.1,0V33.3h22.2V77.8z"/>
</svg>
