<?xml version="1.0" encoding="utf-8"?>
<!-- Generated by IcoMoon.io -->
<!DOCTYPE svg PUBLIC "-//W3C//DTD SVG 1.1//EN" "http://www.w3.org/Graphics/SVG/1.1/DTD/svg11.dtd">
<svg version="1.1" xmlns="http://www.w3.org/2000/svg" xmlns:xlink="http://www.w3.org/1999/xlink" width="32" height="32" viewBox="0 0 32 32">
<path d="M30.224 3.552v-1.776h-28.448v1.776h3.792l-3.776 15.776c0 2.72 2.208 4.912 4.912 4.912 2.72 0 4.912-2.192 4.912-4.912h0.016l-4.048-15.776h6.64v24.912h-5.344v1.76h12.448v-1.76h-5.328v-24.912h7.952l-3.904 15.776c0 2.72 2.208 4.912 4.912 4.912 2.72 0 4.912-2.208 4.912-4.912v0l-3.936-15.776h4.288zM3.632 19.552l2.944-13.568 3.216 13.568h-6.16zM28.016 19.552h-6l2.928-13.504 3.072 13.504z" fill="#000000"></path>
</svg>
