<?xml version="1.0" encoding="utf-8"?>
<!-- Generator: Adobe Illustrator 19.2.1, SVG Export Plug-In . SVG Version: 6.00 Build 0)  -->
<svg version="1.1" id="Layer_1" xmlns="http://www.w3.org/2000/svg" xmlns:xlink="http://www.w3.org/1999/xlink" x="0px" y="0px"
	 viewBox="0 0 22 22" style="enable-background:new 0 0 22 22;" xml:space="preserve">
<path d="M13.7,3.6c0.9,0,1.7,0.7,1.7,1.7v0.3v0.7h0.7h3.6c0.9,0,1.6,0.7,1.6,1.6v9.2c0,0.9-0.7,1.6-1.6,1.6h-6H8.2H2.5
	c-0.9,0-1.6-0.7-1.6-1.6V7.9c0-0.9,0.7-1.6,1.6-1.6h3.3h0.7V5.5V5.2c0-0.9,0.7-1.7,1.7-1.7L13.7,3.6 M10.9,16.8c2.5,0,4.5-2,4.5-4.5
	s-2-4.5-4.5-4.5c-2.5,0-4.5,2-4.5,4.5S8.5,16.8,10.9,16.8 M13.7,2.8H8.2c-1.3,0-2.4,1.1-2.4,2.4v0.3H2.5c-1.3,0-2.3,1.1-2.3,2.3v9.2
	c0,1.3,1.1,2.3,2.3,2.3h5.7h5.5h6c1.3,0,2.3-1.1,2.3-2.3V7.9c0-1.3-1.1-2.3-2.3-2.3h-3.6V5.2C16.1,3.9,15,2.8,13.7,2.8L13.7,2.8z
	 M10.9,16.1c-2.1,0-3.8-1.7-3.8-3.8c0-2.1,1.7-3.8,3.8-3.8c2.1,0,3.8,1.7,3.8,3.8C14.7,14.4,13,16.1,10.9,16.1L10.9,16.1z"/>
</svg>
