<?xml version="1.0" encoding="utf-8"?>
<!-- Generator: Adobe Illustrator 18.1.1, SVG Export Plug-In . SVG Version: 6.00 Build 0)  -->
<!DOCTYPE svg PUBLIC "-//W3C//DTD SVG 1.1//EN" "http://www.w3.org/Graphics/SVG/1.1/DTD/svg11.dtd">
<svg version="1.1" id="Layer_1" xmlns="http://www.w3.org/2000/svg" xmlns:xlink="http://www.w3.org/1999/xlink" x="0px" y="0px"
	 viewBox="0 0 200 200" enable-background="new 0 0 200 200" xml:space="preserve">
<g>
	<path d="M120.4,28.9c-30,0-55.6,19.4-64.8,46.4V11.1H11.1v11.1h33.3v66.7H11.1V100h33.3v77.8H11.1v11.1h44.4v-69.3
		c9.2,26.9,34.8,46.4,64.8,46.4c37.8,0,68.5-30.7,68.5-68.5C188.9,59.6,158.1,28.9,120.4,28.9z M120.4,155.8
		c-32.2,0-58.4-26.2-58.4-58.4C62,65.2,88.2,39,120.4,39c32.2,0,58.4,26.2,58.4,58.4C178.7,129.6,152.5,155.8,120.4,155.8z"/>
	<path d="M121.2,60.3c-5.8,0-12,1.7-15.6,4.4l2.6,6.9c2.7-2.1,7.1-3.4,11-3.4c6.9,0.1,10.4,3.8,10.4,9.4c0,4.9-2.7,9.2-7.7,15
		c-5.5,6.6-7.4,13-6.8,18.9l0.2,2.8h8.5l-0.1-2.8c-0.3-5.6,1.4-10.4,6.2-16.1c5.2-6.2,9.4-11.6,9.4-19
		C139.4,68,133.8,60.3,121.2,60.3z"/>
	<path d="M119.6,122.7c-3.8,0-6.6,2.8-6.6,6.9c0,3.8,2.6,6.8,6.4,6.8c4,0,6.6-3,6.6-6.8C126,125.5,123.4,122.7,119.6,122.7z"/>
</g>
</svg>
