<?xml version="1.0" encoding="utf-8"?>
<!-- Generator: Adobe Illustrator 18.1.1, SVG Export Plug-In . SVG Version: 6.00 Build 0)  -->
<!DOCTYPE svg PUBLIC "-//W3C//DTD SVG 1.1//EN" "http://www.w3.org/Graphics/SVG/1.1/DTD/svg11.dtd">
<svg version="1.1" id="Layer_1" xmlns="http://www.w3.org/2000/svg" xmlns:xlink="http://www.w3.org/1999/xlink" x="0px" y="0px"
	 viewBox="0 0 200 200" enable-background="new 0 0 200 200" xml:space="preserve">
<g>
	<path d="M122.9,127.1c20.8,0,37.7-15.8,37.7-35.3c0-19.5-16.9-35.3-37.7-35.3c-20.8,0-37.7,15.8-37.7,35.3
		C85.3,111.3,102.1,127.1,122.9,127.1z M122.9,65.3c15.6,0,28.3,11.9,28.3,26.5c0,14.6-12.7,26.5-28.3,26.5
		c-15.6,0-28.3-11.9-28.3-26.5C94.7,77.1,107.3,65.3,122.9,65.3z"/>
	<path d="M127.7,127.1c-33.8,0-61.2,27.7-61.2,61.8c3.3,0,6.4,0,9.4,0c0-28.9,23.2-52.3,51.8-52.3c28.6,0,51.8,23.4,51.8,52.3
		c3,0,6.1,0,9.4,0C188.9,154.8,161.5,127.1,127.7,127.1z"/>
	<path d="M81.2,92.6c-5.6-3.4-11-5.8-15.4-7.4c14.7-5.3,25.3-19.4,25.3-35.9c0-21.1-17.1-38.2-38.2-38.2S14.7,28.2,14.7,49.3
		c0,16.8,11,31.2,26.1,36.2c-8.5,3.1-20.3,9-29.7,19.6l6.7,6c12.8-14.3,32.5-18.9,36.9-19.8c2.8,0.6,12.2,2.9,21.9,8.9L81.2,92.6z
		 M54.3,88l-0.2-0.5c0.1,0,0.2,0,0.3,0L54.3,88z M52.9,78.5c-16.1,0-29.2-13.1-29.2-29.2c0-16.1,13.1-29.2,29.2-29.2
		c16.1,0,29.2,13.1,29.2,29.2C82.1,65.4,69,78.5,52.9,78.5z"/>
</g>
</svg>
