<?xml version="1.0" encoding="utf-8"?>
<!-- Generated by IcoMoon.io -->
<!DOCTYPE svg PUBLIC "-//W3C//DTD SVG 1.1//EN" "http://www.w3.org/Graphics/SVG/1.1/DTD/svg11.dtd">
<svg version="1.1" xmlns="http://www.w3.org/2000/svg" xmlns:xlink="http://www.w3.org/1999/xlink" width="32" height="32" viewBox="0 0 32 32">
<path d="M13.92 16.944c4.464 0 8.096-3.392 8.096-7.584s-3.616-7.584-8.096-7.584-8.096 3.408-8.096 7.584c0 4.192 3.616 7.584 8.096 7.584zM13.92 3.68c3.344 0 6.064 2.544 6.064 5.68s-2.72 5.696-6.064 5.696-6.080-2.544-6.080-5.696c0-3.136 2.72-5.68 6.080-5.68z" fill="#000000"></path>
<path d="M1.776 30.224c0.704 0 1.376 0 2.016 0 0-6.208 4.976-11.232 11.12-11.232v-2.048c-7.248 0-13.136 5.952-13.136 13.28z" fill="#000000"></path>
<path d="M28.448 17.776l-4.576 1.552-4.304-1.552h-1.776v12.448h1.776l4.624-1.536 4.272 1.536h1.776v-12.448h-1.792zM19.552 19.584l3.552 1.104v6.672l-3.552 1.072v-8.848zM24.88 27.216v-6.544l3.552-1.136v8.912l-3.552-1.232z" fill="#000000"></path>
</svg>
