<?xml version="1.0" encoding="utf-8"?>
<!-- Generated by IcoMoon.io -->
<!DOCTYPE svg PUBLIC "-//W3C//DTD SVG 1.1//EN" "http://www.w3.org/Graphics/SVG/1.1/DTD/svg11.dtd">
<svg version="1.1" xmlns="http://www.w3.org/2000/svg" xmlns:xlink="http://www.w3.org/1999/xlink" width="32" height="32" viewBox="0 0 32 32">
<path d="M13.92 16.944c4.464 0 8.096-3.392 8.096-7.584s-3.616-7.584-8.096-7.584-8.096 3.408-8.096 7.584c0 4.192 3.616 7.584 8.096 7.584zM13.92 3.68c3.344 0 6.064 2.544 6.064 5.68s-2.72 5.696-6.064 5.696-6.080-2.544-6.080-5.696c0-3.136 2.72-5.68 6.080-5.68z" fill="#000000"></path>
<path d="M14.928 16.944c-7.264 0-13.152 5.936-13.152 13.28 0.704 0 1.376 0 2.016 0 0-6.208 4.976-11.232 11.12-11.232v-2.048z" fill="#000000"></path>
<path d="M23.728 16.24v1.312c0 0.496 0.304 0.928 0.784 1.088 0.416 0.144 0.832 0.384 1.232 0.72 0.208 0.176 0.48 0.272 0.752 0.272 0.192 0 0.4-0.048 0.576-0.16l1.040-0.608 0.768 1.328-1.056 0.592c-0.4 0.224-0.64 0.672-0.576 1.136 0.016 0.176 0.032 0.368 0.048 0.576v0.128c0 0.256-0.016 0.496-0.064 0.752-0.080 0.48 0.144 0.96 0.56 1.2l1.088 0.64-0.752 1.312-1.136-0.656c-0.176-0.096-0.384-0.16-0.576-0.16-0.24 0-0.496 0.080-0.688 0.224l-0.064 0.048-0.368 0.272c-0.272 0.16-0.544 0.288-0.8 0.384-0.448 0.176-0.752 0.608-0.752 1.088v1.312h-1.456v-1.296c0-0.48-0.304-0.912-0.752-1.088-0.464-0.176-0.864-0.416-1.264-0.736-0.208-0.176-0.48-0.272-0.736-0.272-0.192 0-0.4 0.048-0.576 0.16l-1.056 0.608-0.752-1.312 1.072-0.624c0.416-0.24 0.64-0.72 0.56-1.2-0.032-0.16-0.032-0.336-0.048-0.512v-0.128c0-0.256 0.016-0.496 0.064-0.752 0.080-0.48-0.144-0.96-0.56-1.2l-1.088-0.624 0.768-1.312 1.12 0.64c0.176 0.096 0.384 0.16 0.576 0.16 0.24 0 0.496-0.080 0.688-0.24 0.144-0.112 0.288-0.208 0.416-0.304 0.256-0.176 0.544-0.304 0.816-0.416 0.448-0.176 0.752-0.608 0.752-1.088v-1.312h1.44zM24.16 15.072h-2.336c-0.48 0-0.72 0.24-0.72 0.72v1.76c-0.352 0.128-0.704 0.304-1.040 0.512-0.16 0.112-0.32 0.224-0.48 0.352l-1.504-0.864c-0.144-0.080-0.288-0.128-0.416-0.128-0.224 0-0.416 0.128-0.56 0.4l-1.216 2.080c-0.112 0.224-0.16 0.416-0.096 0.592 0.048 0.144 0.16 0.288 0.368 0.4l1.456 0.832c-0.048 0.304-0.080 0.608-0.080 0.944 0 0.048 0 0.112 0 0.16 0.016 0.224 0.032 0.448 0.064 0.672l-1.456 0.832c-0.384 0.224-0.496 0.512-0.304 0.912 0.016 0.016 0.032 0.048 0.032 0.080l1.2 2.080c0.144 0.256 0.336 0.384 0.56 0.384 0.128 0 0.272-0.048 0.432-0.128l1.424-0.816c0.496 0.416 1.024 0.72 1.6 0.928v1.728c0 0.48 0.24 0.72 0.72 0.72h2.352c0.48 0 0.72-0.24 0.72-0.72v-1.76c0.352-0.128 0.704-0.304 1.040-0.512 0.16-0.112 0.32-0.24 0.48-0.352l1.504 0.864c0.16 0.096 0.288 0.128 0.416 0.128 0.224 0 0.4-0.128 0.56-0.384l1.2-2.080c0.032-0.064 0.064-0.112 0.080-0.176 0.048-0.16 0.064-0.304 0.032-0.432-0.048-0.144-0.176-0.272-0.368-0.384l-1.456-0.848c0.048-0.304 0.080-0.608 0.080-0.944 0-0.048 0-0.112 0-0.16-0.016-0.224-0.032-0.448-0.048-0.672l1.456-0.832c0.416-0.256 0.496-0.576 0.256-0.992l-1.2-2.080c-0.144-0.272-0.336-0.4-0.56-0.4-0.128 0-0.272 0.048-0.416 0.144l-1.424 0.832c-0.496-0.416-1.024-0.736-1.6-0.928v-1.744c-0.032-0.48-0.272-0.72-0.752-0.72v0z" fill="#000000"></path>
<path d="M23.024 21.248c0.384 0 0.672 0.128 0.944 0.4s0.4 0.592 0.4 0.96c0 0.384-0.128 0.672-0.4 0.944-0.288 0.288-0.576 0.4-0.944 0.4-0.384 0-0.672-0.128-0.96-0.4-0.272-0.272-0.4-0.56-0.4-0.944s0.128-0.704 0.384-0.96c0.304-0.272 0.592-0.4 0.976-0.4zM23.024 20.096c-0.688 0-1.28 0.24-1.776 0.736s-0.736 1.088-0.736 1.776c0 0.688 0.24 1.28 0.736 1.776s1.072 0.752 1.776 0.752c0.688 0 1.28-0.256 1.776-0.752s0.752-1.072 0.752-1.776c0-0.688-0.256-1.296-0.752-1.776-0.496-0.496-1.072-0.736-1.776-0.736v0z" fill="#000000"></path>
</svg>
