<?xml version="1.0" encoding="utf-8"?>
<!-- Generator: Adobe Illustrator 19.1.0, SVG Export Plug-In . SVG Version: 6.00 Build 0)  -->
<!DOCTYPE svg PUBLIC "-//W3C//DTD SVG 1.1//EN" "http://www.w3.org/Graphics/SVG/1.1/DTD/svg11.dtd">
<svg version="1.1" id="Layer_1" xmlns="http://www.w3.org/2000/svg" xmlns:xlink="http://www.w3.org/1999/xlink" x="0px" y="0px"
	 viewBox="-463 265.3 16 16" style="enable-background:new -463 265.3 16 16;" xml:space="preserve">
<path d="M-456.3,272.4h-6.2v-6.2h6.2V272.4z M-461.5,271.4h4.2v-4.2h-4.2V271.4z"/>
<path d="M-450.7,280.6c-1.7,0-3.1-1.4-3.1-3.1s1.4-3.1,3.1-3.1c1.7,0,3.1,1.4,3.1,3.1S-449,280.6-450.7,280.6z M-450.7,275.4
	c-1.1,0-2.1,0.9-2.1,2.1s0.9,2.1,2.1,2.1c1.1,0,2.1-0.9,2.1-2.1S-449.6,275.4-450.7,275.4z"/>
<rect x="-454" y="268" width="5" height="1"/>
<rect x="-450" y="269" width="1" height="5"/>
<g>
	<polygon points="-454,269.3 -454.9,268.5 -454,267.7 	"/>
	<polygon points="-454,270.4 -456.1,268.5 -454,266.6 	"/>
</g>
<g>
	<polygon points="-455.9,279.3 -455,278.5 -455.9,277.7 	"/>
	<polygon points="-456,280.4 -456,276.6 -453.9,278.5 	"/>
</g>
<rect x="-461" y="278" width="5" height="1"/>
<rect x="-461" y="273" width="1" height="5"/>
</svg>
