<?xml version="1.0" encoding="utf-8"?>
<!-- Generated by IcoMoon.io -->
<!DOCTYPE svg PUBLIC "-//W3C//DTD SVG 1.1//EN" "http://www.w3.org/Graphics/SVG/1.1/DTD/svg11.dtd">
<svg version="1.1" xmlns="http://www.w3.org/2000/svg" xmlns:xlink="http://www.w3.org/1999/xlink" width="32" height="32" viewBox="0 0 32 32">
<path d="M17.568 16.096l12.32-12.32c0.528-0.528 0.608-1.28 0.208-1.68s-1.168-0.32-1.68 0.208l-12.32 12.32-12.368-12.384c-0.528-0.528-1.28-0.608-1.68-0.208-0.416 0.416-0.32 1.168 0.208 1.68l12.368 12.368-12.24 12.24c-0.528 0.528-0.608 1.28-0.208 1.68s1.168 0.32 1.68-0.208l12.24-12.24 12.288 12.288c0.528 0.528 1.28 0.608 1.68 0.208 0.416-0.416 0.32-1.168-0.208-1.68l-12.288-12.272z" fill="#000000"></path>
</svg>
