<?xml version="1.0" encoding="utf-8"?>
<!-- Generator: Adobe Illustrator 18.1.1, SVG Export Plug-In . SVG Version: 6.00 Build 0)  -->
<!DOCTYPE svg PUBLIC "-//W3C//DTD SVG 1.1//EN" "http://www.w3.org/Graphics/SVG/1.1/DTD/svg11.dtd">
<svg version="1.1" id="Layer_1" xmlns="http://www.w3.org/2000/svg" xmlns:xlink="http://www.w3.org/1999/xlink" x="0px" y="0px"
	 viewBox="0 0 200 200" enable-background="new 0 0 200 200" xml:space="preserve">
<path fill-rule="evenodd" clip-rule="evenodd" d="M105.3,100.1l43.5-43.5c1.8-1.8,2.2-4.5,0.7-5.9c-1.4-1.4-4.1-1.1-5.9,0.7
	l-43.5,43.5L56.4,51.3c-1.8-1.8-4.5-2.2-6-0.7c-1.4,1.4-1.1,4.1,0.7,6l43.7,43.7l-43.2,43.2c-1.8,1.8-2.2,4.5-0.7,5.9
	c1.4,1.4,4.1,1.1,5.9-0.7l43.2-43.2l43.4,43.4c1.8,1.8,4.5,2.2,6,0.7c1.4-1.4,1.1-4.1-0.7-6L105.3,100.1z"/>
</svg>
