<?xml version="1.0" encoding="utf-8"?>
<!-- Generator: Adobe Illustrator 18.1.1, SVG Export Plug-In . SVG Version: 6.00 Build 0)  -->
<!DOCTYPE svg PUBLIC "-//W3C//DTD SVG 1.1//EN" "http://www.w3.org/Graphics/SVG/1.1/DTD/svg11.dtd">
<svg version="1.1" id="Layer_1" xmlns="http://www.w3.org/2000/svg" xmlns:xlink="http://www.w3.org/1999/xlink" x="0px" y="0px"
	 viewBox="0 0 200 200" enable-background="new 0 0 200 200" xml:space="preserve">
<g>
	<path d="M89.5,162.5c-13.9,0-27.7,0-41.6,0c-19.2,0-34.8-12.7-38.9-31.5c-2.2-10.4,0.1-21.5,6.4-30.4c6-8.5,15-14.3,25-16
		C39.6,63.2,49.5,48,69,40.6c5.5-2.1,10.9-3.1,16.1-3.1c11.6,0,22.1,4.9,31.5,14.7c11.4-6.2,23.3-6.1,34.1,0.6
		c12.5,7.6,18,19.3,16.2,34c6.3,2.5,11.5,6.3,15.5,11.3c9.7,12,11.9,25.6,6.4,39.5c-5.5,14-16.5,22.5-31.8,24.6
		c-1.9,0.3-3.9,0.4-6.2,0.4l-3.2,0C128.3,162.5,108.9,162.5,89.5,162.5z M85.1,48.5c-3.9,0-8,0.8-12.2,2.4
		c-16.4,6.2-23.3,18.6-21.2,37.8l0.6,5.3l-6.4,0.9c-0.9,0.1-1.7,0.2-2.5,0.4c-7.5,1-14.4,5.2-18.9,11.7c-4.5,6.4-6.2,14.4-4.6,21.8
		c2.9,13.6,14.2,22.8,28.1,22.8c33.3,0,66.5,0,99.8,0l3.2,0c1.8,0,3.3-0.1,4.7-0.3c11.4-1.6,19-7.4,23.1-17.8
		c4-10.2,2.5-19.6-4.8-28.5c-3.5-4.4-8.3-7.4-14.6-9.2l-5-1.4l1.1-5.1c2.7-12.3-0.7-21.2-10.4-27.1c-3.8-2.3-7.7-3.5-11.6-3.5
		c-4.7,0-9.7,1.7-14.7,5.2l-4.1,2.8l-3.2-3.9C103.5,53.3,94.6,48.5,85.1,48.5z"/>
</g>
</svg>
