<?xml version="1.0" encoding="utf-8"?>
<!-- Generated by IcoMoon.io -->
<!DOCTYPE svg PUBLIC "-//W3C//DTD SVG 1.1//EN" "http://www.w3.org/Graphics/SVG/1.1/DTD/svg11.dtd">
<svg version="1.1" xmlns="http://www.w3.org/2000/svg" xmlns:xlink="http://www.w3.org/1999/xlink" width="32" height="32" viewBox="0 0 32 32">
<path d="M30.224 3.552v-1.776h-28.448v1.776h3.824l-3.824 16c0 2.752 2.224 4.976 4.976 4.976s4.976-2.224 4.976-4.976h0.016l-4.112-16h7.296v24.88h-4.256v1.776h9.952v-1.776h-3.696v-24.88h7.296l-3.952 16c0 2.752 2.224 4.976 4.976 4.976s4.976-2.224 4.976-4.976v0l-3.984-15.936 0.016-0.064h3.968zM3.632 19.552l2.976-11.952 3.248 11.952h-6.224zM28.336 19.552h-6.080l2.96-11.888 3.12 11.888z" fill="#000000"></path>
</svg>
