<?xml version="1.0" encoding="utf-8"?>
<!-- Generator: Adobe Illustrator 19.2.1, SVG Export Plug-In . SVG Version: 6.00 Build 0)  -->
<svg version="1.1" id="Layer_1" xmlns="http://www.w3.org/2000/svg" xmlns:xlink="http://www.w3.org/1999/xlink" x="0px" y="0px"
	 viewBox="0 0 16 16" style="enable-background:new 0 0 16 16;" xml:space="preserve">
<path d="M4,13.2l-1,0c0-0.4,0-0.8,0-1.2l0-1c0-0.2,0-0.5,0.1-0.7c0.2-1.1,1-1.8,2.1-1.8c1.1,0,1.8-0.4,2.3-1.2l0.8,0.5
	C7.6,8.9,6.6,9.5,5.2,9.5c-0.7,0-1,0.4-1.2,1c0,0.2,0,0.3,0,0.5l0,1C4,12.4,4,12.8,4,13.2z"/>
<path d="M11.6,13.2c0-0.4,0-0.8,0-1.2l0-1c0-0.2,0-0.3,0-0.5c-0.1-0.7-0.5-1-1.2-1C9,9.5,8,8.9,7.3,7.8l0.8-0.5
	c0.5,0.8,1.2,1.2,2.3,1.2c1.1,0,1.9,0.7,2.1,1.8c0.1,0.2,0.1,0.5,0.1,0.7l0,1c0,0.4,0,0.8,0,1.2L11.6,13.2z"/>
<rect x="7.3" y="1.4" width="1" height="6.5"/>
<path d="M3.5,15.9c-0.9,0-1.7-0.7-1.7-1.7c0-0.9,0.7-1.7,1.7-1.7c0.9,0,1.7,0.7,1.7,1.7C5.2,15.2,4.4,15.9,3.5,15.9z M3.5,13.6
	c-0.4,0-0.7,0.3-0.7,0.7c0,0.4,0.3,0.7,0.7,0.7s0.7-0.3,0.7-0.7C4.2,13.9,3.9,13.6,3.5,13.6z"/>
<path d="M12.2,15.9c-0.9,0-1.7-0.7-1.7-1.7c0-0.9,0.7-1.7,1.7-1.7c0.9,0,1.7,0.7,1.7,1.7C13.8,15.2,13.1,15.9,12.2,15.9z M12.2,13.6
	c-0.4,0-0.7,0.3-0.7,0.7c0,0.4,0.3,0.7,0.7,0.7c0.4,0,0.7-0.3,0.7-0.7C12.8,13.9,12.5,13.6,12.2,13.6z"/>
<g>
	<rect x="8.6" y="0.6" transform="matrix(0.7071 -0.7072 0.7072 0.7071 0.6545 7.288)" width="1" height="4.6"/>
	<rect x="8.6" y="0.6" transform="matrix(0.7071 -0.7072 0.7072 0.7071 0.6545 7.288)" width="1" height="4.6"/>
	<rect x="4.2" y="2.3" transform="matrix(0.7071 -0.7071 0.7071 0.7071 -7.306171e-002 5.4486)" width="4.6" height="1"/>
</g>
</svg>
