<?xml version="1.0" encoding="utf-8"?>
<!-- Generated by IcoMoon.io -->
<!DOCTYPE svg PUBLIC "-//W3C//DTD SVG 1.1//EN" "http://www.w3.org/Graphics/SVG/1.1/DTD/svg11.dtd">
<svg version="1.1" xmlns="http://www.w3.org/2000/svg" xmlns:xlink="http://www.w3.org/1999/xlink" width="32" height="32" viewBox="0 0 32 32">
<path d="M29.312 1.776h-23.216c-0.496 0-0.768 0.4-0.768 0.912 0 0.496 0.256 0.864 0.768 0.864h22.352v22.208c0 0.496 0.368 0.912 0.864 0.912s0.912-0.4 0.912-0.912v-23.072c0-0.496-0.416-0.912-0.912-0.912z" fill="#000000"></path>
<path d="M25.76 5.328h-23.216c-0.496 0-0.768 0.4-0.768 0.912v23.072c0 0.496 0.4 0.912 0.912 0.912h23.216c0.496 0 0.768-0.4 0.768-0.912v-23.072c0-0.496-0.416-0.912-0.912-0.912zM24.88 28.448h-21.328v-21.328h21.328v21.328z" fill="#000000"></path>
</svg>
