<?xml version="1.0" encoding="utf-8"?>
<!-- Generated by IcoMoon.io -->
<!DOCTYPE svg PUBLIC "-//W3C//DTD SVG 1.1//EN" "http://www.w3.org/Graphics/SVG/1.1/DTD/svg11.dtd">
<svg version="1.1" xmlns="http://www.w3.org/2000/svg" xmlns:xlink="http://www.w3.org/1999/xlink" width="32" height="32" viewBox="0 0 32 32">
<path d="M24.88 11.056v-5.712c0-1.2-0.496-1.776-1.776-1.776h-3.552v-1.792c-0.096 0-1.776 0-1.776 0v1.776h-8.752v-1.776h-1.92v1.776h-3.776c-1.264 0.016-1.552 0.576-1.552 1.776v24.352c0 0.304 0.256 0.56 0.192 0.56h19.664c1.152-0.176 2.256-0.544 3.248-1.072 3.232-1.728 5.456-5.12 5.456-9.040s-2.208-7.344-5.456-9.072zM7.104 28.448h-3.552l-0.032-3.552h3.584v3.552zM7.104 23.12h-3.552v-3.552h3.552v3.552zM7.104 17.776h-3.552v-3.552h3.552v3.552zM3.552 12.448v-7.12h3.552v1.776h1.904v-1.776h8.752v1.776c0.112 0 1.776 0 1.776 0v-1.776h3.552v4.992c-0.944-0.288-1.968-0.448-3.008-0.448-2.592 0-4.976 0.976-6.784 2.576h-9.744zM10.128 17.776h-1.216v-3.552h2.816c-0.736 1.056-1.296 2.256-1.6 3.552zM10.32 23.12h-1.408v-3.552h0.96c-0.016 0.176-0.016 0.368-0.016 0.544 0.016 1.040 0.176 2.048 0.464 3.008zM12.448 28.448h-3.52l-0.032-3.552h2.176c0.384 0.72 0.848 1.392 1.392 2v1.552zM24.88 27.28c-0.544 0.368-1.152 0.672-1.776 0.912-0.256 0.096-0.512 0.176-0.784 0.256-0.704 0.192-1.456 0.288-2.224 0.288-0.8 0-1.584-0.112-2.32-0.32-1.344-0.368-2.544-1.072-3.536-1.984-0.976-0.912-1.744-2.048-2.224-3.312-0.352-0.944-0.544-1.952-0.544-3.008 0-0.176 0-0.368 0.016-0.544 0.032-0.608 0.144-1.2 0.304-1.776s0.384-1.136 0.656-1.664c0.816-1.568 2.112-2.848 3.68-3.68 1.2-0.624 2.544-0.976 3.984-0.976 1.056 0 2.064 0.192 3.008 0.544 0.624 0.24 1.232 0.544 1.776 0.912 2.32 1.552 3.856 4.192 3.856 7.184s-1.552 5.632-3.872 7.168z" fill="#000000"></path>
<path d="M21.312 15.968h-1.728l-0.032 3.584h-3.552v1.776h3.552l0.064 3.568h1.712v-3.568l3.552-0.048v-1.712l-3.552-0.016z" fill="#000000"></path>
</svg>
