<?xml version="1.0" encoding="utf-8"?>
<!-- Generator: Adobe Illustrator 18.1.1, SVG Export Plug-In . SVG Version: 6.00 Build 0)  -->
<!DOCTYPE svg PUBLIC "-//W3C//DTD SVG 1.1//EN" "http://www.w3.org/Graphics/SVG/1.1/DTD/svg11.dtd">
<svg version="1.1" id="Layer_1" xmlns="http://www.w3.org/2000/svg" xmlns:xlink="http://www.w3.org/1999/xlink" x="0px" y="0px"
	 viewBox="0 0 200 200" enable-background="new 0 0 200 200" xml:space="preserve">
<g>
	<polygon points="155.5,44.5 155.5,11.1 144.4,11.1 144.4,44.5 111.1,44.5 111.1,55.6 144.4,55.6 144.4,88.9 155.5,88.9 155.5,55.6 
		188.9,55.6 188.9,44.5 	"/>
	<path d="M55,163.6c-3.2,0-5.9,1.1-8.1,3.4c-2.2,2.2-3.4,5-3.4,8.2c0,3.2,1.1,5.9,3.4,8.1c2.2,2.2,4.9,3.4,8.1,3.4
		c3.2,0,5.9-1.1,8.2-3.4c2.2-2.2,3.4-4.9,3.4-8.1c0-3.2-1.1-5.9-3.4-8.2C60.9,164.7,58.2,163.6,55,163.6z"/>
	<path d="M88.2,21.9c-3.9-3.5-8.6-6.2-14-8c-5.4-1.8-11.3-2.8-17.5-2.8c-12,0-22.2,3.4-30.7,10.2C17.5,28.1,12.2,37.7,9.9,50
		l15.6,1.9c1.8-8.3,5.3-15,10.7-20.1c5.4-5.1,12.3-7.7,20.7-7.7c8.8,0,15.7,2.7,20.6,8c4.9,5.4,7.4,12.3,7.4,21
		c0,5.3-0.9,9.8-2.8,13.7c-1.8,3.8-4.2,7.4-7,10.7c-2.8,3.3-5.8,6.3-9,9.2c-3.2,2.9-6.2,5.9-9,9.1c-2.8,3.2-5.1,6.8-7,10.8
		c-1.8,4-2.8,8.6-2.8,13.9v20.1H62v-15.3c0-5.6,1-10.3,2.9-14.3c1.9-3.9,4.3-7.4,7.2-10.6c2.9-3.1,6-6.1,9.4-9.1
		c3.4-2.9,6.5-6.2,9.3-9.7c2.9-3.5,5.3-7.6,7.2-12.2c1.9-4.6,2.9-10.3,2.9-17c0-6.6-1.1-12.4-3.4-17.5
		C95.2,29.7,92.1,25.4,88.2,21.9z"/>
</g>
</svg>
