<?xml version="1.0" encoding="utf-8"?>
<!-- Generator: Adobe Illustrator 18.1.1, SVG Export Plug-In . SVG Version: 6.00 Build 0)  -->
<!DOCTYPE svg PUBLIC "-//W3C//DTD SVG 1.1//EN" "http://www.w3.org/Graphics/SVG/1.1/DTD/svg11.dtd">
<svg version="1.1" id="Layer_1" xmlns="http://www.w3.org/2000/svg" xmlns:xlink="http://www.w3.org/1999/xlink" x="0px" y="0px"
	 viewBox="0 0 200 200" enable-background="new 0 0 200 200" xml:space="preserve">
<g>
	<path d="M88.9,11.1v111.1h100V11.1H88.9z M177.8,111.1H100v-89h77.8V111.1z"/>
	<rect x="111.1" y="33.3" width="55.6" height="22.2"/>
	<rect x="111.1" y="66.7" width="11.1" height="11.1"/>
	<rect x="133.3" y="66.7" width="11.1" height="11.1"/>
	<rect x="155.5" y="66.7" width="11.1" height="11.1"/>
	<rect x="111.1" y="88.9" width="11.1" height="11.1"/>
	<rect x="133.3" y="88.9" width="11.1" height="11.1"/>
	<rect x="155.5" y="88.9" width="11.1" height="11.1"/>
	<path d="M144.4,155.6v-11.1h-11.1h-11.1h-11.1v11.1v22.2H100v-33.3h0v-11.1h0H88.9H77.8H66.7v11.1v33.3H55.5V100V88.9H44.4H33.3
		H22.2V100v77.8H11.1v11.1h11.1h11.1h11.1h11.1h11.1h11.1h11.1H100h11.1h11.1h11.1h11.1h11.1v-11.1h-11.1V155.6z M44.4,177.8H33.3
		V100h11.1V177.8z M88.9,177.8H77.8v-33.3h11.1V177.8z M133.3,177.8h-11.1v-22.2h11.1V177.8z"/>
</g>
</svg>
