<?xml version="1.0" encoding="utf-8"?>
<!-- Generator: Adobe Illustrator 18.1.1, SVG Export Plug-In . SVG Version: 6.00 Build 0)  -->
<!DOCTYPE svg PUBLIC "-//W3C//DTD SVG 1.1//EN" "http://www.w3.org/Graphics/SVG/1.1/DTD/svg11.dtd">
<svg version="1.1" id="Layer_1" xmlns="http://www.w3.org/2000/svg" xmlns:xlink="http://www.w3.org/1999/xlink" x="0px" y="0px"
	 viewBox="0 0 200 200" enable-background="new 0 0 200 200" xml:space="preserve">
<path d="M183.8,35.5l-5-9l-57.4,60.8L86.9,52c0.3-1.7,0.4-3.5,0.4-5.4c0-19.6-15.9-35.5-35.5-35.5c-19.6,0-35.5,15.9-35.5,35.5
	c0,19.6,15.9,35.5,35.5,35.5c13.9,0,25.9-8,31.8-19.6l31.1,31.9l-32.8,34.8c-6.3-10-17.4-16.6-30-16.6c-19.6,0-35.5,15.9-35.5,35.5
	c0,19.6,15.9,35.5,35.5,35.5c19.6,0,35.5-15.9,35.5-35.5c0-3.1-0.4-6.2-1.2-9.1l35.4-37.6l55.9,57.3l5.1-8.8l-54.3-55.6L183.8,35.5z
	 M51.8,72c-14,0-25.4-11.4-25.4-25.4c0-14,11.4-25.4,25.4-25.4s25.4,11.4,25.4,25.4C77.1,60.6,65.7,72,51.8,72z M51.8,173.5
	c-14,0-25.4-11.4-25.4-25.4c0-14,11.4-25.4,25.4-25.4s25.4,11.4,25.4,25.4C77.1,162.1,65.7,173.5,51.8,173.5z"/>
</svg>
