<?xml version="1.0" encoding="utf-8"?>
<!-- Generator: Adobe Illustrator 18.1.1, SVG Export Plug-In . SVG Version: 6.00 Build 0)  -->
<!DOCTYPE svg PUBLIC "-//W3C//DTD SVG 1.1//EN" "http://www.w3.org/Graphics/SVG/1.1/DTD/svg11.dtd">
<svg version="1.1" id="Layer_1" xmlns="http://www.w3.org/2000/svg" xmlns:xlink="http://www.w3.org/1999/xlink" x="0px" y="0px"
	 viewBox="0 0 200 200" enable-background="new 0 0 200 200" xml:space="preserve">
<g>
	<rect x="11.1" y="22.2" width="111.1" height="11.1"/>
	<rect x="11.1" y="55.6" width="177.8" height="11.1"/>
	<rect x="11.1" y="88.9" width="77.8" height="11.1"/>
	<rect x="11.1" y="122.2" width="66.6" height="11.1"/>
	<path d="M138.9,77.9c-27.5,0-49.9,22.4-49.9,49.9c0,27.5,22.4,49.9,49.9,49.9c27.5,0,49.9-22.4,49.9-49.9
		C188.9,100.3,166.5,77.9,138.9,77.9z M138.9,167.9c-22.1,0-40-18-40-40c0-22.1,18-40,40-40s40,18,40,40
		C179,149.9,161,167.9,138.9,167.9z"/>
	<rect x="133.3" y="122.2" width="11.1" height="33.3"/>
	<rect x="133.3" y="100" width="11.1" height="11.1"/>
</g>
</svg>
