<?xml version="1.0" encoding="utf-8"?>
<!-- Generator: Adobe Illustrator 18.1.1, SVG Export Plug-In . SVG Version: 6.00 Build 0)  -->
<!DOCTYPE svg PUBLIC "-//W3C//DTD SVG 1.1//EN" "http://www.w3.org/Graphics/SVG/1.1/DTD/svg11.dtd">
<svg version="1.1" id="Layer_1" xmlns="http://www.w3.org/2000/svg" xmlns:xlink="http://www.w3.org/1999/xlink" x="0px" y="0px"
	 viewBox="0 0 200 200" enable-background="new 0 0 200 200" xml:space="preserve">
<g>
	<path d="M177.8,88.8h-11l0-21.7l-44.5-45H14.2c-1.7,0-3.1,1.4-3.1,3.2v149.2c0,1.8,1.4,3.2,3.1,3.2h150.9c1.7,0,1.7-1.4,1.7-3.2
		l0-19.1h11h11.1v-11.1V99.9V88.8H177.8z M155.7,66.4h-33.2l-0.1-33.2L155.7,66.4z M155.7,155.6l0,11H33.3H22.2V33.4h88.9l0.1,33.1
		c0,10.5,9.5,11.2,11.2,11.2h33.3l0,0h-0.1v11.1H44.4H33.3v11.1v44.4v11.1h11.1h111.2L155.7,155.6L155.7,155.6z M177.8,144.3h-11
		h-11.1h0H44.4V99.9h111.2h0.1h11h11V144.3z"/>
	<rect x="55.5" y="111" width="100" height="22.1"/>
</g>
</svg>
