<?xml version="1.0" encoding="utf-8"?>
<!-- Generator: Adobe Illustrator 18.1.1, SVG Export Plug-In . SVG Version: 6.00 Build 0)  -->
<!DOCTYPE svg PUBLIC "-//W3C//DTD SVG 1.1//EN" "http://www.w3.org/Graphics/SVG/1.1/DTD/svg11.dtd">
<svg version="1.1" id="Layer_1" xmlns="http://www.w3.org/2000/svg" xmlns:xlink="http://www.w3.org/1999/xlink" x="0px" y="0px"
	 viewBox="0 0 200 200" enable-background="new 0 0 200 200" xml:space="preserve">
<g>
	<rect x="73" y="154.9" width="55.6" height="11.8"/>
	<rect x="84.1" y="177.1" width="33.3" height="11.8"/>
	<path d="M139.7,77.8l-11.1,11.1l-11.1-11.1l-11.1,11.1L95.2,77.8L84.1,88.9L73,77.8l-9.9,9.9l-1.2,1.2L50.8,77.8l-1.5,1.5
		c2.1,8.9,6.4,17.1,12.6,23.8c2.8,3,6,5.8,9.6,8.1v33.3h57v-33.3c6.1-4,11.2-9.2,15.1-15.2c1.9-2.9,3.5-6.1,4.8-9.3l-7.9-7.9
		L139.7,77.8z M121,104l-2.5,1.4v27.7h-37v-27.7L79,104c-3.8-2.2-7.1-4.9-10-8.1l4-4L84.1,103l11.1-11.1l11.1,11.1l11.1-11.1
		l8.6,8.6C124.5,101.8,122.8,103,121,104z"/>
	<path d="M151.8,62.6C149.3,36.3,127,15.6,100,15.6c-23.8,0-43.8,16-50,37.8c-1.3,4.5-2,9.3-2,14.2c0,0.6,0,1.2,0.1,1.8l2.8-2.8
		l7.8,7.8l3.3,3.3L73,66.7l11.1,11.1l11.1-11.1l11.1,11.1l11.1-11.1l11.1,11.1l11.1-11.1L142,69l8.8,8.8l0.3-0.3
		c0.6-3.2,1-6.5,1-9.9C152,65.9,151.9,64.3,151.8,62.6z M128.6,63.6l-11.1-11.1l-11.1,11.1L95.2,52.5L84.1,63.6L73,52.5L61.9,63.6
		l-3.3-3.3c3.4-19.7,20.7-34.8,41.4-34.8c18,0,33.4,11.4,39.4,27.3L128.6,63.6z"/>
</g>
</svg>
