<?xml version="1.0" encoding="utf-8"?>
<!-- Generator: Adobe Illustrator 18.1.1, SVG Export Plug-In . SVG Version: 6.00 Build 0)  -->
<!DOCTYPE svg PUBLIC "-//W3C//DTD SVG 1.1//EN" "http://www.w3.org/Graphics/SVG/1.1/DTD/svg11.dtd">
<svg version="1.1" id="Layer_1" xmlns="http://www.w3.org/2000/svg" xmlns:xlink="http://www.w3.org/1999/xlink" x="0px" y="0px"
	 viewBox="0 0 200 200" enable-background="new 0 0 200 200" xml:space="preserve">
<g>
	<path d="M181.1,31.9c-6.1-5.9-7.5-1.5-10.6,1.5l-79.7,76.5L70.6,90.2c-3.1-3-6.3-5.9-9.9-2.4c-4.1,4-1,6.9,2.1,9.9l22.8,22.1
		c0.4,0.3,0.7,0.7,1.1,1c0.2,0.2,0.4,0.4,0.6,0.6c1.1,1,2.1,1.6,3,1.9c1.6,0.6,3.4,0.4,5.3-1.5c0.5-0.4,0.8-0.9,1.1-1.3
		c0.3-0.3,0.6-0.5,0.9-0.8l81.8-78C182.3,38.8,186.5,37.1,181.1,31.9z"/>
	<path d="M96.3,165.9c-38.5,0-69.9-29.6-69.9-65.9c0-36.4,31.3-65.9,69.9-65.9V23.9c-44.1,0-80,34.1-80,76.1c0,42,35.9,76.1,80,76.1
		c44.1,0,80-34.1,80-76.1h-10.1C166.1,136.4,134.8,165.9,96.3,165.9z"/>
</g>
</svg>
