<?xml version="1.0" encoding="utf-8"?>
<!-- Generator: Adobe Illustrator 18.1.1, SVG Export Plug-In . SVG Version: 6.00 Build 0)  -->
<!DOCTYPE svg PUBLIC "-//W3C//DTD SVG 1.1//EN" "http://www.w3.org/Graphics/SVG/1.1/DTD/svg11.dtd">
<svg version="1.1" id="Layer_1" xmlns="http://www.w3.org/2000/svg" xmlns:xlink="http://www.w3.org/1999/xlink" x="0px" y="0px"
	 viewBox="0 0 200 200" enable-background="new 0 0 200 200" xml:space="preserve">
<rect x="155.5" y="177.8" width="33.3" height="11.1"/>
<g>
	<polygon points="94.7,62.8 66.7,90.8 38.6,62.8 29.4,72 57.4,100 29.4,128 38.6,137.3 66.7,109.2 94.7,137.3 103.9,128 75.9,100 
		103.9,72 	"/>
	<path d="M177.8,11.1h-11.1h-11.1V20l-33.3,25v-0.6h-4.3h-97h-9.8v9.8v86.5v14.8h9.8h67.9h22.2h3.3h4.3l36.8,18.4v14.9h11.1v-22.2
		h11.1v22.2h11.1v-22.2v-11.1h-11.1h-11.1h-11.1v6l-33.3-16.7v-0.4v-3.7v-18.5V58.9l33.3-25v10.6h11.1h11.1h11.1V33.3V22.2V11.1
		H177.8z M88.9,144.4H22.2V55.6h88.9v66.7v22.2H88.9z M177.8,33.3h-11.1V22.2h11.1V33.3z"/>
</g>
</svg>
