<?xml version="1.0" encoding="utf-8"?>
<!-- Generator: Adobe Illustrator 18.1.1, SVG Export Plug-In . SVG Version: 6.00 Build 0)  -->
<!DOCTYPE svg PUBLIC "-//W3C//DTD SVG 1.1//EN" "http://www.w3.org/Graphics/SVG/1.1/DTD/svg11.dtd">
<svg version="1.1" id="Layer_1" xmlns="http://www.w3.org/2000/svg" xmlns:xlink="http://www.w3.org/1999/xlink" x="0px" y="0px"
	 viewBox="0 0 200 200" enable-background="new 0 0 200 200" xml:space="preserve">
<g>
	<polygon fill-rule="evenodd" clip-rule="evenodd" points="188.3,44.5 181.3,37.4 173.7,29.8 166.1,22.2 158.5,29.8 166.1,37.4 
		173.2,44.5 171.9,44.5 161.2,44.5 150.5,44.5 139.8,44.5 129,44.5 118.3,44.5 107.6,44.5 96.9,44.5 86.2,44.5 75.4,44.5 64.7,44.5 
		54,44.5 43.3,44.5 32.6,44.5 21.8,44.5 11.1,44.5 11.1,55.6 21.8,55.6 32.6,55.6 43.3,55.6 54,55.6 64.7,55.6 75.4,55.6 86.2,55.6 
		96.9,55.6 107.6,55.6 118.3,55.6 129,55.6 139.8,55.6 150.5,55.6 161.2,55.6 171.1,55.6 164.9,61.8 156.9,69.8 164.9,77.8 
		172.9,69.8 180.9,61.8 187.1,55.6 188.9,55.6 188.9,44.5 	"/>
	<polygon fill-rule="evenodd" clip-rule="evenodd" points="49.5,122.2 38.8,122.2 28.9,122.2 35.1,116 43.1,108 35.1,100 27.1,108 
		19.1,116 12.9,122.2 11.1,122.2 11.1,133.3 11.6,133.3 18.7,140.4 26.3,148 33.9,155.6 41.4,148 33.9,140.4 26.8,133.3 28.1,133.3 
		38.8,133.3 49.5,133.3 60.2,133.3 88.9,133.3 88.9,122.2 60.2,122.2 	"/>
	<polygon fill-rule="evenodd" clip-rule="evenodd" points="150,119.5 135.5,105 123.9,93.3 121.7,91.1 112.2,100.6 114.4,102.8 
		126.1,114.4 140.5,128.9 129.5,139.9 117.9,151.5 112.2,157.2 121.7,166.7 127.3,161 139,149.3 150,138.3 161,149.3 172.6,161 
		178.3,166.7 187.8,157.2 182.1,151.5 170.4,139.9 159.4,128.9 173.9,114.4 187.8,100.6 178.3,91.1 164.5,105 	"/>
</g>
</svg>
