<?xml version="1.0" encoding="utf-8"?>
<!-- Generated by IcoMoon.io -->
<!DOCTYPE svg PUBLIC "-//W3C//DTD SVG 1.1//EN" "http://www.w3.org/Graphics/SVG/1.1/DTD/svg11.dtd">
<svg version="1.1" xmlns="http://www.w3.org/2000/svg" xmlns:xlink="http://www.w3.org/1999/xlink" width="32" height="32" viewBox="0 0 32 32">
<path d="M19.536 16h1.792v9.008h-1.792v-9.008z" fill="#000000"></path>
<path d="M14.224 19.552h1.792v5.328h-1.792v-5.328z" fill="#000000"></path>
<path d="M9.808 16c0 0 0 0 0 0-0.224 0-0.528 0-0.688 0-0.080-0.016-0.144 0.032-0.224 0v8.88h1.792v-8.88c-0.304 0-0.576 0-0.88 0z" fill="#000000"></path>
<path d="M24.88 10.672v16c0 0.496-1.28 1.776-1.776 1.776h-16c-0.496 0-1.744-1.28-1.744-1.776l-0.016-8.88v-8.896h-0.016v-1.776h14.208v-1.792h0.016v-1.776c0-1.152-1.28-1.84-1.776-1.84h-7.104c-1.248 0-1.776 1.344-1.776 1.84v1.776h-6.224c-0.496 0-0.896 0.384-0.896 0.88s0.4 0.896 0.896 0.896h0.88v1.776l0.016 8.88v10.672c0 0.992 0.8 1.792 1.792 1.792h19.52c0.992 0 1.776-0.8 1.776-1.792v-17.776h-1.776zM10.672 3.52h7.104v1.824h-7.104v-1.824z" fill="#000000"></path>
<path d="M27.904 3.312c-1.264-1.248-1.552-0.32-2.192 0.32l-11.344 11.2-4.192-4.16c-0.144-0.128-0.272-0.272-0.416-0.384-0.512-0.448-1.056-0.704-1.648-0.112-0.032 0.032-0.064 0.080-0.096 0.112-0.688 0.8-0.080 1.392 0.528 2l4.72 4.688c0.080 0.080 0.144 0.144 0.224 0.224 0.032 0.048 0.080 0.080 0.112 0.128 0.224 0.224 0.432 0.352 0.624 0.4 0.336 0.128 0.704 0.080 1.104-0.32 0.096-0.096 0.16-0.192 0.224-0.288 0.064-0.064 0.112-0.112 0.176-0.176l11.776-11.52c0.656-0.64 1.52-0.992 0.4-2.112z" fill="#000000"></path>
</svg>
