<?xml version="1.0" encoding="utf-8"?>
<!-- Generated by IcoMoon.io -->
<!DOCTYPE svg PUBLIC "-//W3C//DTD SVG 1.1//EN" "http://www.w3.org/Graphics/SVG/1.1/DTD/svg11.dtd">
<svg version="1.1" xmlns="http://www.w3.org/2000/svg" xmlns:xlink="http://www.w3.org/1999/xlink" width="32" height="32" viewBox="0 0 32 32">
<path fill="#000000" d="M27.536 7.12h-0.88v21.328c0 0.992-0.784 1.792-1.776 1.792h-19.52c-0.992 0-1.792-0.8-1.792-1.792v-21.328h-0.896c-0.496 0-0.896-0.4-0.896-0.896s0.4-0.88 0.896-0.88h6.208v-1.792c0-0.496 0.528-1.84 1.776-1.84h7.104c0.496 0 1.776 0.688 1.776 1.84v1.776h7.984c0.496 0 0.896 0.384 0.896 0.88s-0.384 0.912-0.88 0.912zM17.776 3.52h-7.104v1.824h7.104v-1.824zM24.88 7.12h-19.568l0.048 19.552c0 0.496 1.248 1.776 1.744 1.776h16c0.496 0 1.776-1.28 1.776-1.776v-19.552zM19.536 14.224h1.792v10.784h-1.792v-10.784zM14.224 12.448h1.792v12.448h-1.792v-12.448zM8.88 14.224h1.792v10.672h-1.792v-10.672z"></path>
</svg>
