<?xml version="1.0" encoding="utf-8"?>
<!-- Generator: Adobe Illustrator 18.1.1, SVG Export Plug-In . SVG Version: 6.00 Build 0)  -->
<!DOCTYPE svg PUBLIC "-//W3C//DTD SVG 1.1//EN" "http://www.w3.org/Graphics/SVG/1.1/DTD/svg11.dtd">
<svg version="1.1" id="Layer_1" xmlns="http://www.w3.org/2000/svg" xmlns:xlink="http://www.w3.org/1999/xlink" x="0px" y="0px"
	 viewBox="0 0 200 200" enable-background="new 0 0 200 200" xml:space="preserve">
<g>
	<polygon points="29.3,177.8 55.5,151.5 55.5,137.4 22.2,170.7 22.2,11.1 11.1,11.1 11.1,177.8 11.1,188.9 22.2,188.9 188.9,188.9 
		188.9,177.8 	"/>
	<path d="M155.5,122.6V66.3l-50.2-28.2L55.5,66.3v56.4l49.8,28.2L155.5,122.6z M144.4,116.3l-33.9,18.9V97.3L144.4,77V116.3z
		 M105.4,50.8l32.8,18.3l-32.7,19.6L71.7,69.8L105.4,50.8z M100.5,135.4l-33.9-19.1V78.4l33.9,19V135.4z"/>
	<polygon points="181.8,11.1 155.5,37.4 155.5,51.5 188.8,18.2 	"/>
</g>
</svg>
