<?xml version="1.0" encoding="utf-8"?>
<!-- Generator: Adobe Illustrator 19.0.0, SVG Export Plug-In . SVG Version: 6.00 Build 0)  -->
<!DOCTYPE svg PUBLIC "-//W3C//DTD SVG 1.1//EN" "http://www.w3.org/Graphics/SVG/1.1/DTD/svg11.dtd">
<svg version="1.1" id="Layer_1" xmlns="http://www.w3.org/2000/svg" xmlns:xlink="http://www.w3.org/1999/xlink" x="0px" y="0px"
	 viewBox="0 0 16 16" enable-background="new 0 0 16 16" xml:space="preserve">
<g id="XMLID_4_">
	<g id="XMLID_9_">
		<path id="XMLID_2_" d="M9.9,15.6H9.4c-0.7,0-1.3-0.5-1.4-1.2C7.7,11,5,8.3,1.6,8C0.9,7.9,0.4,7.3,0.4,6.6V6.2c0-0.4,0.2-0.8,0.5-1
			c0.3-0.2,0.6-0.4,0.9-0.4l0.1,0c4.9,0.5,8.9,4.4,9.3,9.3c0,0.4-0.1,0.8-0.4,1.1C10.6,15.5,10.2,15.6,9.9,15.6z M1.8,5.3L1.8,5.8
			c-0.1,0-0.2,0-0.3,0.1C1.4,5.9,1.4,6.1,1.4,6.2v0.4C1.4,6.8,1.5,7,1.7,7c3.8,0.4,6.9,3.5,7.3,7.3c0,0.2,0.2,0.3,0.4,0.3h0.4
			c0.1,0,0.2,0,0.3-0.1c0.1-0.1,0.1-0.2,0.1-0.3c-0.4-4.5-4-8-8.4-8.4h0L1.8,5.3z"/>
		<path id="XMLID_5_" d="M14.3,15.6h-0.4c-0.7,0-1.3-0.6-1.4-1.3C12.1,8.6,7.4,3.9,1.7,3.6c-0.7,0-1.3-0.7-1.3-1.4V1.7
			c0-0.4,0.2-0.7,0.4-1c0.3-0.2,0.6-0.4,0.9-0.4l0.1,0c7.4,0.5,13.3,6.4,13.8,13.8c0,0.4-0.1,0.8-0.4,1S14.6,15.6,14.3,15.6z
			 M1.8,0.9L1.8,1.4c-0.1,0-0.2,0-0.3,0.1C1.4,1.5,1.4,1.6,1.4,1.7v0.4c0,0.2,0.2,0.4,0.4,0.4C8,3,13,8,13.4,14.3
			c0,0.2,0.2,0.4,0.4,0.4h0.4c0.1,0,0.2,0,0.3-0.1c0.1-0.1,0.1-0.2,0.1-0.3C14.2,7.3,8.7,1.8,1.8,1.4L1.8,0.9z"/>
	</g>
	<path id="XMLID_6_" d="M2.7,15.5c-1.3,0-2.4-1.1-2.4-2.4s1.1-2.4,2.4-2.4s2.4,1.1,2.4,2.4S4,15.5,2.7,15.5z M2.7,11.8
		c-0.8,0-1.4,0.6-1.4,1.4s0.6,1.4,1.4,1.4c0.8,0,1.4-0.6,1.4-1.4S3.5,11.8,2.7,11.8z"/>
</g>
</svg>
