<?xml version="1.0" encoding="utf-8"?>
<!-- Generator: Adobe Illustrator 18.1.1, SVG Export Plug-In . SVG Version: 6.00 Build 0)  -->
<!DOCTYPE svg PUBLIC "-//W3C//DTD SVG 1.1//EN" "http://www.w3.org/Graphics/SVG/1.1/DTD/svg11.dtd">
<svg version="1.1" id="Layer_1" xmlns="http://www.w3.org/2000/svg" xmlns:xlink="http://www.w3.org/1999/xlink" x="0px" y="0px"
	 viewBox="0 0 200 200" enable-background="new 0 0 200 200" xml:space="preserve">
<g>
	<polygon fill-rule="evenodd" clip-rule="evenodd" points="75.9,55.6 86.7,55.6 97.5,55.6 108.3,55.6 119.1,55.6 129.9,55.6 
		140.7,55.6 155.5,55.6 155.5,66.4 155.5,77.2 155.5,100 166.6,100 166.6,78.1 166.6,67.3 166.6,56.5 166.6,43.8 153.4,43.8 
		142.6,43.8 131.8,43.8 121,43.8 110.2,43.8 99.4,43.8 88.6,43.8 78.1,43.8 77.8,33.4 66.7,33.4 66.7,22.2 54.3,22.2 43.5,22.2 
		32.7,22.2 21.9,22.2 11.1,22.2 11.1,33 11.1,43.8 11.1,54.6 11.1,65.4 11.1,76.2 11.1,87 11.1,97.8 11.1,108.6 11.1,119.4 
		11.1,144.4 11.1,155.6 21.9,155.6 32.7,155.6 43.5,155.6 54.3,155.6 65.1,155.6 75.9,155.6 86.7,155.6 100.3,155.6 111.1,155.6 
		111.1,155.6 111.1,144.4 111.1,144.4 100.3,144.4 86.7,144.4 75.9,144.4 65.1,144.4 54.3,144.4 43.5,144.4 32.7,144.4 21.9,144.4 
		21.9,119.4 21.9,108.6 21.9,97.8 21.9,87 21.9,76.2 21.9,65.4 21.9,54.6 21.9,43.8 21.9,33.4 32.7,33.4 43.5,33.4 55.5,33.4 
		55.5,44.5 66.7,44.5 66.7,55.6 	"/>
	<polygon fill-rule="evenodd" clip-rule="evenodd" points="173.4,144.4 166.6,144.4 166.6,130.6 166.6,122.2 155.5,122.2 
		155.5,130.6 155.5,144.4 140.7,144.4 133.3,144.4 133.3,155.6 140.7,155.6 155.5,155.6 155.5,163.3 155.5,177.8 166.6,177.8 
		166.6,163.3 166.6,155.6 173.4,155.6 188.9,155.6 188.9,144.4 	"/>
</g>
</svg>
