<?xml version="1.0" encoding="utf-8"?>
<!-- Generator: Adobe Illustrator 18.1.1, SVG Export Plug-In . SVG Version: 6.00 Build 0)  -->
<!DOCTYPE svg PUBLIC "-//W3C//DTD SVG 1.1//EN" "http://www.w3.org/Graphics/SVG/1.1/DTD/svg11.dtd">
<svg version="1.1" id="Layer_1" xmlns="http://www.w3.org/2000/svg" xmlns:xlink="http://www.w3.org/1999/xlink" x="0px" y="0px"
	 viewBox="0 0 200 200" enable-background="new 0 0 200 200" xml:space="preserve">
<g>
	<path fill-rule="evenodd" clip-rule="evenodd" d="M12.9,117c4.3,4.2,10.5-1.3,14.3-5.1L97,42.4c0.9-0.9,2-2,3-3.1
		c1,1.2,2.1,2.3,3.1,3.2l69.8,69.8c3.8,3.8,10,9.4,14.3,5.1c4.8-4.8-1.3-10.5-5.1-14.3l-69.8-69.8c-2.4-2.5-5.6-6-8.9-6.9
		c-1-0.6-2.2-1-3.5-1c-1.6,0-3,0.5-4.1,1.4c-2.9,1.3-5.6,4.3-7.8,6.4L18,102.8C14.2,106.6,8.1,112.2,12.9,117z"/>
	<path fill-rule="evenodd" clip-rule="evenodd" d="M12.9,172.5c4.3,4.2,10.5-1.3,14.3-5.1L97,97.9c0.9-0.9,2-2,3-3.1
		c1,1.2,2.1,2.3,3.1,3.2l69.8,69.8c3.8,3.8,10,9.4,14.3,5.1c4.8-4.8-1.3-10.5-5.1-14.3l-69.8-69.8c-2.4-2.5-5.6-6-8.9-6.9
		c-1-0.6-2.2-1-3.5-1c-1.6,0-3,0.5-4.1,1.4c-2.9,1.3-5.6,4.3-7.8,6.4L18,158.4C14.2,162.1,8.1,167.8,12.9,172.5z"/>
</g>
</svg>
