<?xml version="1.0" encoding="utf-8"?>
<!-- Generator: Adobe Illustrator 18.1.1, SVG Export Plug-In . SVG Version: 6.00 Build 0)  -->
<!DOCTYPE svg PUBLIC "-//W3C//DTD SVG 1.1//EN" "http://www.w3.org/Graphics/SVG/1.1/DTD/svg11.dtd">
<svg version="1.1" xmlns="http://www.w3.org/2000/svg" xmlns:xlink="http://www.w3.org/1999/xlink" x="0px" y="0px"
	 viewBox="0 0 200 200" enable-background="new 0 0 200 200" xml:space="preserve">
<g id="Layer_1">
</g>
<g id="Layer_2">
	<g>
		<path d="M138.8,89c-27.5,0-49.9,22.4-49.9,49.9s22.4,49.9,49.9,49.9s49.9-22.4,49.9-49.9S166.4,89,138.8,89z M138.8,177.9
			c-21.5,0-38.9-17.5-38.9-38.9s17.5-38.9,38.9-38.9s38.9,17.5,38.9,38.9S160.3,177.9,138.8,177.9z"/>
		<path d="M93.3,177.9H22.2V55.5h55.4l0.1,33.1c0,10.5,9.5,11.2,11.2,11.2h4.5c3.8-4.3,8.1-8.1,12.9-11.2H89l-0.1-33.2l28,27.9
			c2.6-1,5.3-1.9,8.1-2.5l-36-36.4H14.2c-1.7,0-3.1,1.4-3.1,3.2v138.5c0,1.8,1.4,3.2,3.1,3.2h91.9C101.3,186,97,182.2,93.3,177.9z"
			/>
		<path d="M33.6,166.7h52.2c-1.9-3.6-3.4-7.3-4.5-11.2H33.6V166.7z"/>
		<path d="M33.6,133.2v11.2h45.6c-0.2-1.8-0.3-3.6-0.3-5.5c0-1.9,0.1-3.8,0.3-5.7H33.6z"/>
		<path d="M33.6,111v11.2h47.7c1.1-3.9,2.7-7.7,4.6-11.2H33.6z"/>
		<path d="M144.4,11H69.7c-1.7,0-3.1,1.4-3.1,3.2v19.1h11.1V22.3h55.4l0.1,33.1c0,10.5,9.5,11.2,11.2,11.2h33.3l0,11.2h-33.4v1.5
			c10.1,0.9,19.5,4.4,27.5,9.7h5.9l0,4.5c4.2,3.6,8,7.9,11,12.5l0-50.1L144.4,11z M144.6,55.3l-0.1-33.2l33.3,33.2H144.6z"/>
		<polygon points="154.6,115.3 138.9,131 123.2,115.3 115.3,123.2 131,138.9 115.3,154.6 123.2,162.5 138.9,146.8 154.6,162.5 
			162.4,154.6 146.7,138.9 162.4,123.2 		"/>
	</g>
</g>
</svg>
