<?xml version="1.0" encoding="utf-8"?>
<!-- Generated by IcoMoon.io -->
<!DOCTYPE svg PUBLIC "-//W3C//DTD SVG 1.1//EN" "http://www.w3.org/Graphics/SVG/1.1/DTD/svg11.dtd">
<svg version="1.1" xmlns="http://www.w3.org/2000/svg" xmlns:xlink="http://www.w3.org/1999/xlink" width="32" height="32" viewBox="0 0 32 32">
<path d="M28.448 3.52v-1.744h-7.12v1.776h-1.776v1.776h-1.776v1.776h-1.776v1.776h-1.776v1.776h-1.776v1.776h-1.776v1.776h-1.792v1.792h-1.776v1.776h-1.776v1.776h-1.776v1.776h-1.776v8.88h8.88v-1.776h1.776v-1.776h1.776v-1.776h1.792v-1.776h1.776v-1.776h1.776v-1.776h1.776v-1.776h1.776v-1.776h1.776v-1.776h1.776v-1.776h1.776v-1.776h1.776v-7.152h-1.76zM28.448 7.024v1.872h-1.776v1.776h-1.776v1.776h-1.776l-0.032 1.776h-1.744v1.776h-1.776v1.776h-1.776v1.776h-1.792v1.776h-1.776v1.776h-1.776v1.776h-1.776v1.776h-1.792v1.776h-5.328v-5.328h1.776v-1.776h1.776v-1.776h1.776v-1.776h1.776l0.032-1.776h1.744v-1.776h1.744l0.032-1.776h1.744l0.032-1.744h1.744l0.032-1.744h1.76l0.032-1.84h1.744l0.032-1.776h1.776v-1.792h3.552v1.776h1.776v1.696z" fill="#000000"></path>
<path d="M23.104 5.328h1.776v1.776h-1.776v-1.776z" fill="#000000"></path>
<path d="M24.88 7.12h1.776v1.776h-1.776v-1.776z" fill="#000000"></path>
<path d="M23.104 8.896h1.776v1.776h-1.776v-1.776z" fill="#000000"></path>
<path d="M21.328 7.12h1.776v1.776h-1.776v-1.776z" fill="#000000"></path>
<path d="M5.328 23.12h1.776v1.776h-1.776v-1.776z" fill="#000000"></path>
<path d="M7.104 24.896h1.776v1.776h-1.776v-1.776z" fill="#000000"></path>
</svg>
