<?xml version="1.0" encoding="utf-8"?>
<!-- Generated by IcoMoon.io -->
<!DOCTYPE svg PUBLIC "-//W3C//DTD SVG 1.1//EN" "http://www.w3.org/Graphics/SVG/1.1/DTD/svg11.dtd">
<svg version="1.1" xmlns="http://www.w3.org/2000/svg" xmlns:xlink="http://www.w3.org/1999/xlink" width="32" height="32" viewBox="0 0 32 32">
<path d="M30.128 5.328l-3.552-3.552-1.216 1.216 1.216 1.216 1.136 1.12h-25.936v1.792h25.6l-2.272 2.272 1.28 1.28 3.552-3.552h0.288v-1.792z" fill="#000000"></path>
<path d="M7.92 17.776h-3.296l2.272-2.272-1.28-1.28-3.552 3.552h-0.288v1.776h0.080l3.568 3.568 1.2-1.216-1.2-1.216-1.136-1.136h6.384v-1.776h-1.040z" fill="#000000"></path>
<path d="M28.384 14.224v-1.776h-7.104v1.776h-1.776v1.776h-1.744v1.76h-1.776v1.776h-1.776v1.776h-1.76v8.944h8.896v-1.776h1.776v-1.776h1.776v-1.776h1.776v-1.776h1.776v-1.776h1.776v-7.152h-1.84zM28.384 17.76v1.776h-1.776v1.776h-1.776v1.776h-1.776v1.776h-1.776v1.776h-1.776v1.776h-1.744v-1.776h-1.776v1.776h-1.776v-1.776h1.776v-1.776h-1.776v-1.776h1.776v-1.776h1.776v-1.776h1.776v-1.776h1.776v-1.776h1.776v-1.76h3.552v1.776h1.776v1.76z" fill="#000000"></path>
<path d="M23.072 19.568v1.76h1.776v-1.76z" fill="#000000"></path>
<path d="M21.296 17.792h1.776v1.776h-1.776v-1.776z" fill="#000000"></path>
<path d="M23.072 16.016h1.776v1.776h-1.776v-1.776z" fill="#000000"></path>
<path d="M24.848 17.792h1.776v1.776h-1.776v-1.776z" fill="#000000"></path>
</svg>
