<?xml version="1.0" encoding="utf-8"?>
<!-- Generator: Adobe Illustrator 18.1.1, SVG Export Plug-In . SVG Version: 6.00 Build 0)  -->
<!DOCTYPE svg PUBLIC "-//W3C//DTD SVG 1.1//EN" "http://www.w3.org/Graphics/SVG/1.1/DTD/svg11.dtd">
<svg version="1.1" id="Layer_1" xmlns="http://www.w3.org/2000/svg" xmlns:xlink="http://www.w3.org/1999/xlink" x="0px" y="0px"
	 viewBox="0 0 200 200" enable-background="new 0 0 200 200" xml:space="preserve">
<g>
	<path d="M177.8,44.8V33.7h-11.1h-11.1h-11.1h-11.1v11.1h-11.1v11.1h-11.1V67h-11.1V78H89.2v11.1H78.2l5.5,0l-5.5,0h0v11.1v11.1
		v11.1v11.1h0v11.1h0v0h11.1h11.1h11.1h11.1h11.1v-11.1h11.1v-11.1h11.1v-11.1h11.1v-11.1h11.1V89.1h11.1V78V67V55.9V44.8H177.8z
		 M177.8,67V78h-11.1v11.1h0h-11.1l5.5,0l-5.5,0v11.1h-11.1v11.1h-11.1v11.1h-11.1v11.1h-11.1v-11.1h-11.1v11.1H89.2v-11.1h11.1
		v-11.1H89.2v-11.1h11.1V89.1h11.1V78h11.1V67h11.1V55.9h11.1V44.8h11.1h11.1v11.1h11.1V67z"/>
	<path d="M177.7,133.5L177.7,133.5l0,11h0v11.1l0,0.1l0,11H22.2V33.5h88.9V22.2H14.2c-1.7,0-3.1,1.4-3.1,3.2v149.2
		c0,1.8,1.4,3.2,3.1,3.2h173c1.7,0,1.7-1.4,1.7-3.2l0-41.3h-11.1V133.5z"/>
	<rect x="33.3" y="55.6" width="55.5" height="11.1"/>
	<rect x="33.3" y="88.9" width="20.9" height="11.1"/>
	<rect x="33.3" y="122.2" width="20.9" height="11.1"/>
</g>
</svg>
