<?xml version="1.0" encoding="utf-8"?>
<!-- Generator: Adobe Illustrator 18.1.1, SVG Export Plug-In . SVG Version: 6.00 Build 0)  -->
<!DOCTYPE svg PUBLIC "-//W3C//DTD SVG 1.1//EN" "http://www.w3.org/Graphics/SVG/1.1/DTD/svg11.dtd">
<svg version="1.1" id="Layer_1" xmlns="http://www.w3.org/2000/svg" xmlns:xlink="http://www.w3.org/1999/xlink" x="0px" y="0px"
	 viewBox="0 0 200 200" enable-background="new 0 0 200 200" xml:space="preserve">
<g>
	<polygon fill-rule="evenodd" clip-rule="evenodd" points="177.8,22.2 166.6,22.2 155.5,22.2 144.4,22.2 133.3,22.2 122.2,22.2 
		111.1,22.2 100,22.2 88.9,22.2 77.8,22.2 66.7,22.2 55.5,22.2 44.4,22.2 33.3,22.2 22.2,22.2 11.1,22.2 11.1,33.3 22.2,33.3 
		33.3,33.3 44.4,33.3 55.5,33.3 66.7,33.3 77.8,33.3 88.9,33.3 100,33.3 111.1,33.3 122.2,33.3 133.3,33.3 144.4,33.3 155.5,33.3 
		166.6,33.3 177.8,33.3 188.9,33.3 188.9,22.2 	"/>
	<polygon fill-rule="evenodd" clip-rule="evenodd" points="22.2,155.6 11.1,155.6 11.1,166.7 22.2,166.7 33.3,166.7 44.4,166.7 
		44.4,155.6 33.3,155.6 	"/>
	<polygon fill-rule="evenodd" clip-rule="evenodd" points="33.3,88.9 22.2,88.9 11.1,88.9 11.1,100 22.2,100 33.3,100 44.4,100 
		66.7,100 66.7,88.9 44.4,88.9 	"/>
	<path fill-rule="evenodd" clip-rule="evenodd" d="M177.4,56h-11.1h-11.1h-11.1h-11.1V67h-11.1v11.1H111v11.1H99.9v11.1H88.8v11.1
		H77.8l5.5,0l-5.5,0h0v11.1v11.1v11.1v11.1h0v11.1h0v0h11.1h11.1H111h11.1h11.1v-11.1h11.1v-11.1h11.1v-11.1h11.1v-11.1h11.1v-11.1
		h11.1v-11.1V89.2V78.1V67h-11.1V56z M177.4,89.2v11.1h-11.1v11.1h0h-11.1l5.5,0l-5.5,0v11.1h-11.1v11.1h-11.1v11.1h-11.1v11.1H111
		v-11.1H99.9v11.1H88.8v-11.1h11.1v-11.1H88.8v-11.1h11.1v-11.1H111v-11.1h11.1V89.2h11.1V78.1h11.1V67h11.1h11.1v11.1h11.1V89.2z"
		/>
	<polygon fill-rule="evenodd" clip-rule="evenodd" points="144.2,100.2 144.2,111.3 155.3,111.3 155.3,111.3 155.3,100.2 	"/>
	<rect x="133.1" y="89.2" fill-rule="evenodd" clip-rule="evenodd" width="11.1" height="11.1"/>
	<rect x="144.2" y="78.1" fill-rule="evenodd" clip-rule="evenodd" width="11.1" height="11.1"/>
	<rect x="155.3" y="89.2" fill-rule="evenodd" clip-rule="evenodd" width="11.1" height="11.1"/>
</g>
</svg>
