<?xml version="1.0" encoding="utf-8"?>
<!-- Generator: Adobe Illustrator 18.1.1, SVG Export Plug-In . SVG Version: 6.00 Build 0)  -->
<!DOCTYPE svg PUBLIC "-//W3C//DTD SVG 1.1//EN" "http://www.w3.org/Graphics/SVG/1.1/DTD/svg11.dtd">
<svg version="1.1" id="Layer_1" xmlns="http://www.w3.org/2000/svg" xmlns:xlink="http://www.w3.org/1999/xlink" x="0px" y="0px"
	 viewBox="0 0 200 200" enable-background="new 0 0 200 200" xml:space="preserve">
<g>
	<rect x="44.5" y="44.5" fill="#231F20" width="22.2" height="11.1"/>
	<rect x="44.5" y="144.4" fill="#231F20" width="22.2" height="11.1"/>
	<rect x="88.9" y="44.5" fill="#231F20" width="22.2" height="11.1"/>
	<rect x="133.3" y="44.5" fill="#231F20" width="22.2" height="11.1"/>
	<rect x="88.9" y="144.4" fill="#231F20" width="22.2" height="11.1"/>
	<rect x="133.3" y="144.4" fill="#231F20" width="22.2" height="11.1"/>
	<polygon fill="#231F20" points="11.1,44.5 11.1,55.6 11.1,66.7 22.2,66.7 22.2,55.6 33.3,55.6 33.3,44.5 22.2,44.5 	"/>
	<rect x="11.1" y="88.9" fill="#231F20" width="11.1" height="22.2"/>
	<rect x="177.8" y="88.9" fill="#231F20" width="11.1" height="22.2"/>
	<polygon fill="#231F20" points="177.8,44.5 166.7,44.5 166.7,55.6 177.8,55.6 177.8,66.7 188.9,66.7 188.9,55.6 188.9,44.5 	"/>
	<polygon fill="#231F20" points="177.8,144.4 166.7,144.4 166.7,155.5 177.8,155.5 188.9,155.5 188.9,144.4 188.9,133.3 
		177.8,133.3 	"/>
	<polygon fill="#231F20" points="22.2,133.3 11.1,133.3 11.1,144.4 11.1,155.5 22.2,155.5 33.3,155.5 33.3,144.4 22.2,144.4 	"/>
</g>
</svg>
