<?xml version="1.0" encoding="utf-8"?>
<!-- Generator: Adobe Illustrator 19.2.0, SVG Export Plug-In . SVG Version: 6.00 Build 0)  -->
<svg version="1.1" id="Layer_1" xmlns="http://www.w3.org/2000/svg" xmlns:xlink="http://www.w3.org/1999/xlink" x="0px" y="0px"
	 viewBox="0 0 8.4 8.4" style="enable-background:new 0 0 8.4 8.4;" xml:space="preserve">
<g>
	<path d="M7.9,8.4H2.1c-0.3,0-0.5-0.2-0.5-0.5c0-0.3,0.2-0.5,0.5-0.5h5.3V2.1c0-0.3,0.2-0.5,0.5-0.5c0.3,0,0.5,0.2,0.5,0.5v5.8
		C8.4,8.2,8.2,8.4,7.9,8.4z"/>
	<path d="M4,3.3L0.9,0.2C0.7,0,0.4,0,0.2,0.2S0,0.7,0.2,0.9L3.3,4L1.4,5.8h4.3V1.4L4,3.3z"/>
</g>
</svg>
