<?xml version="1.0" encoding="utf-8"?>
<!-- Generator: Adobe Illustrator 18.1.1, SVG Export Plug-In . SVG Version: 6.00 Build 0)  -->
<!DOCTYPE svg PUBLIC "-//W3C//DTD SVG 1.1//EN" "http://www.w3.org/Graphics/SVG/1.1/DTD/svg11.dtd">
<svg version="1.1" id="Layer_1" xmlns="http://www.w3.org/2000/svg" xmlns:xlink="http://www.w3.org/1999/xlink" x="0px" y="0px"
	 viewBox="0 0 200 200" enable-background="new 0 0 200 200" xml:space="preserve">
<g>
	<path d="M134.9,66.1c-3.7,0-7.5,1.1-11.5,3.3c-4,2.2-8.3,6.3-13,12.1c-5.1,6.3-8.7,11.3-11,15.1s-5.2,8.5-8.7,14
		c-1.2-5.4-2-9-2.4-10.8c-0.4-1.8-1.8-6.9-4.1-15.2c-2-7.2-4.7-12-8.1-14.5c-3.4-2.5-7.7-3.7-12.8-3.7c-1.6,0-4.8,0.8-9.3,2.3
		s-9.8,3.5-15.5,5.9l-2.1,7.4c2.1-0.6,4.3-1.2,6.8-1.8c2.4-0.6,4.7-0.9,6.9-0.9c4,0,7.2,0.9,9.7,2.6c2.5,1.7,4.8,5.6,6.7,11.5
		c1.5,4.8,3.1,10.3,4.7,16.7c1.7,6.3,3.2,12.2,4.6,17.5c-4,7.2-8.4,13.7-13,19.4c-4.7,5.7-8.4,9.9-11.2,12.5
		c-2.5-0.7-4.8-1.5-7.1-2.4c-2.3-0.9-4.6-1.3-7-1.3c-4.7,0-8.4,1.2-11.1,3.7c-2.7,2.5-4,5.5-4,9c0,3.7,1.1,6.5,3.4,8.6
		c2.3,2,5.2,3.1,8.7,3.1c4,0,7.8-1.2,11.6-3.5c3.8-2.3,8-6.2,12.5-11.8c5.2-6.3,9-11.3,11.2-14.9c2.2-3.6,5.1-8,8.5-13.2
		c0.9,3.7,1.8,7.3,2.7,11c0.9,3.7,2.1,8.3,3.6,13.7c2.1,7.5,4.8,12.4,8.2,14.8c3.4,2.4,7.7,3.6,12.9,3.6c4.2,0,8.1-0.5,11.7-1.4
		c3.6-0.9,9-2.9,16.2-5.9l2-7.4c-1.7,0.6-4.1,1.2-7.3,1.7c-3.1,0.5-5.6,0.8-7.4,0.8c-4.9,0-8.9-1.4-11.9-4.1
		c-3-2.7-5.2-6.4-6.7-10.9c-1.6-5.1-3.2-10.1-4.6-15.2c-1.4-5-3-11.1-4.8-18.2c4-7,8.1-13.4,12.6-19.3c4.4-5.8,8.3-10.2,11.7-13.2
		c1.6,0.5,3.9,1.2,6.7,2c2.8,0.8,5.4,1.2,7.6,1.2c3.7,0,7-1,10.1-3.1c3.1-2.1,4.7-5.2,4.8-9.6c0.1-3.4-1-6.1-3.3-8.2
		C140.9,67.2,138.1,66.1,134.9,66.1z"/>
	<path d="M174.6,47.5c-1,0.2-1.7,0.3-2.2,0.3c-1.5,0-2.6-0.3-3.3-0.8c-0.7-0.5-1-1.6-1-3.1c0-0.6,0.1-1.5,0.3-2.6
		c0.2-1.1,0.5-2.1,0.7-2.9l3.4-12.9c0.3-1.2,0.6-2.4,0.7-3.7c0.1-1.2,0.2-2.1,0.2-2.6c0-2.4-0.7-4.3-2.2-5.8c-1.4-1.5-3.4-2.2-6-2.2
		c-2.7,0-5.1,0.6-7.3,1.7c-2.1,1.1-4.7,2.9-7.6,5.2h-0.2c-0.1-2-0.5-3.6-1.5-4.8c-0.9-1.2-2.4-1.7-4.5-1.7c-1.2,0-2.5,0.2-4.1,0.7
		c-1.6,0.5-3.5,1.2-5.6,2.1l-0.6,2.6c0.5-0.1,1.2-0.3,2.1-0.5s1.7-0.3,2.3-0.3c1.5,0,2.6,0.3,3.1,0.8c0.5,0.5,0.8,1.5,0.8,3
		c0,0.7-0.1,1.7-0.4,2.9c-0.3,1.2-0.4,2.1-0.6,2.8l-6,26h7.5l6.8-29.4c1.8-2,3.7-3.6,5.7-4.7c2-1.1,3.8-1.6,5.4-1.6
		c1.7,0,2.9,0.5,3.8,1.6c0.8,1,1.3,2.5,1.3,4.2c0,0.6-0.1,1.3-0.3,2.2c-0.2,0.9-0.4,2-0.7,3.1l-4,15c-0.2,1-0.4,1.8-0.5,2.5
		c-0.1,0.7-0.2,1.4-0.2,1.9c0,1.6,0.5,3,1.6,4.1s2.7,1.7,4.8,1.7c1.4,0,2.7-0.2,4.1-0.7c1.3-0.4,3.2-1.1,5.6-2.1l0.6-2.6
		C176.3,47.1,175.5,47.3,174.6,47.5z"/>
</g>
</svg>
