<?xml version="1.0" encoding="utf-8"?>
<!-- Generated by IcoMoon.io -->
<!DOCTYPE svg PUBLIC "-//W3C//DTD SVG 1.1//EN" "http://www.w3.org/Graphics/SVG/1.1/DTD/svg11.dtd">
<svg version="1.1" xmlns="http://www.w3.org/2000/svg" xmlns:xlink="http://www.w3.org/1999/xlink" width="32" height="32" viewBox="0 0 32 32">
<path d="M10.56 22.88l3.52-3.52-1.76-1.76-1.76 1.76-1.744 1.76-1.76 1.76-1.76 1.744-1.76-1.744-1.76 1.744 1.76 1.76-1.76 1.76 1.76 1.76 1.76-1.76 1.76 1.76 1.76-1.76-1.76-1.76 1.76-1.76z" fill="#000000"></path>
<path d="M21.104 12.32l1.76-1.744 3.52-3.52 1.76 1.76 1.76-1.76-1.76-1.76 1.76-1.76-1.76-1.76-1.76 1.76-1.76-1.76-1.76 1.76 1.76 1.76-3.52 3.52-1.744 1.76-1.76 1.744 1.76 1.76z" fill="#000000"></path>
<path d="M29.902 10.565l-1.754 1.754-1.754-1.754 1.754-1.754 1.754 1.754z" fill="#000000"></path>
<path d="M21.105 5.299l-1.753-1.754 1.754-1.753 1.753 1.754-1.754 1.753z" fill="#000000"></path>
<path d="M10.574 1.779l1.754 1.753-1.753 1.754-1.754-1.753 1.753-1.754z" fill="#000000"></path>
<path d="M5.295 10.564l-1.753 1.754-1.754-1.753 1.753-1.754 1.754 1.753z" fill="#000000"></path>
<path d="M1.774 21.118l1.754-1.754 1.754 1.754-1.754 1.754-1.754-1.754z" fill="#000000"></path>
<path d="M10.574 26.386l1.754 1.754-1.754 1.754-1.754-1.754 1.754-1.754z" fill="#000000"></path>
<path d="M21.105 29.906l-1.754-1.754 1.754-1.754 1.754 1.754-1.754 1.754z" fill="#000000"></path>
<path d="M29.904 24.624l-1.76-1.744-1.76 1.744-1.76-1.744-3.52-3.52-1.744-1.76-1.76 1.76 1.76 1.76 1.744 1.76 1.76 1.744 1.76 1.76-1.76 1.76 1.76 1.76 1.76-1.76 1.76 1.76 1.76-1.76-1.76-1.76z" fill="#000000"></path>
<path d="M26.382 21.118l1.754-1.754 1.754 1.754-1.754 1.754-1.754-1.754z" fill="#000000"></path>
<path d="M10.56 8.816l-1.744-1.76-1.76-1.76 1.76-1.76-1.76-1.76-1.76 1.76-1.76-1.76-1.76 1.76 1.76 1.76-1.76 1.76 1.76 1.76 1.76-1.76 7.024 7.024 1.76-1.76-1.76-1.744z" fill="#000000"></path>
</svg>
