<?xml version="1.0" encoding="utf-8"?>
<!-- Generated by IcoMoon.io -->
<!DOCTYPE svg PUBLIC "-//W3C//DTD SVG 1.1//EN" "http://www.w3.org/Graphics/SVG/1.1/DTD/svg11.dtd">
<svg version="1.1" xmlns="http://www.w3.org/2000/svg" xmlns:xlink="http://www.w3.org/1999/xlink" width="32" height="32" viewBox="0 0 32 32">
<path d="M28.448 1.776h-26.672v28.432h28.432v-28.432h-1.76zM28.448 28.448h-21.328l21.328-10.208v10.208zM28.448 16.272l-24.896 11.904v-1.52h1.776v-1.776h-1.776v-21.328h21.328v1.776h1.776v-1.776h1.776v12.72z" fill="#000000"></path>
<path d="M7.104 21.328h1.776v1.776h-1.776v-1.776z" fill="#000000"></path>
<path d="M10.672 17.776h1.776v1.776h-1.776v-1.776z" fill="#000000"></path>
<path d="M14.224 14.224h1.776v1.776h-1.776v-1.776z" fill="#000000"></path>
<path d="M17.776 10.672h1.776v1.776h-1.776v-1.776z" fill="#000000"></path>
<path d="M21.328 7.12h1.776v1.776h-1.776v-1.776z" fill="#000000"></path>
</svg>
