<?xml version="1.0" encoding="utf-8"?>
<!-- Generator: Adobe Illustrator 18.1.1, SVG Export Plug-In . SVG Version: 6.00 Build 0)  -->
<!DOCTYPE svg PUBLIC "-//W3C//DTD SVG 1.1//EN" "http://www.w3.org/Graphics/SVG/1.1/DTD/svg11.dtd">
<svg version="1.1" id="Layer_1" xmlns="http://www.w3.org/2000/svg" xmlns:xlink="http://www.w3.org/1999/xlink" x="0px" y="0px"
	 viewBox="0 0 200 200" enable-background="new 0 0 200 200" xml:space="preserve">
<g>
	<path d="M144.4,22.1H14.2c-1.7,0-3.1,1.4-3.1,3.2v149.2c0,1.8,1.4,3.2,3.1,3.2h173c1.7,0,1.7-1.4,1.7-3.2l0-107.5L144.4,22.1z
		 M177.7,66.4h-33.2l-0.1-33.2L177.7,66.4z M177.8,77.7h-0.1v11.2h0.1l0,11h-0.1v11.2h0.1l0,11h-0.1v11.2h0l0,11h0v11.2h0l0,11H33.3
		H22.2V33.4h111l0.1,33.1c0,10.5,9.5,11.2,11.2,11.2L177.8,77.7L177.8,77.7z"/>
	<rect x="44.4" y="55.5" width="22.2" height="66.7"/>
	<rect x="44.4" y="133.2" width="22.2" height="22.2"/>
	<rect x="77.8" y="66.6" width="44.4" height="11.1"/>
	<rect x="77.8" y="99.9" width="88.9" height="11.1"/>
	<rect x="77.8" y="133.2" width="88.9" height="11.1"/>
</g>
</svg>
