<?xml version="1.0" encoding="utf-8"?>
<!-- Generator: Adobe Illustrator 18.1.1, SVG Export Plug-In . SVG Version: 6.00 Build 0)  -->
<!DOCTYPE svg PUBLIC "-//W3C//DTD SVG 1.1//EN" "http://www.w3.org/Graphics/SVG/1.1/DTD/svg11.dtd">
<svg version="1.1" id="Layer_1" xmlns="http://www.w3.org/2000/svg" xmlns:xlink="http://www.w3.org/1999/xlink" x="0px" y="0px"
	 viewBox="0 0 200 200" enable-background="new 0 0 200 200" xml:space="preserve">
<g>
	<path d="M16.6,98.7c1.3,9.2,8.1,16.5,18.2,19.7c5.3,1.7,14.3,4,21.7,5.7c-13.5,19.3-16.1,39.2-11.1,50.6c3.1,7.1,9,11.2,16.2,11.2
		c13.9,0,17.5-11.6,20.1-20.1c0.4-1.3,0.8-2.6,1.2-3.9c2.5-7.3,14.8-20.5,32.7-30.5c13.4-7.5,26.3-17.8,26.9-18.2
		c1.8-1.4,2.8-3.6,2.8-5.9v-73c0-2.4-1.2-4.7-3.1-6.1C131.4,20.4,93.2,14,74,14c-10,0-13.9,1.6-16,2.8C49.4,21.7,38,49.3,29.6,72.5
		C19.9,79.8,15.2,89.3,16.6,98.7z M40.2,83.5c1.3-0.9,2.3-2.2,2.9-3.7c7.5-21,18.2-45.8,22.5-49.9c0.6-0.2,2.9-0.8,8.4-0.8
		c17.9,0,45.7,5.4,56.2,9.7v64.7c-4.4,3.3-13.1,9.7-21.9,14.6c-19.6,11-35.5,26.6-39.7,38.9c-0.5,1.4-0.9,2.8-1.3,4.2
		c-3,9.5-3.7,9.5-5.7,9.5c-0.5,0-1.4,0-2.3-2.1c-3.2-7.4-0.4-26,16.2-44.1c1.8-2,2.5-4.8,1.6-7.4c-0.8-2.6-2.9-4.5-5.6-5.1
		c-0.2-0.1-22.9-5.1-32.2-8.1c-4.4-1.4-7.3-4.2-7.8-7.5C31,92.4,34.1,87.7,40.2,83.5z"/>
	<path d="M171.4,120.5c6.8,0,12.3-5.5,12.3-12.3V33.7c0-6.8-5.5-12.3-12.3-12.3c-6.8,0-12.3,5.5-12.3,12.3v74.5
		C159.1,115,164.6,120.5,171.4,120.5z"/>
</g>
</svg>
