<?xml version="1.0" encoding="utf-8"?>
<!-- Generated by IcoMoon.io -->
<!DOCTYPE svg PUBLIC "-//W3C//DTD SVG 1.1//EN" "http://www.w3.org/Graphics/SVG/1.1/DTD/svg11.dtd">
<svg version="1.1" xmlns="http://www.w3.org/2000/svg" xmlns:xlink="http://www.w3.org/1999/xlink" width="32" height="32" viewBox="0 0 32 32">
<path d="M15.904 30.528c-8.064 0-14.608-6.56-14.608-14.608 0-8.064 6.56-14.608 14.608-14.608s14.608 6.56 14.608 14.608c0.016 8.048-6.544 14.608-14.608 14.608zM8.624 25.376c2.080 1.6 4.64 2.48 7.28 2.48 2.512 0 4.912-0.768 6.944-2.24l-7.232-7.232-6.992 6.992zM24.88 23.776c1.92-2.176 2.976-4.96 2.976-7.872 0-2.624-0.88-5.2-2.48-7.28l-7.808 7.808 7.312 7.344zM6.208 8.96c-1.472 2.032-2.24 4.432-2.24 6.944 0 2.752 0.96 5.424 2.704 7.552l7.024-7.024-7.488-7.472zM15.616 14.512l7.84-7.84c-2.128-1.744-4.8-2.704-7.552-2.704-2.912 0-5.68 1.056-7.872 2.976l7.584 7.568z" fill="#000000"></path>
</svg>
