<?xml version="1.0" encoding="utf-8"?>
<!-- Generated by IcoMoon.io -->
<!DOCTYPE svg PUBLIC "-//W3C//DTD SVG 1.1//EN" "http://www.w3.org/Graphics/SVG/1.1/DTD/svg11.dtd">
<svg version="1.1" xmlns="http://www.w3.org/2000/svg" xmlns:xlink="http://www.w3.org/1999/xlink" width="32" height="32" viewBox="0 0 32 32">
<path d="M16 1.776c-7.856 0-14.224 6.368-14.224 14.224s6.368 14.224 14.224 14.224 14.224-6.368 14.224-14.224c0-7.856-6.368-14.224-14.224-14.224zM16 28.448c-6.88 0-12.448-5.568-12.448-12.448s5.568-12.448 12.448-12.448 12.448 5.568 12.448 12.448c0 6.88-5.584 12.448-12.448 12.448z" fill="#000000"></path>
<path d="M21.296 8.608l-1.488-1.488-10.736 10.736 1.488 1.488 7.152-7.152 1.488 1.488-7.152 7.152-2.992-2.992-1.488 1.488 1.488 1.488-1.488 1.488 1.488 1.488 1.488-1.488 1.488 1.488 12.208-12.208-2.944-2.976zM21.296 11.584l-0.592 0.592-1.488-1.488 0.592-0.592 1.488 1.488z" fill="#000000"></path>
</svg>
