<?xml version="1.0" encoding="utf-8"?>
<!-- Generated by IcoMoon.io -->
<!DOCTYPE svg PUBLIC "-//W3C//DTD SVG 1.1//EN" "http://www.w3.org/Graphics/SVG/1.1/DTD/svg11.dtd">
<svg version="1.1" xmlns="http://www.w3.org/2000/svg" xmlns:xlink="http://www.w3.org/1999/xlink" width="32" height="32" viewBox="0 0 32 32">
<path d="M4 7.024c0-0.8 0.16-1.536 0.464-2.176s0.752-1.2 1.328-1.648 1.28-0.8 2.112-1.056 1.76-0.368 2.8-0.368c0.464 0 0.896 0.016 1.312 0.064s0.816 0.096 1.216 0.176 0.768 0.176 1.152 0.304c0.384 0.128 0.768 0.272 1.168 0.432l-0.016 2.848c-0.272-0.112-0.592-0.224-0.944-0.352s-0.752-0.24-1.168-0.336-0.88-0.192-1.344-0.256c-0.464-0.064-0.944-0.112-1.424-0.112-1.024 0-1.824 0.208-2.432 0.64-0.592 0.432-0.896 1.008-0.896 1.744 0 0.256 0.064 0.512 0.176 0.784s0.32 0.544 0.624 0.832c0.304 0.288 0.72 0.576 1.248 0.864s1.216 0.576 2.064 0.864c2.544 0.88 4.432 2.144 5.68 3.792s1.856 3.68 1.856 6.096v0.368c0 1.344-0.192 2.576-0.576 3.728s-0.944 2.144-1.68 2.992c-0.736 0.848-1.632 1.504-2.688 1.968-1.056 0.48-2.272 0.704-3.616 0.704s-2.56-0.24-3.632-0.704-1.968-1.136-2.704-1.968-1.296-1.84-1.696-2.992c-0.384-1.152-0.592-2.4-0.592-3.728v-0.368c0-1.056 0.16-2.048 0.48-2.96s0.752-1.744 1.296-2.464c0.544-0.72 1.168-1.328 1.888-1.808s1.472-0.816 2.256-1.008l-0.016-0.096c-1.168-0.464-2.080-1.104-2.704-1.936s-0.992-1.792-0.992-2.864zM5.104 20.528c0 0.912 0.096 1.776 0.304 2.592s0.528 1.536 0.976 2.144c0.432 0.608 0.992 1.088 1.648 1.456s1.456 0.544 2.368 0.544c0.896 0 1.68-0.176 2.352-0.544 0.656-0.368 1.216-0.848 1.648-1.456s0.752-1.328 0.96-2.144 0.304-1.68 0.304-2.592v-0.368c0-0.752-0.128-1.504-0.368-2.256-0.256-0.736-0.608-1.424-1.072-2.032-0.464-0.624-1.008-1.136-1.648-1.584-0.64-0.432-1.344-0.736-2.128-0.896-0.912 0-1.696 0.176-2.368 0.544-0.656 0.368-1.216 0.864-1.664 1.472-0.448 0.624-0.768 1.328-0.992 2.144s-0.32 1.68-0.32 2.576v0.4z" fill="#000000"></path>
</svg>
