<?xml version="1.0" encoding="utf-8"?>
<!-- Generated by IcoMoon.io -->
<!DOCTYPE svg PUBLIC "-//W3C//DTD SVG 1.1//EN" "http://www.w3.org/Graphics/SVG/1.1/DTD/svg11.dtd">
<svg version="1.1" xmlns="http://www.w3.org/2000/svg" xmlns:xlink="http://www.w3.org/1999/xlink" width="32" height="32" viewBox="0 0 32 32">
<path d="M14.224 1.776h1.776v16h-1.776v-16z" fill="#000000"></path>
<path d="M15.12 29.312c-7.36 0-13.344-5.76-13.344-12.832 0-2.896 0.976-5.632 2.832-7.92l1.296 1.056c-1.616 1.984-2.464 4.352-2.464 6.864 0 6.16 5.232 11.168 11.68 11.168 6.432 0 11.68-5.008 11.68-11.168 0-2.752-1.056-5.392-2.976-7.44l1.216-1.136c2.208 2.368 3.424 5.408 3.424 8.592 0 7.056-5.984 12.816-13.344 12.816z" fill="#000000"></path>
</svg>
