<?xml version="1.0" encoding="utf-8"?>
<!-- Generator: Adobe Illustrator 18.0.0, SVG Export Plug-In . SVG Version: 6.00 Build 0)  -->
<!DOCTYPE svg PUBLIC "-//W3C//DTD SVG 1.1//EN" "http://www.w3.org/Graphics/SVG/1.1/DTD/svg11.dtd">
<svg version="1.1" id="Layer_1" xmlns="http://www.w3.org/2000/svg" xmlns:xlink="http://www.w3.org/1999/xlink" x="0px" y="0px"
	 viewBox="0 0 200 200" enable-background="new 0 0 200 200" xml:space="preserve">
<g>
	<path d="M186.1,168.2l-52.7-52.1c-2-2-5.3-2-7.3-0.1c-2,2-2,5.2,0.1,7.2l52.7,52.1c2,2,5.3,2,7.3,0.1
		C188.2,173.5,188.1,170.2,186.1,168.2z"/>
	<path d="M75,11.1c-35.3,0-63.9,27.9-63.9,62.5c0,34.6,28.7,62.6,64,62.7c35.3,0,63.9-27.9,63.9-62.5C138.9,39.2,110.3,11.2,75,11.1
		z M75.1,126.4c-29.7,0-53.8-23.6-53.9-52.7c0-29.1,24-52.6,53.7-52.6c29.7,0,53.8,23.6,53.9,52.7
		C128.9,102.8,104.8,126.4,75.1,126.4z"/>
</g>
</svg>
