<?xml version="1.0" encoding="utf-8"?>
<!-- Generator: Adobe Illustrator 18.1.1, SVG Export Plug-In . SVG Version: 6.00 Build 0)  -->
<!DOCTYPE svg PUBLIC "-//W3C//DTD SVG 1.1//EN" "http://www.w3.org/Graphics/SVG/1.1/DTD/svg11.dtd">
<svg version="1.1" id="Layer_1" xmlns="http://www.w3.org/2000/svg" xmlns:xlink="http://www.w3.org/1999/xlink" x="0px" y="0px"
	 viewBox="0 0 200 200" enable-background="new 0 0 200 200" xml:space="preserve">
<g>
	<polygon points="22.2,22.2 55.5,22.2 55.5,11.1 22.2,11.1 11.1,11.1 11.1,22.2 11.1,55.6 22.2,55.6 	"/>
	<polygon points="22.2,144.5 11.1,144.5 11.1,177.8 11.1,188.9 22.2,188.9 55.5,188.9 55.5,177.8 22.2,177.8 	"/>
	<polygon points="177.8,11.1 144.4,11.1 144.4,22.2 177.8,22.2 177.8,55.6 188.9,55.6 188.9,22.2 188.9,11.1 	"/>
	<polygon points="177.8,177.8 144.4,177.8 144.4,188.9 177.8,188.9 188.9,188.9 188.9,177.8 188.9,144.5 177.8,144.5 	"/>
	<path d="M155.5,155.6v-11.1V55.6V44.5h-11.1H55.5H44.4v11.1v88.9v11.1h11.1h88.9H155.5z M55.5,144.5V55.6h88.9v88.9H55.5z"/>
</g>
</svg>
