<?xml version="1.0" encoding="utf-8"?>
<!-- Generator: Adobe Illustrator 18.1.1, SVG Export Plug-In . SVG Version: 6.00 Build 0)  -->
<!DOCTYPE svg PUBLIC "-//W3C//DTD SVG 1.1//EN" "http://www.w3.org/Graphics/SVG/1.1/DTD/svg11.dtd">
<svg version="1.1" id="Layer_1" xmlns="http://www.w3.org/2000/svg" xmlns:xlink="http://www.w3.org/1999/xlink" x="0px" y="0px"
	 viewBox="0 0 200 200" enable-background="new 0 0 200 200" xml:space="preserve">
<g>
	<path fill-rule="evenodd" clip-rule="evenodd" d="M50,22.2H16.7c-3.1,0-5.6,2.5-5.6,5.6v33.6c0,3.1,2.5,5.6,5.6,5.6
		c3.1,0,5.5-2.5,5.5-5.6V33.4H50c3.1,0,5.6-2.3,5.6-5.5C55.5,24.8,53,22.2,50,22.2z"/>
	<path fill-rule="evenodd" clip-rule="evenodd" d="M183.3,122.2c-3.1,0-5.5,2.5-5.5,5.6v27.7H150c-3.1,0-5.6,3.5-5.6,6.6
		c0,3.1,2.5,4.5,5.6,4.5h33.2c3.1,0,5.6-1.4,5.6-4.5v-34.4C188.9,124.7,186.4,122.2,183.3,122.2z"/>
	<path fill-rule="evenodd" clip-rule="evenodd" d="M50,155.6H22.2v-27.7c0-3.1-2.4-5.6-5.5-5.6c-3.1,0-5.6,2.5-5.6,5.6v34.4
		c0,3.1,2.5,4.5,5.6,4.5H50c3.1,0,5.6-1.4,5.6-4.5C55.5,159,53,155.6,50,155.6z"/>
	<path fill-rule="evenodd" clip-rule="evenodd" d="M183.3,22.2H150c-3.1,0-5.6,2.5-5.6,5.6c0,3.1,2.5,5.5,5.6,5.5h27.7v27.7
		c0,3.1,2.4,5.6,5.5,5.6c3.1,0,5.6-2.5,5.6-5.6V27.8C188.9,24.7,186.4,22.2,183.3,22.2z"/>
</g>
</svg>
