<?xml version="1.0" encoding="utf-8"?>
<!-- Generator: Adobe Illustrator 18.1.1, SVG Export Plug-In . SVG Version: 6.00 Build 0)  -->
<!DOCTYPE svg PUBLIC "-//W3C//DTD SVG 1.1//EN" "http://www.w3.org/Graphics/SVG/1.1/DTD/svg11.dtd">
<svg version="1.1" id="Layer_2" xmlns="http://www.w3.org/2000/svg" xmlns:xlink="http://www.w3.org/1999/xlink" x="0px" y="0px"
	 viewBox="0 0 200 200" enable-background="new 0 0 200 200" xml:space="preserve">
<g>
	<path d="M100,11.2c-49,0-88.8,39.8-88.8,88.8c0,49,39.8,88.8,88.8,88.8c49,0,88.8-39.8,88.8-88.8C188.9,51.1,149,11.2,100,11.2z
		 M23,100.1C23,57.6,57.5,23,100,23c17.8,0,34.3,6.1,47.3,16.3l0.9,0.8L39,147.1C29,134.1,23,117.8,23,100.1z M100,177.2
		c-20.7,0-39.5-8.2-53.4-21.6l-0.3-0.3l110-107.7c12.9,13.8,20.8,32.2,20.8,52.5C177.1,142.6,142.6,177.2,100,177.2z"/>
	<path d="M100.4,33.9c-9.7,0-17.1,2.7-22,7.9c-4.8,5.1-5.6,11.1-5.7,13.7h-0.1v22.2H55.5H44.4v11.1v31.9l11.1-10.9v-21h17.1H77
		l11.3-11.1h-4.6V55.6h0c0.1-1.3,0.6-4,2.8-6.3c2.8-2.9,7.4-4.3,13.9-4.3c6.5,0,11.1,1.4,13.9,4.3c0.6,0.6,1,1.2,1.4,1.8l8-7.8
		c-0.4-0.5-0.8-0.9-1.2-1.4C117.6,36.6,110.2,33.9,100.4,33.9z"/>
	<polygon points="135.6,88.9 144.4,88.9 144.4,133.3 90.2,133.3 78.9,144.5 144.4,144.5 155.5,144.5 155.5,133.3 155.5,88.9 
		155.5,77.8 146.9,77.8 	"/>
</g>
</svg>
