<?xml version="1.0" encoding="utf-8"?>
<!-- Generator: Adobe Illustrator 18.1.1, SVG Export Plug-In . SVG Version: 6.00 Build 0)  -->
<!DOCTYPE svg PUBLIC "-//W3C//DTD SVG 1.1//EN" "http://www.w3.org/Graphics/SVG/1.1/DTD/svg11.dtd">
<svg version="1.1" id="Layer_1" xmlns="http://www.w3.org/2000/svg" xmlns:xlink="http://www.w3.org/1999/xlink" x="0px" y="0px"
	 viewBox="0 0 200 200" enable-background="new 0 0 200 200" xml:space="preserve">
<g>
	<path fill-rule="evenodd" clip-rule="evenodd" d="M83,107.7c4.5,0,8.8,1,13,3.1l4-9.7c-5.4-2.3-11.1-3.5-17-3.5
		c-9.3,0-16.7,2.6-21.9,7.7s-7.9,12.3-7.9,21.6c0,9.5,2.3,16.8,6.8,21.8c4.5,5.1,11.1,7.6,19.7,7.6c3.4,0,6.7-0.2,9.9-0.7
		s6.7-1.3,10.4-2.5v-29.6H77.5v10.1h10.8v11.9c-2.6,0.5-5.2,0.8-7.7,0.8c-4.8,0-8.5-1.6-11.1-4.9c-2.5-3.3-3.8-8-3.8-14.2
		c0-5.9,1.6-10.7,4.7-14.2C73.6,109.5,77.8,107.7,83,107.7z"/>
	<polygon fill-rule="evenodd" clip-rule="evenodd" points="146.6,108.4 146.6,98.5 113.7,98.5 113.7,155.6 146.6,155.6 146.6,145.6 
		125.8,145.6 125.8,130.8 145.2,130.8 145.2,120.9 125.8,120.9 125.8,108.4 	"/>
	<polygon fill-rule="evenodd" clip-rule="evenodd" points="177.8,177.8 22.2,177.8 22.2,166.7 11.1,166.7 11.1,177.8 11.1,188.9 
		22.2,188.9 177.8,188.9 188.9,188.9 188.9,177.8 188.9,166.7 177.8,166.7 	"/>
	<polygon fill-rule="evenodd" clip-rule="evenodd" points="59,22.2 140.9,22.2 179.8,77.8 188.9,71.4 146.9,11.1 53.3,11.1 
		11.1,71.4 20.2,77.8 	"/>
	<circle fill-rule="evenodd" clip-rule="evenodd" cx="100" cy="44.5" r="10.5"/>
</g>
</svg>
