<?xml version="1.0" encoding="utf-8"?>
<!-- Generator: Adobe Illustrator 18.1.1, SVG Export Plug-In . SVG Version: 6.00 Build 0)  -->
<!DOCTYPE svg PUBLIC "-//W3C//DTD SVG 1.1//EN" "http://www.w3.org/Graphics/SVG/1.1/DTD/svg11.dtd">
<svg version="1.1" id="Layer_1" xmlns="http://www.w3.org/2000/svg" xmlns:xlink="http://www.w3.org/1999/xlink" x="0px" y="0px"
	 viewBox="0 0 200 200" enable-background="new 0 0 200 200" xml:space="preserve">
<g>
	<path d="M111.1,11.1H36.4c-1.7,0-3.1,1.4-3.1,3.2v171.4c0,1.8,1.4,3.2,3.1,3.2h117.4c1.7,0,1.7-1.4,1.7-3.2l0-129.7L111.1,11.1z
		 M144.4,55.4h-33.2l-0.1-33.2L144.4,55.4z M144.5,88.9h-0.1v11.2h0.1l0,11h-0.1v11.2h0.1l0,11h-0.1v11.2h0l0,11h0v11.2h0l0,11H55.6
		H44.4V22.4h55.4l0.1,33.1c0,10.5,9.5,11.2,11.2,11.2h33.2h0.1L144.5,88.9z"/>
	<rect x="55.5" y="66.7" width="11.1" height="100"/>
	<rect x="88.9" y="88.9" width="11.1" height="77.8"/>
	<rect x="122.2" y="121.9" width="11.1" height="44.8"/>
</g>
</svg>
