<?xml version="1.0" encoding="utf-8"?>
<!-- Generator: Adobe Illustrator 17.1.0, SVG Export Plug-In . SVG Version: 6.00 Build 0)  -->
<!DOCTYPE svg PUBLIC "-//W3C//DTD SVG 1.1//EN" "http://www.w3.org/Graphics/SVG/1.1/DTD/svg11.dtd">
<svg version="1.1" id="Layer_1" xmlns="http://www.w3.org/2000/svg" xmlns:xlink="http://www.w3.org/1999/xlink" x="0px" y="0px"
	 viewBox="0 0 200 200" enable-background="new 0 0 200 200" xml:space="preserve">
<path d="M77.3,124.8L77.3,124.8c-12.2,0-23.6-4.8-32.2-13.4c-8.6-8.6-13.3-20.1-13.3-32.2c0.1-25,20.5-45.3,45.5-45.3
	c12.2,0,23.6,4.8,32.2,13.4c8.6,8.6,13.3,20,13.3,32.2C122.8,104.4,102.4,124.8,77.3,124.8z M77.3,121.3l0,1.5L77.3,121.3
	C77.3,121.3,77.3,121.3,77.3,121.3z M57.6,115.8c1.7,0.9,3.5,1.8,5.4,2.4c0,0,0,0,0,0l-1.8-1.1l1.2-1.7c0.1-0.1,0.1-0.2,0.2-0.3
	c0.2-0.4,0.6-1,1.2-1.5c0.8-0.6,1.6-1.1,2.4-1.6c0.6-0.4,1.1-0.8,1.7-1.2c0-0.1,0.1-0.1,0.1-0.2c0.1-0.1,0.2-0.3,0.3-0.4
	c0.2-0.2,0.3-0.4,0.4-0.7c0.4-0.7,0.9-1.4,1.6-2c0.8-0.7,1.6-1.3,2.3-1.8c1-0.8,2-1.5,2.8-2.3c1.6-1.7,2.9-3.8,3.7-6.4L78.7,97
	c-1.7-0.5-3.5-1-5.2-1.6c-1-0.3-1.6-1-2-1.6c-0.4-0.5-0.7-0.9-1-1.3c-0.4-0.6-0.8-1.1-1.3-1.5l-0.6-0.5c-1.3-1.1-2.4-2.1-3.8-2.2
	c-0.8-0.1-1.6-0.1-2.3-0.2c-0.9-0.1-1.8-0.2-2.7-0.2c0.2,0.4,0.3,0.8,0.3,1.3c0.1,1.5-1,2.5-1.3,2.9c-0.6,0.6-0.8,1.2-0.4,2.8
	c0.5,1.9,1,3.3,2.2,4.3c2.8,2.2,3.3,6.1,1.3,8.8c-0.8,1.1-1.1,2.5-1.5,4c-0.1,0.3-0.1,0.7-0.2,1C60.1,113.7,59.6,115.7,57.6,115.8z
	 M67.5,115.9c4.4,1.2,8.9,1.6,13.3,1.2c8.7-0.8,16.4-4.4,22.9-10.5c0.2-0.1,0.2-0.2,0.2-0.8c-0.1-0.9,0-1.8,0-2.6c0-0.6,0-1.1,0-1.7
	c0-0.8-0.2-1.7-0.3-2.5c-0.1-0.4-0.1-0.8-0.2-1.2c-0.2-0.8-0.3-1.6-0.4-2.5c0-0.4,0-0.6-0.1-0.7c-0.1,0-0.3,0-0.5,0l-0.1,0
	c-0.4,0-0.8,0-1.2,0.1c-0.9,0.1-1.7,0.1-2.6,0c-4.1-0.5-6.9-3.1-8.3-7.7c-0.4-1.2-0.3-2.7,0.3-4c0.8-1.9,1.8-4,4.1-5.3
	c0.1-0.1,0.1-0.2,0.2-0.3c0.2-0.3,0.4-0.7,0.8-1.1l0.2-0.2c0.1-0.1,0.2-0.2,0.3-0.3c-1.7-1.5-1.1-3.4-0.8-4.2c0-0.1,0.1-0.2,0.1-0.4
	c0.5-2.2,2.1-2.8,3.2-3c-0.2-0.5-0.3-1.4,0.2-2.2c0.3-0.5,0.9-1.2,2.1-1.4c0.1,0,0.2,0,0.2-0.1c0.3-0.1,0.8-0.2,1.3-0.2l0.3,0
	c0.6,0,1.2-0.2,2.1-1.2c1.3-1.4,2.2-2.4,3.7-2.4c0.9,0,1.7,0.4,2.7,1c-2.4-4.6-5.5-8.3-9.1-11.2c-1.9-1.5-4-2.8-6.2-4.1
	c-0.4-0.2-0.7-0.4-1.1-0.7c-0.2,0.4-0.4,0.9-0.6,1.4c-0.2,0.6-0.5,1.1-0.8,1.6c-0.1,0.1-0.1,0.3-0.2,0.4c-0.3,0.8-0.8,1.8-1.8,2.4
	l-0.3,0.2c-1.6,1-3.5,2.1-5.6,2.7c-1.5,0.4-2.3,1-3,2.3c-1,1.8-2.4,2.1-3.2,2.1c-0.7,0-1.4-0.2-2.1-0.6c-2.2-1.2-3.5-3.3-4-6.2
	c-0.1-0.9,0.2-1.6,0.4-2c0-0.1,0.1-0.1,0.1-0.2l0,0c0-0.1,0.1-0.2,0.1-0.3c-0.2-0.5-0.4-1.1-0.6-1.6c-0.6-1.3-1.2-2.6-1.9-3.8
	c-0.2-0.4-0.3-0.4-0.4-0.4c-0.1,0-0.2,0-0.4,0.1c-0.3,0.1-0.7,0.1-1.1,0.1c-0.5,0-1.7-0.1-2.6-0.8l-0.9,0.3
	c-1.2,0.4-2.3,0.8-3.4,1.3c-1.1,0.5-1.1,0.6-0.9,1.2l0.5,2l0.6,0.4l-0.4,0.4L62,49l-0.3-0.1l-0.8,0.9c-0.1,0.1-0.1,0.2-0.2,0.2
	c-0.3,0.4-0.7,0.9-1.4,1.3c-0.6,0.3-1.2,0.5-1.8,0.7c-0.3,0.1-0.6,0.2-0.8,0.3c-0.9,0.4-1.5,1-1.6,1.7c-0.1,0.7,0.3,1.4,1,1.9
	c0.2,0.2,0.4,0.4,0.6,0.5c0.2,0.2,0.5,0.4,0.7,0.6c0.2,0.2,0.5,0.4,0.7,0.5c0.3,0.3,0.7,0.5,1,0.8c0,0,0,0,0-0.1
	c-0.1-0.5-0.3-1.3,0-2.1c0.3-0.9,0.7-1.6,1.1-2.3c0.1-0.2,0.3-0.4,0.4-0.7l1.1-2l1.8,1.4c0.2,0.1,0.4,0.3,0.6,0.4
	c0.6,0.4,1.3,0.9,1.9,1.6c0.1,0.1,0.1,0.2,0.2,0.2c0,0,0,0,0,0c0.6-0.3,1.2-0.5,1.7-0.5c0.6,0,2,0.2,2.8,2.1
	c0.7,1.9,1.7,3.2,3.1,4.1c1.3,0.9,1.5,2,1.5,2.5c0,0.6-0.1,1.7-1.4,2.8c-1.1,0.8-2.2,1.3-3.5,1.2c0,0.1-0.1,0.3-0.2,0.4
	c-0.3,0.5-0.9,1.2-2.1,1.4c-0.9,0.2-1.5,0.6-2.1,1.4c-0.5,0.7-1.3,1-1.8,1.2c-0.1,0-0.2,0.1-0.2,0.1c-1.2,0.5-1.8,1.1-2.1,1.8
	c-0.3,0.6-0.6,1.1-0.9,1.6c-0.5,0.9-0.8,1.4-0.7,2c0.1,0.8-0.3,1.4-0.5,1.7c0,0.1-0.1,0.2-0.2,0.3l-1.4,2.5l-1.9-2.2
	c-0.2-0.2-0.4-0.4-0.5-0.6c-0.2-0.2-0.4-0.5-0.5-0.6L55.3,78c-0.3-0.2-0.7-0.6-0.9-0.6c-0.1,0-0.2,0-0.3,0c-0.6,0-1.3,0.1-2.1,0.3
	c0.1,0.1,0.1,0.1,0.1,0.2c2,1,3.4,2.5,4.6,3.9c0.4,0.4,0.8,0.9,1.2,1.3c0.7,0.7,1,0.8,1.4,0.9c1.2,0.1,2.3,0.2,3.4,0.3
	c0.8,0.1,1.5,0.1,2.3,0.2c2.7,0.2,4.6,1.8,6.1,3.1l0.6,0.5c0.8,0.7,1.4,1.5,1.9,2.2c0.2,0.3,0.5,0.7,0.7,1c0.2,0.2,0.3,0.4,0.4,0.5
	c1.6,0.6,3.3,1.1,4.9,1.5l0.6,0.2c3.2,0.9,2.7,3.4,2.6,3.9c-1,3.6-2.6,6.7-4.9,9c-1,1-2.2,1.9-3.3,2.7c-0.7,0.5-1.4,1.1-2.1,1.6
	c-0.3,0.2-0.5,0.7-0.8,1.1c-0.2,0.3-0.4,0.6-0.6,0.9c0,0.1-0.1,0.1-0.1,0.2c-0.2,0.3-0.5,0.8-1.1,1.2c-0.6,0.4-1.2,0.9-1.9,1.3
	C68,115.5,67.7,115.7,67.5,115.9z M39.6,78.1c-0.1,1.5-0.1,3,0.1,4.4c1.1,12,6.8,21.6,17,28.5c0.4-1.7,0.8-3.7,2.2-5.5
	c0.7-1,0.5-2.4-0.6-3.3c-2.3-1.9-3.1-4.5-3.6-6.3c-0.5-1.7-0.9-4.2,1.3-6.5c0,0,0,0-0.1,0c-0.8-0.7-1.7-1.4-2.4-1.9l-0.3-0.2
	c-1.9-1.4-3.6-2.7-5.8-3.1c-1.4-0.3-2.6-1.5-3.3-2.5c-0.3-0.5-0.6-1-0.9-1.5L42,80.8L39.6,78.1z M102.4,90.6c3.8,0,4.5,2.3,4.6,4.5
	c0,0.6,0.2,1.2,0.3,1.8c0.1,0.5,0.2,0.9,0.3,1.4c0.1,0.9,0.3,1.9,0.3,3c0,0.6,0,1.3,0,1.9c0,0.8,0,1.5,0,2.2c0,0.6,0,1.3-0.2,2.1
	c6.9-7.3,11.1-17.2,11.2-28c-0.5,0.8-1.4,1.2-3,1.7c-0.4,0.1-0.9,0.3-1.5,0.4c-2.3,0.7-4.2,0.2-5.6-1.5c-0.4-0.4-0.8-0.9-1.2-1.3
	c-0.4-0.4-0.9-0.9-1.3-1.3c-0.4-0.4-0.6-0.4-0.6-0.4c0,0-0.1,0-0.1,0l-1.3,0.2c-1.7,0.2-3.4,0.5-5,0.8c-0.2,0.1-0.4,0.4-0.6,0.6
	L98.4,79c0,0.1-0.2,0.3-0.2,0.4c-0.3,0.5-0.7,1.2-1.5,1.6c-1.1,0.7-1.8,1.8-2.5,3.5c-0.2,0.4-0.2,1-0.1,1.3c1,3.2,2.4,4.6,4.9,4.9
	c0.6,0.1,1.2,0,1.8,0c0.5,0,1-0.1,1.4-0.1L102.4,90.6z M42.1,70.8l1.1,1.4c0.1,0.1,0.2,0.2,0.2,0.3c0.3,0.3,0.6,0.7,0.8,1.1
	c0.4,0.7,0.8,1.4,1.1,2.1c0.7,1.3,1.3,2.5,2.1,3.7c0.2,0.4,0.6,0.7,0.7,0.7c0.3,0.1,0.7,0.1,1,0.2c-0.6-0.7-0.9-1.5-1.1-1.9
	c-0.5-1.4-0.2-2.4,0.1-3c0.5-0.9,1.4-1.4,2.6-1.7l0.3-0.1c1.1-0.2,2.5-0.4,3.7-0.3c0.9,0.1,1.6,0.5,2.2,0.9c0.2-0.5,0.5-0.9,0.7-1.3
	c0.2-0.4,0.5-0.8,0.6-1.1c0.9-2.2,2.8-3.3,4.1-3.9c0.2-0.1,0.4-0.2,0.6-0.2c0,0,0,0,0.1,0c0.9-1.1,1.9-1.9,3.1-2.3l-1.4-3.2l3.6,0.5
	c0.2,0,0.4,0,0.5,0.1c0.4,0,0.9,0.1,1.4,0.3c0.1,0,0.2,0.1,0.2,0.1c-1.3-1.1-2.4-2.6-3.2-4.3C67,59,66.5,59.1,66,59.1
	c-1.5,0-2.4-1.1-3.1-1.9c0,0.1,0,0.2,0.1,0.2c0.1,0.4,0.2,0.8,0.2,1.4c0,0.8-0.1,2.4-1.2,3.3c-0.7,0.5-1.5,0.7-2.1,0.7
	c-0.7,0-1.3-0.1-1.9-0.4c-0.9-0.5-1.7-1.1-2.3-1.6c-0.2-0.2-0.4-0.3-0.6-0.5c-0.3-0.2-0.6-0.5-0.9-0.7c-0.2-0.2-0.4-0.3-0.5-0.5
	c-1.8-1.5-2.7-3.5-2.4-5.6c0.2-1.7,1.3-3.2,2.9-4.2c0,0,0,0-0.1,0l-2.6-0.7l1.4-2.3c0-0.1,0.1-0.1,0.1-0.2s0.1-0.2,0.1-0.3
	c-7.8,5.7-13.6,14-15.9,23.7l2.6,2.8L42.1,70.8z M109.9,75.6c0.1,0.2,0.3,0.3,0.4,0.5c0.5,0.5,1,1,1.4,1.5c0.4,0.4,0.6,0.4,0.7,0.4
	c0.2,0,0.4,0,0.7-0.1c0.7-0.2,1.2-0.3,1.6-0.5c0.1,0,0.3-0.1,0.4-0.1c0-0.2,0-0.3,0-0.5c0-0.1,0-0.1,0-0.2c-0.3,0.1-0.7,0.2-1.1,0.2
	c-1.4,0-2.2-1.1-2.5-1.8c-0.3,0.2-0.6,0.4-1,0.5l-0.2,0.1l-0.3,0C110,75.6,110,75.6,109.9,75.6z M105.8,73.1c0.4,0,0.8,0.1,1.2,0.2
	c-0.2-0.4-0.4-0.6-0.5-0.6C106.4,72.7,106.2,72.8,105.8,73.1L105.8,73.1z M99.1,72C99.1,72,99.1,72.1,99.1,72
	c-0.1,0.2-0.1,0.4-0.2,0.6c0,0.1,0,0.1-0.1,0.2c0,0,0.1,0,0.1-0.1c0.5-0.3,1-0.6,1.5-1C100.2,71.9,99.7,72,99.1,72z M117.6,70.3
	l0.6,1.9c-0.5-3.1-1.4-6.1-2.6-8.9c-0.1,0.8-0.4,1.6-1.2,2.2c-1.5,1.2-3.3,1.2-5,0c-0.4-0.3-0.8-0.6-1.1-0.8
	c-0.3,0.3-0.6,0.7-0.9,0.9c-1,1.1-2.5,2.5-4.9,2.5c0.2,1-0.1,1.8-0.4,2.3c-0.1,0.1-0.2,0.3-0.3,0.4c0.2-0.2,0.5-0.3,0.7-0.5l1-0.7
	c1.1-0.7,2.1-1.1,3-1.1c1.7,0,2.8,1.1,3.4,2c0.5-0.4,1-0.7,1.6-0.7c1.3,0,2,1,2.3,1.3c0.2,0.3,0.4,0.6,0.6,0.9
	c0.2-0.1,0.3-0.2,0.4-0.3c0.1-0.1,0.3-0.2,0.4-0.2L117.6,70.3z M77,51.7c0.3,1.4,0.9,2.3,1.9,2.9c1.2-2.2,2.9-3.5,5.5-4.1
	c1.5-0.4,3-1.3,4.4-2.2l0.2-0.1c0.1-0.1,0.2-0.4,0.3-0.7c0.1-0.2,0.2-0.4,0.3-0.6c0.2-0.5,0.5-1,0.7-1.5c0.4-0.9,0.8-1.9,1.4-2.8
	c0.4-0.8,1.3-1.2,2.4-1.2c-5.2-2.3-10.8-3.5-16.6-3.5c-3.4,0-6.6,0.4-9.8,1.2c0.6,0.2,1.1,0.5,1.4,0.8c0.1,0,0.3,0,0.4,0
	c2.2-0.5,4.1,0.3,5.2,2.3c0.7,1.3,1.4,2.7,2,4.1c0.3,0.7,0.7,1.6,0.9,2.5c0.2,0.9,0,1.6-0.1,2.2l0,0.1C77.3,51.2,77.1,51.5,77,51.7z
	 M56.9,43.4c0.2,0,0.5,0,0.7,0.1c0.2-0.3,0.4-0.7,0.6-1c-0.6,0.3-1.1,0.6-1.6,0.9C56.7,43.4,56.8,43.4,56.9,43.4z"/>
<path d="M194,193.3c-1,0-2-0.4-2.8-1.2l-56.7-56.7c-1.6-1.6-1.6-4.1,0-5.7c1.6-1.6,4.1-1.6,5.7,0l56.7,56.7c1.6,1.6,1.6,4.1,0,5.7
	C196,192.9,195,193.3,194,193.3z"/>
<path d="M77.4,15c35.5,0,64.3,28.8,64.3,64.3s-28.8,64.3-64.3,64.3s-64.3-28.8-64.3-64.3S41.9,15,77.4,15 M77.4,7
	C37.5,7,5.1,39.4,5.1,79.3s32.4,72.3,72.3,72.3s72.3-32.4,72.3-72.3S117.3,7,77.4,7L77.4,7z"/>
</svg>
