<?xml version="1.0" encoding="utf-8"?>
<!-- Generated by IcoMoon.io -->
<!DOCTYPE svg PUBLIC "-//W3C//DTD SVG 1.1//EN" "http://www.w3.org/Graphics/SVG/1.1/DTD/svg11.dtd">
<svg version="1.1" xmlns="http://www.w3.org/2000/svg" xmlns:xlink="http://www.w3.org/1999/xlink" width="32" height="32" viewBox="0 0 32 32">
<path d="M16.080 28.72c-7.552 0-12.448-1.952-12.624-3.36v-4c0.752 0.48 1.744 0.912 2.944 1.296 2.592 0.816 6.032 1.264 9.68 1.264 0.576 0 1.136-0.016 1.696-0.032v-1.504c-0.56 0.016-1.12 0.032-1.696 0.032-7.712 0-12.624-2.032-12.624-3.424v-3.776c0.752 0.48 1.744 0.912 2.944 1.296 2.592 0.816 6.032 1.264 9.68 1.264 0.576 0 1.136-0.016 1.696-0.032v-1.504c-0.56 0.016-1.12 0.032-1.696 0.032-7.712 0-12.624-2.032-12.624-3.424v-3.744c0.752 0.48 1.744 0.912 2.944 1.296 2.592 0.816 6.032 1.264 9.68 1.264s7.088-0.448 9.68-1.264c1.136-0.352 2.048-0.768 2.768-1.216v1.504h1.696v-3.904c0-0.016 0-0.048 0-0.064 0 0 0 0 0 0v0c0-0.048 0-0.080 0-0.128v-0.48h0.016c-0.368-1.232-1.936-2.288-4.448-3.072-2.592-0.816-6.032-1.264-9.68-1.264s-7.088 0.448-9.68 1.264c-2.512 0.784-4.256 1.84-4.624 3.648v19.344l0.016 0.048 0.144 0.032c1.104 2.704 7.84 4.128 14.144 4.128 0.56 0 1.12-0.016 1.696-0.032v-1.504c-0.592 0-1.152 0.016-1.728 0.016zM6.848 4.48c2.464-0.768 5.728-1.184 9.232-1.184 7.712 0 12.448 2.032 12.448 3.424 0 0 0 0 0 0 0 0.016 0 0.048 0 0.064v0.048c-0.096 0.544-0.864 1.392-3.2 2.128-2.464 0.768-5.728 1.184-9.232 1.184-7.712 0-12.624-2.032-12.624-3.424-0.016-0.544 0.88-1.456 3.376-2.24z" fill="#000000"></path>
<path d="M23.248 25.216v-0.688c0-0.784 0.144-1.424 0.432-1.952 0.288-0.512 0.784-1.056 1.488-1.616 0.848-0.672 1.392-1.184 1.632-1.552s0.368-0.816 0.368-1.328c0-0.592-0.192-1.056-0.592-1.376s-0.976-0.48-1.712-0.48c-0.672 0-1.296 0.096-1.872 0.288s-1.136 0.416-1.68 0.688l-0.912-1.84c1.44-0.8 2.992-1.2 4.64-1.2 1.392 0 2.496 0.336 3.312 1.024s1.232 1.616 1.232 2.832c0 0.528-0.080 1.008-0.24 1.424s-0.4 0.816-0.704 1.184c-0.32 0.384-0.864 0.864-1.632 1.472-0.656 0.512-1.104 0.944-1.328 1.296-0.224 0.336-0.336 0.8-0.336 1.376v0.48h-2.096zM22.816 28.624c0-1.072 0.528-1.616 1.568-1.616 0.512 0 0.896 0.144 1.168 0.416 0.272 0.288 0.4 0.672 0.4 1.184s-0.144 0.912-0.416 1.2c-0.272 0.288-0.656 0.448-1.168 0.448s-0.896-0.144-1.168-0.432c-0.256-0.288-0.384-0.688-0.384-1.2z" fill="#000000"></path>
</svg>
