<?xml version="1.0" encoding="utf-8"?>
<!-- Generator: Adobe Illustrator 18.1.1, SVG Export Plug-In . SVG Version: 6.00 Build 0)  -->
<!DOCTYPE svg PUBLIC "-//W3C//DTD SVG 1.1//EN" "http://www.w3.org/Graphics/SVG/1.1/DTD/svg11.dtd">
<svg version="1.1" id="Layer_1" xmlns="http://www.w3.org/2000/svg" xmlns:xlink="http://www.w3.org/1999/xlink" x="0px" y="0px"
	 viewBox="0 0 200 200" enable-background="new 0 0 200 200" xml:space="preserve">
<g>
	<rect x="11.1" y="22.2" width="11.1" height="11.1"/>
	<rect x="11.1" y="44.5" width="11.1" height="11.1"/>
	<rect x="11.1" y="66.7" width="11.1" height="11.1"/>
	<rect x="11.1" y="133.3" width="11.1" height="11.1"/>
	<rect x="11.1" y="155.6" width="11.1" height="11.1"/>
	<rect x="100" y="22.2" width="11.1" height="11.1"/>
	<rect x="100" y="44.5" width="11.1" height="11.1"/>
	<rect x="100" y="88.9" width="11.1" height="11.1"/>
	<rect x="100" y="111.1" width="11.1" height="11.1"/>
	<rect x="100" y="133.3" width="11.1" height="11.1"/>
	<rect x="100" y="155.6" width="11.1" height="11.1"/>
	<rect x="177.8" y="22.2" width="11.1" height="11.1"/>
	<rect x="177.8" y="44.5" width="11.1" height="11.1"/>
	<rect x="177.8" y="111.1" width="11.1" height="11.1"/>
	<rect x="177.8" y="133.3" width="11.1" height="11.1"/>
	<rect x="177.8" y="155.6" width="11.1" height="11.1"/>
	<path d="M189.2,94.4c0.2-0.4,0.3-1.2-0.3-2.5v-2.9v-5.5c-1.5-3.3-3.7-4.9-6.2-5.6h6.2V66.7h-11.1v10.8c-2.7,0.2-5.4,1-7.3,1.6
		c-9.8,2.7-26.2,7.3-42.4-8.1C112.8,56.5,94,52.1,77.8,59c-15.2,6.5-25,21.7-24.9,38.6c0,3.8-0.8,4.8-0.8,4.8
		c-1.8,10.6-16.7-0.6-29.8-10.7v-2.8h-3.6c-2.7-2.1-5.2-4-7.5-5.5v5.5V100v5.6c1.9,1.3,4.8,3.4,8.2,5.5h-8.2v11.1h11.1v-9.3
		c7.8,4.6,17.8,9.3,27.8,9.3c4,0,7.8-0.7,11.1-2.5c5.2-2.7,11.3-8.8,11.3-22.2c0-9.1,5.2-17.2,13.1-20.6c4.5-1.9,9.4-2.1,14.4-0.7
		v1.5h4.1c3.6,1.6,7.1,4.1,10.5,7.3c18.8,17.9,46.6,15.5,63.2,12.1v2.8h11.1v-5.3C189,94.6,189.1,94.5,189.2,94.4
		C189.5,94.3,189.4,94.3,189.2,94.4z"/>
</g>
</svg>
