<?xml version="1.0" encoding="utf-8"?>
<!-- Generator: Adobe Illustrator 18.1.1, SVG Export Plug-In . SVG Version: 6.00 Build 0)  -->
<!DOCTYPE svg PUBLIC "-//W3C//DTD SVG 1.1//EN" "http://www.w3.org/Graphics/SVG/1.1/DTD/svg11.dtd">
<svg version="1.1" id="Layer_1" xmlns="http://www.w3.org/2000/svg" xmlns:xlink="http://www.w3.org/1999/xlink" x="0px" y="0px"
	 viewBox="0 0 200 200" enable-background="new 0 0 200 200" xml:space="preserve">
<path d="M171.6,54c-7.6,0-13.9,5.6-15.1,12.9l-34.6,28.7c-1.5-0.5-3-0.7-4.6-0.7c-3.8,0-7.3,1.4-10,3.7l-22.8-11
	c-1-7.5-7.4-13.2-15.2-13.2c-8.5,0-15.3,6.9-15.3,15.3c0,1.6,0.3,3.2,0.7,4.6l-20,22.3c-1.9-0.9-4-1.3-6.2-1.3
	c-8.5,0-15.3,6.9-15.3,15.3c0,8.5,6.9,15.3,15.3,15.3c8.5,0,15.3-6.9,15.3-15.3c0-2.7-0.7-5.2-1.9-7.4l18.8-20.9
	c2.5,1.7,5.4,2.7,8.6,2.7c5.7,0,10.7-3.2,13.4-7.8l19.6,9.5c-0.3,1.1-0.4,2.3-0.4,3.5c0,8.5,6.9,15.3,15.3,15.3
	c8.5,0,15.3-6.9,15.3-15.3c0-3.2-1-6.2-2.7-8.7l28.8-23.9c2.7,4.2,7.5,7,12.9,7c8.5,0,15.3-6.9,15.3-15.3
	C187,60.8,180.1,54,171.6,54z"/>
</svg>
