<?xml version="1.0" encoding="utf-8"?>
<!-- Generated by IcoMoon.io -->
<!DOCTYPE svg PUBLIC "-//W3C//DTD SVG 1.1//EN" "http://www.w3.org/Graphics/SVG/1.1/DTD/svg11.dtd">
<svg version="1.1" xmlns="http://www.w3.org/2000/svg" xmlns:xlink="http://www.w3.org/1999/xlink" width="32" height="32" viewBox="0 0 32 32">
<path d="M17.184 29.808c-6.96 0-12.128-5.12-12.128-12.080 0-0.464 0.384-0.848 0.848-0.848s2.464 0.912 2.464 1.392c0 6.016 4.928 8.064 8.24 8.24 6.016 0.32 10.128-3.872 9.888-9.888-0.176-4.496-4.128-8.24-8.24-8.24-0.464 0-1.232-1.984-1.232-2.464 0-0.464 0.384-0.848 0.848-0.848 6.96 0 11.92 5.168 11.92 12.128 0.016 6.944-5.648 12.608-12.608 12.608z" fill="#000000"></path>
<path d="M14.096 14.976h-11.44c-0.48 0-0.88-0.4-0.88-0.88 0-6.848 5.472-12.32 12.32-12.32 0.48 0 0.88 0.4 0.88 0.88v11.44c0 0.48-0.4 0.88-0.88 0.88zM5.072 11.664h6.592v-6.592c-3.040 1.968-4.144 2.88-6.592 6.592z" fill="#000000"></path>
</svg>
