<?xml version="1.0" encoding="utf-8"?>
<!-- Generated by IcoMoon.io -->
<!DOCTYPE svg PUBLIC "-//W3C//DTD SVG 1.1//EN" "http://www.w3.org/Graphics/SVG/1.1/DTD/svg11.dtd">
<svg version="1.1" xmlns="http://www.w3.org/2000/svg" xmlns:xlink="http://www.w3.org/1999/xlink" width="32" height="32" viewBox="0 0 32 32">
<path d="M10.672 1.792h-5.344c-2.16 0-3.536 1.376-3.536 3.536v5.328c0 2.16 1.376 3.552 3.536 3.552h5.328c2.16 0 3.68-1.392 3.68-3.552v-5.328c0.016-2.16-1.504-3.536-3.664-3.536zM12.448 10.672c0 1.28-0.496 1.776-1.776 1.776h-5.344c-1.28 0-1.776-0.496-1.776-1.776v-5.344c0-1.28 0.496-1.776 1.776-1.776h5.328c1.28 0 1.776 0.496 1.776 1.776v5.344z" fill="#000000"></path>
<path d="M24.864 1.792h-5.328c-2.16 0-3.536 1.376-3.536 3.536v5.328c0 2.16 1.376 3.552 3.536 3.552h5.328c2.16 0 3.68-1.392 3.68-3.552v-5.328c0.016-2.16-1.504-3.536-3.68-3.536zM26.656 10.672c0 1.28-0.496 1.776-1.776 1.776h-5.328c-1.28 0-1.776-0.496-1.776-1.776v-5.344c0-1.28 0.496-1.776 1.776-1.776h5.328c1.28 0 1.776 0.496 1.776 1.776v5.344z" fill="#000000"></path>
<path d="M10.672 16h-5.344c-2.16 0-3.536 1.376-3.536 3.536v5.328c0 2.16 1.376 3.552 3.536 3.552h5.328c2.16 0 3.68-1.392 3.68-3.552v-5.328c0.016-2.16-1.504-3.536-3.664-3.536zM12.448 24.88c0 1.28-0.496 1.776-1.776 1.776h-5.344c-1.28 0-1.776-0.496-1.776-1.776v-5.328c0-1.28 0.496-1.776 1.776-1.776h5.328c1.28 0 1.776 0.496 1.776 1.776v5.328z" fill="#000000"></path>
<path d="M24.864 16h-5.328c-2.16 0-3.536 1.376-3.536 3.536v5.328c0 2.16 1.376 3.552 3.536 3.552h5.328c2.16 0 3.68-1.392 3.68-3.552v-5.328c0.016-2.16-1.504-3.536-3.68-3.536zM26.656 24.88c0 1.28-0.496 1.776-1.776 1.776h-5.328c-1.28 0-1.776-0.496-1.776-1.776v-5.328c0-1.28 0.496-1.776 1.776-1.776h5.328c1.28 0 1.776 0.496 1.776 1.776v5.328z" fill="#000000"></path>
</svg>
