<?xml version="1.0" encoding="utf-8"?>
<!-- Generator: Adobe Illustrator 18.1.1, SVG Export Plug-In . SVG Version: 6.00 Build 0)  -->
<!DOCTYPE svg PUBLIC "-//W3C//DTD SVG 1.1//EN" "http://www.w3.org/Graphics/SVG/1.1/DTD/svg11.dtd">
<svg version="1.1" id="Layer_1" xmlns="http://www.w3.org/2000/svg" xmlns:xlink="http://www.w3.org/1999/xlink" x="0px" y="0px"
	 viewBox="0 0 200 200" enable-background="new 0 0 200 200" xml:space="preserve">
<g>
	<polygon fill="#231F20" points="177.8,11.1 133.3,11.1 133.3,22.2 177.8,22.2 177.8,66.7 188.9,66.7 188.9,22.2 188.9,11.1 	"/>
	<polygon fill="#231F20" points="22.2,22.2 66.7,22.2 66.7,11.1 22.2,11.1 11.1,11.1 11.1,22.2 11.1,66.7 22.2,66.7 	"/>
	<polygon fill="#231F20" points="22.2,133.3 11.1,133.3 11.1,177.8 11.1,188.9 22.2,188.9 66.7,188.9 66.7,177.8 22.2,177.8 	"/>
	<polygon fill="#231F20" points="177.8,177.8 133.3,177.8 133.3,188.9 177.8,188.9 188.9,188.9 188.9,177.8 188.9,133.3 
		177.8,133.3 	"/>
	<polygon fill="#231F20" points="100,55.6 144.4,55.6 144.4,100 133.3,100 133.3,111.1 144.4,111.1 155.5,111.1 155.5,100 
		155.5,55.6 155.5,44.5 100,44.5 88.9,44.5 88.9,55.6 88.9,66.7 100,66.7 	"/>
	<path fill="#231F20" d="M55.5,77.8H44.4v11.1v55.5v11.1h11.1h55.5h11.1v-11.1V88.9V77.8h-11.1H55.5z M111.1,144.5H55.5V88.9h55.5
		V144.5z"/>
</g>
</svg>
