<?xml version="1.0" encoding="utf-8"?>
<!-- Generator: Adobe Illustrator 18.1.1, SVG Export Plug-In . SVG Version: 6.00 Build 0)  -->
<!DOCTYPE svg PUBLIC "-//W3C//DTD SVG 1.1//EN" "http://www.w3.org/Graphics/SVG/1.1/DTD/svg11.dtd">
<svg version="1.1" id="Layer_1" xmlns="http://www.w3.org/2000/svg" xmlns:xlink="http://www.w3.org/1999/xlink" x="0px" y="0px"
	 viewBox="0 0 16 16" enable-background="new 0 0 16 16" xml:space="preserve">
<g>
	<path d="M8.2,8.7c0.6,0,1.1,0.1,1.6,0.3c0.5,0.2,1,0.5,1.3,0.9s0.7,0.8,0.9,1.4c0.2,0.5,0.3,1.1,0.3,1.7c-0.1,0-0.2,0-0.3,0
		c-0.1,0-0.2,0-0.3,0c0-0.5-0.1-1-0.3-1.4s-0.4-0.8-0.8-1.2c-0.3-0.3-0.7-0.6-1.1-0.8S8.7,9.4,8.2,9.4s-1,0.1-1.4,0.3
		C6.4,9.9,6,10.1,5.7,10.5c-0.3,0.3-0.6,0.7-0.8,1.2S4.6,12.5,4.6,13c-0.1,0-0.2,0-0.3,0S4.1,13,4,13c0-0.6,0.1-1.1,0.3-1.7
		c0.2-0.5,0.5-1,0.9-1.4c0.4-0.4,0.8-0.7,1.4-0.9S7.7,8.7,8.2,8.7z M7.9,8.7c-0.4,0-0.7-0.1-1-0.2C6.6,8.4,6.3,8.3,6.1,8
		C5.8,7.8,5.6,7.6,5.5,7.3C5.4,7,5.3,6.6,5.3,6.3c0-0.3,0.1-0.7,0.2-1c0.1-0.3,0.3-0.6,0.6-0.8C6.3,4.3,6.6,4.2,6.9,4
		c0.3-0.1,0.7-0.2,1-0.2c0.4,0,0.7,0.1,1,0.2s0.6,0.3,0.8,0.5c0.2,0.2,0.4,0.5,0.6,0.8c0.1,0.3,0.2,0.6,0.2,1c0,0.3-0.1,0.7-0.2,0.9
		C10.2,7.6,10,7.8,9.8,8C9.5,8.3,9.2,8.4,8.9,8.6S8.3,8.7,7.9,8.7z M7.9,4.5c-0.5,0-1,0.2-1.4,0.5C6.1,5.4,5.9,5.8,5.9,6.3
		c0,0.5,0.2,0.9,0.6,1.3C6.9,8,7.4,8.1,7.9,8.1c0.5,0,1-0.2,1.4-0.5c0.4-0.4,0.6-0.8,0.6-1.3c0-0.5-0.2-0.9-0.6-1.3
		C8.9,4.6,8.5,4.5,7.9,4.5z"/>
</g>
<path d="M15.5,10.1c-0.2-0.5-0.5-1-0.9-1.4c-0.4-0.4-0.8-0.7-1.3-0.9s-1.1-0.3-1.6-0.3c-0.6,0-1.1,0.1-1.7,0.3C9.5,8,9,8.3,8.6,8.7
	C8.5,8.8,8.4,9,8.3,9.1h0.9c0.3-0.3,0.6-0.5,1-0.7c0.4-0.2,0.9-0.3,1.4-0.3c0.5,0,1,0.1,1.4,0.3s0.8,0.4,1.1,0.8
	c0.3,0.3,0.6,0.7,0.8,1.2s0.3,0.9,0.3,1.4c0.1,0,0.2,0,0.3,0s0.2,0,0.3,0C15.9,11.2,15.8,10.6,15.5,10.1z"/>
<path fill="none" d="M4,6.9c0.5,0,1-0.2,1.4-0.5C5.8,6,6,5.5,6,5c0-0.5-0.2-0.9-0.6-1.3C5,3.4,4.6,3.2,4,3.2c-0.5,0-1,0.2-1.4,0.5
	S2.1,4.5,2.1,5c0,0.5,0.2,0.9,0.6,1.3S3.5,6.9,4,6.9z"/>
<path d="M7.4,8.7C7,8.3,6.5,8,6,7.8S5,7.5,4.4,7.5S3.2,7.6,2.7,7.8s-1,0.5-1.4,0.9C1,9.1,0.7,9.6,0.5,10.1c-0.2,0.5-0.3,1.1-0.3,1.7
	c0.1,0,0.2,0,0.3,0s0.2,0,0.3,0c0-0.5,0.1-1,0.3-1.4s0.4-0.8,0.8-1.2C2.2,8.9,2.5,8.6,3,8.4s0.9-0.3,1.4-0.3s1,0.1,1.4,0.3
	s0.8,0.4,1.1,0.8c0,0,0.1,0.1,0.1,0.1h0.8C7.7,9.1,7.6,8.9,7.4,8.7z"/>
<path d="M5.6,6.1C5.6,6.1,5.5,6.2,5.4,6.3C5,6.7,4.6,6.9,4,6.9c-0.5,0-1-0.2-1.4-0.5S2.1,5.5,2.1,5c0-0.5,0.2-0.9,0.6-1.3
	S3.5,3.2,4,3.2c0.5,0,1,0.2,1.4,0.5C5.7,4,5.9,4.3,6,4.7h0.7c0-0.2-0.1-0.4-0.2-0.6C6.3,3.8,6.1,3.5,5.9,3.3
	C5.7,3.1,5.4,2.9,5.1,2.8C4.7,2.6,4.4,2.6,4,2.6c-0.4,0-0.7,0.1-1,0.2S2.4,3.1,2.2,3.3C2,3.5,1.8,3.8,1.6,4.1S1.4,4.7,1.4,5
	c0,0.3,0.1,0.7,0.2,0.9S2,6.5,2.2,6.7C2.4,7,2.7,7.1,3,7.3s0.7,0.2,1,0.2c0.4,0,0.7-0.1,1-0.2c0.2-0.1,0.4-0.2,0.6-0.3V6.1z"/>
<path d="M13.7,4.1c-0.1-0.3-0.3-0.6-0.6-0.8c-0.2-0.2-0.5-0.4-0.8-0.5c-0.3-0.1-0.7-0.2-1-0.2c-0.4,0-0.7,0.1-1,0.2S9.7,3.1,9.5,3.3
	C9.2,3.5,9,3.8,8.9,4.1C8.8,4.2,8.8,4.3,8.8,4.4h0.7c0.1-0.3,0.2-0.5,0.4-0.7c0.4-0.4,0.8-0.5,1.4-0.5c0.5,0,1,0.2,1.4,0.5
	s0.6,0.8,0.6,1.3c0,0.5-0.2,0.9-0.6,1.3s-0.8,0.5-1.4,0.5c-0.5,0-1-0.2-1.4-0.5c0,0,0,0-0.1-0.1V7c0.1,0.1,0.3,0.2,0.4,0.2
	c0.3,0.1,0.7,0.2,1,0.2c0.4,0,0.7-0.1,1-0.2s0.6-0.3,0.8-0.5c0.2-0.2,0.4-0.5,0.6-0.8c0.1-0.3,0.2-0.6,0.2-0.9
	C13.9,4.7,13.9,4.4,13.7,4.1z"/>
</svg>
