<?xml version="1.0" encoding="utf-8"?>
<!-- Generated by IcoMoon.io -->
<!DOCTYPE svg PUBLIC "-//W3C//DTD SVG 1.1//EN" "http://www.w3.org/Graphics/SVG/1.1/DTD/svg11.dtd">
<svg version="1.1" xmlns="http://www.w3.org/2000/svg" xmlns:xlink="http://www.w3.org/1999/xlink" width="32" height="32" viewBox="0 0 32 32">
<path d="M3.552 3.552h5.328v-1.776h-7.104v7.12h1.776z" fill="#000000"></path>
<path d="M3.552 23.12h-1.776v7.104h7.104v-1.776h-5.328z" fill="#000000"></path>
<path d="M28.448 1.776h-5.344v1.776h5.344v5.344h1.776v-7.12z" fill="#000000"></path>
<path d="M28.448 28.448h-5.344v1.776h7.12v-7.104h-1.776z" fill="#000000"></path>
<path d="M15.648 5.904c-1.104-0.368-2.56-0.576-4.080-0.576-1.536 0-2.976 0.208-4.080 0.576-1.776 0.592-2.144 1.44-2.144 2.064 0 0.016 0 0.032 0 0.048v0 4.576c0 0.224 0.048 0.48 0.208 0.752 0.256 0.448 0.816 0.928 1.936 1.312 1.104 0.368 2.56 0.576 4.080 0.576 1.536 0 2.976-0.208 4.080-0.576 1.12-0.368 1.68-0.848 1.936-1.312 0.112-0.208 0.176-0.4 0.192-0.576v-4.624c0-0.064 0.016-0.112 0.016-0.16 0-0.624-0.384-1.488-2.144-2.080zM6.992 7.968c0.32-0.336 1.856-0.992 4.56-0.992 2.72 0 4.256 0.656 4.56 0.992-0.016 0.016-0.032 0.032-0.048 0.048s-0.048 0.032-0.080 0.064c-0.48 0.352-1.968 0.88-4.432 0.88-2.48 0-3.968-0.544-4.448-0.896-0.016-0.016-0.048-0.032-0.064-0.048s-0.032-0.032-0.048-0.048zM11.552 13.6c-2.48 0-3.968-0.544-4.448-0.896v-2.816c0.112 0.048 0.24 0.096 0.368 0.128 0.288 0.096 0.608 0.176 0.944 0.256 0.928 0.208 2.016 0.32 3.152 0.32s2.208-0.112 3.152-0.32c0.336-0.080 0.656-0.16 0.944-0.256 0.128-0.048 0.24-0.080 0.352-0.128v2.8c-0.512 0.368-2 0.912-4.464 0.912z" fill="#000000"></path>
<path d="M24.528 17.344c-1.104-0.368-2.56-0.576-4.080-0.576-1.536 0-2.976 0.208-4.080 0.576-1.776 0.592-2.144 1.44-2.144 2.064 0 0.016 0 0.032 0 0.048v0 4.576c0 0.224 0.048 0.48 0.208 0.752 0.256 0.448 0.816 0.928 1.936 1.312 1.104 0.368 2.56 0.576 4.080 0.576 1.536 0 2.976-0.208 4.080-0.576 1.12-0.368 1.68-0.848 1.936-1.312 0.112-0.208 0.176-0.4 0.192-0.576v-4.624c0-0.064 0.016-0.112 0.016-0.16-0.016-0.624-0.384-1.488-2.144-2.080zM15.872 19.408c0.32-0.336 1.856-0.992 4.56-0.992 2.72 0 4.256 0.656 4.56 0.992-0.016 0.016-0.032 0.032-0.048 0.048s-0.048 0.032-0.080 0.064c-0.496 0.352-1.984 0.896-4.432 0.896-2.48 0-3.968-0.544-4.448-0.896-0.016-0.016-0.048-0.032-0.064-0.048-0.016-0.032-0.032-0.048-0.048-0.064zM20.432 25.040c-2.48 0-3.968-0.544-4.448-0.896v-2.8c0.112 0.048 0.24 0.096 0.368 0.128 0.288 0.096 0.608 0.176 0.944 0.256 0.928 0.208 2.016 0.32 3.152 0.32s2.208-0.112 3.152-0.32c0.336-0.080 0.656-0.16 0.944-0.256 0.128-0.048 0.24-0.080 0.352-0.128v2.8c-0.512 0.352-2 0.896-4.464 0.896z" fill="#000000"></path>
</svg>
