<?xml version="1.0" encoding="utf-8"?>
<!-- Generator: Adobe Illustrator 18.1.1, SVG Export Plug-In . SVG Version: 6.00 Build 0)  -->
<!DOCTYPE svg PUBLIC "-//W3C//DTD SVG 1.1//EN" "http://www.w3.org/Graphics/SVG/1.1/DTD/svg11.dtd">
<svg version="1.1" id="Layer_1" xmlns="http://www.w3.org/2000/svg" xmlns:xlink="http://www.w3.org/1999/xlink" x="0px" y="0px"
	 viewBox="0 0 200 200" enable-background="new 0 0 200 200" xml:space="preserve">
<path fill-rule="evenodd" clip-rule="evenodd" d="M146.8,172.9L77,103c-1-1-2.1-2-3.2-3.1c1.1-1,2.2-2,3.1-3l69.5-69.8
	c3.7-3.8,9.3-10,5.1-14.3c-1-1-2.1-1.5-3.1-1.7l0-0.1h-0.6c-0.1,0-0.2,0-0.2,0h-13.2c-3.8-0.2-7.7,4-10.5,6.8L54.3,87.8
	c-2.1,2.2-5.2,4.9-6.4,7.8c-0.9,1.2-1.4,2.6-1.4,4.1c0,1.3,0.4,2.5,1,3.5c0.8,3.3,4.4,6.5,6.9,8.9l69.8,69.8
	c2.8,2.8,6.6,6.8,10.3,6.8v0H148l0,0c1.4,0,2.7-0.5,4-1.7C156.2,182.9,150.6,176.6,146.8,172.9z"/>
</svg>
