<?xml version="1.0" encoding="utf-8"?>
<!-- Generated by IcoMoon.io -->
<!DOCTYPE svg PUBLIC "-//W3C//DTD SVG 1.1//EN" "http://www.w3.org/Graphics/SVG/1.1/DTD/svg11.dtd">
<svg version="1.1" xmlns="http://www.w3.org/2000/svg" xmlns:xlink="http://www.w3.org/1999/xlink" width="32" height="32" viewBox="0 0 32 32">
<path d="M15.744 1.776c-7.712 0-13.968 6.256-13.968 13.968s6.256 13.968 13.968 13.968c7.712 0 13.968-6.256 13.968-13.968s-6.256-13.968-13.968-13.968zM24.080 11.312l-10.176 10.416c-0.048 0.048-0.096 0.096-0.144 0.16-0.048 0.080-0.112 0.16-0.192 0.256-0.352 0.368-0.656 0.4-0.96 0.288-0.16-0.048-0.336-0.16-0.544-0.368-0.048-0.048-0.080-0.080-0.112-0.128-0.064-0.064-0.128-0.128-0.176-0.176l-4.080-4.304c-0.56-0.576-1.104-1.12-0.368-1.888 0.656-0.672 1.216-0.128 1.776 0.448l3.616 3.712 9.808-10c0.56-0.56 0.8-1.392 1.888-0.288 0.976 0.992 0.224 1.312-0.336 1.872z" fill="#000000"></path>
</svg>
