<?xml version="1.0" encoding="utf-8"?>
<!-- Generated by IcoMoon.io -->
<!DOCTYPE svg PUBLIC "-//W3C//DTD SVG 1.1//EN" "http://www.w3.org/Graphics/SVG/1.1/DTD/svg11.dtd">
<svg version="1.1" xmlns="http://www.w3.org/2000/svg" xmlns:xlink="http://www.w3.org/1999/xlink" width="32" height="32" viewBox="0 0 32 32">
<path d="M15.744 1.776c-7.712 0-13.968 6.256-13.968 13.968s6.256 13.968 13.968 13.968 13.968-6.256 13.968-13.968-6.256-13.968-13.968-13.968zM15.088 25.696c-0.992 0-1.68-0.768-1.68-1.76 0-1.056 0.704-1.792 1.712-1.792 0.992 0 1.68 0.736 1.68 1.792 0 0.992-0.656 1.76-1.712 1.76zM17.856 15.024c-1.248 1.472-1.712 2.736-1.616 4.176l0.032 0.736h-2.24l-0.064-0.736c-0.176-1.536 0.336-3.216 1.76-4.928 1.28-1.504 1.984-2.624 1.984-3.904 0-1.456-0.912-2.416-2.704-2.448-1.024 0-2.16 0.336-2.88 0.88l-0.656-1.76c0.944-0.688 2.56-1.136 4.064-1.136 3.264 0 4.752 2.016 4.752 4.176 0 1.936-1.072 3.328-2.432 4.944z" fill="#000000"></path>
</svg>
