<?xml version="1.0" encoding="utf-8"?>
<!-- Generator: Adobe Illustrator 17.1.0, SVG Export Plug-In . SVG Version: 6.00 Build 0)  -->
<!DOCTYPE svg PUBLIC "-//W3C//DTD SVG 1.1//EN" "http://www.w3.org/Graphics/SVG/1.1/DTD/svg11.dtd">
<svg version="1.1" id="Layer_1" xmlns="http://www.w3.org/2000/svg" xmlns:xlink="http://www.w3.org/1999/xlink" x="0px" y="0px"
	 viewBox="0 0 200 200" enable-background="new 0 0 200 200" xml:space="preserve">
<path d="M-145.2-132.8L-145.2-132.8c-12.2,0-23.6-4.8-32.2-13.4c-8.6-8.6-13.3-20.1-13.3-32.2c0.1-25,20.5-45.3,45.5-45.3
	c12.2,0,23.6,4.8,32.2,13.4c8.6,8.6,13.3,20,13.3,32.2C-99.7-153.1-120.1-132.8-145.2-132.8z M-145.2-136.3l0,1.5L-145.2-136.3
	C-145.2-136.3-145.2-136.3-145.2-136.3z M-164.9-141.7c1.7,0.9,3.5,1.8,5.4,2.4c0,0,0,0,0,0l-1.8-1.1l1.2-1.7
	c0.1-0.1,0.1-0.2,0.2-0.3c0.2-0.4,0.6-1,1.2-1.5c0.8-0.6,1.6-1.1,2.4-1.6c0.6-0.4,1.1-0.8,1.7-1.2c0-0.1,0.1-0.1,0.1-0.2
	c0.1-0.1,0.2-0.3,0.3-0.4c0.2-0.2,0.3-0.4,0.4-0.7c0.4-0.7,0.9-1.4,1.6-2c0.8-0.7,1.6-1.3,2.3-1.8c1-0.8,2-1.5,2.8-2.3
	c1.6-1.7,2.9-3.8,3.7-6.4l-0.2-0.1c-1.7-0.5-3.5-1-5.2-1.6c-1-0.3-1.6-1-2-1.6c-0.4-0.5-0.7-0.9-1-1.3c-0.4-0.6-0.8-1.1-1.3-1.5
	l-0.6-0.5c-1.3-1.1-2.4-2.1-3.8-2.2c-0.8-0.1-1.6-0.1-2.3-0.2c-0.9-0.1-1.8-0.2-2.7-0.2c0.2,0.4,0.3,0.8,0.3,1.3
	c0.1,1.5-1,2.5-1.3,2.9c-0.6,0.6-0.8,1.2-0.4,2.8c0.5,1.9,1,3.3,2.2,4.3c2.8,2.2,3.3,6.1,1.3,8.8c-0.8,1.1-1.1,2.5-1.5,4
	c-0.1,0.3-0.1,0.7-0.2,1C-162.4-143.8-162.9-141.8-164.9-141.7z M-155-141.7c4.4,1.2,8.9,1.6,13.3,1.2c8.7-0.8,16.4-4.4,22.9-10.5
	c0.2-0.1,0.2-0.2,0.2-0.8c-0.1-0.9,0-1.8,0-2.6c0-0.6,0-1.1,0-1.7c0-0.8-0.2-1.7-0.3-2.5c-0.1-0.4-0.1-0.8-0.2-1.2
	c-0.2-0.8-0.3-1.6-0.4-2.5c0-0.4,0-0.6-0.1-0.7c-0.1,0-0.3,0-0.5,0l-0.1,0c-0.4,0-0.8,0-1.2,0.1c-0.9,0.1-1.7,0.1-2.6,0
	c-4.1-0.5-6.9-3.1-8.3-7.7c-0.4-1.2-0.3-2.7,0.3-4c0.8-1.9,1.8-4,4.1-5.3c0.1-0.1,0.1-0.2,0.2-0.3c0.2-0.3,0.4-0.7,0.8-1.1l0.2-0.2
	c0.1-0.1,0.2-0.2,0.3-0.3c-1.7-1.5-1.1-3.4-0.8-4.2c0-0.1,0.1-0.2,0.1-0.4c0.5-2.2,2.1-2.8,3.2-3c-0.2-0.5-0.3-1.4,0.2-2.2
	c0.3-0.5,0.9-1.2,2.1-1.4c0.1,0,0.2,0,0.2-0.1c0.3-0.1,0.8-0.2,1.3-0.2l0.3,0c0.6,0,1.2-0.2,2.1-1.2c1.3-1.4,2.2-2.4,3.7-2.4
	c0.9,0,1.7,0.4,2.7,1c-2.4-4.6-5.5-8.3-9.1-11.2c-1.9-1.5-4-2.8-6.2-4.1c-0.4-0.2-0.7-0.4-1.1-0.7c-0.2,0.4-0.4,0.9-0.6,1.4
	c-0.2,0.6-0.5,1.1-0.8,1.6c-0.1,0.1-0.1,0.3-0.2,0.4c-0.3,0.8-0.8,1.8-1.8,2.4l-0.3,0.2c-1.6,1-3.5,2.1-5.6,2.7
	c-1.5,0.4-2.3,1-3,2.3c-1,1.8-2.4,2.1-3.2,2.1c-0.7,0-1.4-0.2-2.1-0.6c-2.2-1.2-3.5-3.3-4-6.2c-0.1-0.9,0.2-1.6,0.4-2
	c0-0.1,0.1-0.1,0.1-0.2l0,0c0-0.1,0.1-0.2,0.1-0.3c-0.2-0.5-0.4-1.1-0.6-1.6c-0.6-1.3-1.2-2.6-1.9-3.8c-0.2-0.4-0.3-0.4-0.4-0.4
	c-0.1,0-0.2,0-0.4,0.1c-0.3,0.1-0.7,0.1-1.1,0.1c-0.5,0-1.7-0.1-2.6-0.8l-0.9,0.3c-1.2,0.4-2.3,0.8-3.4,1.3
	c-1.1,0.5-1.1,0.6-0.9,1.2l0.5,2l0.6,0.4l-0.4,0.4l0.1,0.4l-0.3-0.1l-0.8,0.9c-0.1,0.1-0.1,0.2-0.2,0.2c-0.3,0.4-0.7,0.9-1.4,1.3
	c-0.6,0.3-1.2,0.5-1.8,0.7c-0.3,0.1-0.6,0.2-0.8,0.3c-0.9,0.4-1.5,1-1.6,1.7c-0.1,0.7,0.3,1.4,1,1.9c0.2,0.2,0.4,0.4,0.6,0.5
	c0.2,0.2,0.5,0.4,0.7,0.6c0.2,0.2,0.5,0.4,0.7,0.5c0.3,0.3,0.7,0.5,1,0.8c0,0,0,0,0-0.1c-0.1-0.5-0.3-1.3,0-2.1
	c0.3-0.9,0.7-1.6,1.1-2.3c0.1-0.2,0.3-0.4,0.4-0.7l1.1-2l1.8,1.4c0.2,0.1,0.4,0.3,0.6,0.4c0.6,0.4,1.3,0.9,1.9,1.6
	c0.1,0.1,0.1,0.2,0.2,0.2c0,0,0,0,0,0c0.6-0.3,1.2-0.5,1.7-0.5c0.6,0,2,0.2,2.8,2.1c0.7,1.9,1.7,3.2,3.1,4.1c1.3,0.9,1.5,2,1.5,2.5
	c0,0.6-0.1,1.7-1.4,2.8c-1.1,0.8-2.2,1.3-3.5,1.2c0,0.1-0.1,0.3-0.2,0.4c-0.3,0.5-0.9,1.2-2.1,1.4c-0.9,0.2-1.5,0.6-2.1,1.4
	c-0.5,0.7-1.3,1-1.8,1.2c-0.1,0-0.2,0.1-0.2,0.1c-1.2,0.5-1.8,1.1-2.1,1.8c-0.3,0.6-0.6,1.1-0.9,1.6c-0.5,0.9-0.8,1.4-0.7,2
	c0.1,0.8-0.3,1.4-0.5,1.7c0,0.1-0.1,0.2-0.2,0.3l-1.4,2.5l-1.9-2.2c-0.2-0.2-0.4-0.4-0.5-0.6c-0.2-0.2-0.4-0.5-0.5-0.6l-0.2-0.1
	c-0.3-0.2-0.7-0.6-0.9-0.6c-0.1,0-0.2,0-0.3,0c-0.6,0-1.3,0.1-2.1,0.3c0.1,0.1,0.1,0.1,0.1,0.2c2,1,3.4,2.5,4.6,3.9
	c0.4,0.4,0.8,0.9,1.2,1.3c0.7,0.7,1,0.8,1.4,0.9c1.2,0.1,2.3,0.2,3.4,0.3c0.8,0.1,1.5,0.1,2.3,0.2c2.7,0.2,4.6,1.8,6.1,3.1l0.6,0.5
	c0.8,0.7,1.4,1.5,1.9,2.2c0.2,0.3,0.5,0.7,0.7,1c0.2,0.2,0.3,0.4,0.4,0.5c1.6,0.6,3.3,1.1,4.9,1.5l0.6,0.2c3.2,0.9,2.7,3.4,2.6,3.9
	c-1,3.6-2.6,6.7-4.9,9c-1,1-2.2,1.9-3.3,2.7c-0.7,0.5-1.4,1.1-2.1,1.6c-0.3,0.2-0.5,0.7-0.8,1.1c-0.2,0.3-0.4,0.6-0.6,0.9
	c0,0.1-0.1,0.1-0.1,0.2c-0.2,0.3-0.5,0.8-1.1,1.2c-0.6,0.4-1.2,0.9-1.9,1.3C-154.5-142-154.7-141.9-155-141.7z M-182.9-179.4
	c-0.1,1.5-0.1,3,0.1,4.4c1.1,12,6.8,21.6,17,28.5c0.4-1.7,0.8-3.7,2.2-5.5c0.7-1,0.5-2.4-0.6-3.3c-2.3-1.9-3.1-4.5-3.6-6.3
	c-0.5-1.7-0.9-4.2,1.3-6.5c0,0,0,0-0.1,0c-0.8-0.7-1.7-1.4-2.4-1.9l-0.3-0.2c-1.9-1.4-3.6-2.7-5.8-3.1c-1.4-0.3-2.6-1.5-3.3-2.5
	c-0.3-0.5-0.6-1-0.9-1.5l-1.1,0.8L-182.9-179.4z M-120.1-167c3.8,0,4.5,2.3,4.6,4.5c0,0.6,0.2,1.2,0.3,1.8c0.1,0.5,0.2,0.9,0.3,1.4
	c0.1,0.9,0.3,1.9,0.3,3c0,0.6,0,1.3,0,1.9c0,0.8,0,1.5,0,2.2c0,0.6,0,1.3-0.2,2.1c6.9-7.3,11.1-17.2,11.2-28c-0.5,0.8-1.4,1.2-3,1.7
	c-0.4,0.1-0.9,0.3-1.5,0.4c-2.3,0.7-4.2,0.2-5.6-1.5c-0.4-0.4-0.8-0.9-1.2-1.3c-0.4-0.4-0.9-0.9-1.3-1.3c-0.4-0.4-0.6-0.4-0.6-0.4
	c0,0-0.1,0-0.1,0l-1.3,0.2c-1.7,0.2-3.4,0.5-5,0.8c-0.2,0.1-0.4,0.4-0.6,0.6l-0.2,0.2c0,0.1-0.2,0.3-0.2,0.4
	c-0.3,0.5-0.7,1.2-1.5,1.6c-1.1,0.7-1.8,1.8-2.5,3.5c-0.2,0.4-0.2,1-0.1,1.3c1,3.2,2.4,4.6,4.9,4.9c0.6,0.1,1.2,0,1.8,0
	c0.5,0,1-0.1,1.4-0.1L-120.1-167z M-180.4-186.7l1.1,1.4c0.1,0.1,0.2,0.2,0.2,0.3c0.3,0.3,0.6,0.7,0.8,1.1c0.4,0.7,0.8,1.4,1.1,2.1
	c0.7,1.3,1.3,2.5,2.1,3.7c0.2,0.4,0.6,0.7,0.7,0.7c0.3,0.1,0.7,0.1,1,0.2c-0.6-0.7-0.9-1.5-1.1-1.9c-0.5-1.4-0.2-2.4,0.1-3
	c0.5-0.9,1.4-1.4,2.6-1.7l0.3-0.1c1.1-0.2,2.5-0.4,3.7-0.3c0.9,0.1,1.6,0.5,2.2,0.9c0.2-0.5,0.5-0.9,0.7-1.3
	c0.2-0.4,0.5-0.8,0.6-1.1c0.9-2.2,2.8-3.3,4.1-3.9c0.2-0.1,0.4-0.2,0.6-0.2c0,0,0,0,0.1,0c0.9-1.1,1.9-1.9,3.1-2.3l-1.4-3.2l3.6,0.5
	c0.2,0,0.4,0,0.5,0.1c0.4,0,0.9,0.1,1.4,0.3c0.1,0,0.2,0.1,0.2,0.1c-1.3-1.1-2.4-2.6-3.2-4.3c-0.4,0.2-0.9,0.3-1.4,0.3
	c-1.5,0-2.4-1.1-3.1-1.9c0,0.1,0,0.2,0.1,0.2c0.1,0.4,0.2,0.8,0.2,1.4c0,0.8-0.1,2.4-1.2,3.3c-0.7,0.5-1.5,0.7-2.1,0.7
	c-0.7,0-1.3-0.1-1.9-0.4c-0.9-0.5-1.7-1.1-2.3-1.6c-0.2-0.2-0.4-0.3-0.6-0.5c-0.3-0.2-0.6-0.5-0.9-0.7c-0.2-0.2-0.4-0.3-0.5-0.5
	c-1.8-1.5-2.7-3.5-2.4-5.6c0.2-1.7,1.3-3.2,2.9-4.2c0,0,0,0-0.1,0l-2.6-0.7l1.4-2.3c0-0.1,0.1-0.1,0.1-0.2s0.1-0.2,0.1-0.3
	c-7.8,5.7-13.6,14-15.9,23.7l2.6,2.8L-180.4-186.7z M-112.6-181.9c0.1,0.2,0.3,0.3,0.4,0.5c0.5,0.5,1,1,1.4,1.5
	c0.4,0.4,0.6,0.4,0.7,0.4c0.2,0,0.4,0,0.7-0.1c0.7-0.2,1.2-0.3,1.6-0.5c0.1,0,0.3-0.1,0.4-0.1c0-0.2,0-0.3,0-0.5c0-0.1,0-0.1,0-0.2
	c-0.3,0.1-0.7,0.2-1.1,0.2c-1.4,0-2.2-1.1-2.5-1.8c-0.3,0.2-0.6,0.4-1,0.5l-0.2,0.1l-0.3,0C-112.5-181.9-112.5-181.9-112.6-181.9z
	 M-116.7-184.4c0.4,0,0.8,0.1,1.2,0.2c-0.2-0.4-0.4-0.6-0.5-0.6C-116.1-184.8-116.3-184.7-116.7-184.4L-116.7-184.4z M-123.4-185.5
	C-123.4-185.5-123.4-185.5-123.4-185.5c-0.1,0.2-0.1,0.4-0.2,0.6c0,0.1,0,0.1-0.1,0.2c0,0,0.1,0,0.1-0.1c0.5-0.3,1-0.6,1.5-1
	C-122.3-185.6-122.8-185.5-123.4-185.5z M-104.9-187.2l0.6,1.9c-0.5-3.1-1.4-6.1-2.6-8.9c-0.1,0.8-0.4,1.6-1.2,2.2
	c-1.5,1.2-3.3,1.2-5,0c-0.4-0.3-0.8-0.6-1.1-0.8c-0.3,0.3-0.6,0.7-0.9,0.9c-1,1.1-2.5,2.5-4.9,2.5c0.2,1-0.1,1.8-0.4,2.3
	c-0.1,0.1-0.2,0.3-0.3,0.4c0.2-0.2,0.5-0.3,0.7-0.5l1-0.7c1.1-0.7,2.1-1.1,3-1.1c1.7,0,2.8,1.1,3.4,2c0.5-0.4,1-0.7,1.6-0.7
	c1.3,0,2,1,2.3,1.3c0.2,0.3,0.4,0.6,0.6,0.9c0.2-0.1,0.3-0.2,0.4-0.3c0.1-0.1,0.3-0.2,0.4-0.2L-104.9-187.2z M-145.4-205.8
	c0.3,1.4,0.9,2.3,1.9,2.9c1.2-2.2,2.9-3.5,5.5-4.1c1.5-0.4,3-1.3,4.4-2.2l0.2-0.1c0.1-0.1,0.2-0.4,0.3-0.7c0.1-0.2,0.2-0.4,0.3-0.6
	c0.2-0.5,0.5-1,0.7-1.5c0.4-0.9,0.8-1.9,1.4-2.8c0.4-0.8,1.3-1.2,2.4-1.2c-5.2-2.3-10.8-3.5-16.6-3.5c-3.4,0-6.6,0.4-9.8,1.2
	c0.6,0.2,1.1,0.5,1.4,0.8c0.1,0,0.3,0,0.4,0c2.2-0.5,4.1,0.3,5.2,2.3c0.7,1.3,1.4,2.7,2,4.1c0.3,0.7,0.7,1.6,0.9,2.5
	c0.2,0.9,0,1.6-0.1,2.2l0,0.1C-145.2-206.3-145.3-206-145.4-205.8z M-165.6-214.1c0.2,0,0.5,0,0.7,0.1c0.2-0.3,0.4-0.7,0.6-1
	c-0.6,0.3-1.1,0.6-1.6,0.9C-165.8-214.1-165.7-214.1-165.6-214.1z"/>
<path d="M-28.5-64.2c-1,0-2-0.4-2.8-1.2L-88-122.1c-1.6-1.6-1.6-4.1,0-5.7c1.6-1.6,4.1-1.6,5.7,0l56.7,56.7c1.6,1.6,1.6,4.1,0,5.7
	C-26.4-64.6-27.5-64.2-28.5-64.2z"/>
<path d="M-145.1-242.5c35.5,0,64.3,28.8,64.3,64.3c0,35.5-28.8,64.3-64.3,64.3s-64.3-28.8-64.3-64.3
	C-209.4-213.7-180.6-242.5-145.1-242.5 M-145.1-250.5c-39.9,0-72.3,32.4-72.3,72.3s32.4,72.3,72.3,72.3s72.3-32.4,72.3-72.3
	S-105.2-250.5-145.1-250.5L-145.1-250.5z"/>
<rect x="70.6" y="75.5" fill="none" width="105.5" height="153.7"/>
<text transform="matrix(1 0 0 1 70.5574 135.8959)"><tspan x="0" y="0" fill="none" font-family="'MyriadPro-Regular'" font-size="85">//</tspan><tspan x="58.3" y="0" fill="none" font-family="'MyriadPro-Regular'" font-size="20">/</tspan></text>
<path d="M100.4,12c48.8,0,88.6,39.7,88.6,88.6s-39.7,88.6-88.6,88.6s-88.6-39.7-88.6-88.6S51.6,12,100.4,12 M100.4,4
	C47.1,4,3.8,47.2,3.8,100.6s43.2,96.6,96.6,96.6s96.6-43.2,96.6-96.6S153.8,4,100.4,4L100.4,4z"/>
<path d="M93.4,123.7c0-1.5-0.1-2.6-0.1-3.4c0-4.4,0.6-8.3,1.9-11.5c0.9-2.4,2.4-4.9,4.5-7.3c1.5-1.8,4.2-4.4,8.1-7.9
	c3.9-3.5,6.5-6.2,7.6-8.3c1.2-2,1.8-4.3,1.8-6.7c0-4.4-1.7-8.3-5.1-11.6c-3.4-3.3-7.6-5-12.6-5c-4.8,0-8.8,1.5-12,4.5
	c-3.2,3-5.3,7.7-6.3,14.1l-11.6-1.4c1-8.6,4.2-15.1,9.3-19.7c5.2-4.6,12-6.8,20.5-6.8c9,0,16.2,2.4,21.5,7.3c5.4,4.9,8,10.8,8,17.8
	c0,4-0.9,7.7-2.8,11.1s-5.6,7.5-11,12.4c-3.7,3.3-6.1,5.7-7.2,7.2c-1.1,1.5-2,3.3-2.5,5.3c-0.5,2-0.9,5.3-0.9,9.8H93.4z"/>
<circle cx="98.4" cy="141.4" r="7.1"/>
</svg>
