<?xml version="1.0" encoding="utf-8"?>
<!-- Generator: Adobe Illustrator 18.1.1, SVG Export Plug-In . SVG Version: 6.00 Build 0)  -->
<!DOCTYPE svg PUBLIC "-//W3C//DTD SVG 1.1//EN" "http://www.w3.org/Graphics/SVG/1.1/DTD/svg11.dtd">
<svg version="1.1" id="Layer_1" xmlns="http://www.w3.org/2000/svg" xmlns:xlink="http://www.w3.org/1999/xlink" x="0px" y="0px"
	 viewBox="0 0 200 200" enable-background="new 0 0 200 200" xml:space="preserve">
<g>
	<path d="M100,11.1c-49.1,0-88.9,39.8-88.9,88.9c0,49.1,39.8,88.9,88.9,88.9s88.9-39.8,88.9-88.9C188.9,50.9,149.1,11.1,100,11.1z
		 M100,177.8c-43,0-77.8-34.8-77.8-77.8c0-43,34.8-77.8,77.8-77.8S177.8,57,177.8,100C177.8,143,143,177.8,100,177.8z"/>
	<path d="M95.5,133.2c-5.5,0-8.2,3.1-8.2,9.3c0,3.3,0.8,5.6,2.3,7.1c1.5,1.4,3.5,2.2,5.9,2.2c2.6,0,4.6-0.8,6.1-2.4
		c1.5-1.6,2.2-3.9,2.2-6.8c0-3-0.7-5.3-2.2-6.9C100.2,134,98.1,133.2,95.5,133.2z"/>
	<path d="M120,54.7c-4.8-4.3-11.6-6.4-20.3-6.4c-9.4,0-18.4,2.3-27,6.8l4,9.2c4.4-2.2,8.3-3.8,11.8-4.6c3.4-0.8,6.9-1.3,10.5-1.3
		c5.6,0,9.9,1.3,12.9,3.8c3,2.5,4.5,6.1,4.5,10.8c0,3.7-0.8,6.9-2.4,9.6c-1.6,2.6-5.5,6.6-11.7,11.8c-4.5,3.8-7.5,7.5-9.2,10.9
		c-1.6,3.4-2.5,7.8-2.5,13.2v3.7h8.8v-2.3c0-4.3,0.7-7.8,2.2-10.4c1.5-2.6,4.5-5.9,9.1-9.8c5.7-5,9.5-8.7,11.2-10.9
		c1.7-2.3,3-4.6,3.9-7.2c0.9-2.5,1.3-5.5,1.3-8.8C127.3,65.1,124.9,59,120,54.7z"/>
</g>
</svg>
