<?xml version="1.0" encoding="utf-8"?>
<!-- Generator: Adobe Illustrator 18.1.1, SVG Export Plug-In . SVG Version: 6.00 Build 0)  -->
<!DOCTYPE svg PUBLIC "-//W3C//DTD SVG 1.1//EN" "http://www.w3.org/Graphics/SVG/1.1/DTD/svg11.dtd">
<svg version="1.1" id="Layer_1" xmlns="http://www.w3.org/2000/svg" xmlns:xlink="http://www.w3.org/1999/xlink" x="0px" y="0px"
	 viewBox="0 0 200 200" enable-background="new 0 0 200 200" xml:space="preserve">
<g>
	<path d="M98.5,188.1c-3.4,0-6.2-1.1-8.5-3.5c-2.4-2.3-3.5-5.1-3.5-8.5c0-3.4,1.1-6.2,3.5-8.5c2.4-2.4,5.1-3.5,8.5-3.5
		c3.4,0,6.1,1.1,8.5,3.5c2.4,2.4,3.5,5.1,3.5,8.5c0,3.4-1.1,6.2-3.5,8.5C104.7,187,101.9,188.1,98.5,188.1z M92.9,141.7v-18.6
		c0-5.1,0.9-9.6,2.6-13.4c1.8-3.9,4.1-7.5,6.8-10.6c2.8-3.2,5.8-6.3,9-9.2c3.3-3,6.5-6.2,9.4-9.6c3-3.5,5.5-7.3,7.4-11.4
		c2-4.2,3-9.2,3-14.9c0-9.3-2.7-17-8.1-22.9c-5.5-5.9-13.1-8.9-22.6-8.9c-9.2,0-16.8,2.8-22.6,8.4c-5.4,5.1-9.1,11.8-11.1,19.9
		l-12-1.5c2.4-11.1,7.6-19.8,15.3-26.1c8.3-6.6,18.4-10,30.2-10c6.1,0,11.9,0.9,17.3,2.7c5.3,1.8,9.9,4.4,13.7,7.8
		c3.8,3.4,6.8,7.6,9,12.6c2.2,5,3.3,10.7,3.3,17.1c0,6.6-0.9,12.2-2.8,16.7c-1.9,4.6-4.3,8.6-7.1,12c-2.9,3.5-6,6.8-9.4,9.7
		c-3.5,3.1-6.8,6.3-9.7,9.5c-3.1,3.3-5.7,7.1-7.7,11.3c-2.1,4.3-3.2,9.5-3.2,15.5v13.7H92.9z"/>
</g>
</svg>
