<?xml version="1.0" encoding="utf-8"?>
<!-- Generated by IcoMoon.io -->
<!DOCTYPE svg PUBLIC "-//W3C//DTD SVG 1.1//EN" "http://www.w3.org/Graphics/SVG/1.1/DTD/svg11.dtd">
<svg version="1.1" xmlns="http://www.w3.org/2000/svg" xmlns:xlink="http://www.w3.org/1999/xlink" width="32" height="32" viewBox="0 0 32 32">
<path d="M1.776 26.672v0.064l0.080-0.064z" fill="#000000"></path>
<path d="M30.224 12.448v-1.776h-1.776v-3.552l-1.776 1.776v1.776h-1.776l-1.776 1.776h3.552v7.104h-5.328v-5.328l-1.792 1.776v3.552h-3.552l-1.776 1.776h5.328v5.328h-7.104v-3.552l-1.776 1.776v1.776h-1.776l-1.776 1.776h3.552v1.776h1.776v-1.776h7.104v1.776h1.776v-1.776h5.328v1.776h1.776v-1.776h1.776v-1.776h-1.776v-5.328h1.776v-1.776h-1.776v-7.104h1.792zM26.656 26.672h-5.328v-5.328h5.328v5.328z" fill="#000000"></path>
<path d="M3.552 24.96l1.776-1.776v-1.856h1.856l1.776-1.776h-3.632v-7.104h5.328v5.408l1.776-1.776v-3.632h3.632l1.776-1.776h-5.392v-5.344h7.104v3.632l1.776-1.776v-1.856h1.856l1.776-1.776h-3.632v-1.776h-1.776v1.776h-7.104v-1.776h-1.776v1.776h-5.344v-1.776h-1.776v1.776h-1.776v1.776h1.776v5.328h-1.776v1.776h1.776v7.104h-1.776v1.776h1.776v3.648zM5.328 5.328h5.328v5.328h-5.328v-5.328z" fill="#000000"></path>
<path d="M1.739 28.723l26.938-26.938 1.256 1.256-26.938 26.938-1.256-1.256z" fill="#000000"></path>
</svg>
