<?xml version="1.0" encoding="utf-8"?>
<!-- Generator: Adobe Illustrator 18.1.1, SVG Export Plug-In . SVG Version: 6.00 Build 0)  -->
<!DOCTYPE svg PUBLIC "-//W3C//DTD SVG 1.1//EN" "http://www.w3.org/Graphics/SVG/1.1/DTD/svg11.dtd">
<svg version="1.1" id="Layer_1" xmlns="http://www.w3.org/2000/svg" xmlns:xlink="http://www.w3.org/1999/xlink" x="0px" y="0px"
	 viewBox="0 0 200 200" enable-background="new 0 0 200 200" xml:space="preserve">
<path fill="none" stroke="#231F20" stroke-width="11" stroke-miterlimit="10" d="M-21.8,0.5c-87.9,122.9-165.8,0-165.8,0v-0.6
	c0,0,74.9-123.9,165.8,0V0.5z"/>
<circle fill="none" stroke="#231F20" stroke-width="11" stroke-miterlimit="10" cx="-104.7" cy="0" r="36"/>
<g>
	<path fill="#231F20" d="M100,69.5c0.5,0,1,0,1.5,0L111,60c-3.5-1-7.2-1.5-11-1.5c-22.9,0-41.5,18.6-41.5,41.5c0,3.8,0.5,7.5,1.5,11
		l9.5-9.5c0-0.5,0-1,0-1.5C69.5,83.2,83.2,69.5,100,69.5z"/>
	<path fill="#231F20" d="M38,133l7.9-7.9c-11.2-10-19-20.3-22.3-25c7.2-10.6,36.5-49.8,76-49.8c6.1,0,12.2,1,18.3,2.8l8.7-8.7
		c-8.9-3.4-17.9-5.2-27-5.2c-51.6,0-85.7,55.4-87.1,57.7l-0.8,1.3v3.8l0.9,1.3C13.2,104.7,22.5,119,38,133z"/>
	<path fill="#231F20" d="M100,130.5c-0.5,0-1,0-1.5,0L89,140c3.5,1,7.2,1.5,11,1.5c22.9,0,41.5-18.6,41.5-41.5c0-3.8-0.5-7.5-1.5-11
		l-9.5,9.5c0,0.5,0,1,0,1.5C130.5,116.8,116.8,130.5,100,130.5z"/>
	<path fill="#231F20" d="M187.3,96.7c-8.4-11.5-17-21.3-25.7-29.3l-7.8,7.8c7.5,6.9,15,15.3,22.5,25.1
		c-24.2,32.8-49.6,49.4-75.4,49.4c-6.5,0-12.7-1.1-18.7-2.9l-8.7,8.7c8.5,3.2,17.6,5.2,27.4,5.2c30.4,0,59.5-19.2,86.5-56.9l1-1.4
		v-4.2L187.3,96.7z"/>
	
		<rect x="-12.6" y="94.9" transform="matrix(0.7071 -0.7071 0.7071 0.7071 -41.7961 99.8448)" fill="#231F20" width="224.5" height="11"/>
</g>
</svg>
