<?xml version="1.0" encoding="utf-8"?>
<!-- Generator: Adobe Illustrator 18.1.1, SVG Export Plug-In . SVG Version: 6.00 Build 0)  -->
<!DOCTYPE svg PUBLIC "-//W3C//DTD SVG 1.1//EN" "http://www.w3.org/Graphics/SVG/1.1/DTD/svg11.dtd">
<svg version="1.1" id="Layer_2" xmlns="http://www.w3.org/2000/svg" xmlns:xlink="http://www.w3.org/1999/xlink" x="0px" y="0px"
	 viewBox="0 0 200 200" enable-background="new 0 0 200 200" xml:space="preserve">
<g>
	<path d="M33.3,122.2h15.6L60,111.1H33.3V77.8h33.3v26.7l11.1-11.1V77.8h15.6l11.1-11.1H77.8V44.5h44.4V49l15.6-15.6H22.2v11.1v22.2
		v11.1v33.3v11.1v26.7l11.1-11.1V122.2z M33.3,44.5h33.3v22.2H33.3V44.5z"/>
	<path d="M177.8,66.7h-15.1l-11.1,11.1h26.2v33.3h-44.4V96l-11.1,11.1v4h-4l-11.1,11.1h15.1v33.3H77.8v-4l-15.1,15.1h126.2v-11.1
		v-33.3v-11.1V77.8V66.7V44.5v-4l-11.1,11.1V66.7z M177.8,155.6h-44.4v-33.3h44.4V155.6z"/>
	<rect x="-24.8" y="96.5" transform="matrix(0.7071 -0.7071 0.7071 0.7071 -43.3854 99.3219)" width="246" height="11.1"/>
</g>
</svg>
