<?xml version="1.0" encoding="utf-8"?>
<!-- Generated by IcoMoon.io -->
<!DOCTYPE svg PUBLIC "-//W3C//DTD SVG 1.1//EN" "http://www.w3.org/Graphics/SVG/1.1/DTD/svg11.dtd">
<svg version="1.1" xmlns="http://www.w3.org/2000/svg" xmlns:xlink="http://www.w3.org/1999/xlink" width="32" height="32" viewBox="0 0 32 32">
<path d="M18.512 8.576h7.584l-0.864-1.504c-0.32-0.576-0.64-0.576-0.736-0.576-0.176 0-0.384 0.064-0.608 0.208l-2.768 1.616-0.176-0.144c-0.896-0.752-1.824-1.296-2.784-1.632l-0.208-0.080v-3.376c0-0.688-0.288-0.976-0.976-0.976h-4.24c-0.688 0-0.976 0.288-0.976 0.976v3.408l-0.208 0.064c-0.624 0.224-1.232 0.528-1.808 0.912-0.288 0.192-0.576 0.416-0.848 0.608l-0.176 0.128-2.912-1.664c-0.224-0.128-0.416-0.192-0.592-0.192-0.112 0-0.416 0-0.736 0.56l-2.192 3.76c-0.176 0.336-0.224 0.592-0.144 0.784v0 0.016c0.048 0.192 0.224 0.368 0.512 0.528l2.848 1.632-0.032 0.224c-0.096 0.544-0.144 1.088-0.144 1.664v0.32c0.032 0.4 0.048 0.768 0.112 1.152l0.032 0.224-2.816 1.632c-0.544 0.32-0.688 0.672-0.448 1.184v0.032c0.032 0.048 0.048 0.096 0.080 0.16v0.016l2.16 3.728c0.288 0.48 0.56 0.544 0.736 0.544s0.384-0.064 0.608-0.208l2.768-1.584 0.176 0.144c0.864 0.72 1.776 1.248 2.8 1.632l0.208 0.080v3.36c0 0.688 0.288 0.976 0.976 0.976h2.96v-1.872l-2.208 0.192v-2.432c0-0.848-0.528-1.616-1.328-1.904-0.832-0.304-1.584-0.752-2.304-1.344-0.368-0.304-0.832-0.48-1.296-0.48-0.352 0-0.704 0.096-1.008 0.272l-1.968 1.12-1.44-2.496 2-1.152c0.736-0.432 1.136-1.28 0.976-2.112-0.048-0.256-0.064-0.56-0.096-0.928v-0.256c0-0.48 0.032-0.912 0.112-1.36 0.144-0.832-0.256-1.68-0.992-2.112l-2.016-1.152 1.488-2.496 2.080 1.2c0.304 0.176 0.656 0.272 1.008 0.272 0.448 0 0.864-0.144 1.216-0.416 0.224-0.176 0.496-0.384 0.736-0.544 0.48-0.304 0.976-0.56 1.488-0.752 0.8-0.288 1.328-1.056 1.328-1.904v-2.448h2.768v2.432c0 0.864 0.544 1.632 1.36 1.92 0.288 0.096 0.592 0.24 0.896 0.4l0.032 0.016z" fill="#000000"></path>
<path d="M14.912 11.184c-1.168 0-2.144 0.4-2.976 1.232s-1.232 1.808-1.232 3.008c0 1.168 0.4 2.144 1.232 2.976 0.848 0.848 1.824 1.264 2.976 1.264 0.208 0 0.416-0.016 0.64-0.048l0.144-0.016v-1.744l-0.192 0.048c-0.176 0.048-0.368 0.064-0.576 0.064-0.704 0-1.248-0.24-1.776-0.752-0.512-0.512-0.736-1.056-0.736-1.776s0.224-1.296 0.736-1.792c0.512-0.512 1.056-0.736 1.776-0.736 0.208 0 0.4 0.016 0.576 0.064l0.192 0.048v-1.776l-0.144-0.016c-0.224-0.032-0.432-0.048-0.64-0.048z" fill="#000000"></path>
<path d="M24.608 30.224c-0.72 0-1.424-0.352-1.856-0.928h-0.016c-0.512 0-0.928-0.416-0.928-0.912 0-0.176 0.048-0.32 0.128-0.464-0.080-0.144-0.128-0.288-0.128-0.464s0.048-0.32 0.128-0.464c-0.080-0.144-0.128-0.288-0.128-0.464 0-0.224 0.080-0.416 0.208-0.576-0.144-0.144-0.288-0.368-0.368-0.688l-0.080-0.704c0-1.216-0.656-3.104-1.84-5.36-0.032-0.048-0.048-0.080-0.064-0.112-0.368-0.672-0.592-1.392-0.656-2.16l-0.016-0.496c0-1.504 0.576-2.912 1.648-3.968 1.056-1.056 2.464-1.632 3.968-1.632 0.544 0 1.072 0.080 1.584 0.224 0.896 0.256 1.712 0.752 2.384 1.408 1.056 1.056 1.648 2.448 1.648 3.936l-0.016 0.496c-0.064 0.768-0.288 1.504-0.656 2.192-0.032 0.048-1.904 3.392-1.904 5.424l-0.064 0.688c-0.080 0.352-0.224 0.592-0.384 0.752 0.128 0.16 0.208 0.368 0.208 0.576 0 0.176-0.048 0.32-0.128 0.464 0.080 0.128 0.128 0.288 0.128 0.464s-0.048 0.32-0.128 0.464c0.080 0.128 0.128 0.288 0.128 0.464 0 0.512-0.416 0.912-0.928 0.912h-0.016c-0.432 0.576-1.12 0.928-1.856 0.928zM22.992 26.528v1.84h3.232c0.016 0 0.016 0 0.016 0s-0.016 0-0.016 0v-1.84h-3.232zM20.912 18.72l0.016 0.032c0.8 1.536 1.76 3.68 1.76 5.232l0.064 0.544c0.048 0.208 0.144 0.208 0.176 0.208h3.392c0.032 0 0.128 0 0.192-0.272l0.048-0.528c0-2.016 1.76-5.168 1.84-5.296 0.272-0.512 0.432-1.072 0.496-1.648l0.016-0.416c0-1.12-0.448-2.176-1.248-2.976-0.512-0.496-1.136-0.88-1.808-1.072-1.472-0.432-3.136-0.016-4.224 1.072-0.8 0.8-1.248 1.872-1.248 2.992l0.016 0.416c0.048 0.56 0.224 1.12 0.512 1.632v0.080z" fill="#000000"></path>
</svg>
