<?xml version="1.0" encoding="utf-8"?>
<!-- Generated by IcoMoon.io -->
<!DOCTYPE svg PUBLIC "-//W3C//DTD SVG 1.1//EN" "http://www.w3.org/Graphics/SVG/1.1/DTD/svg11.dtd">
<svg version="1.1" xmlns="http://www.w3.org/2000/svg" xmlns:xlink="http://www.w3.org/1999/xlink" width="32" height="32" viewBox="0 0 32 32">
<path d="M28.448 1.776h-26.672v28.432h28.432v-28.432h-1.76zM3.552 28.448v-7.632l5.52-5.52 6.736 6.736-1.6 1.6 1.264 1.264 4.96-4.96 8 8v0.528h-24.88zM28.448 25.408l-8-8-3.36 3.36-8.016-7.984-5.52 5.52v-14.752h24.88v21.856z" fill="#000000"></path>
<path d="M24.88 8.896c0 1.962-1.59 3.552-3.552 3.552s-3.552-1.59-3.552-3.552c0-1.962 1.59-3.552 3.552-3.552s3.552 1.59 3.552 3.552z" fill="#000000"></path>
</svg>
