<?xml version="1.0" encoding="utf-8"?>
<!-- Generator: Adobe Illustrator 18.1.1, SVG Export Plug-In . SVG Version: 6.00 Build 0)  -->
<!DOCTYPE svg PUBLIC "-//W3C//DTD SVG 1.1//EN" "http://www.w3.org/Graphics/SVG/1.1/DTD/svg11.dtd">
<svg version="1.1" id="Layer_1" xmlns="http://www.w3.org/2000/svg" xmlns:xlink="http://www.w3.org/1999/xlink" x="0px" y="0px"
	 viewBox="0 0 16 16" enable-background="new 0 0 16 16" xml:space="preserve">
<polygon points="6.9,5.8 6.2,6.5 9.8,9.7 6.3,13 6.9,13.7 11.2,9.7 "/>
<g>
	<line x1="10.1" y1="9.7" x2="1.4" y2="9.7"/>
	<rect x="1.4" y="9.2" width="8.6" height="1"/>
</g>
<g>
	<rect x="4.9" y="12.5" width="1" height="3"/>
	<rect x="11.5" y="4" width="1" height="11.5"/>
	<rect x="4.9" y="4" width="7.6" height="1"/>
	<rect x="4.9" y="4" width="1" height="3"/>
	<rect x="4.9" y="14.5" width="7.6" height="1"/>
</g>
<g>
	<path d="M7,2.7C7,3,6.9,3.2,6.7,3.4C6.5,3.5,6.2,3.6,5.8,3.6C5.5,3.6,5.2,3.6,5,3.4V2.8C5.2,2.9,5.3,3,5.5,3s0.3,0.1,0.4,0.1
		c0.1,0,0.3,0,0.3-0.1c0.1-0.1,0.1-0.1,0.1-0.2c0-0.1,0-0.1-0.1-0.2S6.2,2.5,6.1,2.5c-0.1,0-0.2-0.1-0.4-0.2C5.5,2.2,5.4,2.1,5.3,2
		C5.2,1.9,5.1,1.8,5.1,1.7C5,1.6,5,1.5,5,1.3c0-0.3,0.1-0.5,0.3-0.6C5.5,0.5,5.7,0.5,6,0.5c0.2,0,0.3,0,0.5,0.1
		c0.1,0,0.3,0.1,0.5,0.2L6.7,1.2C6.6,1.1,6.4,1.1,6.3,1C6.2,1,6.1,1,6,1C5.9,1,5.8,1,5.7,1.1C5.7,1.2,5.6,1.2,5.6,1.3
		c0,0.1,0,0.1,0,0.1c0,0,0.1,0.1,0.1,0.1S6,1.7,6.2,1.8c0.3,0.1,0.5,0.3,0.6,0.4C6.9,2.4,7,2.5,7,2.7z"/>
	<path d="M9.4,3.6L9.2,2.9H8.1L7.8,3.6H7.1l1.1-3.1H9l1.1,3.1H9.4z M9,2.3c-0.2-0.7-0.3-1-0.3-1.1S8.6,1,8.6,1
		c0,0.2-0.2,0.6-0.4,1.3H9z"/>
	<path d="M12.6,1.5c0,0.3-0.1,0.6-0.3,0.8c-0.2,0.2-0.5,0.3-0.9,0.3h-0.3v1.1h-0.7V0.5h1c0.4,0,0.7,0.1,0.8,0.2
		C12.5,0.9,12.6,1.2,12.6,1.5z M11.1,2h0.2c0.2,0,0.4,0,0.5-0.1C11.9,1.8,12,1.6,12,1.5c0-0.2,0-0.3-0.1-0.3C11.7,1.1,11.6,1,11.4,1
		h-0.3V2z"/>
</g>
</svg>
