<?xml version="1.0" encoding="utf-8"?>
<!-- Generator: Adobe Illustrator 19.1.1, SVG Export Plug-In . SVG Version: 6.00 Build 0)  -->
<!DOCTYPE svg PUBLIC "-//W3C//DTD SVG 1.1//EN" "http://www.w3.org/Graphics/SVG/1.1/DTD/svg11.dtd">
<svg version="1.1" id="Layer_1" xmlns="http://www.w3.org/2000/svg" xmlns:xlink="http://www.w3.org/1999/xlink" x="0px" y="0px"
	 viewBox="92 -92 200 200" style="enable-background:new 92 -92 200 200;" xml:space="preserve">
<path d="M191-83.5c-50.5,0-91.5,41-91.5,91.5s41,91.5,91.5,91.5s91.5-41,91.5-91.5S241.5-83.5,191-83.5z M209.8,41
	c-0.1,0.4-0.2,0.8-0.3,1.2c-4.8,11.4-12.2,20.4-23.8,25.3c-2.6,1.1-5.5,1.5-8.3,1.6c-5.5,0.2-8.9-3-9.8-8.4
	c-0.9-5.9,0.3-11.5,2.1-17c4.7-14.6,9.5-29.3,14.3-43.9c0.1-0.3,0.3-0.7,0.3-1c0-1.2,0-2.4,0-3.6c-1.2,0.4-2.6,0.6-3.4,1.4
	c-2.6,2.7-5.1,5.6-7.5,8.4c-1.2,1.5-2.2,3.2-3.4,4.6c-0.5,0.6-1.8,1.2-2.3,1c-0.7-0.4-1.3-1.5-1.4-2.3c-0.1-1.2,0.1-2.5,0.6-3.5
	c5.2-11.8,13-20.6,26.4-22.9c2.4-0.4,4.8-0.4,7.2-0.2c4.3,0.4,7.3,4.3,7.7,9.5c0.1,1,0,2,0,3c0-0.3,0.2-0.2,0.4-0.2
	c-1,4.4-1.7,8.8-3,13.1c-4,12.6-8.3,25.2-12.3,37.8c-0.6,1.7-0.7,3.6-0.7,5.5c0,1.8,1.3,2.4,2.8,1.3c1.3-1,2.3-2.3,3.3-3.6
	c2.2-3,4.3-6.2,6.6-9.3c0.9-1.2,1.9-3,3.7-2.2C211,37.5,210.1,39.4,209.8,41z M202.2-25.2c-7.7,0-13.8-6.1-13.8-13.8
	c0-7.9,6-14,13.9-14c7.9,0,13.9,6.1,13.9,13.9C216.2-31.3,210.1-25.2,202.2-25.2z"/>
</svg>
