<?xml version="1.0" encoding="utf-8"?>
<!-- Generated by IcoMoon.io -->
<!DOCTYPE svg PUBLIC "-//W3C//DTD SVG 1.1//EN" "http://www.w3.org/Graphics/SVG/1.1/DTD/svg11.dtd">
<svg version="1.1" xmlns="http://www.w3.org/2000/svg" xmlns:xlink="http://www.w3.org/1999/xlink" width="32" height="32" viewBox="0 0 32 32">
<path d="M13.456 8.896c-3.376 0-6.112 2.8-6.112 6.256 0 1.552 0.56 2.976 1.472 4.064l-6.784 7.088c-0.336 0.352-0.336 0.912-0.016 1.248 0.336 0.336 0.864 0.336 1.2-0.016l6.864-7.184c0.96 0.64 2.112 1.008 3.344 1.008 3.376 0 6.112-2.8 6.112-6.256 0.016-3.424-2.704-6.224-6.080-6.208zM13.44 19.664c-0.864 0-1.68-0.256-2.368-0.688 0-0.224-0.080-0.448-0.24-0.624-0.208-0.208-0.48-0.288-0.736-0.24-0.672-0.8-1.088-1.84-1.088-2.976 0-2.496 1.984-4.528 4.448-4.544 2.448 0 4.432 2.016 4.432 4.528-0.016 2.512-2 4.544-4.448 4.544z" fill="#000000"></path>
<path d="M30.192 8.896l-7.84-7.104h-8.128v1.776h7.104v7.104h7.104v17.776h-16v1.776h17.776v-21.328h-0.016zM23.104 8.896v-5.344l5.664 5.328h-5.664z" fill="#000000"></path>
</svg>
