<?xml version="1.0" encoding="utf-8"?>
<!-- Generator: Adobe Illustrator 18.1.1, SVG Export Plug-In . SVG Version: 6.00 Build 0)  -->
<!DOCTYPE svg PUBLIC "-//W3C//DTD SVG 1.1//EN" "http://www.w3.org/Graphics/SVG/1.1/DTD/svg11.dtd">
<svg version="1.1" id="Layer_1" xmlns="http://www.w3.org/2000/svg" xmlns:xlink="http://www.w3.org/1999/xlink" x="0px" y="0px"
	 viewBox="0 0 200 200" enable-background="new 0 0 200 200" xml:space="preserve">
<g>
	<path d="M11.3,188.9v-4.8c6.6-0.7,11.6-3.2,14.9-7.5c3.3-4.2,9-15.8,17-34.7L96.7,15.9h5.1l64,145.6c4.3,9.6,7.7,15.6,10.2,17.9
		c2.6,2.3,6.8,3.8,12.9,4.7v4.8h-65.3v-4.8c7.5-0.7,12.3-1.5,14.5-2.4c2.2-1,3.3-3.3,3.3-7.1c0-1.2-0.4-3.4-1.3-6.6
		c-0.8-3.2-2-6.5-3.5-10l-10.3-24.7H58.6c-6.7,16.8-10.7,27.1-11.9,30.8c-1.3,3.7-1.9,6.6-1.9,8.8c0,4.3,1.8,7.3,5.3,9
		c2.2,1,6.3,1.7,12.3,2.2v4.8H11.3z M121.9,122.9L92.5,52.2l-29.6,70.7H121.9z"/>
</g>
</svg>
