<?xml version="1.0" encoding="utf-8"?>
<!-- Generator: Adobe Illustrator 18.1.1, SVG Export Plug-In . SVG Version: 6.00 Build 0)  -->
<!DOCTYPE svg PUBLIC "-//W3C//DTD SVG 1.1//EN" "http://www.w3.org/Graphics/SVG/1.1/DTD/svg11.dtd">
<svg version="1.1" id="Layer_1" xmlns="http://www.w3.org/2000/svg" xmlns:xlink="http://www.w3.org/1999/xlink" x="0px" y="0px"
	 viewBox="0 0 200 200" enable-background="new 0 0 200 200" xml:space="preserve">
<path fill="#669BC9" d="M177.2,131c0-15-12.2-27.2-27.2-27.2c-15,0-27.2,12.2-27.2,27.2c0,13,9.1,23.8,21.2,26.6
	c-3,10.7-12.8,18.6-24.5,18.6c-14,0-25.4-11.4-25.4-25.5V49.3c0-19.6-16-35.6-35.6-35.6s-35.6,16-35.6,35.6h10.1
	c0-14,11.4-25.4,25.5-25.4c14,0,25.5,11.4,25.5,25.4v101.4c0,19.6,16,35.6,35.6,35.6c17.2,0,31.5-12.2,34.9-28.4
	C167.3,155.8,177.2,144.6,177.2,131z"/>
</svg>
