<?xml version="1.0" encoding="utf-8"?>
<!-- Generator: Adobe Illustrator 18.1.1, SVG Export Plug-In . SVG Version: 6.00 Build 0)  -->
<!DOCTYPE svg PUBLIC "-//W3C//DTD SVG 1.1//EN" "http://www.w3.org/Graphics/SVG/1.1/DTD/svg11.dtd">
<svg version="1.1" id="Layer_1" xmlns="http://www.w3.org/2000/svg" xmlns:xlink="http://www.w3.org/1999/xlink" x="0px" y="0px"
	 viewBox="0 0 200 200" enable-background="new 0 0 200 200" xml:space="preserve">
<g>
	<path d="M111.1,44.4H88.9H77.8v11.1v22.2v11.1h11.1h22.2h11.1V77.8V55.6V44.4H111.1z M111.1,77.8H88.9V55.6h22.2V77.8z"/>
	<path d="M55.6,111.1H44.5v11.1v22.2v11.1h11.1h22.2h11.1v-11.1v-22.2v-11.1H77.8H55.6z M77.8,144.4H55.6v-22.2h22.2V144.4z"/>
	<path d="M122.2,111.1h-11.1v11.1v22.2v11.1h11.1h22.2h11.1v-11.1v-22.2v-11.1h-11.1H122.2z M144.4,144.4h-22.2v-22.2h22.2V144.4z"
		/>
</g>
</svg>
