<?xml version="1.0" encoding="utf-8"?>
<!-- Generator: Adobe Illustrator 18.1.1, SVG Export Plug-In . SVG Version: 6.00 Build 0)  -->
<!DOCTYPE svg PUBLIC "-//W3C//DTD SVG 1.1//EN" "http://www.w3.org/Graphics/SVG/1.1/DTD/svg11.dtd">
<svg version="1.1" id="Layer_1" xmlns="http://www.w3.org/2000/svg" xmlns:xlink="http://www.w3.org/1999/xlink" x="0px" y="0px"
	 viewBox="0 0 200 200" enable-background="new 0 0 200 200" xml:space="preserve">
<g>
	<path d="M22.2,111.1H11.1v11.1v22.2v11.1h11.1h22.2h11.1v-11.1v-22.2v-11.1H44.4H22.2z M44.4,144.4H22.2v-22.2h22.2V144.4z"/>
	<path d="M88.9,111.1H77.8v11.1v22.2v11.1h11.1h22.2h11.1v-11.1v-22.2v-11.1h-11.1H88.9z M111.1,144.4H88.9v-22.2h22.2V144.4z"/>
	<path d="M55.5,44.5H44.4v11.1v22.2v11.1h11.1h22.2h11.1V77.8V55.6V44.5H77.8H55.5z M77.8,77.8H55.5V55.6h22.2V77.8z"/>
	<path d="M122.2,44.5h-11.1v11.1v22.2v11.1h11.1h22.2h11.1V77.8V55.6V44.5h-11.1H122.2z M144.4,77.8h-22.2V55.6h22.2V77.8z"/>
	<path d="M155.5,111.1h-11.1v11.1v22.2v11.1h11.1h22.2h11.1v-11.1v-22.2v-11.1h-11.1H155.5z M177.8,144.4h-22.2v-22.2h22.2V144.4z"
		/>
</g>
</svg>
