<?xml version="1.0" encoding="utf-8"?>
<!-- Generated by IcoMoon.io -->
<!DOCTYPE svg PUBLIC "-//W3C//DTD SVG 1.1//EN" "http://www.w3.org/Graphics/SVG/1.1/DTD/svg11.dtd">
<svg version="1.1" xmlns="http://www.w3.org/2000/svg" xmlns:xlink="http://www.w3.org/1999/xlink" width="32" height="32" viewBox="0 0 32 32">
<path d="M7.424 22.976c-0.192 0.208-0.544 0.192-0.752 0l-3.008-3.008c-0.208-0.208-0.208-0.544 0-0.752l5.488-5.488c0.096-0.096 0.24-0.16 0.368-0.16 0.144 0 0.272 0.048 0.368 0.16l0.88 0.88-1.84 1.872c-0.352 0.352-0.352 0.896 0 1.248 0.176 0.176 0.4 0.256 0.624 0.256s0.448-0.080 0.624-0.256l1.872-1.872 0.144 0.144h2.368c-0.096-0.192-0.24-0.368-0.384-0.528l-0.896-0.864 1.248-1.248 0.88 0.88c0.016 0.016 0.016 0.016 0.032 0.032 0.432 0.416 0.992 0.64 1.6 0.64 0.592 0 1.168-0.224 1.584-0.64 0.016-0.016 0.016-0.016 0.032-0.032l5.488-5.488c0.896-0.896 0.896-2.352 0-3.248l-3.008-3.008c-0.864-0.864-2.368-0.864-3.232 0l-5.488 5.488c-0.432 0.432-0.672 1.008-0.672 1.616s0.24 1.184 0.672 1.632l0.88 0.88-1.248 1.248-0.88-0.88c-0.864-0.864-2.368-0.864-3.232 0l-5.488 5.488c-0.896 0.896-0.896 2.352 0 3.248l3.008 3.008c0.432 0.432 1.008 0.672 1.616 0.672s1.184-0.24 1.616-0.672l2.88-2.88h-2.512l-1.632 1.632zM13.664 9.232l5.488-5.488c0.096-0.096 0.24-0.16 0.368-0.16 0.144 0 0.272 0.048 0.368 0.16l2.128 2.128 0.864 0.88c0.208 0.208 0.208 0.544 0 0.752l-5.488 5.488c-0.192 0.192-0.544 0.192-0.752 0l-0.88-0.88 1.872-1.872c0.336-0.352 0.336-0.896 0-1.248-0.352-0.352-0.896-0.352-1.248 0l-1.856 1.856-0.88-0.88c-0.096-0.096-0.16-0.24-0.16-0.368 0.016-0.128 0.064-0.272 0.176-0.368z" fill="#000000"></path>
<path d="M23.024 24.896l7.088-6.144-7.088-6.304v5.328h-12.352v1.776h5.328v0.016h7.024v1.76z" fill="#000000"></path>
</svg>
