<?xml version="1.0" encoding="utf-8"?>
<!-- Generated by IcoMoon.io -->
<!DOCTYPE svg PUBLIC "-//W3C//DTD SVG 1.1//EN" "http://www.w3.org/Graphics/SVG/1.1/DTD/svg11.dtd">
<svg version="1.1" xmlns="http://www.w3.org/2000/svg" xmlns:xlink="http://www.w3.org/1999/xlink" width="32" height="32" viewBox="0 0 32 32">
<path d="M26.096 3.616l-1.056-1.056c-1.040-1.040-2.848-1.040-3.888 0l-6.592 6.608c-0.512 0.528-0.8 1.216-0.8 1.952s0.288 1.424 0.8 1.952l1.056 1.056-1.504 1.504-1.056-1.056c-1.040-1.040-2.848-1.040-3.888 0l-6.592 6.608c-1.072 1.072-1.072 2.832 0 3.904l3.616 3.616c0.528 0.528 1.216 0.8 1.952 0.8s1.424-0.288 1.952-0.8l6.592-6.608c1.072-1.072 1.072-2.832 0-3.904l-1.056-1.056 1.504-1.504 1.056 1.056c0.528 0.528 1.216 0.816 1.952 0.816s1.424-0.288 1.952-0.816l6.544-6.624c1.072-1.072 1.072-2.832 0-3.904l-2.544-2.544zM15.152 19.664c0.24 0.256 0.24 0.656 0 0.896l-6.592 6.608c-0.24 0.24-0.656 0.24-0.896 0l-3.616-3.616c-0.24-0.256-0.24-0.656 0-0.896l6.592-6.608c0.112-0.112 0.272-0.192 0.448-0.192s0.336 0.064 0.448 0.192l1.056 1.056-2.24 2.256c-0.416 0.416-0.416 1.088 0 1.504 0.208 0.208 0.48 0.304 0.752 0.304s0.544-0.096 0.752-0.304l2.24-2.256 1.056 1.056zM27.136 7.664c0.24 0.256 0.24 0.656 0 0.896l-6.592 6.608c-0.24 0.24-0.656 0.24-0.896 0l-1.056-1.056 2.24-2.256c0.416-0.416 0.416-1.088 0-1.504s-1.088-0.416-1.504 0l-2.24 2.256-1.056-1.056c-0.112-0.112-0.192-0.272-0.192-0.448s0.064-0.336 0.192-0.448l6.592-6.608c0.112-0.128 0.288-0.192 0.448-0.192 0.176 0 0.336 0.064 0.448 0.192l3.616 3.616z" fill="#000000"></path>
</svg>
