<?xml version="1.0" encoding="utf-8"?>
<!-- Generator: Adobe Illustrator 18.1.1, SVG Export Plug-In . SVG Version: 6.00 Build 0)  -->
<!DOCTYPE svg PUBLIC "-//W3C//DTD SVG 1.1//EN" "http://www.w3.org/Graphics/SVG/1.1/DTD/svg11.dtd">
<svg version="1.1" id="Layer_1" xmlns="http://www.w3.org/2000/svg" xmlns:xlink="http://www.w3.org/1999/xlink" x="0px" y="0px"
	 viewBox="0 0 200 200" enable-background="new 0 0 200 200" xml:space="preserve">
<g>
	<path fill-rule="evenodd" clip-rule="evenodd" d="M16.8,88.5h11.3c3.1,0,5.7,2.5,5.7,5.7v11.3c0,3.1-2.5,5.7-5.7,5.7H16.8
		c-3.1,0-5.7-2.5-5.7-5.7V94.2C11.1,91,13.6,88.5,16.8,88.5z"/>
	<path fill-rule="evenodd" clip-rule="evenodd" d="M61.5,88.9H183c3.3,0,5.9,5.1,5.9,11.3c0,6.2-2.6,10.9-5.9,10.9H61.5
		c-3.3,0-5.9-4.7-5.9-10.9C55.5,94,58.2,88.9,61.5,88.9z"/>
	<path fill-rule="evenodd" clip-rule="evenodd" d="M16.8,133.3h11.3c3.1,0,5.7,2.5,5.7,5.7v10.9c0,3.1-2.5,5.7-5.7,5.7H16.8
		c-3.1,0-5.7-2.5-5.7-5.7V139C11.1,135.9,13.6,133.3,16.8,133.3z"/>
	<path fill-rule="evenodd" clip-rule="evenodd" d="M61.5,133.3H183c3.3,0,5.9,5.1,5.9,11.3c0,6.2-2.6,10.9-5.9,10.9H61.5
		c-3.3,0-5.9-4.7-5.9-10.9C55.5,138.4,58.2,133.3,61.5,133.3z"/>
	<path fill-rule="evenodd" clip-rule="evenodd" d="M16.8,44.1h11.3c3.1,0,5.7,2.5,5.7,5.7V61c0,3.1-2.5,5.7-5.7,5.7H16.8
		c-3.1,0-5.7-2.5-5.7-5.7V49.7C11.1,46.6,13.6,44.1,16.8,44.1z"/>
	<path fill-rule="evenodd" clip-rule="evenodd" d="M61.5,44.5H183c3.3,0,5.9,5.1,5.9,11.3c0,6.2-2.6,10.9-5.9,10.9H61.5
		c-3.3,0-5.9-4.7-5.9-10.9C55.5,49.5,58.2,44.5,61.5,44.5z"/>
</g>
</svg>
