<?xml version="1.0" encoding="utf-8"?>
<!-- Generator: Adobe Illustrator 18.1.1, SVG Export Plug-In . SVG Version: 6.00 Build 0)  -->
<!DOCTYPE svg PUBLIC "-//W3C//DTD SVG 1.1//EN" "http://www.w3.org/Graphics/SVG/1.1/DTD/svg11.dtd">
<svg version="1.1" id="Layer_1" xmlns="http://www.w3.org/2000/svg" xmlns:xlink="http://www.w3.org/1999/xlink" x="0px" y="0px"
	 viewBox="0 0 24.8 24.8" enable-background="new 0 0 24.8 24.8" xml:space="preserve">
<path fill="#333333" d="M12.5,7.8c0.9,0,1.5-0.7,1.5-1.6c0-0.8-0.7-1.5-1.6-1.5c-0.8,0-1.5,0.7-1.5,1.6C10.9,7.1,11.6,7.8,12.5,7.8z
	"/>
<path fill="#333333" d="M7.4,7.3c0,0.8,0.7,1.5,1.5,1.5c0.8,0,1.5-0.7,1.5-1.5c0-0.8-0.7-1.5-1.5-1.5C8.1,5.9,7.4,6.5,7.4,7.3z"/>
<path fill="#333333" d="M6.6,11.6c0.8,0,1.4-0.6,1.4-1.4c0-0.8-0.6-1.5-1.4-1.5c-0.8,0-1.4,0.6-1.4,1.4C5.2,10.9,5.8,11.6,6.6,11.6z
	"/>
<path fill="#333333" d="M6.1,15.3c0.8,0,1.3-0.6,1.3-1.4c0-0.7-0.6-1.3-1.3-1.3c-0.7,0-1.4,0.6-1.4,1.4C4.8,14.7,5.4,15.3,6.1,15.3z
	"/>
<path fill="#333333" d="M7.7,18.6C8.4,18.6,9,18,9,17.3C9,16.6,8.5,16,7.8,16c-0.7,0-1.3,0.6-1.3,1.3C6.4,18,7,18.6,7.7,18.6z"/>
<path fill="#333333" d="M12.1,19.2c0-0.7-0.5-1.2-1.2-1.2c-0.7,0-1.2,0.5-1.2,1.2c0,0.7,0.5,1.2,1.2,1.2
	C11.5,20.5,12.1,19.9,12.1,19.2z"/>
<path fill="#333333" d="M15.8,19.2c0-0.6-0.5-1.2-1.2-1.2c-0.6,0-1.2,0.5-1.2,1.2c0,0.6,0.5,1.2,1.2,1.2
	C15.3,20.4,15.8,19.8,15.8,19.2z"/>
<path fill="#333333" d="M17.7,18.3c0.6,0,1.1-0.5,1.1-1.1c0-0.6-0.5-1.1-1.1-1.1c-0.6,0-1.1,0.5-1.1,1.1
	C16.6,17.8,17.1,18.3,17.7,18.3z"/>
<path fill="#333333" d="M20.3,13.8c0-0.6-0.5-1-1-1c-0.6,0-1,0.5-1,1c0,0.6,0.5,1,1,1C19.8,14.8,20.3,14.4,20.3,13.8z"/>
<path fill="#333333" d="M18.7,11c0.5,0,1-0.4,1-1c0-0.5-0.4-1-1-1c-0.5,0-1,0.4-1,1C17.7,10.5,18.2,11,18.7,11z"/>
<path fill="#333333" d="M16.3,6.4c-0.5,0-0.9,0.4-0.9,0.9c0,0.5,0.4,0.9,0.9,0.9c0.5,0,0.9-0.4,0.9-0.9C17.2,6.8,16.8,6.4,16.3,6.4z
	"/>
</svg>
