<?xml version="1.0" encoding="utf-8"?>
<!-- Generator: Adobe Illustrator 18.1.1, SVG Export Plug-In . SVG Version: 6.00 Build 0)  -->
<!DOCTYPE svg PUBLIC "-//W3C//DTD SVG 1.1//EN" "http://www.w3.org/Graphics/SVG/1.1/DTD/svg11.dtd">
<svg version="1.1" id="Layer_1" xmlns="http://www.w3.org/2000/svg" xmlns:xlink="http://www.w3.org/1999/xlink" x="0px" y="0px"
	 viewBox="0 0 200 200" enable-background="new 0 0 200 200" xml:space="preserve">
<g>
	<path d="M55.5,77.8H44.4H33.3v11.1v44.4v11.1h11.1h11.1h11.1h0v-11.1h0V88.9h0V77.8h0H55.5z M55.5,133.3H44.4V88.9h11.1V133.3z"/>
	<rect x="122.2" y="77.8" width="44.4" height="11.1"/>
	<rect x="144.4" y="144.5" width="22.2" height="11.1"/>
	<rect x="122.2" y="111.1" width="44.4" height="11.1"/>
	<polygon points="111.1,169.9 111.1,77.8 100,77.8 100,169.9 79.7,149.6 71.8,157.5 105.6,191.2 139.3,157.5 131.4,149.6 	"/>
	<polygon points="11.1,11.1 11.1,188.9 55.5,188.9 55.5,177.8 22.2,177.8 22.2,22.2 177.8,22.2 177.8,177.8 144.4,177.8 
		144.4,188.9 188.9,188.9 188.9,11.1 	"/>
	<path d="M166.7,55.6V44.5V33.3h-11.1H44.4H33.3v11.1v11.1v11.1h11.1h111.1h11.1V55.6z M44.4,55.6V44.5h111.1v11.1H44.4z"/>
</g>
</svg>
