<?xml version="1.0" encoding="utf-8"?>
<!-- Generator: Adobe Illustrator 18.1.1, SVG Export Plug-In . SVG Version: 6.00 Build 0)  -->
<!DOCTYPE svg PUBLIC "-//W3C//DTD SVG 1.1//EN" "http://www.w3.org/Graphics/SVG/1.1/DTD/svg11.dtd">
<svg version="1.1" id="Layer_1" xmlns="http://www.w3.org/2000/svg" xmlns:xlink="http://www.w3.org/1999/xlink" x="0px" y="0px"
	 viewBox="-429 231 100 100" enable-background="new -429 231 100 100" xml:space="preserve">
<g>
	<path d="M-380.3,317.7c-0.5,0-0.9-0.2-1.2-0.6c-1.1-1.4-25.3-32.9-25.3-46.9c0-14.7,11.9-26.5,26.5-26.5s26.5,11.9,26.5,26.5
		c0,14-24.2,45.5-25.3,46.9C-379.4,317.5-379.8,317.7-380.3,317.7z M-380.3,246.7c-13,0-23.5,10.5-23.5,23.5
		c0,11.4,18.5,36.7,23.5,43.4c4.9-6.6,23.5-32.1,23.5-43.4C-356.8,257.2-367.3,246.7-380.3,246.7z"/>
	<path d="M-380.3,284.2c-7.7,0-14-6.3-14-14c0-7.7,6.3-14,14-14c7.7,0,14,6.3,14,14C-366.3,277.9-372.6,284.2-380.3,284.2z
		 M-380.3,259.2c-6,0-11,4.9-11,11s4.9,11,11,11c6,0,11-4.9,11-11S-374.3,259.2-380.3,259.2z"/>
</g>
</svg>
