<?xml version="1.0" encoding="utf-8"?>
<!-- Generator: Adobe Illustrator 18.1.1, SVG Export Plug-In . SVG Version: 6.00 Build 0)  -->
<!DOCTYPE svg PUBLIC "-//W3C//DTD SVG 1.1//EN" "http://www.w3.org/Graphics/SVG/1.1/DTD/svg11.dtd">
<svg version="1.1" id="Layer_1" xmlns="http://www.w3.org/2000/svg" xmlns:xlink="http://www.w3.org/1999/xlink" x="0px" y="0px"
	 viewBox="0 0 200 200" enable-background="new 0 0 200 200" xml:space="preserve">
<g>
	<path d="M66.7,66.7h66.7v11.1h11.1V66.7V55.6V33.3V22.2V11.1h-11.1v11.1H66.7V11.1H55.5v11.1v11.1v22.2H33.3H22.2H11.1v11.1h11.1
		v66.7H11.1v11.1h11.1h11.1h22.2h11.1h11.1v-11.1H66.7V66.7z M66.7,33.3h66.7v22.2H66.7V33.3z M55.5,133.3H33.3V66.7h22.2V133.3z"/>
	<path d="M177.8,122.2h-11.1V100h-0.1c-0.1-2.7-0.9-8.6-5.7-13.7c-4.9-5.2-12.3-7.9-22-7.9c-9.7,0-17.1,2.7-22,7.9
		c-4.8,5.1-5.6,11.1-5.7,13.7h-0.1v22.2H100H88.9v11.1v44.4v11.1H100h77.8h11.1v-11.1v-44.4v-11.1H177.8z M125,93.7
		c2.8-2.9,7.4-4.3,13.9-4.3c6.5,0,11.1,1.4,13.9,4.3c2.2,2.3,2.7,5.1,2.8,6.3h0v22.2h-33.3V100h0C122.3,98.7,122.8,96,125,93.7z
		 M177.8,177.8H100v-44.4h11.1h11.1h33.3h11.1h11.1V177.8z"/>
	<rect x="133.3" y="144.5" width="11.1" height="22.2"/>
</g>
</svg>
