<?xml version="1.0" encoding="utf-8"?>
<!-- Generated by IcoMoon.io -->
<!DOCTYPE svg PUBLIC "-//W3C//DTD SVG 1.1//EN" "http://www.w3.org/Graphics/SVG/1.1/DTD/svg11.dtd">
<svg version="1.1" xmlns="http://www.w3.org/2000/svg" xmlns:xlink="http://www.w3.org/1999/xlink" width="32" height="32" viewBox="0 0 32 32">
<path d="M30.192 15.84h-0.064c-0.496-2.976-3.040-5.168-6.112-5.168s-5.616 2.192-6.112 5.168h-0.096v14.384h12.4v-13.872l-0.016-0.512zM19.536 28.448v-11.776l0.032-0.272c0.24-2.672 1.776-3.952 4.464-3.952s4.176 1.28 4.416 3.952l0.032 12.048h-8.944z" fill="#000000"></path>
<path d="M18.512 8.576h7.584l-0.864-1.504c-0.32-0.576-0.64-0.576-0.736-0.576-0.176 0-0.384 0.064-0.608 0.208l-2.768 1.616-0.176-0.144c-0.896-0.752-1.824-1.296-2.784-1.632l-0.208-0.080v-3.376c0-0.688-0.288-0.976-0.976-0.976h-4.24c-0.688 0-0.976 0.288-0.976 0.976v3.408l-0.208 0.064c-0.624 0.224-1.232 0.528-1.808 0.912-0.288 0.192-0.576 0.416-0.848 0.608l-0.176 0.128-2.912-1.664c-0.224-0.128-0.416-0.192-0.592-0.192-0.112 0-0.416 0-0.736 0.56l-2.192 3.76c-0.176 0.336-0.224 0.592-0.144 0.784v0 0.016c0.048 0.192 0.224 0.368 0.512 0.528l2.848 1.632-0.032 0.224c-0.096 0.544-0.144 1.088-0.144 1.664v0.32c0.032 0.4 0.048 0.768 0.112 1.152l0.032 0.224-2.816 1.632c-0.544 0.32-0.688 0.672-0.448 1.184v0.032c0.032 0.048 0.048 0.096 0.080 0.16v0.016l2.16 3.728c0.288 0.48 0.56 0.544 0.736 0.544s0.384-0.064 0.608-0.208l2.768-1.584 0.176 0.144c0.864 0.72 1.776 1.248 2.8 1.632l0.208 0.080v3.36c0 0.688 0.288 0.976 0.976 0.976h2.96v-1.872l-2.208 0.192v-2.432c0-0.848-0.528-1.616-1.328-1.904-0.832-0.304-1.584-0.752-2.304-1.344-0.368-0.304-0.832-0.48-1.296-0.48-0.352 0-0.704 0.096-1.008 0.272l-1.968 1.12-1.44-2.496 2-1.152c0.736-0.432 1.136-1.28 0.976-2.112-0.048-0.256-0.064-0.56-0.096-0.928v-0.256c0-0.48 0.032-0.912 0.112-1.36 0.144-0.832-0.256-1.68-0.992-2.112l-2.016-1.152 1.488-2.496 2.080 1.2c0.304 0.176 0.656 0.272 1.008 0.272 0.448 0 0.864-0.144 1.216-0.416 0.224-0.176 0.496-0.384 0.736-0.544 0.48-0.304 0.976-0.56 1.488-0.752 0.8-0.288 1.328-1.056 1.328-1.904v-2.448h2.768v2.432c0 0.864 0.544 1.632 1.36 1.92 0.288 0.096 0.592 0.24 0.896 0.4l0.032 0.016z" fill="#000000"></path>
<path d="M14.912 11.184c-1.168 0-2.144 0.4-2.976 1.232s-1.232 1.808-1.232 3.008c0 1.168 0.4 2.144 1.232 2.976 0.848 0.848 1.824 1.264 2.976 1.264 0.208 0 0.416-0.016 0.64-0.048l0.144-0.016v-1.744l-0.192 0.048c-0.176 0.048-0.368 0.064-0.576 0.064-0.704 0-1.248-0.24-1.776-0.752-0.512-0.512-0.736-1.056-0.736-1.776s0.224-1.296 0.736-1.792c0.512-0.512 1.056-0.736 1.776-0.736 0.208 0 0.4 0.016 0.576 0.064l0.192 0.048v-1.776l-0.144-0.016c-0.224-0.032-0.432-0.048-0.64-0.048z" fill="#000000"></path>
</svg>
