<?xml version="1.0" encoding="utf-8"?>
<!-- Generated by IcoMoon.io -->
<!DOCTYPE svg PUBLIC "-//W3C//DTD SVG 1.1//EN" "http://www.w3.org/Graphics/SVG/1.1/DTD/svg11.dtd">
<svg version="1.1" xmlns="http://www.w3.org/2000/svg" xmlns:xlink="http://www.w3.org/1999/xlink" width="32" height="32" viewBox="0 0 32 32">
<path d="M29.776 26.912l-8.432-8.336c-0.32-0.32-0.848-0.32-1.168-0.016-0.32 0.32-0.32 0.832 0.016 1.152l8.432 8.336c0.32 0.32 0.848 0.32 1.168 0.016s0.304-0.832-0.016-1.152z" fill="#000000"></path>
<path d="M12 1.776c-5.648 0-10.224 4.464-10.224 10s4.592 10.016 10.24 10.032c5.648 0 10.224-4.464 10.224-10-0.016-5.536-4.592-10.016-10.24-10.032zM12.016 20.224c-4.752 0-8.608-3.776-8.624-8.432 0-4.656 3.84-8.416 8.592-8.416s8.608 3.776 8.624 8.432c0.016 4.64-3.84 8.416-8.592 8.416z" fill="#000000"></path>
</svg>
