<?xml version="1.0" encoding="utf-8"?>
<!-- Generated by IcoMoon.io -->
<!DOCTYPE svg PUBLIC "-//W3C//DTD SVG 1.1//EN" "http://www.w3.org/Graphics/SVG/1.1/DTD/svg11.dtd">
<svg version="1.1" xmlns="http://www.w3.org/2000/svg" xmlns:xlink="http://www.w3.org/1999/xlink" width="32" height="32" viewBox="0 0 32 32">
<path d="M30.192 8.88l-7.12-7.12h-10.624v3.568h-3.6v-1.792h-7.072v7.12h7.072v-3.536h3.6v7.104h-3.6v-1.776h-7.072v7.104h7.072v-3.568h3.6v7.136h-3.6v-1.776h-7.072v7.12h7.072v-3.552h3.6v5.328h17.776v-21.36h-0.032zM3.552 8.896v-3.552h3.552v3.552h-3.552zM3.552 17.776v-3.552h3.552v3.552h-3.552zM3.552 26.672v-3.552h3.552v3.552h-3.552zM28.448 8.896h-5.328v-5.344l5.328 5.344zM14.224 28.448v-24.896h7.104v7.104h7.104v17.776h-14.208z" fill="#000000"></path>
</svg>
