<?xml version="1.0" encoding="utf-8"?>
<!-- Generated by IcoMoon.io -->
<!DOCTYPE svg PUBLIC "-//W3C//DTD SVG 1.1//EN" "http://www.w3.org/Graphics/SVG/1.1/DTD/svg11.dtd">
<svg version="1.1" xmlns="http://www.w3.org/2000/svg" xmlns:xlink="http://www.w3.org/1999/xlink" width="32" height="32" viewBox="0 0 32 32">
<path d="M14.592 8.048c0-2.512-1.456-4.656-3.552-5.712-0.512-0.256-1.568-0.464-2.144-0.576v5.344h-1.792v-5.296c-0.496 0.112-1.328 0.304-1.776 0.528-2.096 1.056-3.552 3.2-3.552 5.712s1.456 4.656 3.552 5.712v16.48h5.328v-16.48c2.112-1.072 3.936-3.216 3.936-5.712zM11.024 12.112c-0.48 0.336-1.552 0.576-2.144 0.736v15.6h-1.776v-15.664c-0.512-0.16-1.344-0.368-1.776-0.672-1.28-0.896-2.128-2.384-2.128-4.064s0.848-3.168 2.128-4.080v4.912h5.696v-4.912c1.28 0.896 2.128 2.384 2.128 4.080s-0.832 3.168-2.128 4.064z" fill="#000000"></path>
<path d="M28.080 10.672h-12.816v3.552h2.496v3.552h-5.328v1.776h5.344v3.552h-5.344v1.776h5.344v3.552h-5.344v1.776h17.792v-19.536h-2.144zM19.552 14.224h3.552v3.552h-3.552v-3.552zM19.552 19.552h3.552v3.552h-3.552v-3.552zM19.552 28.448v-3.552h3.552v3.552h-3.552zM28.448 28.448h-3.552v-3.552h3.552v3.552zM28.448 23.104h-3.552v-3.552h3.552v3.552zM28.448 17.776h-3.552v-3.552h3.552v3.552z" fill="#000000"></path>
</svg>
