<?xml version="1.0" encoding="utf-8"?>
<!-- Generator: Adobe Illustrator 18.1.1, SVG Export Plug-In . SVG Version: 6.00 Build 0)  -->
<!DOCTYPE svg PUBLIC "-//W3C//DTD SVG 1.1//EN" "http://www.w3.org/Graphics/SVG/1.1/DTD/svg11.dtd">
<svg version="1.1" id="Layer_1" xmlns="http://www.w3.org/2000/svg" xmlns:xlink="http://www.w3.org/1999/xlink" x="0px" y="0px"
	 viewBox="0 0 200 200" enable-background="new 0 0 200 200" xml:space="preserve">
<g>
	<polygon fill-rule="evenodd" clip-rule="evenodd" points="22.2,33.3 44.4,33.3 44.4,22.2 22.2,22.2 11.1,22.2 11.1,33.3 
		11.1,177.8 11.1,188.9 22.2,188.9 44.4,188.9 44.4,177.8 22.2,177.8 	"/>
	<polygon fill-rule="evenodd" clip-rule="evenodd" points="166.7,22.2 144.4,22.2 144.4,33.3 166.7,33.3 166.7,177.8 144.4,177.8 
		144.4,188.9 166.7,188.9 177.8,188.9 177.8,177.8 177.8,33.3 177.8,22.2 	"/>
	<polygon fill-rule="evenodd" clip-rule="evenodd" points="155.5,166.7 155.5,155.6 155.5,100 144.4,100 144.4,155.6 133.3,155.6 
		133.3,122.2 122.2,122.2 122.2,155.6 100,155.6 100,122.2 88.9,122.2 88.9,155.6 66.7,155.6 66.7,122.2 55.5,122.2 55.5,155.6 
		44.4,155.6 44.4,100 33.3,100 33.3,155.6 33.3,166.7 44.4,166.7 55.5,166.7 66.7,166.7 88.9,166.7 100,166.7 122.2,166.7 
		133.3,166.7 144.4,166.7 	"/>
</g>
</svg>
