<?xml version="1.0" encoding="utf-8"?>
<!-- Generated by IcoMoon.io -->
<!DOCTYPE svg PUBLIC "-//W3C//DTD SVG 1.1//EN" "http://www.w3.org/Graphics/SVG/1.1/DTD/svg11.dtd">
<svg version="1.1" xmlns="http://www.w3.org/2000/svg" xmlns:xlink="http://www.w3.org/1999/xlink" width="32" height="32" viewBox="0 0 32 32">
<path d="M29.344 5.456l-9.168-3.648-8.736 3.456-8.816-3.456c-0.080-0.016-0.144-0.032-0.224-0.032-0.352 0-0.624 0.272-0.624 0.672v22.72c0 0.48 0.384 0.976 0.848 1.104l8.816 3.488 8.736-3.552 9.168 3.456c0.080 0.016 0.144 0.032 0.224 0.032 0.352 0 0.624-0.272 0.624-0.672v-22.464c0-0.48-0.384-0.976-0.848-1.104zM12.448 6.656l7.104-2.784v20.848l-7.104 2.816v-20.88zM3.552 4.128l7.136 2.64v20.864l-7.136-2.912v-20.592zM28.448 27.44l-7.136-2.56v-20.8l7.136 2.928v20.432z" fill="#000000"></path>
</svg>
