<?xml version="1.0" encoding="utf-8"?>
<!-- Generated by IcoMoon.io -->
<!DOCTYPE svg PUBLIC "-//W3C//DTD SVG 1.1//EN" "http://www.w3.org/Graphics/SVG/1.1/DTD/svg11.dtd">
<svg version="1.1" xmlns="http://www.w3.org/2000/svg" xmlns:xlink="http://www.w3.org/1999/xlink" width="32" height="32" viewBox="0 0 32 32">
<path d="M16.080 28.72c-7.552 0-12.448-1.952-12.624-3.36v-4c0.752 0.48 1.744 0.912 2.944 1.296 2.592 0.816 6.032 1.264 9.68 1.264 0.576 0 1.136-0.016 1.696-0.032v-1.504c-0.56 0.016-1.12 0.032-1.696 0.032-7.712 0-12.624-2.032-12.624-3.424v-3.776c0.752 0.48 1.744 0.912 2.944 1.296 2.592 0.816 6.032 1.264 9.68 1.264 0.576 0 1.136-0.016 1.696-0.032v-1.504c-0.56 0.016-1.12 0.032-1.696 0.032-7.712 0-12.624-2.032-12.624-3.424v-3.744c0.752 0.48 1.744 0.912 2.944 1.296 2.592 0.816 6.032 1.264 9.68 1.264s7.088-0.448 9.68-1.264c1.136-0.352 2.048-0.768 2.768-1.216v1.504h1.696v-3.904c0-0.016 0-0.048 0-0.064 0 0 0 0 0 0v0c0-0.048 0-0.080 0-0.128v-0.48h0.016c-0.368-1.232-1.936-2.288-4.448-3.072-2.592-0.816-6.032-1.264-9.68-1.264s-7.088 0.448-9.68 1.264c-2.512 0.784-4.256 1.84-4.624 3.648v19.344l0.016 0.048 0.144 0.032c1.104 2.704 7.84 4.128 14.144 4.128 0.56 0 1.12-0.016 1.696-0.032v-1.504c-0.592 0-1.152 0.016-1.728 0.016zM6.848 4.48c2.464-0.768 5.728-1.184 9.232-1.184 7.712 0 12.448 2.032 12.448 3.424 0 0 0 0 0 0 0 0.016 0 0.048 0 0.064v0.048c-0.096 0.544-0.864 1.392-3.2 2.128-2.464 0.768-5.728 1.184-9.232 1.184-7.712 0-12.624-2.032-12.624-3.424-0.016-0.544 0.88-1.456 3.376-2.24z" fill="#000000"></path>
<path d="M30.224 24.272c0 0.944-0.352 1.728-1.072 2.352s-1.712 1.008-2.992 1.168v2.432h-1.344v-2.336c-0.784 0-1.536-0.064-2.272-0.176-0.736-0.128-1.328-0.288-1.808-0.512v-1.632c0.576 0.256 1.248 0.464 2 0.64 0.752 0.16 1.44 0.24 2.064 0.24v-4.608c-1.424-0.448-2.432-0.976-3.008-1.584s-0.864-1.376-0.864-2.32c0-0.912 0.352-1.664 1.056-2.256s1.648-0.944 2.816-1.072v-1.92h1.344v1.888c1.28 0.032 2.528 0.288 3.712 0.768l-0.544 1.376c-1.040-0.416-2.096-0.656-3.168-0.736v4.544c1.104 0.352 1.92 0.688 2.464 1.024s0.944 0.72 1.2 1.136c0.288 0.448 0.416 0.976 0.416 1.584zM22.704 17.904c0 0.528 0.16 0.96 0.464 1.28 0.32 0.32 0.864 0.624 1.632 0.912v-4.048c-0.688 0.112-1.216 0.336-1.568 0.656s-0.528 0.72-0.528 1.2zM28.432 24.416c0-0.496-0.16-0.912-0.464-1.216s-0.912-0.624-1.808-0.928v4.080c1.52-0.224 2.272-0.864 2.272-1.936z" fill="#000000"></path>
</svg>
