<?xml version="1.0" encoding="utf-8"?>
<!-- Generated by IcoMoon.io -->
<!DOCTYPE svg PUBLIC "-//W3C//DTD SVG 1.1//EN" "http://www.w3.org/Graphics/SVG/1.1/DTD/svg11.dtd">
<svg version="1.1" xmlns="http://www.w3.org/2000/svg" xmlns:xlink="http://www.w3.org/1999/xlink" width="32" height="32" viewBox="0 0 32 32">
<path d="M19.744 21.568c-0.544-0.336-1.36-0.672-2.464-1.024v-4.544c1.072 0.080 2.128 0.32 3.168 0.736l0.544-1.376c-1.2-0.48-2.432-0.736-3.712-0.768v-1.904h-1.344v1.904c-1.168 0.128-2.112 0.48-2.816 1.072s-1.056 1.344-1.056 2.256c0 0.944 0.288 1.728 0.864 2.32 0.576 0.608 1.584 1.12 3.008 1.584v4.608c-0.624 0-1.312-0.080-2.064-0.24s-1.424-0.368-2-0.64v1.648c0.464 0.224 1.072 0.384 1.808 0.512s1.488 0.176 2.272 0.176v2.336h1.344v-2.432c1.28-0.16 2.272-0.544 2.992-1.168s1.072-1.408 1.072-2.352c0-0.608-0.128-1.136-0.384-1.568-0.288-0.432-0.688-0.816-1.232-1.136zM15.92 20.096c-0.768-0.288-1.312-0.592-1.632-0.912s-0.464-0.752-0.464-1.28c0-0.48 0.176-0.88 0.528-1.216 0.352-0.32 0.88-0.544 1.568-0.656v4.064zM17.28 26.336v-4.080c0.896 0.304 1.504 0.624 1.808 0.928s0.464 0.72 0.464 1.216c0 1.088-0.752 1.728-2.272 1.936z" fill="#000000"></path>
<path d="M12.224 1.776h-1.648l-3.568 6.88-3.552-6.88h-1.68l3.888 7.28h-2.416v1.2h2.976v1.6h-2.976v1.2h2.976v2.544h1.552v-2.544h2.992v-1.2h-2.992v-1.6h2.992v-1.2h-2.464z" fill="#000000"></path>
<path d="M24.72 12.832c-0.592-0.576-1.008-1.392-1.216-2.448h3.936v-1.136h-4.080l-0.016-0.4v-0.56l0.016-0.496h4.608v-1.136h-4.496c0.464-2.368 1.632-3.552 3.504-3.552 0.752 0 1.616 0.256 2.592 0.752l0.624-1.232c-0.976-0.576-2.048-0.848-3.216-0.848-1.392 0-2.512 0.432-3.376 1.28s-1.408 2.048-1.632 3.584h-1.44v1.136h1.344l-0.016 0.704v0.384l0.016 0.368h-1.344v1.136h1.456c0.272 1.504 0.832 2.656 1.68 3.456 0.848 0.784 1.968 1.184 3.36 1.184 1.008 0 1.936-0.192 2.8-0.576v-1.312c-0.896 0.384-1.808 0.576-2.72 0.576-0.976 0.016-1.776-0.272-2.384-0.864z" fill="#000000"></path>
</svg>
