<?xml version="1.0" encoding="utf-8"?>
<!-- Generated by IcoMoon.io -->
<!DOCTYPE svg PUBLIC "-//W3C//DTD SVG 1.1//EN" "http://www.w3.org/Graphics/SVG/1.1/DTD/svg11.dtd">
<svg version="1.1" xmlns="http://www.w3.org/2000/svg" xmlns:xlink="http://www.w3.org/1999/xlink" width="32" height="32" viewBox="0 0 32 32">
<path d="M29.456 13.232c-1.040-1.040-2.72-1.040-3.76 0-0.288 0.288-0.48 0.608-0.608 0.96h-6.048l4.24-4.24c0.352 0.176 0.736 0.272 1.168 0.272 1.472 0 2.656-1.184 2.656-2.656s-1.184-2.656-2.656-2.656-2.656 1.184-2.656 2.656c0 0.4 0.096 0.784 0.256 1.12l-4.256 4.256v-6c0.352-0.128 0.688-0.336 0.976-0.624 1.040-1.040 1.040-2.72 0-3.76s-2.72-1.040-3.76 0c-1.040 1.040-1.040 2.72 0 3.76 0.288 0.288 0.64 0.496 0.992 0.624v6.016l-4.256-4.272c0.16-0.336 0.256-0.72 0.256-1.12 0-1.472-1.184-2.656-2.656-2.656s-2.656 1.184-2.656 2.656 1.168 2.672 2.64 2.672c0.416 0 0.816-0.096 1.168-0.272l4.24 4.24h-6.016c-0.128-0.352-0.336-0.688-0.608-0.96-1.040-1.040-2.72-1.040-3.76 0s-1.040 2.72 0 3.76c1.040 1.040 2.72 1.040 3.76 0 0.288-0.288 0.512-0.64 0.624-1.008h6l-4.272 4.272c-0.336-0.16-0.72-0.256-1.12-0.256-1.472 0-2.656 1.184-2.656 2.656s1.184 2.656 2.656 2.656 2.656-1.2 2.656-2.672c0-0.416-0.096-0.816-0.272-1.168l4.272-4.272v6.048c-0.368 0.128-0.704 0.336-0.992 0.624-1.040 1.040-1.040 2.72 0 3.76s2.72 1.040 3.76 0c1.040-1.040 1.040-2.72 0-3.76-0.288-0.288-0.624-0.496-0.976-0.624v-6.048l4.256 4.256c-0.176 0.352-0.272 0.752-0.272 1.168 0 1.472 1.184 2.656 2.656 2.656s2.656-1.184 2.656-2.656-1.184-2.656-2.656-2.656c-0.4 0-0.784 0.096-1.12 0.256l-4.288-4.288h6.032c0.128 0.368 0.336 0.72 0.624 1.008 1.040 1.040 2.72 1.040 3.76 0 1.040-1.008 1.040-2.688 0.016-3.728z" fill="#000000"></path>
</svg>
