<?xml version="1.0" encoding="utf-8"?>
<!-- Generator: Adobe Illustrator 18.1.1, SVG Export Plug-In . SVG Version: 6.00 Build 0)  -->
<!DOCTYPE svg PUBLIC "-//W3C//DTD SVG 1.1//EN" "http://www.w3.org/Graphics/SVG/1.1/DTD/svg11.dtd">
<svg version="1.1" id="Layer_1" xmlns="http://www.w3.org/2000/svg" xmlns:xlink="http://www.w3.org/1999/xlink" x="0px" y="0px"
	 viewBox="0 0 200 200" enable-background="new 0 0 200 200" xml:space="preserve">
<path d="M188.9,66.7V55.6h0h0h0V22.2V11.1h-11.1H66.7H55.6v11.1v33.3H22.2H11.1v11.1v66.7v11.1h11.1h33.3v33.3v11.1h11.1h111.1h11.1
	v-11.1v-33.3h0h0h0v-11.1h0L188.9,66.7L188.9,66.7z M66.7,22.2h111.1v33.3H66.7V22.2z M177.8,177.8H66.7v-33.3h111.1V177.8z
	 M177.8,133.3h-11.1h-11.1H44.4H33.3H22.2V66.7h11.1h11.1h111.1h11.1h11.1V133.3z"/>
<g>
	<path d="M50.9,119.4l-8.3-29.2h-0.2c0.4,5,0.6,8.8,0.6,11.6v17.6h-9.7V79h14.6l8.4,28.7h0.2L64.7,79h14.6v40.5H69.3v-17.7
		c0-0.9,0-1.9,0-3.1c0-1.1,0.2-3.9,0.4-8.3h-0.2l-8.2,29.1H50.9z"/>
	<path d="M122.4,98.3c0,6.8-1.9,12-5.6,15.6c-3.7,3.7-8.9,5.5-15.7,5.5H88.1V79h14c6.5,0,11.5,1.7,15,5
		C120.7,87.3,122.4,92.1,122.4,98.3z M111.1,98.7c0-3.7-0.7-6.5-2.2-8.3c-1.5-1.8-3.7-2.7-6.7-2.7H99v22.7h2.4c3.3,0,5.8-1,7.3-2.9
		C110.3,105.7,111.1,102.7,111.1,98.7z"/>
	<path d="M166.2,119.4h-12.7l-7.9-12.7l-7.8,12.7h-12.4l13.4-20.7L126.2,79h12.1l7.3,12.5l7-12.5h12.5l-12.8,20.6L166.2,119.4z"/>
</g>
</svg>
