<?xml version="1.0" encoding="utf-8"?>
<!-- Generated by IcoMoon.io -->
<!DOCTYPE svg PUBLIC "-//W3C//DTD SVG 1.1//EN" "http://www.w3.org/Graphics/SVG/1.1/DTD/svg11.dtd">
<svg version="1.1" xmlns="http://www.w3.org/2000/svg" xmlns:xlink="http://www.w3.org/1999/xlink" width="32" height="32" viewBox="0 0 32 32">
<path d="M25.968 1.776h-24.192v7.264h12.448v1.616h-5.328v7.12h5.328v3.552h-10.672v3.552h-1.776v5.344h5.344v-5.344h-1.792v-1.776h8.88v1.776h-1.76v5.344h5.344v-5.344h-1.792v-1.776h8.88v1.776h-1.776v5.344h5.344v-5.344h-1.776v-3.552h-10.672v-3.552h5.328v-7.104h-5.328v-1.632h14.224v-7.264h-4.256zM5.328 28.448h-1.776v-1.776h1.776v1.776zM16 28.448h-1.776v-1.776h1.776v1.776zM26.656 28.448h-1.776v-1.776h1.776v1.776zM19.552 12.448v3.552h-8.88v-3.552h8.88zM28.448 7.12l-12.72 0.016v-0.016h-1.504v0.016l-10.672-0.016v-3.568h24.88v3.568z" fill="#000000"></path>
</svg>
