<?xml version="1.0" encoding="utf-8"?>
<!-- Generator: Adobe Illustrator 18.1.1, SVG Export Plug-In . SVG Version: 6.00 Build 0)  -->
<!DOCTYPE svg PUBLIC "-//W3C//DTD SVG 1.1//EN" "http://www.w3.org/Graphics/SVG/1.1/DTD/svg11.dtd">
<svg version="1.1" id="Layer_1" xmlns="http://www.w3.org/2000/svg" xmlns:xlink="http://www.w3.org/1999/xlink" x="0px" y="0px"
	 viewBox="0 0 200 200" enable-background="new 0 0 200 200" xml:space="preserve">
<path d="M177.8,177.8v-44.4v-11.1h-11.1h-11.1h-11.1v11.1v44.4h-22.2V22.2h0V11.1h0h-11.1H100H88.9v11.1v155.5H66.7v-100V66.7H55.5
	H44.4H33.3v11.1v100H11.1v11.1h22.2h11.1h11.1h11.1h22.2H100h11.1h11.1h22.2h11.1h11.1h11.1h11.1v-11.1H177.8z M44.4,177.8v-100
	h11.1v100H44.4z M100,177.8V22.2h11.1v155.5H100z M155.5,177.8v-44.4h11.1v44.4H155.5z"/>
</svg>
