<?xml version="1.0" encoding="utf-8"?>
<!-- Generated by IcoMoon.io -->
<!DOCTYPE svg PUBLIC "-//W3C//DTD SVG 1.1//EN" "http://www.w3.org/Graphics/SVG/1.1/DTD/svg11.dtd">
<svg version="1.1" xmlns="http://www.w3.org/2000/svg" xmlns:xlink="http://www.w3.org/1999/xlink" width="32" height="32" viewBox="0 0 32 32">
<path d="M1.776 23.104h5.328v5.328h-5.328v-5.328z" fill="#000000"></path>
<path d="M10.672 23.104h5.328v5.408h-5.328v-5.408z" fill="#000000"></path>
<path d="M19.552 23.040h5.328v5.408h-5.328v-5.408z" fill="#000000"></path>
<path d="M19.552 14.224h5.328v5.328h-5.328v-5.328z" fill="#000000"></path>
<path d="M1.776 14.224h5.328v5.328h-5.328v-5.328z" fill="#000000"></path>
<path d="M1.776 5.344h5.328v5.328h-5.328v-5.328z" fill="#000000"></path>
<path d="M10.672 5.344h5.328v5.328h-5.328v-5.328z" fill="#000000"></path>
<path d="M23.856 1.776c2.256 0 4.096 1.824 4.096 4.096 0 2.256-1.824 4.096-4.096 4.096-2.256 0-4.096-1.824-4.096-4.096 0-2.256 1.84-4.096 4.096-4.096z" fill="#000000"></path>
<path d="M20.592 8.208l1.152 1.152-11.104 11.104-1.152-1.152 11.104-11.104z" fill="#000000"></path>
</svg>
