<?xml version="1.0" encoding="utf-8"?>
<!-- Generator: Adobe Illustrator 18.1.1, SVG Export Plug-In . SVG Version: 6.00 Build 0)  -->
<!DOCTYPE svg PUBLIC "-//W3C//DTD SVG 1.1//EN" "http://www.w3.org/Graphics/SVG/1.1/DTD/svg11.dtd">
<svg version="1.1" id="Layer_1" xmlns="http://www.w3.org/2000/svg" xmlns:xlink="http://www.w3.org/1999/xlink" x="0px" y="0px"
	 viewBox="0 0 200 200" enable-background="new 0 0 200 200" xml:space="preserve">
<path d="M188.8,45.6c0.1-0.9,0-1.8-0.4-2.7c-1.3-6.4-5.8-9.6-13.4-9.6H30.6c-6.6,0-13.8,2.4-17.3,7.3c-0.3,0.2-0.5,0.5-0.8,0.7
	c-1.1,1.3-1.5,2.9-1.3,4.5c-0.1,0.5-0.1,0.9-0.1,1.4v88.9c0,9.2,10.2,19.4,19.4,19.4H175c9.2,0,13.8-10.2,13.8-19.4V47.2
	C188.9,46.7,188.9,46.1,188.8,45.6z M30.6,44.5h141.7h2.8c0,0,0.1,0,0.1,0L100,104.3L25.2,44.7C26.9,44.4,29,44.5,30.6,44.5z
	 M175,144.4H30.6c-3.1,0-8.3-5.2-8.3-8.3V56.5l74.2,59.3c1,0.9,2.3,1.4,3.6,1.4c1.3,0,2.6-0.4,3.6-1.4l74.1-59.3v79.6
	C177.8,139.2,178.1,144.4,175,144.4z"/>
</svg>
