<?xml version="1.0" encoding="utf-8"?>
<!-- Generated by IcoMoon.io -->
<!DOCTYPE svg PUBLIC "-//W3C//DTD SVG 1.1//EN" "http://www.w3.org/Graphics/SVG/1.1/DTD/svg11.dtd">
<svg version="1.1" xmlns="http://www.w3.org/2000/svg" xmlns:xlink="http://www.w3.org/1999/xlink" width="32" height="32" viewBox="0 0 32 32">
<path d="M1.776 16h3.552v14.224h-3.552v-14.224z" fill="#000000"></path>
<path d="M1.776 1.776h3.552v8.88h-3.552v-8.88z" fill="#000000"></path>
<path d="M8.88 7.12h3.552v3.552h-3.552v-3.552z" fill="#000000"></path>
<path d="M23.104 5.328h3.552v5.328h-3.552v-5.328z" fill="#000000"></path>
<path d="M8.88 16h3.552v14.224h-3.552v-14.224z" fill="#000000"></path>
<path d="M16 16h3.552v14.224h-3.552v-14.224z" fill="#000000"></path>
<path d="M23.104 16h3.552v14.224h-3.552v-14.224z" fill="#000000"></path>
<path d="M1.776 12.448h1.776v1.776h-1.776v-1.776z" fill="#000000"></path>
<path d="M5.328 12.448h1.776v1.776h-1.776v-1.776z" fill="#000000"></path>
<path d="M8.88 12.448h1.776v1.776h-1.776v-1.776z" fill="#000000"></path>
<path d="M12.448 12.448h1.776v1.776h-1.776v-1.776z" fill="#000000"></path>
<path d="M16 12.448h1.776v1.776h-1.776v-1.776z" fill="#000000"></path>
<path d="M19.552 12.448h1.776v1.776h-1.776v-1.776z" fill="#000000"></path>
<path d="M23.104 12.448h1.776v1.776h-1.776v-1.776z" fill="#000000"></path>
<path d="M26.672 12.448h1.776v1.776h-1.776v-1.776z" fill="#000000"></path>
</svg>
