<?xml version="1.0" encoding="utf-8"?>
<!-- Generator: Adobe Illustrator 18.1.1, SVG Export Plug-In . SVG Version: 6.00 Build 0)  -->
<!DOCTYPE svg PUBLIC "-//W3C//DTD SVG 1.1//EN" "http://www.w3.org/Graphics/SVG/1.1/DTD/svg11.dtd">
<svg version="1.1" id="Layer_1" xmlns="http://www.w3.org/2000/svg" xmlns:xlink="http://www.w3.org/1999/xlink" x="0px" y="0px"
	 viewBox="0 0 200 200" enable-background="new 0 0 200 200" xml:space="preserve">
<path fill="#669BC9" d="M130.5,11.1c-19.6,0-35.6,16-35.6,35.6v99.9c-4.9-7.3-13.2-12.2-22.7-12.2c-13.3,0-24.4,9.5-26.8,22.1
	c-0.9-2.7-1.5-5.5-1.5-8.5v-30.5H33.9v30.5c0,12.7,6.7,23.9,16.8,30.2c5,6.4,12.8,10.6,21.5,10.6c12.7,0,23.3-8.6,26.4-20.4
	c4.1-5.8,6.5-12.8,6.5-20.4V46.7c0-14,11.4-25.4,25.5-25.4c14,0,25.5,11.4,25.5,25.4h10.1C166.1,27.1,150.1,11.1,130.5,11.1z"/>
</svg>
