<?xml version="1.0" encoding="iso-8859-1"?>
<!-- Generator: Adobe Illustrator 18.1.1, SVG Export Plug-In . SVG Version: 6.00 Build 0)  -->
<!DOCTYPE svg PUBLIC "-//W3C//DTD SVG 1.1//EN" "http://www.w3.org/Graphics/SVG/1.1/DTD/svg11.dtd">
<svg version="1.1" id="Your_Icon" xmlns="http://www.w3.org/2000/svg" xmlns:xlink="http://www.w3.org/1999/xlink" x="0px" y="0px"
	 viewBox="-439 310 60.867 60.867" style="enable-background:new -439 310 60.867 60.867;" xml:space="preserve">
<g>
	<g>
		<g>
			<g>
				<path d="M-411.56,312.537c-0.283,0-0.566-0.114-0.768-0.316c-0.202-0.207-0.321-0.485-0.321-0.773
					c0-0.288,0.12-0.566,0.321-0.768c0.403-0.409,1.132-0.409,1.54,0c0.202,0.202,0.316,0.485,0.316,0.768
					c0,0.283-0.114,0.566-0.316,0.773C-410.994,312.423-411.272,312.537-411.56,312.537z"/>
			</g>
			<g>
				<path d="M-411.56,318.933c-0.283,0-0.566-0.114-0.768-0.321c-0.202-0.202-0.321-0.479-0.321-0.768s0.12-0.566,0.321-0.768
					c0.403-0.409,1.132-0.409,1.54,0c0.202,0.202,0.316,0.485,0.316,0.768c0,0.288-0.114,0.566-0.316,0.768
					C-410.994,318.818-411.272,318.933-411.56,318.933z"/>
			</g>
			<g>
				<path d="M-411.56,325.329c-0.283,0-0.566-0.114-0.768-0.321c-0.202-0.202-0.321-0.479-0.321-0.768
					c0-0.283,0.12-0.566,0.321-0.768c0.409-0.409,1.132-0.409,1.535-0.005c0.207,0.207,0.321,0.49,0.321,0.773
					c0,0.288-0.114,0.566-0.316,0.768C-410.994,325.215-411.272,325.329-411.56,325.329z"/>
			</g>
			<g>
				<path d="M-411.56,331.725c-0.283,0-0.566-0.114-0.768-0.321c-0.202-0.202-0.321-0.485-0.321-0.768
					c0-0.283,0.12-0.566,0.321-0.768c0.409-0.409,1.132-0.409,1.535-0.005c0.207,0.207,0.321,0.49,0.321,0.773
					c0,0.283-0.114,0.566-0.316,0.768C-410.994,331.61-411.272,331.725-411.56,331.725z"/>
			</g>
			<g>
				<path d="M-411.56,338.12c-0.283,0-0.566-0.114-0.768-0.316c-0.202-0.207-0.321-0.485-0.321-0.773
					c0-0.283,0.12-0.566,0.321-0.768c0.409-0.409,1.132-0.409,1.535,0c0.207,0.202,0.321,0.485,0.321,0.768
					c0,0.283-0.114,0.566-0.316,0.768C-410.994,338.006-411.272,338.12-411.56,338.12z"/>
			</g>
		</g>
		<g>
			<g>
				<path d="M-405.572,312.467c-0.283,0-0.566-0.114-0.768-0.316c-0.202-0.207-0.321-0.485-0.321-0.773s0.12-0.566,0.321-0.768
					c0.397-0.403,1.132-0.409,1.54,0c0.202,0.202,0.316,0.485,0.316,0.768s-0.114,0.566-0.316,0.773
					C-405.006,312.352-405.284,312.467-405.572,312.467z"/>
			</g>
			<g>
				<path d="M-405.572,318.862c-0.283,0-0.566-0.114-0.768-0.316c-0.202-0.207-0.321-0.485-0.321-0.773
					c0-0.288,0.12-0.566,0.321-0.768c0.397-0.403,1.132-0.409,1.54,0c0.202,0.202,0.316,0.485,0.316,0.768
					c0,0.283-0.114,0.566-0.316,0.773C-405.006,318.748-405.284,318.862-405.572,318.862z"/>
			</g>
			<g>
				<path d="M-405.572,325.258c-0.283,0-0.566-0.114-0.768-0.316c-0.202-0.207-0.321-0.485-0.321-0.773s0.12-0.566,0.321-0.768
					c0.403-0.403,1.132-0.409,1.54,0c0.202,0.202,0.316,0.485,0.316,0.768c0,0.283-0.114,0.566-0.316,0.773
					C-405.006,325.144-405.284,325.258-405.572,325.258z"/>
			</g>
			<g>
				<path d="M-405.572,331.654c-0.283,0-0.566-0.114-0.768-0.316c-0.202-0.207-0.321-0.485-0.321-0.773
					c0-0.288,0.12-0.566,0.321-0.768c0.403-0.403,1.132-0.409,1.54,0c0.202,0.202,0.316,0.485,0.316,0.768
					c0,0.288-0.114,0.566-0.316,0.773C-405.006,331.539-405.284,331.654-405.572,331.654z"/>
			</g>
			<g>
				<path d="M-405.572,338.049c-0.283,0-0.566-0.114-0.768-0.316c-0.202-0.207-0.321-0.485-0.321-0.773s0.12-0.566,0.321-0.768
					c0.397-0.403,1.127-0.409,1.54,0c0.202,0.202,0.316,0.485,0.316,0.768c0,0.288-0.114,0.566-0.316,0.773
					C-405.006,337.935-405.284,338.049-405.572,338.049z"/>
			</g>
		</g>
	</g>
	<g>
		<g>
			<g>
				<path d="M-411.56,344.978c-0.283,0-0.566-0.114-0.768-0.316c-0.202-0.207-0.321-0.485-0.321-0.773
					c0-0.288,0.12-0.566,0.321-0.768c0.403-0.409,1.132-0.409,1.54,0c0.202,0.202,0.316,0.485,0.316,0.768
					c0,0.283-0.114,0.566-0.316,0.773C-410.994,344.864-411.272,344.978-411.56,344.978z"/>
			</g>
			<g>
				<path d="M-411.56,351.374c-0.283,0-0.566-0.114-0.768-0.321c-0.202-0.202-0.321-0.479-0.321-0.768s0.12-0.566,0.321-0.768
					c0.403-0.409,1.132-0.409,1.54,0c0.202,0.202,0.316,0.485,0.316,0.768c0,0.288-0.114,0.566-0.316,0.768
					C-410.994,351.26-411.272,351.374-411.56,351.374z"/>
			</g>
			<g>
				<path d="M-411.56,357.77c-0.283,0-0.566-0.114-0.768-0.321c-0.202-0.202-0.321-0.479-0.321-0.768
					c0-0.283,0.12-0.566,0.321-0.768c0.409-0.409,1.132-0.409,1.535-0.005c0.207,0.207,0.321,0.49,0.321,0.773
					c0,0.288-0.114,0.566-0.316,0.768C-410.994,357.656-411.272,357.77-411.56,357.77z"/>
			</g>
			<g>
				<path d="M-411.56,364.166c-0.283,0-0.566-0.114-0.768-0.321c-0.202-0.202-0.321-0.485-0.321-0.768
					c0-0.283,0.12-0.566,0.321-0.768c0.409-0.409,1.132-0.409,1.535-0.005c0.207,0.207,0.321,0.49,0.321,0.773
					c0,0.283-0.114,0.566-0.316,0.768C-410.994,364.052-411.272,364.166-411.56,364.166z"/>
			</g>
			<g>
				<path d="M-411.56,370.562c-0.283,0-0.566-0.114-0.768-0.316c-0.202-0.207-0.321-0.485-0.321-0.773
					c0-0.283,0.12-0.566,0.321-0.768c0.409-0.409,1.132-0.409,1.535,0c0.207,0.202,0.321,0.485,0.321,0.768
					s-0.114,0.566-0.316,0.768C-410.994,370.447-411.272,370.562-411.56,370.562z"/>
			</g>
		</g>
		<g>
			<g>
				<path d="M-405.572,344.908c-0.283,0-0.566-0.114-0.768-0.316c-0.202-0.207-0.321-0.485-0.321-0.773s0.12-0.566,0.321-0.768
					c0.397-0.403,1.132-0.409,1.54,0c0.202,0.202,0.316,0.485,0.316,0.768s-0.114,0.566-0.316,0.773
					C-405.006,344.794-405.284,344.908-405.572,344.908z"/>
			</g>
			<g>
				<path d="M-405.572,351.304c-0.283,0-0.566-0.114-0.768-0.316c-0.202-0.207-0.321-0.485-0.321-0.773
					c0-0.288,0.12-0.566,0.321-0.768c0.397-0.403,1.132-0.409,1.54,0c0.202,0.202,0.316,0.485,0.316,0.768
					c0,0.283-0.114,0.566-0.316,0.773C-405.006,351.189-405.284,351.304-405.572,351.304z"/>
			</g>
			<g>
				<path d="M-405.572,357.699c-0.283,0-0.566-0.114-0.768-0.316c-0.202-0.207-0.321-0.485-0.321-0.773s0.12-0.566,0.321-0.768
					c0.403-0.403,1.132-0.409,1.54,0c0.202,0.202,0.316,0.485,0.316,0.768s-0.114,0.566-0.316,0.773
					C-405.006,357.585-405.284,357.699-405.572,357.699z"/>
			</g>
			<g>
				<path d="M-405.572,364.095c-0.283,0-0.566-0.114-0.768-0.316c-0.202-0.207-0.321-0.485-0.321-0.773
					c0-0.288,0.12-0.566,0.321-0.768c0.403-0.403,1.132-0.409,1.54,0c0.202,0.202,0.316,0.485,0.316,0.768
					c0,0.288-0.114,0.566-0.316,0.773C-405.006,363.981-405.284,364.095-405.572,364.095z"/>
			</g>
			<g>
				<path d="M-405.572,370.491c-0.283,0-0.566-0.114-0.768-0.316c-0.202-0.207-0.321-0.485-0.321-0.773s0.12-0.566,0.321-0.768
					c0.397-0.403,1.127-0.409,1.54,0c0.202,0.202,0.316,0.485,0.316,0.768c0,0.288-0.114,0.566-0.316,0.773
					C-405.006,370.376-405.284,370.491-405.572,370.491z"/>
			</g>
		</g>
	</g>
</g>
</svg>
