<?xml version="1.0" encoding="utf-8"?>
<!-- Generator: Adobe Illustrator 18.1.1, SVG Export Plug-In . SVG Version: 6.00 Build 0)  -->
<!DOCTYPE svg PUBLIC "-//W3C//DTD SVG 1.1//EN" "http://www.w3.org/Graphics/SVG/1.1/DTD/svg11.dtd">
<svg version="1.1" id="Layer_1" xmlns="http://www.w3.org/2000/svg" xmlns:xlink="http://www.w3.org/1999/xlink" x="0px" y="0px"
	 viewBox="0 0 200 200" enable-background="new 0 0 200 200" xml:space="preserve">
<g>
	<rect x="66.7" y="33.3" fill-rule="evenodd" clip-rule="evenodd" width="11.1" height="11.1"/>
	<rect x="111.1" y="33.3" fill-rule="evenodd" clip-rule="evenodd" width="11.1" height="11.1"/>
	<polygon fill-rule="evenodd" clip-rule="evenodd" points="88.9,34.8 88.9,46.7 88.9,58.6 88.9,70.4 88.9,77.8 100,77.8 100,70.4 
		100,58.6 100,46.7 100,34.8 100,33.3 111.1,33.3 111.1,22.2 100,22.2 100,11.1 88.9,11.1 88.9,22.2 77.8,22.2 77.8,33.3 88.9,33.3 
			"/>
	<rect x="111.1" y="144.5" fill-rule="evenodd" clip-rule="evenodd" width="11.1" height="11.1"/>
	<rect x="66.7" y="144.5" fill-rule="evenodd" clip-rule="evenodd" width="11.1" height="11.1"/>
	<polygon fill-rule="evenodd" clip-rule="evenodd" points="100,154.1 100,142.2 100,130.3 100,118.5 100,111.1 88.9,111.1 
		88.9,118.5 88.9,130.3 88.9,142.2 88.9,154.1 88.9,155.6 77.8,155.6 77.8,166.7 88.9,166.7 88.9,177.8 100,177.8 100,166.7 
		111.1,166.7 111.1,155.6 100,155.6 	"/>
	<rect x="33.3" y="111.1" fill-rule="evenodd" clip-rule="evenodd" width="11.1" height="11.1"/>
	<rect x="33.3" y="66.7" fill-rule="evenodd" clip-rule="evenodd" width="11.1" height="11.1"/>
	<polygon fill-rule="evenodd" clip-rule="evenodd" points="77.8,100 77.8,88.9 70.4,88.9 58.5,88.9 46.7,88.9 34.8,88.9 33.3,88.9 
		33.3,77.8 22.2,77.8 22.2,88.9 11.1,88.9 11.1,100 22.2,100 22.2,111.1 33.3,111.1 33.3,100 34.8,100 46.7,100 58.5,100 70.4,100 	
		"/>
	<rect x="144.4" y="66.7" fill-rule="evenodd" clip-rule="evenodd" width="11.1" height="11.1"/>
	<rect x="144.4" y="111.1" fill-rule="evenodd" clip-rule="evenodd" width="11.1" height="11.1"/>
	<polygon fill-rule="evenodd" clip-rule="evenodd" points="166.7,88.9 166.7,77.8 155.5,77.8 155.5,88.9 154,88.9 142.2,88.9 
		130.3,88.9 118.5,88.9 111.1,88.9 111.1,100 118.5,100 130.3,100 142.2,100 154,100 155.5,100 155.5,111.1 166.7,111.1 166.7,100 
		177.8,100 177.8,88.9 	"/>
</g>
</svg>
