<?xml version="1.0" encoding="utf-8"?>
<!-- Generated by IcoMoon.io -->
<!DOCTYPE svg PUBLIC "-//W3C//DTD SVG 1.1//EN" "http://www.w3.org/Graphics/SVG/1.1/DTD/svg11.dtd">
<svg version="1.1" xmlns="http://www.w3.org/2000/svg" xmlns:xlink="http://www.w3.org/1999/xlink" width="32" height="32" viewBox="0 0 32 32">
<path d="M17.024 15.6l11.904-11.904c0.496-0.496 0.592-1.232 0.208-1.632s-1.12-0.304-1.632 0.208l-11.904 11.904-11.952-11.952c-0.496-0.496-1.232-0.592-1.632-0.192s-0.304 1.12 0.192 1.632l11.952 11.952-11.808 11.808c-0.512 0.512-0.592 1.232-0.208 1.632 0.4 0.4 1.12 0.304 1.632-0.208l11.808-11.808 11.872 11.872c0.496 0.496 1.232 0.592 1.632 0.192s0.304-1.12-0.192-1.632l-11.872-11.872z" fill="#000000"></path>
</svg>
