<?xml version="1.0" encoding="utf-8"?>
<!-- Generator: Adobe Illustrator 18.1.1, SVG Export Plug-In . SVG Version: 6.00 Build 0)  -->
<!DOCTYPE svg PUBLIC "-//W3C//DTD SVG 1.1//EN" "http://www.w3.org/Graphics/SVG/1.1/DTD/svg11.dtd">
<svg version="1.1" id="Layer_1" xmlns="http://www.w3.org/2000/svg" xmlns:xlink="http://www.w3.org/1999/xlink" x="0px" y="0px"
	 viewBox="0 0 200 200" enable-background="new 0 0 200 200" xml:space="preserve">
<g>
	<rect x="133.3" y="33.3" fill-rule="evenodd" clip-rule="evenodd" width="11.1" height="11.1"/>
	<path fill-rule="evenodd" clip-rule="evenodd" d="M144.4,44.5v11.1h-11.1h-11.1h-11.1V44.5V33.3V22.2h11.1V11.1h-11.1H100H88.9
		H77.8H66.7H55.6H44.4H33.3v11.1v11.1v11.1v11.1v11.1v11.1v11.1V100v11.1v11.1v11.1v11.1v11.1v11.1v11.1v11.1h11.1h11.1h11.1h11.1
		h11.1H100h11.1h11.1h11.1h11.1h11.1v-11.1v-11.1v-11.1v-11.1v-11.1v-11.1v-11.1V100V88.9V77.8V66.7V55.6V44.5H144.4z M144.4,77.8
		v11.1V100v11.1v11.1v11.1v11.1v11.1v11.1v11.1h-11.1h-11.1h-11.1H100H88.9H77.8H66.7H55.6H44.4v-11.1v-11.1v-11.1v-11.1v-11.1
		v-11.1V100V88.9V77.8V66.7V55.6V44.5V33.3V22.2h11.1h11.1h11.1h11.1H100v11.1v11.1v11.1v11.1h11.1h11.1h11.1h11.1V77.8z"/>
	<rect x="122.2" y="22.2" fill-rule="evenodd" clip-rule="evenodd" width="11.1" height="11.1"/>
	<polygon fill-rule="evenodd" clip-rule="evenodd" points="100,133.3 100,122.2 100,111.1 100,100 88.9,100 77.8,100 77.8,111.1 
		88.9,111.1 88.9,122.2 88.9,133.3 88.9,144.5 77.8,144.5 77.8,155.6 88.9,155.6 100,155.6 111.1,155.6 111.1,144.5 100,144.5 	"/>
	<rect x="88.9" y="77.8" fill-rule="evenodd" clip-rule="evenodd" width="11.1" height="11.1"/>
</g>
</svg>
