<?xml version="1.0" encoding="utf-8"?>
<!-- Generated by IcoMoon.io -->
<!DOCTYPE svg PUBLIC "-//W3C//DTD SVG 1.1//EN" "http://www.w3.org/Graphics/SVG/1.1/DTD/svg11.dtd">
<svg version="1.1" xmlns="http://www.w3.org/2000/svg" xmlns:xlink="http://www.w3.org/1999/xlink" width="32" height="32" viewBox="0 0 32 32">
<path d="M16 1.776c-7.856 0-14.224 6.368-14.224 14.224s6.368 14.224 14.224 14.224 14.224-6.368 14.224-14.224c0-7.856-6.368-14.224-14.224-14.224zM3.552 16c0-6.88 5.568-12.448 12.448-12.448 3.12 0 5.968 1.152 8.144 3.040l-17.552 17.552c-1.888-2.176-3.040-5.024-3.040-8.144zM16 28.448c-3.12 0-5.968-1.152-8.144-3.040l17.552-17.552c1.888 2.176 3.040 5.024 3.040 8.144 0 6.88-5.584 12.448-12.448 12.448z" fill="#000000"></path>
</svg>
