<?xml version="1.0" encoding="utf-8"?>
<!-- Generator: Adobe Illustrator 17.0.0, SVG Export Plug-In . SVG Version: 6.00 Build 0)  -->
<!DOCTYPE svg PUBLIC "-//W3C//DTD SVG 1.1//EN" "http://www.w3.org/Graphics/SVG/1.1/DTD/svg11.dtd">
<svg version="1.1" id="Layer_1" xmlns="http://www.w3.org/2000/svg" xmlns:xlink="http://www.w3.org/1999/xlink" x="0px" y="0px"
	 width="200px" height="200px" viewBox="0 0 200 200" enable-background="new 0 0 200 200" xml:space="preserve">
<g>
	<polygon points="144.4,19.5 166.6,41.3 144.4,41.3 144.4,52.9 166.6,52.9 144.4,75.1 151.9,83.1 188.9,47.1 188.9,47.1 151.9,11.4 
			"/>
</g>
<g>
	<rect x="122.2" y="41.3" width="11.1" height="11.6"/>
</g>
<g>
	<rect x="100" y="41.3" width="11.1" height="11.6"/>
</g>
<g>
	<polygon points="55.5,74.7 33.3,52.9 88.9,52.9 88.9,41.3 33.3,41.3 55.5,19.1 48.1,11.1 11.1,47.1 11.1,47.1 48.1,82.8 	"/>
</g>
<rect x="11.1" y="100" width="177.8" height="11.1"/>
<rect x="11.1" y="177.8" width="177.8" height="11.1"/>
<rect x="11.1" y="111.1" width="11.1" height="77.8"/>
<rect x="22.2" y="111.1" width="55.5" height="66.7"/>
<rect x="166.7" y="111.1" width="11.1" height="55.5"/>
<rect x="33.3" y="111.1" fill="#FFFFFF" width="11.1" height="55.5"/>
<rect x="55.5" y="111.1" fill="#FFFFFF" width="11.1" height="33.3"/>
<rect x="77.8" y="111.1" width="11.1" height="55.5"/>
<rect x="100" y="111.1" width="11.1" height="33.3"/>
<rect x="122.2" y="111.1" width="11.1" height="55.5"/>
<rect x="144.4" y="111.1" width="11.1" height="33.3"/>
</svg>
