<?xml version="1.0" encoding="utf-8"?>
<!-- Generated by IcoMoon.io -->
<!DOCTYPE svg PUBLIC "-//W3C//DTD SVG 1.1//EN" "http://www.w3.org/Graphics/SVG/1.1/DTD/svg11.dtd">
<svg version="1.1" xmlns="http://www.w3.org/2000/svg" xmlns:xlink="http://www.w3.org/1999/xlink" width="32" height="32" viewBox="0 0 32 32">
<path d="M13.92 16.944c4.464 0 8.096-3.392 8.096-7.584s-3.616-7.584-8.096-7.584-8.096 3.408-8.096 7.584c0 4.192 3.616 7.584 8.096 7.584zM13.92 3.68c3.344 0 6.064 2.544 6.064 5.68s-2.72 5.696-6.064 5.696-6.080-2.544-6.080-5.696c0-3.136 2.72-5.68 6.080-5.68z" fill="#000000"></path>
<path d="M14.928 16.944c-7.264 0-13.152 5.936-13.152 13.28 0.704 0 1.376 0 2.016 0 0-6.208 4.976-11.232 11.12-11.232v-2.048z" fill="#000000"></path>
<path d="M22.4 15.376c-4.32 0-7.824 3.504-7.824 7.824s3.504 7.824 7.824 7.824c4.32 0 7.824-3.504 7.824-7.824s-3.52-7.824-7.824-7.824zM16.176 23.2c0-3.424 2.784-6.224 6.224-6.224 1.424 0 2.72 0.48 3.776 1.28l-8.72 8.72c-0.8-1.056-1.28-2.352-1.28-3.776zM22.4 29.424c-1.504 0-2.896-0.544-3.968-1.44l8.752-8.752c0.896 1.072 1.44 2.464 1.44 3.968 0 3.44-2.8 6.224-6.224 6.224z" fill="#000000"></path>
</svg>
