<?xml version="1.0" encoding="utf-8"?>
<!-- Generated by IcoMoon.io -->
<!DOCTYPE svg PUBLIC "-//W3C//DTD SVG 1.1//EN" "http://www.w3.org/Graphics/SVG/1.1/DTD/svg11.dtd">
<svg version="1.1" xmlns="http://www.w3.org/2000/svg" xmlns:xlink="http://www.w3.org/1999/xlink" width="32" height="32" viewBox="0 0 32 32">
<path d="M30.24 13.152l-14.24-11.376-1.792 1.136v1.792l1.792-1.136 12.24 9.792-8.656 4.16v-6.848h-0.032l-7.104-7.12h-5.328v11.76l-3.328-1.904 0.832-0.624v-1.808l-2.864 2.176 0.016 0.016h-0.016v15.648l-0.016 1.424h28.48l0.016-1.424v-15.664zM19.584 19.056l8.848-4.432v10.784l-8.848-4.432-2.016-0.976 0.56-0.272 1.456-0.672zM12.448 5.344l5.328 5.328h-5.328v-5.328zM8.88 16v-10.656h1.776v7.104h7.104v5.776l-1.792 1.040-7.088-3.264zM28.448 26.944v1.504h-24.896v-13.088l24.896 11.584z" fill="#000000"></path>
</svg>
