<?xml version="1.0" encoding="utf-8"?>
<!-- Generator: Adobe Illustrator 18.1.1, SVG Export Plug-In . SVG Version: 6.00 Build 0)  -->
<!DOCTYPE svg PUBLIC "-//W3C//DTD SVG 1.1//EN" "http://www.w3.org/Graphics/SVG/1.1/DTD/svg11.dtd">
<svg version="1.1" id="Layer_1" xmlns="http://www.w3.org/2000/svg" xmlns:xlink="http://www.w3.org/1999/xlink" x="0px" y="0px"
	 viewBox="0 0 200 200" enable-background="new 0 0 200 200" xml:space="preserve">
<path d="M154.5,163.6V91.4c0.5-2.9,0.7-5.8,0.7-8.9c0-22.4-13.4-41.7-32.6-50.4c0.3-1.6,0.5-3.2,0.5-4.9c0-12.8-10.4-23.2-23.2-23.2
	c-12.8,0-23.2,10.4-23.2,23.2c0,1.6,0.2,3.3,0.5,4.9c-19.2,8.7-32.6,28-32.6,50.4c0,3,0.2,5.9,0.7,8.7v72.4H27.3v9.1H77
	c1.6,11.3,11.3,20,23,20c11.7,0,21.4-8.7,23-20h49.8v-9.1H154.5z M86.8,27.3c0-7.3,5.9-13.2,13.2-13.2s13.2,5.9,13.2,13.2
	c0,0.5,0,1-0.1,1.6c-4.2-1-8.6-1.6-13.1-1.6s-8.9,0.6-13.1,1.6C86.9,28.3,86.8,27.8,86.8,27.3z M100,182.7c-6.2,0-11.3-4.2-12.8-10
	h25.5C111.3,178.4,106.1,182.7,100,182.7z M145.5,84.5L145.5,84.5l-0.1,1.1v28.3v49.7H54.5v-49.8V85.3v-0.8h0c0-0.7-0.1-1.3-0.1-2
	C54.4,57.4,74.9,37,100,37s45.6,20.4,45.6,45.6C145.6,83.2,145.5,83.9,145.5,84.5z"/>
</svg>
