<?xml version="1.0" encoding="utf-8"?>
<!-- Generator: Adobe Illustrator 18.1.1, SVG Export Plug-In . SVG Version: 6.00 Build 0)  -->
<!DOCTYPE svg PUBLIC "-//W3C//DTD SVG 1.1//EN" "http://www.w3.org/Graphics/SVG/1.1/DTD/svg11.dtd">
<svg version="1.1" id="Layer_1" xmlns="http://www.w3.org/2000/svg" xmlns:xlink="http://www.w3.org/1999/xlink" x="0px" y="0px"
	 viewBox="0 0 200 200" enable-background="new 0 0 200 200" xml:space="preserve">
<path fill="#231F20" d="M177.8,131.8L177.8,131.8l-0.1-18.8v-9.4L131,55.5v-0.1h-9.4l-1.8,0L98.3,33.3v-0.1h-9.4l-77.8,0.1v75.3v9.4
	v26.4h33.3v-4.1l0.1,4.1v22.3h133.3l-0.1-25.4h0.1V131.8z M44.4,130.8v2.4H22.2v-11.1h22.2V130.8z M44.4,55.5V111l-22.2,0V44.4h66.7
	h5.4L105,55.4L44.4,55.5z M166.7,155.5H55.5v-11.1h111.1V155.5z M166.7,113v20.2H145h-11.1H55.5v-11.1v-11.8V66.7h60.2h5.9h5.4
	L145,85.3l21.7,22.5V113z"/>
</svg>
