<?xml version="1.0" encoding="utf-8"?>
<!-- Generator: Adobe Illustrator 18.1.1, SVG Export Plug-In . SVG Version: 6.00 Build 0)  -->
<!DOCTYPE svg PUBLIC "-//W3C//DTD SVG 1.1//EN" "http://www.w3.org/Graphics/SVG/1.1/DTD/svg11.dtd">
<svg version="1.1" id="Layer_1" xmlns="http://www.w3.org/2000/svg" xmlns:xlink="http://www.w3.org/1999/xlink" x="0px" y="0px"
	 viewBox="0 0 200 200" enable-background="new 0 0 200 200" xml:space="preserve">
<g>
	<path fill-rule="evenodd" clip-rule="evenodd" d="M49.5,97.6c-8.8,0-15.5,2.5-20.2,7.5c-4.7,5-7.1,12.3-7.1,21.8
		c0,9.5,2.3,16.8,7,21.9s11.4,7.6,20.2,7.6s15.5-2.5,20.2-7.6s7-12.3,7-21.8c0-9.5-2.3-16.7-7-21.8C64.9,100.1,58.2,97.6,49.5,97.6z
		 M49.4,146.2c-4.8,0-8.4-1.6-10.9-4.8c-2.4-3.2-3.6-8-3.6-14.4c0-6.4,1.2-11.2,3.7-14.4c2.4-3.2,6.1-4.9,10.9-4.9
		c9.6,0,14.4,6.4,14.4,19.3C63.9,139.8,59,146.2,49.4,146.2z"/>
	<path fill-rule="evenodd" clip-rule="evenodd" d="M88.4,155.6h12.1v-20.3h5.2c7.1,0,12.5-1.6,16.4-4.9c3.8-3.3,5.8-8,5.8-14.1
		c0-5.9-1.8-10.4-5.4-13.3c-3.6-3-8.9-4.5-15.8-4.5H88.4V155.6z M100.5,108.4h5.5c3.3,0,5.7,0.7,7.3,2c1.5,1.4,2.3,3.5,2.3,6.3
		c0,2.8-0.9,5-2.8,6.4c-1.8,1.5-4.6,2.2-8.4,2.2h-4V108.4z"/>
	<path fill-rule="evenodd" clip-rule="evenodd" d="M162.9,107.7c2.1,0,4.2,0.4,6.4,1.1c2.2,0.8,4.3,1.6,6.4,2.7l3.9-9.8
		c-5.6-2.7-11.2-4-16.7-4c-5.4,0-10.2,1.2-14.2,3.6c-4,2.4-7.2,5.8-9.3,10.3c-2.2,4.5-3.2,9.7-3.2,15.6c0,9.4,2.2,16.7,6.6,21.7
		c4.4,5,10.8,7.6,19.1,7.6c5.8,0,11-1,15.7-2.9v-10.2c-5.7,2-10.6,3-14.6,3c-9.6,0-14.3-6.4-14.3-19.1c0-6.1,1.2-10.9,3.8-14.3
		C154.8,109.4,158.3,107.7,162.9,107.7z"/>
	<polygon fill-rule="evenodd" clip-rule="evenodd" points="177.8,177.8 22.2,177.8 22.2,166.7 11.1,166.7 11.1,177.8 11.1,188.9 
		22.2,188.9 177.8,188.9 188.9,188.9 188.9,177.8 188.9,166.7 177.8,166.7 	"/>
	<polygon fill-rule="evenodd" clip-rule="evenodd" points="59,22.2 140.9,22.2 179.8,77.8 188.9,71.4 146.9,11.1 53.3,11.1 
		11.1,71.4 20.2,77.8 	"/>
	<circle fill-rule="evenodd" clip-rule="evenodd" cx="100" cy="44.5" r="10.5"/>
</g>
</svg>
