<?xml version="1.0" encoding="utf-8"?>
<!-- Generator: Adobe Illustrator 18.1.1, SVG Export Plug-In . SVG Version: 6.00 Build 0)  -->
<!DOCTYPE svg PUBLIC "-//W3C//DTD SVG 1.1//EN" "http://www.w3.org/Graphics/SVG/1.1/DTD/svg11.dtd">
<svg version="1.1" id="Layer_1" xmlns="http://www.w3.org/2000/svg" xmlns:xlink="http://www.w3.org/1999/xlink" x="0px" y="0px"
	 viewBox="0 0 200 200" enable-background="new 0 0 200 200" xml:space="preserve">
<g>
	<path fill-rule="evenodd" clip-rule="evenodd" fill="#231F20" d="M177.8,177.8V55.5V44.4V29.3v-7.1h-11.1h-22.2V11.1h-11.1h-11.1
		h-11.1H100H88.9H66.7H55.6h0v11.1H33.3H22.2v11.1v11.1v11.1v11.1v11.1v11.1V100v11.1v11.1v11.1v11.1v33.3v2h0v9.1h11.1h22.2h11.1
		h111.1L177.8,177.8z M66.7,29.3v-7.1h22.2H100h11.1h11.1h11.1v7.1v4h-11.1h-11.1H100H88.9H66.7V29.3z M166.6,44.4v11.1v122.2h-100
		H55.5H33.3v0v-33.3v-11.1v-11.1v-11.1V100V88.9V77.8V66.7V55.5V44.4V33.3h22.2v3v8.1h0h11.1h22.2H100h11.1h11.1h11.1h11.1v-8.1v-3
		h22.2V44.4z"/>
	<rect x="44.4" y="66.7" fill-rule="evenodd" clip-rule="evenodd" fill="#231F20" width="100" height="11.1"/>
	<rect x="44.4" y="100" fill-rule="evenodd" clip-rule="evenodd" fill="#231F20" width="88.9" height="11.1"/>
	<rect x="44.4" y="133.3" fill-rule="evenodd" clip-rule="evenodd" fill="#231F20" width="100" height="11.1"/>
</g>
</svg>
