<?xml version="1.0" encoding="utf-8"?>
<!-- Generator: Adobe Illustrator 18.1.1, SVG Export Plug-In . SVG Version: 6.00 Build 0)  -->
<!DOCTYPE svg PUBLIC "-//W3C//DTD SVG 1.1//EN" "http://www.w3.org/Graphics/SVG/1.1/DTD/svg11.dtd">
<svg version="1.1" id="Layer_2" xmlns="http://www.w3.org/2000/svg" xmlns:xlink="http://www.w3.org/1999/xlink" x="0px" y="0px"
	 viewBox="0 0 200 200" enable-background="new 0 0 200 200" xml:space="preserve">
<g>
	<path fill="#010101" d="M177.8,11.1h-55.5v11.1H170L68.3,123.9l7.8,7.8L177.8,30v47.8h11.1V22.2V11.1H177.8z M177.8,22.2
		L177.8,22.2L177.8,22.2L177.8,22.2z"/>
	<path fill="#010101" d="M144.5,171.8c0,3.6-2.9,6.5-6.5,6.5H28.3c-3.6,0-6.5-2.9-6.5-6.5V62.1c0-3.6,2.9-6.5,6.5-6.5h60.6v-11H28.3
		c-9.6,0-17.5,7.9-17.5,17.5v109.7c0,9.6,7.9,17.5,17.5,17.5H138c9.6,0,17.5-7.9,17.5-17.5v-60.7h-11V171.8z"/>
</g>
</svg>
