<?xml version="1.0" encoding="utf-8"?>
<!-- Generator: Adobe Illustrator 19.1.0, SVG Export Plug-In . SVG Version: 6.00 Build 0)  -->
<!DOCTYPE svg PUBLIC "-//W3C//DTD SVG 1.1//EN" "http://www.w3.org/Graphics/SVG/1.1/DTD/svg11.dtd">
<svg version="1.1" id="Layer_1" xmlns="http://www.w3.org/2000/svg" xmlns:xlink="http://www.w3.org/1999/xlink" x="0px" y="0px"
	 viewBox="0 0 16 16" style="enable-background:new 0 0 16 16;" xml:space="preserve">
<path d="M8,15.8c-4.3,0-7.8-3.5-7.8-7.8S3.7,0.2,8,0.2s7.8,3.5,7.8,7.8S12.3,15.8,8,15.8z M8,1.2c-3.8,0-6.8,3-6.8,6.8
	s3.1,6.8,6.8,6.8c3.8,0,6.8-3.1,6.8-6.8C14.8,4.2,11.8,1.2,8,1.2z"/>
<path d="M13.9,11.8H2.1L8,1L13.9,11.8z M3.8,10.8h8.5L8,3.1L3.8,10.8z"/>
<polygon points="10.5,6.8 8,11.1 5.5,6.8 "/>
</svg>
