<?xml version="1.0" encoding="utf-8"?>
<!-- Generator: Adobe Illustrator 18.1.1, SVG Export Plug-In . SVG Version: 6.00 Build 0)  -->
<!DOCTYPE svg PUBLIC "-//W3C//DTD SVG 1.1//EN" "http://www.w3.org/Graphics/SVG/1.1/DTD/svg11.dtd">
<svg version="1.1" id="Layer_1" xmlns="http://www.w3.org/2000/svg" xmlns:xlink="http://www.w3.org/1999/xlink" x="0px" y="0px"
	 viewBox="0 0 200 200" enable-background="new 0 0 200 200" xml:space="preserve">
<g>
	<path d="M67.4,81.8c20.8,0,37.7-15.8,37.7-35.3c0-19.5-16.9-35.3-37.7-35.3c-20.8,0-37.7,15.8-37.7,35.3
		C29.7,66,46.6,81.8,67.4,81.8z M67.4,20C83,20,95.6,31.8,95.6,46.4c0,14.6-12.7,26.5-28.3,26.5c-15.6,0-28.3-11.9-28.3-26.5
		C39.1,31.8,51.8,20,67.4,20z"/>
	<path d="M88.9,94.1v-10c-5.3-1.5-11-2.4-16.8-2.4c-33.8,0-61.2,27.7-61.2,61.8c3.3,0,6.4,0,9.4,0c0-28.9,23.2-52.3,51.8-52.3
		C78,91.3,83.6,92.3,88.9,94.1z"/>
	<path d="M177.8,111.1H66.7v11.1v55.6v11.1h11.1h111.1v-0.3v-10.8v-55.6v-11.1H177.8z M177.8,177.8h-100v-55.6h100V177.8z"/>
</g>
</svg>
