<?xml version="1.0" encoding="utf-8"?>
<!-- Generator: Adobe Illustrator 18.1.1, SVG Export Plug-In . SVG Version: 6.00 Build 0)  -->
<!DOCTYPE svg PUBLIC "-//W3C//DTD SVG 1.1//EN" "http://www.w3.org/Graphics/SVG/1.1/DTD/svg11.dtd">
<svg version="1.1" id="Layer_1" xmlns="http://www.w3.org/2000/svg" xmlns:xlink="http://www.w3.org/1999/xlink" x="0px" y="0px"
	 viewBox="0 0 200 200" enable-background="new 0 0 200 200" xml:space="preserve">
<path d="M181.7,188.9l-10.1-6.3c-0.4-0.2-35.7-22.1-70.5-22.1c-35.6,0-72.5,21.9-72.9,22.2l-10,6L32,68.6
	c5.5-33.1,33.8-57.4,68-57.4c34.1,0,62.5,24.3,67.9,57.4h0.1l0.9,5.1L181.7,188.9z M41.9,80.1l-9.7,87.4c14.1-7,41.4-18.5,68.9-18.5
	c26.7,0,52.8,11.2,66.6,18.3l-10.6-92.4c-2.7-29.8-27.3-52.2-57.2-52.2S45.5,45.1,42.8,74.8L41.9,80.1z"/>
</svg>
