<?xml version="1.0" encoding="utf-8"?>
<!-- Generated by IcoMoon.io -->
<!DOCTYPE svg PUBLIC "-//W3C//DTD SVG 1.1//EN" "http://www.w3.org/Graphics/SVG/1.1/DTD/svg11.dtd">
<svg version="1.1" xmlns="http://www.w3.org/2000/svg" xmlns:xlink="http://www.w3.org/1999/xlink" width="32" height="32" viewBox="0 0 32 32">
<path d="M15.904 30.048c-7.792 0-14.128-6.336-14.128-14.128s6.336-14.128 14.128-14.128 14.128 6.336 14.128 14.128-6.336 14.128-14.128 14.128zM15.904 3.76c-6.704 0-12.16 5.456-12.16 12.16s5.456 12.16 12.16 12.16c6.704 0 12.16-5.456 12.16-12.16 0-6.72-5.456-12.16-12.16-12.16z" fill="#000000"></path>
<path d="M16 25.696c-5.344 0-9.696-4.352-9.696-9.68 0-5.344 4.352-9.68 9.696-9.68s9.68 4.352 9.68 9.68c0 5.328-4.336 9.68-9.68 9.68zM16 7.92c-4.464 0-8.096 3.632-8.096 8.080s3.632 8.080 8.096 8.080c4.464 0 8.080-3.632 8.080-8.080s-3.616-8.080-8.080-8.080z" fill="#000000"></path>
<path d="M19.552 16c0 1.962-1.59 3.552-3.552 3.552s-3.552-1.59-3.552-3.552c0-1.962 1.59-3.552 3.552-3.552s3.552 1.59 3.552 3.552z" fill="#000000"></path>
</svg>
