<?xml version="1.0" encoding="utf-8"?>
<!-- Generated by IcoMoon.io -->
<!DOCTYPE svg PUBLIC "-//W3C//DTD SVG 1.1//EN" "http://www.w3.org/Graphics/SVG/1.1/DTD/svg11.dtd">
<svg version="1.1" xmlns="http://www.w3.org/2000/svg" xmlns:xlink="http://www.w3.org/1999/xlink" width="32" height="32" viewBox="0 0 32 32">
<path d="M15.904 30.048c-7.792 0-14.128-6.336-14.128-14.128s6.336-14.128 14.128-14.128 14.128 6.336 14.128 14.128-6.336 14.128-14.128 14.128zM15.904 3.76c-6.704 0-12.16 5.456-12.16 12.16s5.456 12.16 12.16 12.16c6.704 0 12.16-5.456 12.16-12.16 0-6.72-5.456-12.16-12.16-12.16z" fill="#000000"></path>
<path d="M12.448 10.672c0 0.981-0.795 1.776-1.776 1.776s-1.776-0.795-1.776-1.776c0-0.981 0.795-1.776 1.776-1.776s1.776 0.795 1.776 1.776z" fill="#000000"></path>
<path d="M23.104 10.672c0 0.981-0.795 1.776-1.776 1.776s-1.776-0.795-1.776-1.776c0-0.981 0.795-1.776 1.776-1.776s1.776 0.795 1.776 1.776z" fill="#000000"></path>
<path d="M17.776 16c0 0.981-0.795 1.776-1.776 1.776s-1.776-0.795-1.776-1.776c0-0.981 0.795-1.776 1.776-1.776s1.776 0.795 1.776 1.776z" fill="#000000"></path>
<path d="M12.448 21.328c0 0.981-0.795 1.776-1.776 1.776s-1.776-0.795-1.776-1.776c0-0.981 0.795-1.776 1.776-1.776s1.776 0.795 1.776 1.776z" fill="#000000"></path>
<path d="M23.104 21.328c0 0.981-0.795 1.776-1.776 1.776s-1.776-0.795-1.776-1.776c0-0.981 0.795-1.776 1.776-1.776s1.776 0.795 1.776 1.776z" fill="#000000"></path>
</svg>
