<?xml version="1.0" encoding="utf-8"?>
<!-- Generated by IcoMoon.io -->
<!DOCTYPE svg PUBLIC "-//W3C//DTD SVG 1.1//EN" "http://www.w3.org/Graphics/SVG/1.1/DTD/svg11.dtd">
<svg version="1.1" xmlns="http://www.w3.org/2000/svg" xmlns:xlink="http://www.w3.org/1999/xlink" width="32" height="32" viewBox="0 0 32 32">
<path d="M3.552 23.168l-1.776-0.928v-13.152l1.776-0.192z" fill="#000000"></path>
<path d="M14.224 16.064h1.776v12.336h-1.776v-12.336z" fill="#000000"></path>
<path d="M16.56 16.848l-1.456 1.216-13.152-7.584 0.8-1.584z" fill="#000000"></path>
<path d="M13.84 16.848l0.784 1.6 13.824-7.968-0.8-1.584z" fill="#000000"></path>
<path d="M13.84 2.704l1.264-1.216 13.344 7.584-0.8 1.6z" fill="#000000"></path>
<path d="M16.56 2.704l-1.456-1.216-13.152 7.584 0.8 1.6z" fill="#000000"></path>
<path d="M16.56 28.624l-1.36 1.264-13.248-7.632 0.8-1.584z" fill="#000000"></path>
<path d="M13.84 28.624l1.36 1.264 13.248-7.632-0.8-1.584z" fill="#000000"></path>
<path d="M28.448 22.256l-1.792 0.704v-14.064l1.792 0.176z" fill="#000000"></path>
</svg>
