<?xml version="1.0" encoding="utf-8"?>
<!-- Generator: Adobe Illustrator 18.1.1, SVG Export Plug-In . SVG Version: 6.00 Build 0)  -->
<!DOCTYPE svg PUBLIC "-//W3C//DTD SVG 1.1//EN" "http://www.w3.org/Graphics/SVG/1.1/DTD/svg11.dtd">
<svg version="1.1" id="Layer_1" xmlns="http://www.w3.org/2000/svg" xmlns:xlink="http://www.w3.org/1999/xlink" x="0px" y="0px"
	 viewBox="0 0 200 200" enable-background="new 0 0 200 200" xml:space="preserve">
<g>
	<path d="M100,11.1c-49.1,0-88.8,39.8-88.8,88.8c0,49.1,39.8,88.8,88.8,88.8c49.1,0,88.8-39.8,88.8-88.8
		C188.8,50.9,149,11.1,100,11.1z M99.3,166.6c-36.4,0-65.9-29.8-65.9-66.6c0-36.8,29.5-66.6,65.9-66.6c36.4,0,65.9,29.8,65.9,66.6
		C165.2,136.8,135.7,166.6,99.3,166.6z"/>
	<polygon points="111.1,55.6 88.9,55.6 88.9,88.9 88.9,88.9 88.9,111.1 133.3,111.1 133.3,88.9 111.1,88.9 	"/>
</g>
</svg>
