<?xml version="1.0" encoding="utf-8"?>
<!-- Generated by IcoMoon.io -->
<!DOCTYPE svg PUBLIC "-//W3C//DTD SVG 1.1//EN" "http://www.w3.org/Graphics/SVG/1.1/DTD/svg11.dtd">
<svg version="1.1" xmlns="http://www.w3.org/2000/svg" xmlns:xlink="http://www.w3.org/1999/xlink" width="32" height="32" viewBox="0 0 32 32">
<path d="M30.224 30.224l-7.104-12.448 4.976-4.896c0.208-0.208 0.208-0.544 0-0.752s-0.544-0.208-0.752 0l-1.040 1.040c-5.664-0.8-9.904-4.368-14.432-9.504l0.96-0.96c0.208-0.208 0.208-0.544 0-0.752s-0.544-0.208-0.752 0l-1.312 1.312c0 0 0 0 0 0l-8.832 8.8c-0.208 0.208-0.208 0.544 0 0.752 0.112 0.112 0.24 0.16 0.384 0.16s0.272-0.048 0.384-0.16l0.96-0.96c5.136 4.528 8.72 8.768 9.504 14.432l-1.040 1.040c-0.208 0.208-0.208 0.544 0 0.752 0.112 0.112 0.24 0.16 0.384 0.16s0.272-0.048 0.384-0.16l4.912-4.976 12.416 7.12zM26.672 26.672l-6.928-5.44 1.488-1.472 5.44 6.912zM14.224 24.88c-1.040-5.568-3.824-9.76-8.88-14.224l5.328-5.328c4.464 5.056 8.64 7.84 14.224 8.88l-10.672 10.672z" fill="#000000"></path>
</svg>
