<?xml version="1.0" encoding="utf-8"?>
<!-- Generated by IcoMoon.io -->
<!DOCTYPE svg PUBLIC "-//W3C//DTD SVG 1.1//EN" "http://www.w3.org/Graphics/SVG/1.1/DTD/svg11.dtd">
<svg version="1.1" xmlns="http://www.w3.org/2000/svg" xmlns:xlink="http://www.w3.org/1999/xlink" width="32" height="32" viewBox="0 0 32 32">
<path d="M28.448 1.776h-26.672v28.448h28.432v-28.448h-1.76zM3.552 10.944c4.848 1.344 11.888 3.504 17.728 7.424-5.728 4.064-13.104 6.32-17.728 7.36v-14.784zM3.552 28.448v-1.056c3.232-0.72 7.808-2.016 12.288-4.080 2.592-1.2 4.864-2.528 6.816-3.968 2.24 1.664 4.24 3.632 5.792 5.92v3.184h-24.896zM28.448 22.592c-1.312-1.6-2.832-3.008-4.48-4.272 1.856-1.536 3.344-3.2 4.48-4.96v9.232zM28.448 9.92c-0.912 2.288-2.448 4.432-4.608 6.4-0.384 0.352-0.8 0.704-1.2 1.024-6.304-4.352-14-6.672-19.088-8.048v-5.744h24.88v6.368z" fill="#000000"></path>
</svg>
