<?xml version="1.0" encoding="utf-8"?>
<!-- Generated by IcoMoon.io -->
<!DOCTYPE svg PUBLIC "-//W3C//DTD SVG 1.1//EN" "http://www.w3.org/Graphics/SVG/1.1/DTD/svg11.dtd">
<svg version="1.1" xmlns="http://www.w3.org/2000/svg" xmlns:xlink="http://www.w3.org/1999/xlink" width="32" height="32" viewBox="0 0 32 32">
<path d="M14.976 2.496c-4.592 0-8.32 3.728-8.32 8.32 0 2.8 1.424 5.424 3.76 6.96v5.12h9.12v-5.12c2.336-1.536 3.76-4.16 3.76-6.96 0.016-4.592-3.728-8.32-8.32-8.32zM18.352 16.64l-0.4 0.224v4.432h-5.92v-4.432l-0.4-0.224c-2.080-1.2-3.36-3.44-3.36-5.824 0-3.712 3.024-6.72 6.72-6.72s6.72 3.024 6.72 6.72c0 2.4-1.296 4.624-3.36 5.824z" fill="#000000"></path>
<path d="M10.672 24.784h8.896v1.888h-8.896v-1.888z" fill="#000000"></path>
<path d="M12.448 28.336h5.328v1.888h-5.328v-1.888z" fill="#000000"></path>
</svg>
