<?xml version="1.0" encoding="utf-8"?>
<!-- Generator: Adobe Illustrator 18.1.1, SVG Export Plug-In . SVG Version: 6.00 Build 0)  -->
<!DOCTYPE svg PUBLIC "-//W3C//DTD SVG 1.1//EN" "http://www.w3.org/Graphics/SVG/1.1/DTD/svg11.dtd">
<svg version="1.1" id="Layer_1" xmlns="http://www.w3.org/2000/svg" xmlns:xlink="http://www.w3.org/1999/xlink" x="0px" y="0px"
	 viewBox="0 0 200 200" enable-background="new 0 0 200 200" xml:space="preserve">
<g>
	<path d="M99.1,15.6c-28.7,0-52,23.3-52,52c0,17.5,8.9,33.9,23.5,43.5v32h57v-32c14.6-9.6,23.5-26,23.5-43.5
		C151.1,38.9,127.8,15.6,99.1,15.6z M120.1,104l-2.5,1.4v27.7h-37v-27.7l-2.5-1.4c-13-7.5-21-21.5-21-36.4c0-23.2,18.9-42,42-42
		s42,18.9,42,42C141.1,82.6,133.1,96.5,120.1,104z"/>
	<rect x="72.1" y="154.9" width="55.6" height="11.8"/>
	<rect x="16.8" y="54.9" width="22" height="11.8"/>
	<rect x="161" y="55.6" width="22.2" height="11.1"/>
	<rect x="31.6" y="99.9" transform="matrix(-0.707 -0.7072 0.7072 -0.707 -14.9951 217.0055)" width="11.8" height="23.5"/>
	<rect x="154.9" y="11.8" transform="matrix(0.7071 0.7071 -0.7071 0.7071 63.7657 -106.746)" width="11.8" height="23.5"/>
	<rect x="25.7" y="17.7" transform="matrix(0.7072 0.7071 -0.7071 0.7072 27.6542 -19.5719)" width="23.5" height="11.8"/>
	<rect x="149" y="105.7" transform="matrix(-0.7071 -0.7072 0.7072 -0.7071 195.4615 304.1889)" width="23.5" height="11.8"/>
	<rect x="83.2" y="177.1" width="33.3" height="11.8"/>
	<rect x="83.3" y="55.6" width="33.3" height="33.3"/>
</g>
</svg>
