<?xml version="1.0" encoding="utf-8"?>
<!-- Generator: Adobe Illustrator 19.1.1, SVG Export Plug-In . SVG Version: 6.00 Build 0)  -->
<!DOCTYPE svg PUBLIC "-//W3C//DTD SVG 1.1//EN" "http://www.w3.org/Graphics/SVG/1.1/DTD/svg11.dtd">
<svg version="1.1" id="Layer_1" xmlns="http://www.w3.org/2000/svg" xmlns:xlink="http://www.w3.org/1999/xlink" x="0px" y="0px"
	 viewBox="0 0 16 16" style="enable-background:new 0 0 16 16;" xml:space="preserve">
<g>
	<path d="M9.5,5C9.3,4.8,9.1,4.7,8.8,4.6C8.6,4.5,8.3,4.4,8,4.4S7.4,4.5,7.2,4.6C6.9,4.7,6.7,4.8,6.5,5C6.3,5.2,6.2,5.4,6.1,5.7
		C6,6,5.9,6.2,5.9,6.5c0,0.4,0.1,0.7,0.3,1c0.2,0.3,0.4,0.6,0.8,0.8l0.1,0.1v1.4h1.9V8.4l0.1-0.1c0.3-0.2,0.6-0.4,0.8-0.8
		c0.2-0.3,0.3-0.7,0.3-1.1c0-0.3-0.1-0.6-0.2-0.8C9.8,5.4,9.7,5.2,9.5,5z"/>
	<path d="M8,0C3.6,0,0,3.6,0,8s3.6,8,8,8s8-3.6,8-8S12.4,0,8,0z M8.9,12.6H7.2V12h1.7V12.6z M9.4,11.5H6.7v-0.6h2.8V11.5z M10.3,7.7
		c-0.2,0.4-0.5,0.7-0.9,0.9v1.6H6.6V8.7C6.2,8.4,5.9,8.1,5.7,7.7C5.5,7.4,5.4,6.9,5.4,6.5c0-0.4,0.1-0.7,0.2-1
		c0.1-0.3,0.3-0.6,0.6-0.8C6.4,4.4,6.7,4.3,7,4.1C7.3,4,7.6,3.9,8,3.9c0.4,0,0.7,0.1,1,0.2c0.3,0.1,0.6,0.3,0.8,0.6
		c0.2,0.2,0.4,0.5,0.6,0.8c0.1,0.3,0.2,0.7,0.2,1C10.6,6.9,10.5,7.4,10.3,7.7z"/>
</g>
</svg>
