<?xml version="1.0" encoding="utf-8"?>
<!-- Generator: Adobe Illustrator 19.1.1, SVG Export Plug-In . SVG Version: 6.00 Build 0)  -->
<!DOCTYPE svg PUBLIC "-//W3C//DTD SVG 1.1//EN" "http://www.w3.org/Graphics/SVG/1.1/DTD/svg11.dtd">
<svg version="1.1" id="Layer_1" xmlns="http://www.w3.org/2000/svg" xmlns:xlink="http://www.w3.org/1999/xlink" x="0px" y="0px"
	 viewBox="0 0 16 16" style="enable-background:new 0 0 16 16;" xml:space="preserve">
<g>
	<path d="M9.4,5.3C9.2,5.1,9,5,8.8,4.9C8.5,4.7,8.2,4.7,8,4.7c-0.3,0-0.6,0.1-0.8,0.2C6.9,5,6.7,5.1,6.5,5.3C6.3,5.5,6.1,5.7,6,6
		C5.9,6.2,5.9,6.5,5.9,6.8c0,0.4,0.1,0.7,0.3,1c0.2,0.3,0.4,0.6,0.8,0.8L7,8.6V10h1.8V8.6L9,8.6c0.3-0.2,0.6-0.4,0.8-0.8
		c0.2-0.3,0.3-0.7,0.3-1C10,6.5,10,6.2,9.9,6C9.8,5.7,9.6,5.5,9.4,5.3z"/>
	<path d="M8,0.1C3.6,0.1,0.1,3.6,0.1,8s3.5,7.9,7.9,7.9s7.9-3.5,7.9-7.9S12.4,0.1,8,0.1z M11.2,4l0.4,0.4l-0.8,0.8l-0.4-0.4L11.2,4z
		 M4.7,4l0.8,0.8L5.1,5.2L4.3,4.4L4.7,4z M3.9,6.1H5v0.6H3.9V6.1z M4.7,9.6L4.3,9.2l0.8-0.8l0.4,0.4L4.7,9.6z M8.8,12.8H7.2v-0.6
		h1.6V12.8z M9.4,11.7H6.6v-0.6h2.8V11.7z M9.4,8.9v1.6H6.5V8.9C6.2,8.7,5.9,8.4,5.7,8C5.5,7.6,5.4,7.2,5.4,6.8c0-0.4,0.1-0.7,0.2-1
		c0.1-0.3,0.3-0.6,0.6-0.8s0.5-0.4,0.8-0.6c0.3-0.1,0.6-0.2,1-0.2c0.4,0,0.7,0.1,1,0.2c0.3,0.1,0.6,0.3,0.8,0.6
		c0.2,0.2,0.4,0.5,0.6,0.8c0.1,0.3,0.2,0.6,0.2,1c0,0.4-0.1,0.8-0.3,1.2C10,8.4,9.7,8.7,9.4,8.9z M11.2,9.6l-0.8-0.8l0.4-0.4
		l0.8,0.8L11.2,9.6z M12.1,6.7H11V6.2h1.1V6.7z"/>
</g>
</svg>
