<?xml version="1.0" encoding="utf-8"?>
<!-- Generator: Adobe Illustrator 18.1.1, SVG Export Plug-In . SVG Version: 6.00 Build 0)  -->
<!DOCTYPE svg PUBLIC "-//W3C//DTD SVG 1.1//EN" "http://www.w3.org/Graphics/SVG/1.1/DTD/svg11.dtd">
<svg version="1.1" id="Layer_1" xmlns="http://www.w3.org/2000/svg" xmlns:xlink="http://www.w3.org/1999/xlink" x="0px" y="0px"
	 viewBox="0 0 200 200" enable-background="new 0 0 200 200" xml:space="preserve">
<g>
	<path d="M191.4,80.6l-4.9-4.9l-7-7l-4.9-4.9c-4.8-4.8-13.2-4.8-18.1,0L126,94.6c-2.4,2.4-3.7,5.6-3.7,9.1c0,3.4,1.3,6.6,3.7,9.1
		l4.9,4.9l-7,7l-4.9-4.9c-4.8-4.8-13.3-4.8-18.1,0l-30.6,30.7c-5,5-5,13.1,0,18.1l4.9,4.9l7,7l4.9,4.9c2.4,2.4,5.6,3.7,9,3.7
		c3.4,0,6.6-1.3,9-3.8l30.6-30.7c5-5,5-13.1,0-18.1l-4.9-4.9l7-7l4.9,4.9c2.4,2.4,5.6,3.8,9,3.8c3.4,0,6.6-1.3,9-3.8l30.6-30.7
		C196.3,93.7,196.3,85.6,191.4,80.6z M128.8,147.5l-30.6,30.7c-1.1,1.1-3.1,1.1-4.2,0l-4.9-4.9l-7-7l-4.9-4.9c-1.1-1.2-1.1-3,0-4.2
		l30.6-30.7c0.6-0.6,1.3-0.9,2.1-0.9c0.8,0,1.5,0.3,2.1,0.9l4.9,4.9l-10.4,10.5c-1.9,1.9-1.9,5,0,7c1,1,2.2,1.4,3.5,1.4
		c1.3,0,2.5-0.5,3.5-1.4l10.4-10.5l4.9,4.9C129.9,144.5,129.9,146.4,128.8,147.5z M184.4,91.8l-30.6,30.7c-1.1,1.1-3.1,1.1-4.2,0
		l-4.9-4.9l10.4-10.4c1.9-1.9,1.9-5,0-7c-1.9-1.9-5-1.9-7,0l-10.4,10.5l-4.9-4.9c-0.6-0.6-0.9-1.3-0.9-2.1c0-0.8,0.3-1.5,0.9-2.1
		l30.6-30.7c0.6-0.6,1.3-0.9,2.1-0.9c0.8,0,1.5,0.3,2.1,0.9l4.9,4.9l7,7l4.9,4.9C185.6,88.7,185.6,90.6,184.4,91.8z"/>
	<polygon points="22.2,61.5 88,23 144.4,55.1 144.4,43 88,11.1 11.1,55.5 11.1,144.4 44.4,163.6 44.4,151.4 22.2,138.4 	"/>
</g>
</svg>
