<?xml version="1.0" encoding="utf-8"?>
<!-- Generated by IcoMoon.io -->
<!DOCTYPE svg PUBLIC "-//W3C//DTD SVG 1.1//EN" "http://www.w3.org/Graphics/SVG/1.1/DTD/svg11.dtd">
<svg version="1.1" xmlns="http://www.w3.org/2000/svg" xmlns:xlink="http://www.w3.org/1999/xlink" width="32" height="32" viewBox="0 0 32 32">
<path d="M28.448 23.104h-5.328v5.328h-14.24v-5.328h-5.328c-0.448 0-1.776-0.512-1.776-1.776v-12.432c0-0.448 0.4-1.776 1.776-1.776h5.328v-5.344h14.224v5.328h5.328c0.448 0 1.776 0.368 1.776 1.776v12.496c0.016 1.36-1.312 1.728-1.76 1.728zM10.672 26.288h10.72v-8.512h-10.72v8.512zM21.376 3.552h-10.72v3.552h10.72v-3.552zM28.448 10.672c0-1.248-1.328-1.776-1.776-1.776h-21.344c-0.448 0-1.776 0.176-1.776 1.776v8.88c0 0.736 0.656 1.776 1.776 1.776h3.552v-5.328h14.224v5.392h3.552c0.448 0 1.776-0.432 1.776-1.824v-8.896zM7.104 14.224c-0.896 0-1.776-0.88-1.776-1.776s0.88-1.776 1.776-1.776 1.776 0.88 1.776 1.776c0 0.896-0.864 1.776-1.776 1.776zM12.448 14.224c-0.896 0-1.776-0.88-1.776-1.776s0.88-1.776 1.776-1.776c0.896 0 1.776 0.88 1.776 1.776s-0.88 1.776-1.776 1.776z" fill="#000000"></path>
</svg>
