<?xml version="1.0" encoding="utf-8"?>
<!-- Generator: Adobe Illustrator 18.0.0, SVG Export Plug-In . SVG Version: 6.00 Build 0)  -->
<!DOCTYPE svg PUBLIC "-//W3C//DTD SVG 1.1//EN" "http://www.w3.org/Graphics/SVG/1.1/DTD/svg11.dtd">
<svg version="1.1" id="Layer_1" xmlns="http://www.w3.org/2000/svg" xmlns:xlink="http://www.w3.org/1999/xlink" x="0px" y="0px"
	 viewBox="0 0 200 200" enable-background="new 0 0 200 200" xml:space="preserve">
<g>
	<path fill-rule="evenodd" clip-rule="evenodd" d="M155.5,69.1v-5.1V33.4c0-7.5-3.1-11.1-11.1-11.1h-22.2V11.1c-0.6,0-11.1,0-11.1,0
		v11.1H56.4V11.1H44.4v11.1H20.8c-7.9,0.1-9.7,3.6-9.7,11.1v30.7V105v41v39.5c0,1.9,1.6,3.5,1.2,3.5h43.2H101h15h19.2
		c7.2-1.1,14.1-3.4,20.3-6.7c20.2-10.8,34.1-32,34.1-56.5S175.8,79.9,155.5,69.1z M44.4,177.8H22.2L22,155.6h22.4V177.8z
		 M44.4,144.5H22.2v-22.2h22.2V144.5z M44.4,111.1H22.2V88.9h22.2V111.1z M22.2,77.8V33.3h22.2v11.1h11.9V33.3h54.7v11.1
		c0.7,0,11.1,0,11.1,0V33.3h22.2v31.2c-5.9-1.8-12.3-2.8-18.8-2.8c-16.2,0-31.1,6.1-42.4,16.1H22.2z M63.3,111.1h-7.6V88.9h17.6
		C68.7,95.5,65.2,103,63.3,111.1z M64.5,144.5h-8.8v-22.2h6c-0.1,1.1-0.1,2.3-0.1,3.4C61.7,132.2,62.7,138.5,64.5,144.5z
		 M77.8,177.8h-22l-0.2-22.2h13.6c2.4,4.5,5.3,8.7,8.7,12.5V177.8z M155.5,170.5c-3.4,2.3-7.2,4.2-11.1,5.7
		c-1.6,0.6-3.2,1.1-4.9,1.6c-4.4,1.2-9.1,1.8-13.9,1.8c-5,0-9.9-0.7-14.5-2c-8.4-2.3-15.9-6.7-22.1-12.4
		c-6.1-5.7-10.9-12.8-13.9-20.7c-2.2-5.9-3.4-12.2-3.4-18.8c0-1.1,0-2.3,0.1-3.4c0.2-3.8,0.9-7.5,1.9-11.1c1-3.6,2.4-7.1,4.1-10.4
		c5.1-9.8,13.2-17.8,23-23c7.5-3.9,15.9-6.1,24.9-6.1c6.6,0,12.9,1.2,18.8,3.4c3.9,1.5,7.7,3.4,11.1,5.7
		c14.5,9.7,24.1,26.2,24.1,44.9S170,160.9,155.5,170.5z"/>
	<g>
		<path d="M100,90.7c5-0.9,12-1.6,21.5-1.6c10.3,0,17.8,2.2,22.7,6.3c4.6,3.8,7.5,9.8,7.5,17c0,7.3-2.3,13.4-6.6,17.5
			c-5.6,5.6-14.4,8.2-24.3,8.2c-2.6,0-5-0.1-6.9-0.5v29H100V90.7z M113.9,126.6c1.7,0.5,4,0.6,6.9,0.6c10.5,0,16.9-5.1,16.9-14.2
			c0-8.6-5.9-13.1-15.6-13.1c-3.9,0-6.6,0.3-8.1,0.7V126.6z"/>
	</g>
</g>
</svg>
