<?xml version="1.0" encoding="utf-8"?>
<!-- Generator: Adobe Illustrator 17.1.0, SVG Export Plug-In . SVG Version: 6.00 Build 0)  -->
<!DOCTYPE svg PUBLIC "-//W3C//DTD SVG 1.1//EN" "http://www.w3.org/Graphics/SVG/1.1/DTD/svg11.dtd">
<svg version="1.1" id="Layer_1" xmlns="http://www.w3.org/2000/svg" xmlns:xlink="http://www.w3.org/1999/xlink" x="0px" y="0px"
	 viewBox="0 0 200 200" enable-background="new 0 0 200 200" xml:space="preserve">
<path d="M62.1,26.4c0-2.5,0.1-4.7,0-7c-0.2-2.6,2.2-4.7,4-4.6c2.4,0,4.2,2,4.2,4.7c0,2.3,0,4.5,0,6.9c20,0,39.8,0,59.8,0
	c0-2.3,0-4.5,0-6.7c0-0.7,0-1.4,0.2-2c0.6-2,2.3-3.1,4.3-2.8c2,0.3,3.7,2,3.7,4.1c0,2.4,0,4.9,0,7.5c0.5,0,0.9,0,1.3,0
	c7.7,0,15.4,0,23,0c1.4,0,2.9,0.2,4.3,0.5c3.5,0.7,4.9,2.4,5.2,5.9c0.1,0.6,0.1,1.3,0.1,1.9c0,23.8,0,47.6,0,71.4c0,0.4,0,0.8,0,1.4
	c-1.7-1.9-3.2-3.7-4.7-5.5c-0.5-0.5-0.9-1.1-1.5-1.5c-1.7-1.2-2.1-2.8-2.1-4.8c0.2-4.8,0-9.6,0-14.4c0-0.4,0-0.9,0-1.4
	c-8.6,0-17,0-25.6,0c0,2.2,0,4.4,0,6.6c-2.8-0.2-5.4-0.4-8.2-0.7c0-1.9,0-3.9,0-5.9c-8.7,0-17.3,0-26,0c0,1.7,0,3.3,0,4.9
	c0,2.5,0,5,0,7.4c0,0.4-0.2,0.9-0.4,1.1c-2.6,1.9-5.2,3.7-7.8,5.6c0-6.3,0-12.7,0-19.1c-8.6,0-17,0-25.5,0c0,8.5,0,16.9,0,25.5
	c6.5,0,13,0,19.7,0c-0.3,0.4-0.4,0.7-0.6,0.9c-1.4,2.2-2.8,4.3-4.1,6.5c-0.4,0.7-0.8,0.9-1.6,0.9c-4,0-8.1,0-12.1,0
	c-0.4,0-0.9,0-1.4,0c0,8.7,0,17.2,0,25.9c3,0,5.9,0,8.8,0c0.4,2.8,0.7,5.5,1.1,8.3c-3.4,0-6.7,0-10.3,0c0.1,8.6,0.2,17,0.4,25.7
	c0.5,0,1,0,1.4,0c7.2,0,14.5,0,21.7,0c0.5,0,1.2,0.2,1.6,0.6c3.3,2.4,6.5,4.9,9.8,7.3c0.1,0.1,0.2,0.1,0.2,0.4
	c-0.4,0-0.7,0.1-1.1,0.1c-24.4,0-48.8,0-73.2,0c-2.2,0-2.6-0.4-2.6-2.7c0-29.2,0-58.5,0-87.7c0-18.8,0-37.6,0-56.4
	c0-0.7,0-1.4,0.1-2c0.3-4,1.9-5.8,5.9-6.4c1.1-0.2,2.3-0.3,3.5-0.3c7.7,0,15.4,0,23,0C61,26.4,61.5,26.4,62.1,26.4z M36.5,71.5
	c42.6,0,85,0,127.5,0c0-0.5,0.1-0.8,0.1-1.2c0-11.4,0-22.8,0-34.2c0-1.1-0.3-1.4-1.4-1.4c-7.6,0-15.3,0-22.9,0c-0.4,0-0.8,0-1.3,0.1
	c0,2.3,0,4.5,0,6.7c0,2.6-1.8,4.5-4.3,4.5c-2.4,0-4-1.7-4-4.4c0-1.8,0-3.7,0-5.5c0-0.4,0-0.8-0.1-1.3c-20,0-39.8,0-59.8,0
	c0,0.5,0,0.9,0,1.4c0,1.9,0,3.8,0,5.8c0,1.8-1.3,3.4-2.9,3.9c-1.6,0.5-3.3,0.1-4.3-1.4c-0.5-0.8-0.9-1.8-0.9-2.7
	c-0.1-2.3,0-4.5,0-6.8c-8.6,0-17.1,0-25.6,0C36.5,47,36.5,59.2,36.5,71.5z M62,113.8c-8.5,0-17,0-25.5,0c0,8.7,0,17.2,0,25.8
	c8.5,0,17,0,25.5,0C62,130.9,62,122.4,62,113.8z M36.1,148c0.1,8.5,0.3,17,0.4,25.4c8.6,0,17.1,0,25.5,0c0-8.5,0-16.9,0-25.4
	C53.4,148,44.8,148,36.1,148z M36.5,105.4c8.5,0,17,0,25.5,0c0-8.5,0-17,0-25.4c-8.5,0-17,0-25.5,0C36.5,88.4,36.5,96.8,36.5,105.4z
	"/>
<g>
	<path d="M152.4,126.8c0,5.6-1.9,10-5.8,13c-3.8,3-9.3,4.5-16.5,4.5h-6.5v21.9h-6.5v-55.6h14.4C145.5,110.6,152.4,116,152.4,126.8z
		 M123.7,138.8h5.8c5.7,0,9.9-0.9,12.4-2.8c2.6-1.8,3.8-4.8,3.8-8.9c0-3.7-1.2-6.4-3.6-8.2c-2.4-1.8-6.2-2.7-11.3-2.7h-7.2V138.8z"
		/>
</g>
<path d="M129.9,184.7c-26.4,0-47.9-21.5-47.9-47.9c0-26.4,21.5-47.9,47.9-47.9c26.4,0,47.9,21.5,47.9,47.9
	C177.8,163.2,156.3,184.7,129.9,184.7z M129.9,94C106.3,94,87,113.2,87,136.8c0,23.6,19.2,42.9,42.9,42.9
	c23.6,0,42.9-19.2,42.9-42.9C172.8,113.2,153.5,94,129.9,94z"/>
</svg>
