<?xml version="1.0" encoding="utf-8"?>
<!-- Generator: Adobe Illustrator 18.1.1, SVG Export Plug-In . SVG Version: 6.00 Build 0)  -->
<!DOCTYPE svg PUBLIC "-//W3C//DTD SVG 1.1//EN" "http://www.w3.org/Graphics/SVG/1.1/DTD/svg11.dtd">
<svg version="1.1" id="Layer_1" xmlns="http://www.w3.org/2000/svg" xmlns:xlink="http://www.w3.org/1999/xlink" x="0px" y="0px"
	 viewBox="0 0 200 200" enable-background="new 0 0 200 200" xml:space="preserve">
<g>
	<path d="M148.4,118L100,33.3l-40.5,70.9l0,0l-48.4,84.6h81h15.7h81L148.4,118L148.4,118z M100,51.7l32.7,57.2H67.3L100,51.7z
		 M26.8,177.8l32.7-55.2l32.7,55.2H26.8z M107.8,177.8l32.7-55.2l32.7,55.2H107.8z"/>
	<polygon points="22.2,77.8 66.7,77.8 66.7,33.3 48,52 14.6,18.7 7.6,25.8 40.9,59.1 	"/>
	<polygon points="159.1,59.1 192.4,25.8 185.3,18.7 152,52 133.3,33.3 133.3,77.8 177.8,77.8 	"/>
</g>
</svg>
