<?xml version="1.0" encoding="utf-8"?>
<!-- Generated by IcoMoon.io -->
<!DOCTYPE svg PUBLIC "-//W3C//DTD SVG 1.1//EN" "http://www.w3.org/Graphics/SVG/1.1/DTD/svg11.dtd">
<svg version="1.1" xmlns="http://www.w3.org/2000/svg" xmlns:xlink="http://www.w3.org/1999/xlink" width="32" height="32" viewBox="0 0 32 32">
<path d="M10.976 16.752l-0.080-0.176v-0.080c-0.016 0-0.032 0-0.048 0l-1.76-3.504-1.248 0.624 1.344 2.672c-3.424-0.768-6-3.84-6-7.504 0-1.872 0.672-3.664 1.904-5.072l-1.056-0.928c-1.456 1.664-2.256 3.792-2.256 6 0 4.4 3.12 8.064 7.28 8.928l-3.088 1.552 0.624 1.248 5.008-2.512-0.624-1.248z" fill="#000000"></path>
<path d="M28.448 8.896l-7.104-7.104h-10.672v10.672h1.776v-8.912h7.104v7.12h7.104v17.776h-14.208v-7.104h-1.776v8.88h17.776l0.032-21.328h-0.032zM21.328 8.896v-5.344l5.328 5.328h-5.328z" fill="#000000"></path>
</svg>
