<?xml version="1.0" encoding="utf-8"?>
<!-- Generator: Adobe Illustrator 18.1.1, SVG Export Plug-In . SVG Version: 6.00 Build 0)  -->
<!DOCTYPE svg PUBLIC "-//W3C//DTD SVG 1.1//EN" "http://www.w3.org/Graphics/SVG/1.1/DTD/svg11.dtd">
<svg version="1.1" id="Layer_1" xmlns="http://www.w3.org/2000/svg" xmlns:xlink="http://www.w3.org/1999/xlink" x="0px" y="0px"
	 viewBox="0 0 200 200" enable-background="new 0 0 200 200" xml:space="preserve">
<g>
	<polygon fill-rule="evenodd" clip-rule="evenodd" points="177.8,22.2 166.6,22.2 155.5,22.2 144.4,22.2 133.3,22.2 122.2,22.2 
		111.1,22.2 100,22.2 88.9,22.2 77.8,22.2 66.7,22.2 55.5,22.2 44.4,22.2 33.3,22.2 22.2,22.2 11.1,22.2 11.1,33.3 22.2,33.3 
		33.3,33.3 44.4,33.3 55.5,33.3 66.7,33.3 77.8,33.3 88.9,33.3 100,33.3 111.1,33.3 122.2,33.3 133.3,33.3 144.4,33.3 155.5,33.3 
		166.6,33.3 177.8,33.3 188.9,33.3 188.9,22.2 	"/>
	<polygon fill-rule="evenodd" clip-rule="evenodd" points="122.2,155.6 111.1,155.6 100,155.6 88.9,155.6 77.8,155.6 66.7,155.6 
		55.5,155.6 44.4,155.6 33.3,155.6 22.2,155.6 11.1,155.6 11.1,166.7 22.2,166.7 33.3,166.7 44.4,166.7 55.5,166.7 66.7,166.7 
		77.8,166.7 88.9,166.7 100,166.7 111.1,166.7 122.2,166.7 133.3,166.7 144.4,166.7 144.4,155.6 133.3,155.6 	"/>
	<polygon fill-rule="evenodd" clip-rule="evenodd" points="33.3,100 44.4,100 55.5,100 66.7,100 66.7,100 66.7,88.9 66.7,88.9 
		55.5,88.9 44.4,88.9 33.3,88.9 22.2,88.9 11.1,88.9 11.1,100 22.2,100 	"/>
	<path fill-rule="evenodd" clip-rule="evenodd" d="M178.2,141.8l-5-6.5l-5-6.5l-5-6.5l-2.8-3.7c8.5-7.8,13.8-19,13.8-31.4
		c0-23.5-19.1-42.7-42.7-42.7c-23.5,0-42.7,19.1-42.7,42.7s19.1,42.7,42.7,42.7c7.3,0,14.2-1.8,20.2-5.1l3,4l5,6.5l5,6.5l5,6.5
		l5,6.5l5,6.5l0.9-0.7l7-5.3l0.6-0.4l-5-6.5L178.2,141.8z M131.6,119.1c-17.6,0-32-14.4-32-32s14.4-32,32-32s32,14.4,32,32
		S149.2,119.1,131.6,119.1z"/>
</g>
</svg>
