<?xml version="1.0" encoding="utf-8"?>
<!-- Generator: Adobe Illustrator 18.1.1, SVG Export Plug-In . SVG Version: 6.00 Build 0)  -->
<!DOCTYPE svg PUBLIC "-//W3C//DTD SVG 1.1//EN" "http://www.w3.org/Graphics/SVG/1.1/DTD/svg11.dtd">
<svg version="1.1" id="Layer_1" xmlns="http://www.w3.org/2000/svg" xmlns:xlink="http://www.w3.org/1999/xlink" x="0px" y="0px"
	 viewBox="0 0 200 200" enable-background="new 0 0 200 200" xml:space="preserve">
<g>
	<path d="M84.7,144.4c0.1-11.4,2.3-26.5,4.2-30.9c1.9-4.4,6.9-10.2,15-17.5c7.9-9.2,13.5-16.3,16.8-21.3c3.3-5,5-11,5-18
		c0-8.4-2.2-14.8-6.7-19.3c-4.5-4.5-10.9-6.7-19.2-6.7c-7.2,0-13.4,2-18.4,5.9c-5.1,3.9-8.5,21.6-8.5,29.2H51l0-7.5
		c-0.2-12.7,4.3-28,13.5-35.7c9.2-7.6,21-11.5,35.3-11.5c15.6,0,27.8,4,36.4,11.9c8.7,7.9,13,19,13,33.2c0,10.2-2.8,19.5-8.4,27.9
		c-5.6,8.4-13,17.1-22.2,25.9c-4.3,4.3-6.9,8.1-7.8,11.5c-0.9,3.4-4.3,15.8-4.3,23H84.7z M106.5,188.9H84.2v-22.2h22.2V188.9z"/>
</g>
</svg>
