<?xml version="1.0" encoding="utf-8"?>
<!-- Generator: Adobe Illustrator 18.1.1, SVG Export Plug-In . SVG Version: 6.00 Build 0)  -->
<!DOCTYPE svg PUBLIC "-//W3C//DTD SVG 1.1//EN" "http://www.w3.org/Graphics/SVG/1.1/DTD/svg11.dtd">
<svg version="1.1" id="Layer_1" xmlns="http://www.w3.org/2000/svg" xmlns:xlink="http://www.w3.org/1999/xlink" x="0px" y="0px"
	 viewBox="0 0 200 200" enable-background="new 0 0 200 200" xml:space="preserve">
<g>
	<path d="M90.4,163.7c-6.2,0-9.3,3.8-9.3,11.4c0,7.6,3.1,11.4,9.3,11.4c6.4,0,9.6-3.8,9.6-11.4C99.9,167.5,96.8,163.7,90.4,163.7z"
		/>
	<path d="M130.4,22.6C122.2,15,111,11.1,96.8,11.1c-6.1,0-12.1,0.6-17.9,1.9s-13,3.7-21.5,7.5l4.3,9.3c6.2-3,12-5.2,17.4-6.6
		s11.1-2,17.3-2c10.6,0,19.1,2.9,25.6,8.8c6.5,5.8,9.7,13.7,9.7,23.6c0,6.1-1.2,11.4-3.6,16.1c-2.4,4.7-6.4,9.4-12,14.1L105.4,93
		c-7.9,6.9-13.2,13.4-16.2,19.5c-2.9,6.1-4.4,13.9-4.4,23.5v4.3h9.6v-1.6c0-7.5,0.6-13.2,1.8-17s3.2-7.5,5.8-10.9
		c2.7-3.5,6.5-7.3,11.5-11.5c4.4-3.7,8.3-7.1,11.9-10.2s6.6-6.4,9.2-9.8c2.5-3.4,4.5-7.1,5.9-11c1.4-4,2.1-8.6,2.1-13.9
		C142.7,40.8,138.6,30.3,130.4,22.6z"/>
</g>
</svg>
