<?xml version="1.0" encoding="utf-8"?>
<!-- Generator: Adobe Illustrator 18.0.0, SVG Export Plug-In . SVG Version: 6.00 Build 0)  -->
<!DOCTYPE svg PUBLIC "-//W3C//DTD SVG 1.1//EN" "http://www.w3.org/Graphics/SVG/1.1/DTD/svg11.dtd">
<svg version="1.1" id="Layer_1" xmlns="http://www.w3.org/2000/svg" xmlns:xlink="http://www.w3.org/1999/xlink" x="0px" y="0px"
	 viewBox="0 0 200 200" enable-background="new 0 0 200 200" xml:space="preserve">
<g>
	<path d="M148,110.4c3.8-5.4,5.8-11.7,5.8-18.7c0-12-3.9-20.9-11.6-26.8c-7.7-5.9-19.7-8.8-35.8-8.8H71.7V175h25.2v-45.6h13.4
		l28.4,45.6h28c-5.4-7.8-17.1-25.1-34.9-51.8C138.7,120.1,144.2,115.9,148,110.4z M122.7,104.9c-3.8,2.7-9.7,4-17.6,4h-8.1V76.8h7.6
		c8.1,0,14.1,1.2,18,3.6c3.9,2.4,5.8,6.4,5.8,12C128.4,98.1,126.5,102.3,122.7,104.9z"/>
	<path d="M100,11.1c-49.1,0-88.9,27.4-88.9,61.1c0,22.6,17.9,42.4,44.4,52.9v-9.1c-20.1-9.7-33.3-25.7-33.3-43.9
		c0-29.5,34.8-53.5,77.8-53.5s77.8,23.9,77.8,53.5c0,10.2-4.1,19.7-11.3,27.8h0.2v12.6c13.8-10.8,22.2-24.9,22.2-40.4
		C188.9,38.5,149.1,11.1,100,11.1z"/>
</g>
</svg>
