<?xml version="1.0" encoding="utf-8"?>
<!-- Generator: Adobe Illustrator 17.1.0, SVG Export Plug-In . SVG Version: 6.00 Build 0)  -->
<!DOCTYPE svg PUBLIC "-//W3C//DTD SVG 1.1//EN" "http://www.w3.org/Graphics/SVG/1.1/DTD/svg11.dtd">
<svg version="1.1" id="Layer_1" xmlns="http://www.w3.org/2000/svg" xmlns:xlink="http://www.w3.org/1999/xlink" x="0px" y="0px"
	 viewBox="0 0 200 200" enable-background="new 0 0 200 200" xml:space="preserve">
<g>
	<path d="M104.8,119.2V162H87.3V54.9h30.2c13.8,0,24,2.6,30.7,7.8c6.6,5.2,10,13,10,23.4c0,13.3-6.9,22.8-20.8,28.5l30.3,47.4h-19.9
		l-25.6-42.8H104.8z M104.8,104.7H117c8.2,0,14.1-1.5,17.7-4.5c3.7-3,5.5-7.5,5.5-13.5c0-6.1-2-10.4-5.9-13s-9.9-4-17.9-4h-11.6
		V104.7z"/>
</g>
<path d="M100.5,141.8C58.8,141.8,25,119.5,25,92s33.8-49.8,75.5-49.8c41.6,0,75.5,22.4,75.5,49.8S142.1,141.8,100.5,141.8z
	 M100.5,43.2C59.4,43.2,26,65.1,26,92c0,26.9,33.4,48.8,74.5,48.8c41.1,0,74.5-21.9,74.5-48.8C174.9,65.1,141.5,43.2,100.5,43.2z"/>
</svg>
