<?xml version="1.0" encoding="utf-8"?>
<!-- Generator: Adobe Illustrator 18.1.1, SVG Export Plug-In . SVG Version: 6.00 Build 0)  -->
<!DOCTYPE svg PUBLIC "-//W3C//DTD SVG 1.1//EN" "http://www.w3.org/Graphics/SVG/1.1/DTD/svg11.dtd">
<svg version="1.1" id="Layer_1" xmlns="http://www.w3.org/2000/svg" xmlns:xlink="http://www.w3.org/1999/xlink" x="0px" y="0px"
	 viewBox="0 0 200 200" enable-background="new 0 0 200 200" xml:space="preserve">
<g>
	<polygon fill-rule="evenodd" clip-rule="evenodd" points="122.2,133.3 122.2,122.2 77.8,122.2 65.7,122.2 55.6,122.2 55.6,111.1 
		55.6,88.9 11.1,128.2 55.6,166.7 55.6,144.5 55.6,133.3 65.7,133.3 77.8,133.3 	"/>
	<path fill-rule="evenodd" clip-rule="evenodd" d="M189.8,98.5l-0.9-42.9l-44.4-44.4l-74.8,0c-1.7,0-3,1.4-3,3.1V100h10.9V22h55.8
		v32.8c0,10.2,9.5,11.9,11.1,11.9h33.3v22.2H88.5V100h0.4h88.9v22.2h-33.3v11.1h33.3v11.1v11.1h-2.9v0h-86v10.9h88.9v11.3H77.6
		v-11.1H66.7v18.9c0,1.7,1.3,3.1,2.1,3.1h117.1c2.6,0,3.9-1.4,3.9-3.1l0-32.5h0v-8.6L189.8,98.5L189.8,98.5z M144.4,54.8V22
		l33.3,32.8H144.4z"/>
</g>
</svg>
