<?xml version="1.0" encoding="utf-8"?>
<!-- Generated by IcoMoon.io -->
<!DOCTYPE svg PUBLIC "-//W3C//DTD SVG 1.1//EN" "http://www.w3.org/Graphics/SVG/1.1/DTD/svg11.dtd">
<svg version="1.1" xmlns="http://www.w3.org/2000/svg" xmlns:xlink="http://www.w3.org/1999/xlink" width="32" height="32" viewBox="0 0 32 32">
<path d="M5.328 17.776h3.552v1.776h-3.552v-1.776z" fill="#000000"></path>
<path d="M19.552 24.896h-14.288v1.744h14.288v1.808h-16.032v-24.928h8.928v5.248c0 1.632 1.52 1.904 1.776 1.904h5.328v3.552h-14.288v1.776h14.288v1.776h1.92v-2.016l-0.144-6.864-7.104-7.12h-11.968c-0.272 0-0.48 0.224-0.48 0.496v27.408c0 0.272 0.208 0.496 0.336 0.496h18.736c0.416 0 0.624-0.224 0.624-0.496v-6.576h-1.92v1.792zM14.224 3.52l5.328 5.248h-5.328v-5.248z" fill="#000000"></path>
<path d="M23.104 26.672l7.12-6.16-7.12-6.288v5.328h-10.656v1.776h10.656v1.792z" fill="#000000"></path>
<path d="M5.328 21.328h3.552v1.776h-3.552v-1.776z" fill="#000000"></path>
</svg>
