<?xml version="1.0" encoding="utf-8"?>
<!-- Generator: Adobe Illustrator 18.1.1, SVG Export Plug-In . SVG Version: 6.00 Build 0)  -->
<!DOCTYPE svg PUBLIC "-//W3C//DTD SVG 1.1//EN" "http://www.w3.org/Graphics/SVG/1.1/DTD/svg11.dtd">
<svg version="1.1" id="Layer_1" xmlns="http://www.w3.org/2000/svg" xmlns:xlink="http://www.w3.org/1999/xlink" x="0px" y="0px"
	 viewBox="0 0 200 200" enable-background="new 0 0 200 200" xml:space="preserve">
<g>
	<path d="M70.7,33.1l-4.6-10.9c-32.2,13.6-53,45-53,79.9c0,25.6,11.4,48.2,30.5,64.5H11.1v11.1h55.5v-55.5H55.6v41.1
		c-19.7-14-30.6-36.8-30.6-61.2C24.9,72,42.9,44.9,70.7,33.1z"/>
	<path d="M188.9,22.2h-55.6v55.5h11.1V42c19,14.1,30.3,36.3,30.3,60.1c0,28.2-15.6,53.8-40.7,66.7l5.4,10.5
		c29.1-14.9,47.1-44.5,47.1-77.2c0-26.1-11.7-52.4-31.5-68.8h33.8V22.2z M144.5,35.5v-0.2h0.1L144.5,35.5z"/>
</g>
</svg>
