<?xml version="1.0" encoding="utf-8"?>
<!-- Generator: Adobe Illustrator 18.1.1, SVG Export Plug-In . SVG Version: 6.00 Build 0)  -->
<!DOCTYPE svg PUBLIC "-//W3C//DTD SVG 1.1//EN" "http://www.w3.org/Graphics/SVG/1.1/DTD/svg11.dtd">
<svg version="1.1" id="Layer_1" xmlns="http://www.w3.org/2000/svg" xmlns:xlink="http://www.w3.org/1999/xlink" x="0px" y="0px"
	 viewBox="0 0 200 200" enable-background="new 0 0 200 200" xml:space="preserve">
<g>
	<path fill-rule="evenodd" clip-rule="evenodd" d="M165.4,88.9h12.3V77.8h-22.2h-11.1v11.1v22.2h11.1V94.5
		c13.9,7.7,23.3,22.5,23.3,39.4s-9.4,31.8-23.3,39.4v11.1c19.6-8.4,33.3-27.9,33.3-50.5C188.9,115.3,179.6,98.9,165.4,88.9z"/>
	<path fill-rule="evenodd" clip-rule="evenodd" d="M78.9,133.9c0,17.9,8.6,33.8,21.9,43.9H88.9v11.1h33.3v-1.3v-9.9v-0.4v-21.8
		h-11.1v17.1c-13.3-7.8-22.2-22.3-22.2-38.8c0-20.8,14.2-38.3,33.3-43.5V80.2C97.5,85.5,78.9,107.6,78.9,133.9z"/>
	<path fill-rule="evenodd" clip-rule="evenodd" d="M14.2,11c-1.7,0-3.1,1.4-3.1,3.2v171.4c0,1.8,1.4,3.2,3.1,3.2h52.5v-11.2H22.2
		V22.3h55.4l0.1,33.1c0,10.5,9.5,11.2,11.2,11.2h33.3l0,0.1h11l0-10.7L88.9,11H14.2z M89,55.3l-0.1-33.2l33.3,33.2H89z"/>
	<rect x="33.6" y="155.5" fill-rule="evenodd" clip-rule="evenodd" width="33.1" height="11.2"/>
	<rect x="33.6" y="111" fill-rule="evenodd" clip-rule="evenodd" width="33.1" height="11.2"/>
	<rect x="33.6" y="133.2" fill-rule="evenodd" clip-rule="evenodd" width="33.1" height="11.2"/>
	<rect x="33.6" y="88.8" fill-rule="evenodd" clip-rule="evenodd" width="33.1" height="11.2"/>
</g>
</svg>
