<?xml version="1.0" encoding="utf-8"?>
<!-- Generator: Adobe Illustrator 18.1.1, SVG Export Plug-In . SVG Version: 6.00 Build 0)  -->
<!DOCTYPE svg PUBLIC "-//W3C//DTD SVG 1.1//EN" "http://www.w3.org/Graphics/SVG/1.1/DTD/svg11.dtd">
<svg version="1.1" id="Layer_1" xmlns="http://www.w3.org/2000/svg" xmlns:xlink="http://www.w3.org/1999/xlink" x="0px" y="0px"
	 viewBox="0 0 200 200" enable-background="new 0 0 200 200" xml:space="preserve">
<g>
	<polygon fill-rule="evenodd" clip-rule="evenodd" points="188.3,55.6 181.3,48.5 173.7,40.9 166.1,33.3 158.5,40.9 166.1,48.5 
		173.2,55.6 171.9,55.6 161.2,55.6 150.5,55.6 139.8,55.6 129,55.6 118.3,55.6 107.6,55.6 96.9,55.6 86.2,55.6 75.4,55.6 64.7,55.6 
		54,55.6 43.3,55.6 32.6,55.6 21.8,55.6 11.1,55.6 11.1,66.7 21.8,66.7 32.6,66.7 43.3,66.7 54,66.7 64.7,66.7 75.4,66.7 86.2,66.7 
		96.9,66.7 107.6,66.7 118.3,66.7 129,66.7 139.8,66.7 150.5,66.7 161.2,66.7 171.1,66.7 164.9,72.9 156.9,80.9 164.9,88.9 
		172.9,80.9 180.9,72.9 187.1,66.7 188.9,66.7 188.9,55.6 	"/>
	<polygon fill-rule="evenodd" clip-rule="evenodd" points="167.4,133.3 156.7,133.3 146,133.3 135.3,133.3 124.5,133.3 113.8,133.3 
		103.1,133.3 92.4,133.3 81.7,133.3 70.9,133.3 60.2,133.3 49.5,133.3 38.8,133.3 28.9,133.3 35.1,127.1 43.1,119.1 35.1,111.1 
		27.1,119.1 19.1,127.1 12.9,133.3 11.1,133.3 11.1,144.4 11.6,144.4 18.7,151.5 26.3,159.1 33.9,166.7 41.4,159.1 33.9,151.5 
		26.8,144.4 28.1,144.4 38.8,144.4 49.5,144.4 60.2,144.4 70.9,144.4 81.7,144.4 92.4,144.4 103.1,144.4 113.8,144.4 124.5,144.4 
		135.3,144.4 146,144.4 156.7,144.4 167.4,144.4 178.1,144.4 188.9,144.4 188.9,133.3 178.1,133.3 	"/>
</g>
</svg>
