<?xml version="1.0" encoding="utf-8"?>
<!-- Generated by IcoMoon.io -->
<!DOCTYPE svg PUBLIC "-//W3C//DTD SVG 1.1//EN" "http://www.w3.org/Graphics/SVG/1.1/DTD/svg11.dtd">
<svg version="1.1" xmlns="http://www.w3.org/2000/svg" xmlns:xlink="http://www.w3.org/1999/xlink" width="32" height="32" viewBox="0 0 32 32">
<path d="M27.344 24.896c-0.432-0.304-0.976-0.944-1.712-2.24-0.592-1.040-0.928-3.376-1.296-5.84-0.816-5.472-1.808-12.304-6.56-12.304-5.28 0-6.944 8.848-8.064 14.688-0.304 1.616-0.576 3.008-0.816 3.632-0.368 0.928-0.992 1.584-1.616 2.048h-0.176v-23.104h-1.776v23.104h-3.552v1.776h3.552v3.552h1.776v-3.552h23.104v-1.776h-2.864zM10.384 23.424c0.304-0.768 0.56-2.16 0.896-3.92 0.944-5.008 2.544-13.392 6.496-13.392 3.36 0 4.256 6.064 4.976 10.928 0.4 2.736 0.752 5.088 1.488 6.384 0.336 0.592 0.64 1.072 0.912 1.456h-15.648c0.352-0.384 0.656-0.864 0.88-1.456z" fill="#000000"></path>
</svg>
