<?xml version="1.0" encoding="utf-8"?>
<!-- Generated by IcoMoon.io -->
<!DOCTYPE svg PUBLIC "-//W3C//DTD SVG 1.1//EN" "http://www.w3.org/Graphics/SVG/1.1/DTD/svg11.dtd">
<svg version="1.1" xmlns="http://www.w3.org/2000/svg" xmlns:xlink="http://www.w3.org/1999/xlink" width="32" height="32" viewBox="0 0 32 32">
<path d="M29.136 2.064c-0.4-0.4-1.12-0.304-1.632 0.208l-25.152 25.152c-0.512 0.512-0.592 1.232-0.208 1.632 0.4 0.4 1.12 0.304 1.632-0.208l25.152-25.152c0.512-0.512 0.608-1.232 0.208-1.632z" fill="#000000"></path>
<path d="M7.904 14.208c3.472 0 6.288-2.816 6.288-6.288s-2.816-6.304-6.288-6.304-6.288 2.832-6.288 6.304 2.832 6.288 6.288 6.288zM7.904 3.536c2.416 0 4.368 1.968 4.368 4.368s-1.952 4.384-4.368 4.384-4.368-1.968-4.368-4.368 1.968-4.384 4.368-4.384z" fill="#000000"></path>
<path d="M24.080 17.792c-3.472 0-6.288 2.816-6.288 6.288s2.816 6.288 6.288 6.288 6.288-2.816 6.288-6.288-2.816-6.288-6.288-6.288zM24.080 28.464c-2.416 0-4.368-1.968-4.368-4.368s1.968-4.368 4.368-4.368 4.368 1.968 4.368 4.368-1.952 4.368-4.368 4.368z" fill="#000000"></path>
</svg>
