<?xml version="1.0" encoding="utf-8"?>
<!-- Generator: Adobe Illustrator 18.1.1, SVG Export Plug-In . SVG Version: 6.00 Build 0)  -->
<!DOCTYPE svg PUBLIC "-//W3C//DTD SVG 1.1//EN" "http://www.w3.org/Graphics/SVG/1.1/DTD/svg11.dtd">
<svg version="1.1" id="Layer_1" xmlns="http://www.w3.org/2000/svg" xmlns:xlink="http://www.w3.org/1999/xlink" x="0px" y="0px"
	 viewBox="0 0 200 200" enable-background="new 0 0 200 200" xml:space="preserve">
<g>
	<rect x="11.1" y="44.4" fill="#231F20" width="77.8" height="11.1"/>
	<rect x="11.1" y="77.8" fill="#231F20" width="77.8" height="11.1"/>
	<rect x="11.1" y="111.1" fill="#231F20" width="77.8" height="11.1"/>
	<rect x="11.1" y="144.5" fill="#231F20" width="77.8" height="11.1"/>
	<polygon fill="#231F20" points="186.1,44.4 182.1,55.5 188.9,55.5 188.9,44.4 	"/>
	
		<rect x="53.6" y="96" transform="matrix(0.3454 -0.9385 0.9385 0.3454 1.9714 205.8873)" fill="#231F20" width="189.8" height="11.1"/>
	<polygon fill="#231F20" points="142.3,44.4 111.1,44.4 111.1,55.5 138.3,55.5 	"/>
	<polygon fill="#231F20" points="180.4,88.9 188.9,88.9 188.9,77.8 184.5,77.8 	"/>
	<polygon fill="#231F20" points="155.9,155.6 188.9,155.6 188.9,144.5 160,144.5 	"/>
	<polygon fill="#231F20" points="168.2,122.2 188.9,122.2 188.9,111.1 172.3,111.1 	"/>
	<polygon fill="#231F20" points="130.1,77.8 111.1,77.8 111.1,88.9 126,88.9 	"/>
	<polygon fill="#231F20" points="117.8,111.1 111.1,111.1 111.1,122.2 113.7,122.2 	"/>
</g>
</svg>
