<?xml version="1.0" encoding="utf-8"?>
<!-- Generated by IcoMoon.io -->
<!DOCTYPE svg PUBLIC "-//W3C//DTD SVG 1.1//EN" "http://www.w3.org/Graphics/SVG/1.1/DTD/svg11.dtd">
<svg version="1.1" xmlns="http://www.w3.org/2000/svg" xmlns:xlink="http://www.w3.org/1999/xlink" width="32" height="32" viewBox="0 0 32 32">
<path d="M16 23.12h-12.448v-14.224h12.448v-1.776h-14.224v17.776h14.224z" fill="#000000"></path>
<path d="M28.448 7.12h-5.344v1.776h5.344v14.224h-5.344v1.776h7.12v-17.776z" fill="#000000"></path>
<path d="M21.328 3.552h3.552v-1.776h-8.88v1.776h3.552v24.896h-3.552v1.776h8.88v-1.776h-3.552z" fill="#000000"></path>
<path d="M5.328 21.328h2.080l0.656-2.176h3.328l0.656 2.176h2.080l-3.2-9.168h-2.368l-3.232 9.168zM9.952 13.872c0.096 0.32 0.528 1.696 1.28 4.128h-2.944c0.8-2.592 1.296-4.224 1.456-4.88 0.048 0.176 0.112 0.432 0.208 0.752z" fill="#000000"></path>
</svg>
