<?xml version="1.0" encoding="utf-8"?>
<!-- Generator: Adobe Illustrator 18.1.1, SVG Export Plug-In . SVG Version: 6.00 Build 0)  -->
<!DOCTYPE svg PUBLIC "-//W3C//DTD SVG 1.1//EN" "http://www.w3.org/Graphics/SVG/1.1/DTD/svg11.dtd">
<svg version="1.1" id="Layer_1" xmlns="http://www.w3.org/2000/svg" xmlns:xlink="http://www.w3.org/1999/xlink" x="0px" y="0px"
	 viewBox="0 0 200 200" enable-background="new 0 0 200 200" xml:space="preserve">
<path d="M110.1,23.8c-38.2,0-69.9,28.2-75.3,64.9L26,78.3c-2-2.4-4.6-5.1-7.4-5.3c-1.1-0.1-2.2,0.2-3.1,1c-1.1,0.9-1.7,1.9-1.8,3.1
	c-0.2,2.8,2.2,5.6,3.9,7.7l14.7,17.3l0.5,0.6c1.7,2.1,3.9,4.7,6.6,4.9c1.2,0.1,2.4-0.3,3.5-1.2c0.4-0.3,0.7-0.7,1-1.1
	c0.8-0.6,1.6-1.2,2.2-1.8l0.6-0.5l17.5-14.2c2.1-1.7,5-4.1,5.2-6.8c0.1-1.2-0.3-2.4-1.2-3.4c-0.8-0.9-1.8-1.4-2.9-1.5
	c-2.7-0.2-5.8,2-8.2,3.9l-9.9,8c5.2-30,31.4-53,62.9-53c35.2,0,63.8,28.6,63.8,63.8c0,35.2-28.6,63.8-63.8,63.8h-1.5v12.3h1.5
	c42,0,76.2-34.2,76.2-76.2C186.3,58,152.1,23.8,110.1,23.8z"/>
</svg>
