<?xml version="1.0" encoding="utf-8"?>
<!-- Generated by IcoMoon.io -->
<!DOCTYPE svg PUBLIC "-//W3C//DTD SVG 1.1//EN" "http://www.w3.org/Graphics/SVG/1.1/DTD/svg11.dtd">
<svg version="1.1" xmlns="http://www.w3.org/2000/svg" xmlns:xlink="http://www.w3.org/1999/xlink" width="32" height="32" viewBox="0 0 32 32">
<path d="M12.080 15.408l0.752-1.232c-0.896-0.544-1.76-0.928-2.464-1.184 2.352-0.848 4.048-3.104 4.048-5.744 0-3.376-2.736-6.112-6.112-6.112s-6.112 2.736-6.112 6.112c0 2.688 1.76 4.992 4.176 5.792-1.36 0.496-3.248 1.44-4.752 3.136l1.072 0.96c2.048-2.288 5.2-3.024 5.904-3.168 0.432 0.096 1.936 0.48 3.488 1.44zM8.528 13.44l-0.032-0.080c0.016 0 0.032 0 0.048 0l-0.016 0.080zM3.632 7.248c0-2.576 2.096-4.672 4.672-4.672s4.672 2.096 4.672 4.672c0 2.576-2.096 4.672-4.672 4.672s-4.672-2.096-4.672-4.672z" fill="#000000"></path>
<path d="M23.248 13.968c0.704 0.144 3.84 0.88 5.904 3.168l1.072-0.96c-1.52-1.696-3.392-2.64-4.752-3.136 2.432-0.816 4.176-3.104 4.176-5.792 0-3.376-2.736-6.112-6.112-6.112s-6.112 2.736-6.112 6.112c0 2.64 1.696 4.896 4.048 5.744-0.704 0.256-1.568 0.624-2.464 1.184l0.752 1.232c1.552-0.96 3.040-1.344 3.488-1.44zM23.28 13.36c0.016 0 0.032 0 0.048 0l-0.032 0.080-0.016-0.080zM23.52 11.92c-2.576 0-4.672-2.096-4.672-4.672s2.096-4.672 4.672-4.672c2.576 0 4.672 2.096 4.672 4.672 0.016 2.576-2.096 4.672-4.672 4.672z" fill="#000000"></path>
<path d="M16.912 27.184c2.576 0 4.864 1.184 6.384 3.040h1.856c-1.408-2.224-3.68-3.84-6.336-4.368 1.984-0.928 3.36-2.848 3.36-5.072 0-3.12-2.704-5.648-6.032-5.648s-6.032 2.528-6.032 5.648c0 2.432 1.632 4.496 3.936 5.296-2.256 0.688-4.16 2.176-5.408 4.128h1.856c1.536-1.84 3.84-3.024 6.416-3.024zM11.632 20.784c0-2.336 2.032-4.24 4.528-4.24s4.528 1.904 4.528 4.24c0 2.336-2.032 4.24-4.528 4.24-2.512 0-4.528-1.888-4.528-4.24z" fill="#000000"></path>
</svg>
