<?xml version="1.0" encoding="utf-8"?>
<!-- Generator: Adobe Illustrator 18.1.1, SVG Export Plug-In . SVG Version: 6.00 Build 0)  -->
<!DOCTYPE svg PUBLIC "-//W3C//DTD SVG 1.1//EN" "http://www.w3.org/Graphics/SVG/1.1/DTD/svg11.dtd">
<svg version="1.1" id="Layer_1" xmlns="http://www.w3.org/2000/svg" xmlns:xlink="http://www.w3.org/1999/xlink" x="0px" y="0px"
	 viewBox="0 0 200 200" enable-background="new 0 0 200 200" xml:space="preserve">
<path fill-rule="evenodd" clip-rule="evenodd" d="M55.3,12.9c-4.2,4.3,1.3,10.5,5.1,14.3L129.8,97c0.9,0.9,2,2,3.1,3
	c-1.2,1-2.3,2.1-3.2,3.1l-69.8,69.8c-3.8,3.8-9.4,10-5.1,14.3c4.8,4.8,10.5-1.3,14.3-5.1l69.8-69.8c2.5-2.4,6-5.6,6.9-8.9
	c0.6-1,1-2.2,1-3.5c0-1.6-0.5-3-1.4-4.1c-1.3-2.9-4.3-5.6-6.4-7.8L69.4,18C65.7,14.2,60,8.1,55.3,12.9z"/>
</svg>
