<?xml version="1.0" encoding="utf-8"?>
<!-- Generator: Adobe Illustrator 18.1.1, SVG Export Plug-In . SVG Version: 6.00 Build 0)  -->
<!DOCTYPE svg PUBLIC "-//W3C//DTD SVG 1.1//EN" "http://www.w3.org/Graphics/SVG/1.1/DTD/svg11.dtd">
<svg version="1.1" id="Layer_1" xmlns="http://www.w3.org/2000/svg" xmlns:xlink="http://www.w3.org/1999/xlink" x="0px" y="0px"
	 viewBox="0 0 200 200" enable-background="new 0 0 200 200" xml:space="preserve">
<g>
	<circle cx="99.7" cy="99.1" r="17.4"/>
	<path d="M99.2,43.5c-30.6,0-55.4,24.8-55.4,55.4c0,30.6,24.8,55.4,55.4,55.4c30.6,0,55.4-24.8,55.4-55.4
		C154.7,68.3,129.8,43.5,99.2,43.5z M99.2,134.9c-19.9,0-36-16.1-36-36c0-19.9,16.1-36,36-36c19.9,0,36,16.1,36,36
		C135.3,118.8,119.1,134.9,99.2,134.9z"/>
	<path d="M100.1,11.1c-49.1,0-89,39.8-89,89s39.8,89,89,89c49.1,0,89-39.8,89-89S149.2,11.1,100.1,11.1z M98.7,170.6
		c-39.2,0-70.9-31.7-70.9-70.9c0-39.2,31.7-70.9,70.9-70.9c39.2,0,70.9,31.7,70.9,70.9C169.6,138.8,137.9,170.6,98.7,170.6z"/>
</g>
</svg>
