<?xml version="1.0" encoding="utf-8"?>
<!-- Generator: Adobe Illustrator 18.1.1, SVG Export Plug-In . SVG Version: 6.00 Build 0)  -->
<!DOCTYPE svg PUBLIC "-//W3C//DTD SVG 1.1//EN" "http://www.w3.org/Graphics/SVG/1.1/DTD/svg11.dtd">
<svg version="1.1" id="Layer_1" xmlns="http://www.w3.org/2000/svg" xmlns:xlink="http://www.w3.org/1999/xlink" x="0px" y="0px"
	 viewBox="0 0 200 200" enable-background="new 0 0 200 200" xml:space="preserve">
<path fill-rule="evenodd" clip-rule="evenodd" fill="#231F20" d="M178.3,41.6c-4.2-4.3-7.8-6.3-11.4-6.3c-4.8,0-7.7,3.5-10,6.3
	c-0.7,0.9-1.4,1.7-2.1,2.5l-83.1,84.8L43.1,99.6c-3.5-3.6-7.9-8.1-13.6-8.1c-3.2,0-6.2,1.4-8.8,4.2c-9.7,10-1.3,18.6,3.2,23.2
	l36.1,38.1c0.5,0.5,1,1,1.5,1.5c0.3,0.4,0.7,0.8,1.1,1.2c2.2,2.2,4.3,3.6,6.5,4.3c1.4,0.5,2.7,0.8,4.1,0.8c0,0,0,0,0,0
	c3.3,0,6.4-1.5,9.3-4.5c0.8-0.8,1.5-1.7,2.1-2.6l90.8-92.8c0.7-0.7,1.4-1.4,2.2-2.1c2.7-2.4,6.1-5.5,6.3-10.2
	C183.9,49,182.2,45.5,178.3,41.6z"/>
</svg>
