<?xml version="1.0" encoding="utf-8"?>
<!-- Generator: Adobe Illustrator 18.1.1, SVG Export Plug-In . SVG Version: 6.00 Build 0)  -->
<!DOCTYPE svg PUBLIC "-//W3C//DTD SVG 1.1//EN" "http://www.w3.org/Graphics/SVG/1.1/DTD/svg11.dtd">
<svg version="1.1" id="Layer_1" xmlns="http://www.w3.org/2000/svg" xmlns:xlink="http://www.w3.org/1999/xlink" x="0px" y="0px"
	 viewBox="0 0 200 200" enable-background="new 0 0 200 200" xml:space="preserve">
<g>
	<path d="M166.6,33c0-7.8-3.7-14-10.3-18.1c-2.6-1.7-5.8-2.4-8.8-3.6c-32.6,0-50.6,0-83.2,0c-0.4,0.1-0.8,0.3-1.2,0.4
		c-8.9,1.8-17,8.6-18.3,17.6c-0.7,4.8-0.4,9.7-0.5,14.5c0,27.1,0,54.2,0,81.3c0,26.1,0,16.2,0.1,42.3c0,6.9,4.3,12.5,9.7,16.8
		c3,2.4,6.6,3.5,10.2,4.5c24,0,59.2,0,83.2,0c0.2-0.1,0.5-0.3,0.7-0.4c11-2.2,18.3-10.8,18.3-22L166.6,33z M130.8,19.4
		c1.5,0.1,2.5,1,2.5,2.8c-0.2,1.4-1,2.4-2.6,2.4c-1.5,0-2.7-1.2-2.6-2.8C128.2,20.2,129.3,19.4,130.8,19.4z M93.9,22.2
		c4.1-0.1,8.2,0,12.3,0c0,0,0,0,0,0c3.8,0,7.6,0,11.3,0c2.7,0,4.5,0.7,4.7,2.6c0.2,1.7-1.7,2.8-4.8,2.8c-7.8,0-15.5,0-23.3,0
		c-2.9,0-4.7-1-4.7-2.6C89.4,23.4,91.1,22.2,93.9,22.2z M117.5,177.4c-3.9,0.1-7.8,0-11.7,0c-3.9,0-7.8,0.1-11.7,0
		c-3.2-0.1-4.9-1.1-4.7-2.8c0.2-1.9,2.1-2.6,4.7-2.6c7.8,0,15.5,0,23.3,0c2.6,0,4.5,0.7,4.7,2.6
		C122.4,176.3,120.6,177.4,117.5,177.4z M55.5,166.7c0-54.6-0.2-78.5-0.2-133.3c38.7,0,61.3,0,100.2,0c0,54.7,0.2,78.6,0.2,133.3
		C98.9,166.7,112.3,166.7,55.5,166.7z"/>
	<path d="M105.1,55.9c-20,0-36.2,16.2-36.2,36.2c0,7,2,13.6,5.5,19.2h0l0,0c1,1.7,2.2,3.2,3.5,4.7l27.2,36.5l27.4-36.7
		c1.1-1.3,2.2-2.7,3.1-4.2l0.1-0.1h0c3.6-5.6,5.6-12.3,5.6-19.4C141.3,72.1,125.1,55.9,105.1,55.9z M133.3,100h-22.2v22.2H100V100
		H77.8V88.9H100V66.7h11.1v22.2h22.2V100z"/>
</g>
</svg>
