<?xml version="1.0" encoding="utf-8"?>
<!-- Generator: Adobe Illustrator 18.1.1, SVG Export Plug-In . SVG Version: 6.00 Build 0)  -->
<!DOCTYPE svg PUBLIC "-//W3C//DTD SVG 1.1//EN" "http://www.w3.org/Graphics/SVG/1.1/DTD/svg11.dtd">
<svg version="1.1" id="Layer_1" xmlns="http://www.w3.org/2000/svg" xmlns:xlink="http://www.w3.org/1999/xlink" x="0px" y="0px"
	 viewBox="0 0 200 200" enable-background="new 0 0 200 200" xml:space="preserve">
<g>
	<path d="M109.4,165.9c-2.9-0.3-5.7-0.4-8.6-0.6c-2.7-0.2-4.5,1.2-4.7,3.5c-0.2,2.2,1.5,4,4.2,4.2c2.6,0.2,5.1,0.3,8.1,0.5
		c0.1,0,0.2,0,0.4,0c2.8,0.1,4.6-1.3,4.7-3.6C113.6,167.6,112.1,166.1,109.4,165.9z"/>
	<path d="M108.4,173.4C108.4,173.4,108.4,173.4,108.4,173.4C108.3,173.4,108.3,173.4,108.4,173.4z"/>
	<path d="M85.9,164.1c-3.4-0.6-6.8-1-10.7-1.5c-0.6,0.3-1.6,0.5-2.4,1.1c-1.3,0.9-1.7,2.5-1.1,3.8c0.5,1.1,1.7,2.4,2.8,2.6
		c3.4,0.7,6.8,1.1,10.3,1.4c2,0.2,3.7-1.3,4-3.1C89.1,166.3,88,164.5,85.9,164.1z"/>
	<path d="M60.9,159.9c-2.4-0.7-4.8-1.4-7.2-2.1c-0.8-0.2-1.6-0.4-2.1-0.5c-2.1,0-3.7,1.2-4,2.9c-0.4,2,0.7,3.9,2.8,4.6
		c2.9,0.9,5.8,1.8,8.8,2.6c2.6,0.7,4.8-0.3,5.3-2.5C64.9,162.5,63.6,160.6,60.9,159.9z"/>
	<path d="M63.7,130.8c-3.7,0.8-7.3,1.7-10.9,2.9c-1.7,0.6-2.5,2.6-2,4.3c0.5,1.7,1.9,2.8,4.5,2.7c3-0.9,6.8-1.8,10.5-3
		c1.6-0.5,2.4-2.6,2-4.2C67.4,131.8,65.7,130.4,63.7,130.8z"/>
	<path d="M98.6,123c1.8-0.4,3-1.9,3-3.8c0-4.3-5-10.4-9.2-11.1c-0.3-0.1-0.7,0-1.1,0c-1.5,0.3-2.6,1.2-3.1,2.7
		c-0.5,1.7,0,3.1,1.4,4.1c2.2,1.5,4.2,3,4.8,5.9C94.8,122.5,97,123.4,98.6,123z"/>
	<path d="M87.3,124.9c-3,0.9-6.8,1.9-10.6,3.1c-1.6,0.5-2.3,2.6-1.8,4.3c0.5,1.6,1.7,2.7,3.4,2.7c1.2,0,2.5-0.3,3.7-0.7
		c2.4-0.6,4.7-1.2,7.1-2c2-0.7,3-2.4,2.7-4.3C91.4,126.1,90,124.9,87.3,124.9z"/>
	<path d="M81.3,108c0-2.1-1.3-3.5-3.5-3.8c-3.1-0.4-6.2-0.6-9.3-0.8c-2.6-0.2-4.3,1.3-4.5,3.6c-0.1,2.2,1.4,3.7,3.9,4
		c3,0.3,6.1,0.6,9.1,0.9C79.5,112,81.4,110.3,81.3,108z"/>
	<path d="M41.1,140c-0.3,0.1-1.2,0.3-1.8,0.8c-3.7,2.6-5.2,9.5-3.1,13.5c0.9,1.6,2.7,2.5,4.4,2c1.7-0.5,3.1-2.2,2.7-3.9
		c-0.7-2.7,0.1-4.7,1.6-6.8C46.4,143.2,44.5,140,41.1,140z"/>
	<path d="M134.7,166.8c-3.4-0.2-6.8-0.3-10.2-0.2c-2.4,0.1-3.7,1.7-3.7,3.8c0.1,2.1,1.5,3.6,3.8,3.7c1.5,0.1,3.1,0,4.7,0
		c0,0,0,0.1,0,0.1c1.8,0,3.7,0.2,5.5,0c2.1-0.2,3.4-1.8,3.3-3.8C138.1,168.6,136.7,166.9,134.7,166.8z"/>
	<path d="M155.2,166.9c-2.1-0.2-4.3-0.2-6.4,0.1c-1.8,0.2-3.1,1.9-3.1,3.6c0,1.8,1.3,3.3,3.1,3.7c1,0.2,2.1,0.2,3.1,0.2
		c1.2-0.1,2.3,0,3.3-0.2c1.9-0.3,3.3-2,3.3-3.7C158.4,168.8,157.1,167,155.2,166.9z"/>
	<path d="M44,106.9c0.1,1.9,1.6,3.5,3.5,3.7c1,0.1,1.9,0,2.9,0c1,0,2,0.1,3.1,0c1.9-0.2,3.3-1.8,3.4-3.6c0-1.8-1.3-3.7-3.1-3.8
		c-0.1,0-0.3,0-0.4,0l23.7-31.8c1.1-1.3,2.2-2.7,3.1-4.2l0.1-0.1h0c3.6-5.6,5.6-12.3,5.6-19.4c0-20-16.2-36.2-36.2-36.2
		S13.3,27.7,13.3,47.7c0,7,2,13.6,5.5,19.2h0l0,0c1,1.7,2.2,3.2,3.5,4.7l23.8,31.9C44.8,104.1,43.9,105.5,44,106.9z M22.2,55.6V44.5
		h22.2V22.2h11.1v22.2h22.2v11.1H55.6v22.2H44.4V55.6H22.2z"/>
	<path d="M185.7,103.2c0-20-16.2-36.2-36.2-36.2s-36.2,16.2-36.2,36.2c0,7,2,13.6,5.5,19.2h0l0,0c1,1.7,2.2,3.2,3.5,4.7l27.2,36.5
		l27.4-36.7c1.1-1.3,2.2-2.7,3.1-4.2l0.1-0.1h0C183.6,117,185.7,110.3,185.7,103.2z M177.7,111.1h-22.2v22.2h-11.1v-22.2h-22.2V100
		h22.2V77.8h11.1V100h22.2V111.1z"/>
</g>
</svg>
