<?xml version="1.0" encoding="utf-8"?>
<!-- Generator: Adobe Illustrator 18.1.1, SVG Export Plug-In . SVG Version: 6.00 Build 0)  -->
<!DOCTYPE svg PUBLIC "-//W3C//DTD SVG 1.1//EN" "http://www.w3.org/Graphics/SVG/1.1/DTD/svg11.dtd">
<svg version="1.1" id="Layer_1" xmlns="http://www.w3.org/2000/svg" xmlns:xlink="http://www.w3.org/1999/xlink" x="0px" y="0px"
	 viewBox="0 0 200 200" enable-background="new 0 0 200 200" xml:space="preserve">
<g>
	<polygon points="69.4,58.4 100,50.1 69.4,41.8 61.2,11.1 52.9,41.8 22.2,50.1 52.9,58.4 61.2,89.1 	"/>
	<path d="M133.3,44.3h-22.2v11.2h11l0.1,33.1c0,10.5,9.5,11.2,11.2,11.2h33.2h0.1l0,11.1h-0.1v0.1h0.1l0,11.1h-0.1v0.1h0.1l0,11
		h-0.1v11.2h0l0,11h0v11.2h0l0,11H77.8H66.6v-66.7H55.5v74.7c0,1.8,1.4,3.2,3.1,3.2H176c1.7,0,1.7-1.4,1.7-3.2l0-96.5L133.3,44.3z
		 M133.4,88.6l-0.1-33.2l33.3,33.2H133.4z"/>
</g>
</svg>
