<?xml version="1.0" encoding="utf-8"?>
<!-- Generator: Adobe Illustrator 18.1.1, SVG Export Plug-In . SVG Version: 6.00 Build 0)  -->
<!DOCTYPE svg PUBLIC "-//W3C//DTD SVG 1.1//EN" "http://www.w3.org/Graphics/SVG/1.1/DTD/svg11.dtd">
<svg version="1.1" id="Layer_1" xmlns="http://www.w3.org/2000/svg" xmlns:xlink="http://www.w3.org/1999/xlink" x="0px" y="0px"
	 viewBox="0 0 200 200" enable-background="new 0 0 200 200" xml:space="preserve">
<g>
	<path d="M155.5,66.7l-22.2-22.2H44.4v111.1h111.1V66.7z M121,55.6v43.2H79V55.6H121z M144.4,144.4H55.5V55.6h11.1v55.5h66.7V55.6
		l11.1,13.6V144.4z"/>
	<rect x="88.9" y="66.7" width="22.2" height="22.2"/>
	<rect x="22.2" y="22.2" width="11.1" height="66.7"/>
	<rect x="22.2" y="100" width="11.1" height="77.8"/>
	<rect x="33.3" y="11.1" width="11.1" height="11.1"/>
	<rect x="33.3" y="177.8" width="11.1" height="11.1"/>
	<rect x="11.1" y="88.9" width="11.1" height="11.1"/>
	<rect x="166.6" y="100" width="11.1" height="77.8"/>
	<rect x="166.6" y="22.2" width="11.1" height="66.7"/>
	<rect x="155.5" y="177.8" width="11.1" height="11.1"/>
	<rect x="155.5" y="11.1" width="11.1" height="11.1"/>
	<rect x="177.8" y="88.9" width="11.1" height="11.1"/>
</g>
</svg>
