<?xml version="1.0" encoding="utf-8"?>
<!-- Generator: Adobe Illustrator 18.1.1, SVG Export Plug-In . SVG Version: 6.00 Build 0)  -->
<!DOCTYPE svg PUBLIC "-//W3C//DTD SVG 1.1//EN" "http://www.w3.org/Graphics/SVG/1.1/DTD/svg11.dtd">
<svg version="1.1" id="Layer_1" xmlns="http://www.w3.org/2000/svg" xmlns:xlink="http://www.w3.org/1999/xlink" x="0px" y="0px"
	 viewBox="0 0 200 200" enable-background="new 0 0 200 200" xml:space="preserve">
<g>
	<polygon points="144.4,122.2 166.6,144 47.6,144 47.6,155.6 166.6,155.6 144.4,177.8 151.9,185.8 188.9,149.8 188.9,149.8 
		151.9,114.1 	"/>
	<rect x="100" y="33.3" width="11.1" height="33.3"/>
	<path d="M188.9,55.7l0.1-0.1l-44.6-44.4h-11.1h-11.1H44.4H33.3H22.2H11.1v11.1v155.5v11.1h11.1h100v-11.1h-100V22.2h11.1v55.5v11.1
		h100V77.8V22.2h0.1l44.3,44.5v33.1h11.1V66.7h0V55.7z M122.2,77.8H44.4V22.2h77.8V77.8z"/>
</g>
</svg>
