<?xml version="1.0" encoding="utf-8"?>
<!-- Generator: Adobe Illustrator 19.2.1, SVG Export Plug-In . SVG Version: 6.00 Build 0)  -->
<svg version="1.1" id="Layer_1" xmlns="http://www.w3.org/2000/svg" xmlns:xlink="http://www.w3.org/1999/xlink" x="0px" y="0px"
	 viewBox="0 0 16 16" style="enable-background:new 0 0 16 16;" xml:space="preserve">
<g>
	<polygon points="5.7,14.7 0,14.7 0,9.3 1,9.3 1,13.7 5.7,13.7 	"/>
	<polygon points="1,6.5 0,6.5 0,1.3 4.8,1.3 4.8,2.3 1,2.3 	"/>
	<polygon points="16,14.7 10.3,14.7 10.3,13.7 15,13.7 15,9.3 16,9.3 	"/>
	<rect x="3.6" y="2.9" width="0.9" height="10.2"/>
	<rect x="9.8" y="2.9" width="0.3" height="10.2"/>
	<rect x="14.1" y="2.9" transform="matrix(-1 6.630062e-11 -6.630062e-11 -1 28.6501 16.0291)" width="0.4" height="10.2"/>
	<rect x="1.5" y="2.9" width="0.6" height="10.2"/>
	<rect x="6.2" y="2.9" width="2.3" height="10.2"/>
	<rect x="11.4" y="2.9" width="1.6" height="10.2"/>
	<polygon points="16,7 15,7 15,2.3 10.6,2.3 10.6,1.3 16,1.3 	"/>
</g>
</svg>
