<?xml version="1.0" encoding="utf-8"?>
<!-- Generator: Adobe Illustrator 18.1.1, SVG Export Plug-In . SVG Version: 6.00 Build 0)  -->
<!DOCTYPE svg PUBLIC "-//W3C//DTD SVG 1.1//EN" "http://www.w3.org/Graphics/SVG/1.1/DTD/svg11.dtd">
<svg version="1.1" id="Layer_1" xmlns="http://www.w3.org/2000/svg" xmlns:xlink="http://www.w3.org/1999/xlink" x="0px" y="0px"
	 viewBox="0 0 200 200" enable-background="new 0 0 200 200" xml:space="preserve">
<path d="M187.8,112.8c-5.9-14.4-11.6-29.2-17-43.1c-1.3-3.3-3.1-5.7-5.5-7.5c-1.4-1-2.9-1.9-4.3-2.8c-1.2-0.7-2.4-1.5-3.5-2.3
	c-0.8-0.5-1.2-1-1.3-1.3c-1.5-3.7-3.1-7.5-4.5-11.2c-1.2-3-2.4-5.9-3.6-8.8c-0.5-1.1-1.2-2.2-2.2-3.1c-3.7-3.5-8.3-5.4-13.1-5.4
	c-3.4,0-6.7,1-9.7,2.8c-5.6,3.4-8.4,8.1-8.4,14.1c0,4.6-0.2,9.4-0.4,13.9c-0.1,1.7-0.1,3.4-0.2,5.2c0,0.3,0,0.5,0,0.6
	c-1.9,2.4-3.9,4.7-5.9,7.1l-1.1,1.3c-2.7-0.7-5.1-1.1-7.4-1.1c-2.4,0-4.8,0.4-7.4,1.1l-1-1.3c-1.9-2.3-3.6-4.5-5.4-6.7
	c-0.1-0.1-0.2-0.4-0.2-0.5c-0.1-3-0.2-6-0.3-8.9c-0.1-4.2-0.3-8.4-0.5-12.5c-0.1-1.6-0.5-3.2-1.2-4.5c-3.4-6.6-9.5-10.5-16.5-10.5
	c-1.3,0-2.6,0.1-3.9,0.4c-6.3,1.2-10.5,4.5-12.5,10c-1.2,3.3-2.6,6.7-3.9,10c-1,2.4-1.9,4.8-2.9,7.1c-0.4,1.1-1,1.7-2,2.2
	c-1.9,0.8-3.6,1.9-4.9,2.7c-3.7,2.4-7.6,5.7-9,11.3c-0.4,1.7-1.1,3.4-1.8,5.2c-0.4,0.9-0.7,1.8-1.1,2.7c-1.4,3.7-2.8,7.4-4.2,11.2
	c-3.3,8.8-6.7,17.8-9.7,26.8c-3.4,10-2.8,20.2,1.8,30.3c7.2,15.8,22.2,25.6,39.3,25.6c0,0,0,0,0,0c4.1,0,8.2-0.6,12.2-1.7
	c17.9-5,30.7-21.3,31.2-39.6c0.2-5.4,0-10.8-0.2-16.1c-0.1-1.6-0.1-3.3-0.2-4.9c0-0.1,0-0.2,0-0.2c0,0,0.1,0,0.2-0.1
	c1.4-0.5,2.9-0.7,4.4-0.7c1.5,0,3,0.2,4.6,0.6c0,0,0,0,0,0.1c-0.1,5.1-0.1,10.3-0.1,15.4l0,3.7c0,7.2,1.6,14,4.8,20.2
	c7.5,14.4,22.2,23.4,38.5,23.4c4.2,0,8.4-0.6,12.4-1.8c11.6-3.5,21.3-11.8,26.5-22.8C192.1,137,192.5,124.1,187.8,112.8z M55.6,52.1
	c1.4-3.1,2.8-6.4,3.6-9.8c0.9-3.9,4.7-5.3,7.6-5.3c3,0,5.7,1.3,7.2,3.5c0.2,0.3,0.9,1.2,0.9,1.6c0.3,4.5,0.4,9,0.6,13.7l0,1.2
	c-5.4-2.6-11-3.9-17-3.9c-1.1,0-2.3,0-3.5,0.1C55.3,52.9,55.4,52.5,55.6,52.1z M33.6,84c1.5-4,3-8.1,4.6-12.1c0.2-0.6,0.6-1.1,1-1.5
	c5.2-4.8,12-7.5,19.3-7.5c10.1,0,19.5,5.2,24.7,13.6c1.2,1.9,1.7,3.7,1.7,5.7c0.1,6,0.3,11.9,0.5,18.1c0,0.4,0,0.8,0,1.2
	c-6.9-8-15.5-12.8-25.6-14.5c-2.6-0.4-5.1-0.6-7.6-0.6c-7.5,0-14.7,1.9-21.5,5.8C31.2,90.4,33.6,84,33.6,84z M53.6,163
	c-0.3,0-0.7,0-1,0c0,0,0,0,0,0c-18,0-32.7-14-33.5-31.9C18.2,112.5,32,97.1,50.5,96c0.7,0,1.4-0.1,2-0.1c18.4,0,33.5,15,33.5,33.4
	C86.2,147.4,71.7,162.5,53.6,163z M104.9,98.2l0,1.9h-9.8l0-0.4c-0.1-1.9-0.2-3.8-0.2-5.8c-0.1-4.1-0.2-8-0.2-12
	c1.7-0.7,3.4-1,5.1-1c1.7,0,3.4,0.3,5.1,1C104.9,87.3,104.9,92.8,104.9,98.2z M124.2,53.2c0.1-3.1,0.3-6.4,0.3-9.6
	c0-2.3,1.1-3.9,3.7-5.3c1.5-0.9,3-1.3,4.5-1.3c1.8,0,3.6,0.6,5.3,1.8c0.6,0.4,1,0.9,1.1,1.1c1.7,4,3.3,8.2,4.9,12.2l0.5,1.3
	c-1.4-0.1-2.7-0.2-4.1-0.2c-5.7,0-11.1,1.2-16.6,3.8C124.1,55.8,124.1,54.5,124.2,53.2z M114.4,101.4c0-6.7,0-13.6,0.1-20.3
	c0-1.1,0.3-2.2,0.8-3.1c4.8-9.2,14.6-14.9,25.5-14.9c7.5,0,14.5,2.8,19.6,7.9c0.2,0.2,0.5,0.5,0.6,0.7c2.7,6.7,5.3,13.3,8,20.2
	c-6.5-3.6-13.8-5.5-21.2-5.5c-13,0-25.1,5.8-33.4,15.6L114.4,101.4z M172.1,152.6c-6.4,6.7-15.1,10.4-24.6,10.4c0,0,0,0,0,0
	c-16.4-0.1-33.3-12.7-33.2-33.8c0-17.7,14-32.3,31.7-33.2c0.6,0,1.3-0.1,1.9-0.1c17.9,0,32.6,14,33.4,31.9
	C181.7,137.2,178.5,146,172.1,152.6z"/>
</svg>
