<?xml version="1.0" encoding="utf-8"?>
<!-- Generator: Adobe Illustrator 18.1.1, SVG Export Plug-In . SVG Version: 6.00 Build 0)  -->
<!DOCTYPE svg PUBLIC "-//W3C//DTD SVG 1.1//EN" "http://www.w3.org/Graphics/SVG/1.1/DTD/svg11.dtd">
<svg version="1.1" id="Layer_1" xmlns="http://www.w3.org/2000/svg" xmlns:xlink="http://www.w3.org/1999/xlink" x="0px" y="0px"
	 viewBox="0 0 200 200" enable-background="new 0 0 200 200" xml:space="preserve">
<g>
	<path fill="#010101" d="M170,41.5c-0.9,0-2.4,1.7-3.8,3.4c-0.8,1-1.7,2.1-2.8,3.2l-93.1,95.1l-36.1-37c-2.4-2.5-5.7-5.9-8-5.9
		c-0.3,0-1.4,0-3,1.7c-3.8,3.9-2.7,5.9,3.3,12.1l0.1,0.1l37.7,38.6c0.5,0.6,1.1,1.1,1.6,1.6l0.2,0.2c0.3,0.3,0.5,0.6,0.9,0.9
		c1.3,1.3,2.4,2.1,3.4,2.4l0.3,0.1c0.5,0.2,0.9,0.3,1.2,0.3c1,0,2.2-0.7,3.6-2.1c0.5-0.5,0.9-1,1.2-1.6l0.2-0.4l1.7-1.8l94-95
		c0.9-0.9,1.8-1.7,2.7-2.5c1.9-1.7,3.6-3.3,3.7-4.5c0-0.5-0.3-2.1-3.3-5.2C172.1,41.8,170.5,41.5,170,41.5z"/>
</g>
</svg>
