<?xml version="1.0" encoding="utf-8"?>
<!-- Generated by IcoMoon.io -->
<!DOCTYPE svg PUBLIC "-//W3C//DTD SVG 1.1//EN" "http://www.w3.org/Graphics/SVG/1.1/DTD/svg11.dtd">
<svg version="1.1" xmlns="http://www.w3.org/2000/svg" xmlns:xlink="http://www.w3.org/1999/xlink" width="32" height="32" viewBox="0 0 32 32">
<path d="M24.784 8.752c-0.336-0.352-0.624-0.528-0.832-0.528-0.224 0-0.4 0.208-0.624 0.48-0.096 0.112-0.192 0.24-0.304 0.352l-10.544 10.752-3.968-4.064c-0.4-0.4-0.752-0.752-1.104-0.752-0.176 0-0.336 0.096-0.528 0.272-0.624 0.64-0.272 1.056 0.384 1.728l4.352 4.448c0.064 0.064 0.128 0.128 0.176 0.192l0.016 0.016c0.032 0.032 0.064 0.080 0.112 0.128 0.176 0.176 0.336 0.288 0.48 0.336l0.032 0.016c0.080 0.032 0.16 0.048 0.224 0.048 0.192 0 0.384-0.096 0.576-0.304 0.064-0.080 0.128-0.144 0.176-0.224l0.032-0.048 10.992-11.104c0.096-0.096 0.208-0.192 0.304-0.288 0.272-0.24 0.496-0.448 0.496-0.688 0-0.192-0.144-0.448-0.448-0.768z" fill="#000000"></path>
<path d="M26.304 1.776h-20.608c-2.16 0-3.92 1.76-3.92 3.92v20.608c0 2.16 1.76 3.92 3.92 3.92h20.976c2.16 0 3.552-1.76 3.552-3.92v-20.608c0-2.16-1.76-3.92-3.92-3.92zM28.448 26.272c0 1.456-0.864 2.176-2.32 2.176h-20.32c-1.456 0-2.256-0.72-2.256-2.176v-20.4c0-1.456 0.8-2.32 2.256-2.32h20.32c1.456 0 2.32 0.864 2.32 2.32v20.4z" fill="#000000"></path>
</svg>
