<?xml version="1.0" encoding="utf-8"?>
<!-- Generator: Adobe Illustrator 18.1.1, SVG Export Plug-In . SVG Version: 6.00 Build 0)  -->
<!DOCTYPE svg PUBLIC "-//W3C//DTD SVG 1.1//EN" "http://www.w3.org/Graphics/SVG/1.1/DTD/svg11.dtd">
<svg version="1.1" id="Layer_1" xmlns="http://www.w3.org/2000/svg" xmlns:xlink="http://www.w3.org/1999/xlink" x="0px" y="0px"
	 viewBox="0 0 16 16" enable-background="new 0 0 16 16" xml:space="preserve">
<path d="M11.5,13.5H4.6l3.5-6L11.5,13.5z M5.7,12.8h4.7L8,8.8L5.7,12.8z"/>
<polygon points="9.2,10.7 8,12.8 6.8,10.7 "/>
<path d="M12.5,15h-9V6.5h9V15z M4.2,14.3h7.7V7.1H4.2V14.3z"/>
<polygon points="3.1,3.7 2.7,3.7 2.9,5.8 0.8,5.8 0.8,6.2 3.3,6.2 "/>
<g>
	<line x1="2.9" y1="5.9" x2="0.3" y2="3.2"/>
	<rect x="-0.3" y="4.3" transform="matrix(0.7071 0.7071 -0.7071 0.7071 3.697 0.2098)" width="3.8" height="0.4"/>
</g>
<polygon points="12.9,3.7 13.3,3.7 13.1,5.8 15.2,5.8 15.2,6.2 12.7,6.2 "/>
<g>
	<line x1="13.1" y1="5.9" x2="15.7" y2="3.2"/>
	<rect x="12.5" y="4.4" transform="matrix(-0.7071 0.7071 -0.7071 -0.7071 27.8288 -2.3676)" width="3.8" height="0.4"/>
</g>
</svg>
