<?xml version="1.0" encoding="utf-8"?>
<!-- Generated by IcoMoon.io -->
<!DOCTYPE svg PUBLIC "-//W3C//DTD SVG 1.1//EN" "http://www.w3.org/Graphics/SVG/1.1/DTD/svg11.dtd">
<svg version="1.1" xmlns="http://www.w3.org/2000/svg" xmlns:xlink="http://www.w3.org/1999/xlink" width="32" height="32" viewBox="0 0 32 32">
<path d="M28.336 17.776h-11.344v1.776h13.232v-1.776z" fill="#000000"></path>
<path d="M14.224 10.672v-1.776h-8.896v5.328h8.896v-1.776h-7.12v-1.776z" fill="#000000"></path>
<path d="M5.328 16h3.552v1.776h-3.552v-1.776z" fill="#000000"></path>
<path d="M10.672 16h3.552v1.776h-3.552v-1.776z" fill="#000000"></path>
<path d="M5.328 19.552h3.552v1.776h-3.552v-1.776z" fill="#000000"></path>
<path d="M10.672 19.552h3.552v1.776h-3.552v-1.776z" fill="#000000"></path>
<path d="M5.328 23.104h3.552v1.776h-3.552v-1.776z" fill="#000000"></path>
<path d="M10.672 23.104h3.552v1.776h-3.552v-1.776z" fill="#000000"></path>
<path d="M16 5.344h-7.12v-3.568h-3.552v3.568h-3.552v23.104h16v-1.776h-14.224v-19.552h12.448v2.832h1.776v-4.608z" fill="#000000"></path>
<path d="M22.352 13.024c0.448 0.448-0.144 1.12-0.544 1.52l-4.112 4.144c-0.4 0.4-1.040 1.024-1.52 0.544-0.528-0.544 0.144-1.12 0.544-1.52l4.112-4.144c0.416-0.4 1.008-1.056 1.52-0.544z" fill="#000000"></path>
<path d="M22.352 24.544c0.448-0.448-0.144-1.12-0.528-1.52l-4.080-4.144c-0.4-0.4-1.040-1.024-1.504-0.544-0.528 0.544 0.144 1.12 0.544 1.52l4.080 4.144c0.4 0.4 0.992 1.056 1.488 0.544z" fill="#000000"></path>
</svg>
