<?xml version="1.0" encoding="utf-8"?>
<!-- Generator: Adobe Illustrator 18.1.1, SVG Export Plug-In . SVG Version: 6.00 Build 0)  -->
<!DOCTYPE svg PUBLIC "-//W3C//DTD SVG 1.1//EN" "http://www.w3.org/Graphics/SVG/1.1/DTD/svg11.dtd">
<svg version="1.1" id="Layer_1" xmlns="http://www.w3.org/2000/svg" xmlns:xlink="http://www.w3.org/1999/xlink" x="0px" y="0px"
	 viewBox="0 0 200 200" enable-background="new 0 0 200 200" xml:space="preserve">
<g>
	<path d="M143.9,143.8l-39.6,0c-3.1,0-6.1,1.2-8.3,3.4c-2.2,2.2-3.4,5.2-3.4,8.3l0,6.3l-9,0l0-6.3c0-6.3-5.4-11.7-11.7-11.7l-39.6,0
		c-6.5,0-11.7,5.3-11.7,11.7l0,6.3l0,9l0,6.3c0,3.1,1.2,6.1,3.4,8.3c2.2,2.2,5.1,3.4,8.3,3.4l39.6,0c6.4,0,11.7-5.3,11.7-11.7l0-6.3
		l9,0l0,6.3c0,3.1,1.2,6.1,3.4,8.3c2.2,2.2,5.1,3.4,8.3,3.4l39.6,0c6.5,0,11.7-5.3,11.7-11.7l0-6.3l0-9l0-6.3
		C155.5,149.2,150.1,143.8,143.9,143.8z M74.5,161.8l-13.5,0c-2.5,0-4.5,2-4.5,4.5c0,1.2,0.5,2.4,1.3,3.2c0.8,0.8,1.9,1.3,3.2,1.3
		l13.5,0l0,6.3c0,1.5-1.2,2.7-2.7,2.7l-39.6,0c-1.4,0-2.7-1.3-2.7-2.7l0-6.3l0-9l0-6.3c0-1.5,1.2-2.7,2.7-2.7l39.6,0
		c0.7,0,1.4,0.3,1.9,0.8c0.5,0.5,0.8,1.2,0.8,1.9L74.5,161.8z M146.5,161.8l0,9l0,6.3c0,1.5-1.2,2.7-2.7,2.7l-39.6,0
		c-1.4,0-2.7-1.3-2.7-2.7l0-6.3l13.5,0c2.5,0,4.5-2,4.5-4.5c0-2.5-2-4.5-4.5-4.5l-13.5,0l0-6.3c0-0.7,0.3-1.4,0.8-1.9
		c0.5-0.5,1.2-0.8,1.9-0.8l39.6,0c0.7,0,1.4,0.3,1.9,0.8c0.5,0.5,0.8,1.2,0.8,1.9L146.5,161.8z"/>
	<path d="M182.3,11.1c-1,0-2.3,0.3-3.8,0.9L15.8,81.2c-5.9,2.5-6.2,7.3-0.8,10.7l46,28.7c0.7,0.5,1.5,1,2.3,1.6h20.3l78.9-80.4
		l-33.5,80.4H141l43.6-104C186.5,13.8,185.4,11.1,182.3,11.1z M73.9,116.5c-2.5-2.2-5-4.1-7.3-5.6L29.3,87.6l125.1-53.2L73.9,116.5z
		"/>
</g>
</svg>
