<?xml version="1.0" encoding="utf-8"?>
<!-- Generator: Adobe Illustrator 18.1.1, SVG Export Plug-In . SVG Version: 6.00 Build 0)  -->
<!DOCTYPE svg PUBLIC "-//W3C//DTD SVG 1.1//EN" "http://www.w3.org/Graphics/SVG/1.1/DTD/svg11.dtd">
<svg version="1.1" id="Layer_1" xmlns="http://www.w3.org/2000/svg" xmlns:xlink="http://www.w3.org/1999/xlink" x="0px" y="0px"
	 viewBox="0 0 200 200" enable-background="new 0 0 200 200" xml:space="preserve">
<g>
	<path fill-rule="evenodd" clip-rule="evenodd" d="M184.9,55.6c-0.8,0-1.9,0.2-3,0.7l-131.7,56c-4.7,2-5,5.9-0.7,8.6l37.2,23.2
		c4.4,2.7,10.2,8.6,12.8,13l22.3,39.1c1.3,2.1,2.8,3.1,4.3,3.1c1.6,0,3.2-1.3,4.3-3.8l56.3-134.3C188.3,57.7,187.4,55.6,184.9,55.6z
		 M97.2,140.8c-2-1.8-4-3.3-5.9-4.5l-30.2-18.8l101.2-43L97.2,140.8z M125.4,184.6l-18-32c-1.1-1.7-2.4-3.6-4-5.5l65.4-66.6
		L125.4,184.6z"/>
	<path fill-rule="evenodd" clip-rule="evenodd" d="M22.2,22.4h55.4l0.1,33.1c0,10.5,9.5,11.2,11.2,11.2h33.3h11l0-10.6l-44.5-45
		H14.2c-1.7,0-3.1,1.4-3.1,3.2v171.4c0,1.8,1.4,3.2,3.1,3.2h74.7v-11.2H22.2V22.4z M122.2,55.4H89l-0.1-33.2L122.2,55.4z"/>
</g>
</svg>
