<?xml version="1.0" encoding="utf-8"?>
<!-- Generated by IcoMoon.io -->
<!DOCTYPE svg PUBLIC "-//W3C//DTD SVG 1.1//EN" "http://www.w3.org/Graphics/SVG/1.1/DTD/svg11.dtd">
<svg version="1.1" xmlns="http://www.w3.org/2000/svg" xmlns:xlink="http://www.w3.org/1999/xlink" width="32" height="32" viewBox="0 0 32 32">
<path d="M29.168 1.776c-0.16 0-0.368 0.048-0.608 0.144l-26.032 11.072c-0.944 0.4-0.992 1.168-0.128 1.712l7.36 4.592c0.864 0.544 2.016 1.696 2.544 2.576l4.416 7.728c0.256 0.416 0.56 0.624 0.848 0.624 0.32 0 0.64-0.256 0.848-0.752l11.136-26.56c0.288-0.704 0.112-1.136-0.384-1.136zM10.656 17.744l-5.968-3.728 20.016-8.512-12.88 13.12c-0.4-0.336-0.8-0.656-1.168-0.88zM17.408 27.296l-3.568-6.336c-0.208-0.352-0.48-0.72-0.8-1.072l12.944-13.184-8.576 20.592z" fill="#000000"></path>
</svg>
