<?xml version="1.0" encoding="utf-8"?>
<!-- Generator: Adobe Illustrator 18.1.1, SVG Export Plug-In . SVG Version: 6.00 Build 0)  -->
<!DOCTYPE svg PUBLIC "-//W3C//DTD SVG 1.1//EN" "http://www.w3.org/Graphics/SVG/1.1/DTD/svg11.dtd">
<svg version="1.1" id="Layer_1" xmlns="http://www.w3.org/2000/svg" xmlns:xlink="http://www.w3.org/1999/xlink" x="0px" y="0px"
	 viewBox="0 0 200 200" enable-background="new 0 0 200 200" xml:space="preserve">
<g>
	<circle cx="95.2" cy="84.1" r="15.6"/>
	<path d="M168.2,84.1c0-40.2-32.7-73-73-73c-40.2,0-73,32.7-73,73c0,38.1,29.4,69.5,66.7,72.7v32.1H100v-32
		C138,154.5,168.2,122.7,168.2,84.1z M95.2,146.7c-32.9,0-59.9-25.5-62.4-57.8h22.7V77.8H33c1.4-14.2,7.6-27,17-36.8l17.7,17.7
		l7.4-7.4L57.7,34.1c8.9-6.7,19.5-11,31.1-12.2v22.6H100V21.8c13.6,1,26,6.4,35.8,14.8l-14.5,14.5l6.9,6.9l14.5-14.5
		c8.1,9.4,13.4,21.3,14.7,34.3h-24.1v11.1h24.2C155.1,121.2,128.1,146.7,95.2,146.7z"/>
</g>
</svg>
