<?xml version="1.0" encoding="utf-8"?>
<!-- Generator: Adobe Illustrator 18.1.1, SVG Export Plug-In . SVG Version: 6.00 Build 0)  -->
<!DOCTYPE svg PUBLIC "-//W3C//DTD SVG 1.1//EN" "http://www.w3.org/Graphics/SVG/1.1/DTD/svg11.dtd">
<svg version="1.1" id="Layer_1" xmlns="http://www.w3.org/2000/svg" xmlns:xlink="http://www.w3.org/1999/xlink" x="0px" y="0px"
	 viewBox="0 0 200 200" enable-background="new 0 0 200 200" xml:space="preserve">
<g>
	<circle cx="95.8" cy="84.7" r="15.8"/>
	<path d="M169.4,84.7c0-40.6-33-73.6-73.6-73.6c-40.6,0-73.6,33-73.6,73.6c0,38.2,29.3,69.7,66.7,73.2v31H100v-30.8
		C138.6,155.9,169.4,123.8,169.4,84.7z M95.8,147.7c-33.4,0-60.7-26-62.9-58.9h22.7V77.8H33.1c1.5-14.1,7.8-26.8,17-36.5L64,55.1
		l7.4-7.4L58,34.2c8.8-6.6,19.4-11,30.9-12.2v22.4H100V21.8c14,0.9,26.7,6.4,36.7,15l-12,12l7,7l12-12c8,9.4,13.3,21.1,14.8,34
		h-25.1v11.1h25.4C156.5,121.7,129.1,147.7,95.8,147.7z"/>
</g>
</svg>
