<?xml version="1.0" encoding="utf-8"?>
<!-- Generator: Adobe Illustrator 18.1.1, SVG Export Plug-In . SVG Version: 6.00 Build 0)  -->
<!DOCTYPE svg PUBLIC "-//W3C//DTD SVG 1.1//EN" "http://www.w3.org/Graphics/SVG/1.1/DTD/svg11.dtd">
<svg version="1.1" id="Layer_1" xmlns="http://www.w3.org/2000/svg" xmlns:xlink="http://www.w3.org/1999/xlink" x="0px" y="0px"
	 viewBox="0 0 200 200" enable-background="new 0 0 200 200" xml:space="preserve">
<g>
	<path d="M50,11.2c-21.4,0-38.8,17.4-38.8,38.8c0,21.4,17.4,38.8,38.8,38.8c21.4,0,38.8-17.4,38.8-38.8C88.9,28.7,71.5,11.2,50,11.2
		z M50,77.9c-15.3,0-27.8-12.5-27.8-27.8c0-15.3,12.5-27.8,27.8-27.8c15.3,0,27.8,12.5,27.8,27.8C77.9,65.4,65.4,77.9,50,77.9z"/>
	<polygon points="55.5,167.2 55.5,100 44.4,100 44.4,167.9 26.1,149.5 18.2,157.4 41.8,180.9 49.6,188.8 57.5,180.9 81.1,157.4 
		73.2,149.5 	"/>
	<path d="M150,111c-21.4,0-38.8,17.4-38.8,38.8c0,21.4,17.4,38.8,38.8,38.8c21.4,0,38.8-17.4,38.8-38.8
		C188.9,128.4,171.5,111,150,111z M150,177.7c-15.3,0-27.8-12.5-27.8-27.8c0-15.3,12.5-27.8,27.8-27.8c15.3,0,27.8,12.5,27.8,27.8
		C177.9,165.2,165.4,177.7,150,177.7z"/>
	<polygon points="144.4,32 144.4,99.9 155.5,99.9 155.5,32.7 173.2,50.4 181.1,42.6 157.5,19 157.5,19 149.6,11.1 141.8,19 
		118.2,42.6 126.1,50.4 	"/>
</g>
</svg>
