<?xml version="1.0" encoding="utf-8"?>
<!-- Generator: Adobe Illustrator 18.1.1, SVG Export Plug-In . SVG Version: 6.00 Build 0)  -->
<!DOCTYPE svg PUBLIC "-//W3C//DTD SVG 1.1//EN" "http://www.w3.org/Graphics/SVG/1.1/DTD/svg11.dtd">
<svg version="1.1" id="Layer_1" xmlns="http://www.w3.org/2000/svg" xmlns:xlink="http://www.w3.org/1999/xlink" x="0px" y="0px"
	 viewBox="0 0 200 200" enable-background="new 0 0 200 200" xml:space="preserve">
<g>
	<path d="M177.2,120.2l-16.6-9.6c0.6-3.5,0.9-6.9,0.9-10.7c0-0.6,0-1.2,0-1.8c-0.2-2.6-0.3-5.1-0.6-7.7l16.4-9.3
		c4.7-2.9,5.6-6.5,2.9-11.2l-13.6-23.5c-1.7-3-3.8-4.6-6.4-4.6c-1.5,0-3.1,0.5-4.8,1.6l-16.1,9.3c-5.6-4.7-11.6-8.3-18.1-10.6V22.4
		c0-5.4-2.7-8.1-8.1-8.1H86.8c-5.4,0-8.1,2.7-8.1,8.1v19.9c-4.1,1.5-8,3.5-11.7,5.9c-1.8,1.2-3.6,2.6-5.4,3.9l-17-9.8
		c-1.7-1-3.3-1.5-4.7-1.5c-2.5,0-4.7,1.5-6.3,4.5L19.7,68.8c-1.4,2.6-1.8,4.7-1.1,6.6c0.5,1.7,1.8,3.2,4.1,4.5l16.6,9.5
		c-0.6,3.5-0.9,6.9-0.9,10.7c0,0.6,0,1.2,0,1.8c0.2,2.6,0.3,5.1,0.8,7.7l-16.4,9.5c-4.4,2.6-5.6,5.9-3.5,10.2
		c0.1,0.2,0.3,0.5,0.5,0.9l13.6,23.5c1.7,2.9,3.8,4.4,6.3,4.4c1.5,0,3.1-0.5,4.8-1.5l16.1-9.2c5.6,4.7,11.6,8.1,18.1,10.6v19.6
		c0,5.4,2.7,8.1,8.1,8.1h26.4c5.4,0,8.1-2.7,8.1-8.1v-19.9c4.1-1.5,8-3.5,11.8-5.7c1.8-1.4,3.6-2.7,5.4-4.1l17,9.8
		c1.7,1,3.3,1.5,4.8,1.5c2.5,0,4.6-1.4,6.4-4.4l13.6-23.5c0.5-0.7,0.8-1.4,0.9-2c0.6-1.8,0.8-3.5,0.3-4.8
		C180.8,122.9,179.5,121.4,177.2,120.2z M158.7,147.2l-14.8-8.5c-1.7-1-3.5-1.4-5.3-1.4c-2.3,0-4.5,0.7-6.4,2.1l-5,3.7
		c-3.2,1.9-6.4,3.5-9.5,4.6c-4.2,1.6-7,5.6-7,10.1l0,17.3l-21.2,0v-17c0-4.5-2.8-8.5-7-10.1c-5.5-2-10.4-4.9-14.9-8.7
		c-2-1.7-4.4-2.5-6.9-2.5c-1.8,0-3.7,0.5-5.3,1.4l-14,8l-11-19l14.2-8.2c3.9-2.3,6-6.7,5.2-11.1c-0.3-1.8-0.4-3.8-0.6-6.2v-1.5
		c0-3.1,0.2-5.9,0.7-8.9c0.8-4.4-1.3-8.9-5.2-11.1l-14.3-8.2l11.1-19l14.7,8.5c1.7,1,3.5,1.4,5.3,1.4c2.3,0,4.5-0.7,6.4-2.2
		c1.6-1.2,3.3-2.5,4.8-3.5c3.1-2,6.4-3.6,9.7-4.9c4.2-1.6,7-5.6,7-10.1l0-17.3h21.2v17.2c0,4.6,2.9,8.6,7.2,10.1
		c5,1.7,10,4.7,14.7,8.6c2,1.7,4.4,2.5,6.9,2.5c1.8,0,3.7-0.5,5.4-1.4l13.9-8l11,19.2l-14,8c-3.7,2.1-5.9,6.3-5.4,10.6
		c0.3,2.1,0.4,4.3,0.5,6.8v1.5c0,3.1-0.2,5.9-0.7,8.9c-0.8,4.4,1.3,8.8,5.2,11.1l14.4,8.4L158.7,147.2z"/>
	<path d="M100.4,71.1c-7.8,0-14.5,2.7-20.1,8.3C74.7,84.9,72,91.7,72,99.6c0,7.8,2.7,14.5,8.3,20c5.6,5.6,12.2,8.4,20.1,8.4
		c7.8,0,14.5-2.9,20-8.4c5.6-5.6,8.4-12.2,8.4-20c0-7.8-2.9-14.6-8.4-20.2C114.8,73.8,108.2,71.1,100.4,71.1z M112.8,112
		c-3.6,3.6-7.6,5.3-12.5,5.3c-4.9,0-8.9-1.7-12.5-5.3c-3.6-3.6-5.2-7.4-5.2-12.5c0-5.1,1.6-9.1,5.1-12.6c3.6-3.6,7.4-5.2,12.5-5.2
		c5,0,8.9,1.6,12.5,5.2c3.6,3.6,5.3,7.6,5.3,12.6C118.1,104.4,116.4,108.4,112.8,112z"/>
</g>
</svg>
