<?xml version="1.0" encoding="utf-8"?>
<!-- Generator: Adobe Illustrator 18.1.1, SVG Export Plug-In . SVG Version: 6.00 Build 0)  -->
<!DOCTYPE svg PUBLIC "-//W3C//DTD SVG 1.1//EN" "http://www.w3.org/Graphics/SVG/1.1/DTD/svg11.dtd">
<svg version="1.1" id="Layer_1" xmlns="http://www.w3.org/2000/svg" xmlns:xlink="http://www.w3.org/1999/xlink" x="0px" y="0px"
	 viewBox="0 0 200 200" enable-background="new 0 0 200 200" xml:space="preserve">
<path d="M146.1,145.1c-3.8,0-7.5,1-10.8,2.9l-35.2-27.9c3.9-6,6-12.9,6-20.1c0-5.5-1.2-10.7-3.5-15.6l35-31.3
	c2.7,1.2,5.6,1.8,8.5,1.8c11.8,0,21.5-9.6,21.5-21.5s-9.6-21.5-21.5-21.5c-11.8,0-21.5,9.6-21.5,21.5c0,3.7,0.9,7.3,2.7,10.5
	L94.5,73.2c-6.9-6.5-15.8-10.1-25.3-10.1c-20.3,0-36.9,16.5-36.9,36.9c0,20.3,16.5,36.9,36.9,36.9c7.7,0,15-2.3,21.3-6.8l35.8,28.3
	c-1.1,2.6-1.6,5.4-1.6,8.2c0,11.8,9.6,21.5,21.5,21.5c11.8,0,21.5-9.6,21.5-21.5C167.6,154.8,158,145.1,146.1,145.1z M146.1,175.9
	c-5.1,0-9.3-4.2-9.3-9.3s4.2-9.3,9.3-9.3s9.3,4.2,9.3,9.3S151.2,175.9,146.1,175.9z M69.3,124.6c-13.6,0-24.6-11.1-24.6-24.6
	s11.1-24.6,24.6-24.6S93.9,86.4,93.9,100S82.8,124.6,69.3,124.6z M146.1,24.1c5.1,0,9.3,4.2,9.3,9.3s-4.2,9.3-9.3,9.3
	s-9.3-4.2-9.3-9.3S141,24.1,146.1,24.1z"/>
</svg>
