<?xml version="1.0" encoding="utf-8"?>
<!-- Generator: Adobe Illustrator 18.1.1, SVG Export Plug-In . SVG Version: 6.00 Build 0)  -->
<!DOCTYPE svg PUBLIC "-//W3C//DTD SVG 1.1//EN" "http://www.w3.org/Graphics/SVG/1.1/DTD/svg11.dtd">
<svg version="1.1" id="Layer_1" xmlns="http://www.w3.org/2000/svg" xmlns:xlink="http://www.w3.org/1999/xlink" x="0px" y="0px"
	 viewBox="0 0 200 200" enable-background="new 0 0 200 200" xml:space="preserve">
<g>
	<path d="M140.8,40.8c-4.5-2.4-10.1-0.9-12.6,3.4c-2.5,4.2-0.9,9.6,3.6,12c20.6,10.9,33.3,31.4,33.3,53.7
		c0,33.9-29.2,61.5-65.1,61.5c-35.9,0-65.1-27.6-65.1-61.5c0-21.7,12.3-42.1,32.2-53.1c4.4-2.5,5.9-7.8,3.3-12
		c-2.6-4.2-8.3-5.6-12.7-3.1c-25.5,14.1-41.4,40.3-41.4,68.2c0,43.6,37.5,79.1,83.7,79.1s83.7-35.5,83.7-79.1
		C183.7,81.2,167.2,54.8,140.8,40.8z"/>
	<path d="M100,11.1c-6,0-10.9,4-10.9,8.9v88.9c0,4.9,4.9,8.9,10.9,8.9c6,0,10.9-4,10.9-8.9V20C110.9,15.1,106,11.1,100,11.1z"/>
</g>
</svg>
