<?xml version="1.0" encoding="utf-8"?>
<!-- Generator: Adobe Illustrator 18.1.1, SVG Export Plug-In . SVG Version: 6.00 Build 0)  -->
<!DOCTYPE svg PUBLIC "-//W3C//DTD SVG 1.1//EN" "http://www.w3.org/Graphics/SVG/1.1/DTD/svg11.dtd">
<svg version="1.1" id="Layer_1" xmlns="http://www.w3.org/2000/svg" xmlns:xlink="http://www.w3.org/1999/xlink" x="0px" y="0px"
	 viewBox="0 0 200 200" enable-background="new 0 0 200 200" xml:space="preserve">
<path d="M188.9,66.7V55.6h-11.1h-11.1h-22.2V33.3V22.2V11.1h-11.1v11.1H66.7V11.1H55.5v11.1v11.1v22.2H33.3H22.2H11.1v11.1h11.1
	v66.7H11.1v11.1h11.1h11.1h22.2v22.2v11.1v11.1h11.1v-11.1h66.7v11.1h11.1v-11.1v-11.1v-22.2h22.2h11.1h11.1v-11.1h-11.1V66.7H188.9
	z M66.7,33.3h66.7v22.2H66.7V33.3z M133.3,66.7v66.7H66.7V66.7H133.3z M33.3,133.3V66.7h22.2v66.7H33.3z M133.3,166.7H66.7v-22.2
	h66.7V166.7z M166.7,133.3h-22.2V66.7h22.2V133.3z"/>
</svg>
