<?xml version="1.0" encoding="utf-8"?>
<!-- Generator: Adobe Illustrator 18.1.1, SVG Export Plug-In . SVG Version: 6.00 Build 0)  -->
<!DOCTYPE svg PUBLIC "-//W3C//DTD SVG 1.1//EN" "http://www.w3.org/Graphics/SVG/1.1/DTD/svg11.dtd">
<svg version="1.1" id="Layer_1" xmlns="http://www.w3.org/2000/svg" xmlns:xlink="http://www.w3.org/1999/xlink" x="0px" y="0px"
	 viewBox="0 0 200 200" enable-background="new 0 0 200 200" xml:space="preserve">
<g>
	<polygon points="177.8,111.1 177.8,155.6 155.5,155.6 155.5,133.3 144.4,133.3 144.4,155.6 122.2,155.6 122.2,133.3 111.1,133.3 
		111.1,155.6 88.9,155.6 88.9,133.3 77.8,133.3 77.8,155.6 55.5,155.6 55.5,133.3 44.4,133.3 44.4,155.6 22.2,155.6 22.2,111.1 
		11.1,111.1 11.1,155.6 11.1,177.8 188.9,177.8 188.9,155.6 188.9,111.1 	"/>
	<path d="M97.8,36.4c23.8,0,46,11.3,60.1,30.3h-35.7v11.1h55.5V22.2h-11.1v33.8c-16.4-19.9-42.7-31.5-68.8-31.5
		c-32.7,0-62.2,18.1-77.2,47.1l10.5,5.4C44.1,52,69.6,36.4,97.8,36.4z M164.7,66.5v0.1h-0.2L164.7,66.5z"/>
</g>
</svg>
