<?xml version="1.0" encoding="utf-8"?>
<!-- Generated by IcoMoon.io -->
<!DOCTYPE svg PUBLIC "-//W3C//DTD SVG 1.1//EN" "http://www.w3.org/Graphics/SVG/1.1/DTD/svg11.dtd">
<svg version="1.1" xmlns="http://www.w3.org/2000/svg" xmlns:xlink="http://www.w3.org/1999/xlink" width="32" height="32" viewBox="0 0 32 32">
<path d="M3.552 3.552h5.328v-1.776h-7.104v7.12h1.776z" fill="#000000"></path>
<path d="M3.552 23.12h-1.776v7.104h7.104v-1.776h-5.328z" fill="#000000"></path>
<path d="M28.448 1.776h-5.344v1.776h5.344v5.344h1.776v-7.12z" fill="#000000"></path>
<path d="M28.448 28.448h-5.344v1.776h7.12v-7.104h-1.776z" fill="#000000"></path>
<path d="M26.656 8.896v-1.776h-1.776v-1.792h-1.776v1.776h-3.552v-1.776h-1.776v1.776h-3.552v-1.776h-1.776v1.776h-3.568v-1.776h-1.776v1.776h-1.776v1.776h1.776v3.552h-1.776v1.776h1.776v3.552h-1.776v1.776h1.776v3.552h-1.776v1.776h1.776v1.776h1.776v-1.776h3.552v1.776h1.776v-1.776h3.552v1.776h1.776v-1.776h3.552v1.776h1.776v-1.776h1.776v-1.776h-1.776v-3.552h1.776v-1.776h-1.776v-3.536h1.776v-1.776h-1.776v-3.552h1.792zM17.776 8.896v3.552h-3.552v-3.552h3.552zM17.776 14.224v3.552h-3.552v-3.552h3.552zM8.88 8.896h3.552v3.552h-3.552v-3.552zM8.88 14.224h3.552v3.552h-3.552v-3.552zM8.88 23.12v-3.552h3.552v3.552h-3.552zM14.224 23.12v-3.552h3.552v3.552h-3.552zM23.104 23.12h-3.552v-3.552h3.552v3.552zM23.104 17.776h-3.552v-3.552h3.552v3.552zM23.104 12.448h-3.552v-3.552h3.552v3.552z" fill="#000000"></path>
</svg>
