<?xml version="1.0" encoding="utf-8"?>
<!-- Generator: Adobe Illustrator 18.1.1, SVG Export Plug-In . SVG Version: 6.00 Build 0)  -->
<!DOCTYPE svg PUBLIC "-//W3C//DTD SVG 1.1//EN" "http://www.w3.org/Graphics/SVG/1.1/DTD/svg11.dtd">
<svg version="1.1" id="Layer_1" xmlns="http://www.w3.org/2000/svg" xmlns:xlink="http://www.w3.org/1999/xlink" x="0px" y="0px"
	 viewBox="0 0 200 200" enable-background="new 0 0 200 200" xml:space="preserve">
<g>
	<polygon points="188.9,91.2 188.9,91.2 155.5,58.8 147.7,66.7 170.9,88.9 29.1,88.9 52.3,66.7 44.4,58.8 11.1,91.2 11.1,91.2 
		11.1,98.6 11.1,98.6 11.1,98.7 44.4,130.1 52.3,122.2 28.2,100 171.8,100 147.7,122.2 155.5,130.1 188.9,98.7 188.8,98.6 
		188.9,98.6 	"/>
	<polygon points="88.9,73.9 88.9,22.2 111.1,22.2 111.1,73.9 122.2,73.9 122.2,22.2 122.2,11.1 111.1,11.1 88.9,11.1 77.8,11.1 
		77.8,22.2 77.8,73.9 	"/>
	<polygon points="111.1,115 111.1,166.7 88.9,166.7 88.9,115 77.8,115 77.8,166.7 77.8,177.8 88.9,177.8 111.1,177.8 122.2,177.8 
		122.2,166.7 122.2,115 	"/>
</g>
</svg>
