<?xml version="1.0" encoding="utf-8"?>
<!-- Generator: Adobe Illustrator 19.0.0, SVG Export Plug-In . SVG Version: 6.00 Build 0)  -->
<!DOCTYPE svg PUBLIC "-//W3C//DTD SVG 1.1//EN" "http://www.w3.org/Graphics/SVG/1.1/DTD/svg11.dtd">
<svg version="1.1" id="Layer_1" xmlns="http://www.w3.org/2000/svg" xmlns:xlink="http://www.w3.org/1999/xlink" x="0px" y="0px"
	 viewBox="0 0 19.8 19.3" style="enable-background:new 0 0 19.8 19.3;" xml:space="preserve">
<path id="XMLID_34_" d="M5.5,6.9H4.8V6.3h5.5L9.8,6.9H6.1H5.5z M5.5,10.6H4.8V10h2.4l-0.6,0.6H6.1H5.5z M14.1,13.7h0.6v0.6H4.8v-0.6
	h8.6H14.1z M11.1,7.1l0.4-0.4l0.4-0.4l1.3-1.3l0.4-0.4l0.4,0.4l-0.4,0.4l-0.8,0.9l-0.4,0.4l-0.4,0.4l-0.4,0.4L11.1,8l-0.4,0.4
	L9.8,9.3l-0.9,0.9l-0.9,0.9l-0.4,0.4L7.2,12l-0.4-0.4l0.4-0.4l1.3-1.3l0.4-0.4l0.4-0.4L10.2,8l0.4-0.4L11.1,7.1z M14.1,10h0.6v0.6
	H9.8l0.6-0.6h3.1H14.1z M14.7,6.3v0.6h-1.2L14,6.3h0H14.7z"/>
<g id="XMLID_2_">
	<polygon id="XMLID_11_" points="18.3,17.9 16.3,17.9 16.3,16.9 17.3,16.9 17.3,15.9 18.3,15.9 	"/>
	<path id="XMLID_10_" d="M14.1,17.9h-3.3v-1h3.3V17.9z M8.7,17.9H5.4v-1h3.3V17.9z"/>
	<polygon id="XMLID_9_" points="3.2,17.9 1.2,17.9 1.2,15.9 2.2,15.9 2.2,16.9 3.2,16.9 	"/>
	<path id="XMLID_8_" d="M2.2,13.8h-1v-3.3h1V13.8z M2.2,8.3h-1V5h1V8.3z"/>
	<polygon id="XMLID_7_" points="2.2,2.8 1.2,2.8 1.2,0.8 3.2,0.8 3.2,1.8 2.2,1.8 	"/>
	<path id="XMLID_6_" d="M14.1,1.8h-3.3v-1h3.3V1.8z M8.7,1.8H5.4v-1h3.3V1.8z"/>
	<polygon id="XMLID_5_" points="18.3,2.8 17.3,2.8 17.3,1.8 16.3,1.8 16.3,0.8 18.3,0.8 	"/>
	<path id="XMLID_13_" d="M18.3,13.8h-1v-3.3h1V13.8z M18.3,8.3h-1V5h1V8.3z"/>
</g>
</svg>
