<?xml version="1.0" encoding="utf-8"?>
<!-- Generator: Adobe Illustrator 18.1.1, SVG Export Plug-In . SVG Version: 6.00 Build 0)  -->
<!DOCTYPE svg PUBLIC "-//W3C//DTD SVG 1.1//EN" "http://www.w3.org/Graphics/SVG/1.1/DTD/svg11.dtd">
<svg version="1.1" id="Layer_1" xmlns="http://www.w3.org/2000/svg" xmlns:xlink="http://www.w3.org/1999/xlink" x="0px" y="0px"
	 viewBox="0 0 200 200" enable-background="new 0 0 200 200" xml:space="preserve">
<g id="Ctfxs5_1_">
	<g>
		<path d="M181.9,80.3c0,1,0,2,0,3c-2.2,2.6-4.2,5.7-6.8,7.9c-10.5,8.9-21.1,17.7-31.8,26.1c-3.6,2.8-4.7,5.3-3.1,10.4
			c4.2,14,7.7,28.2,11.9,42.2c2,6.5,1.4,11.2-4,14.6c-1.3,0-2.6,0-3.9,0c-13.4-10-26.7-20.2-40.3-29.9c-1.9-1.3-5.6-1.7-7.3-0.5
			c-13.7,9.8-27.2,20.2-40.8,30.3c-1.7,0-3.5,0-5.2,0c-4.4-4.3-4.7-9.1-2.8-15.3c3.7-11.7,6.7-23.8,10-35.6
			c3.4-12.2,3.3-12.1-5.4-19.4c-11.5-9.7-34.3-23.2-34.3-29.2c0-6,0-0.3,0-6c0-5.7,7.2-4.3,10.9-4.5c14-0.9,28.1-1.2,42.1-1.3
			c3.6,0,5.3-1.4,6.5-5.3c4.5-14.4,9.4-28.6,14-42.9c1.5-4.6,2.9-9.3,8-9.3c5.2-0.1,6.6,4.6,8.1,9.2c5.2,15.9,10.5,31.8,16.3,49.5
			c15.4,0,31.1,0.2,46.9-0.1C176,73.9,179.5,75.6,181.9,80.3z"/>
	</g>
</g>
</svg>
