<?xml version="1.0" encoding="utf-8"?>
<!-- Generator: Adobe Illustrator 18.1.1, SVG Export Plug-In . SVG Version: 6.00 Build 0)  -->
<!DOCTYPE svg PUBLIC "-//W3C//DTD SVG 1.1//EN" "http://www.w3.org/Graphics/SVG/1.1/DTD/svg11.dtd">
<svg version="1.1" id="Layer_1" xmlns="http://www.w3.org/2000/svg" xmlns:xlink="http://www.w3.org/1999/xlink" x="0px" y="0px"
	 viewBox="0 0 200 200" enable-background="new 0 0 200 200" xml:space="preserve">
<g>
	<rect x="55.8" y="89.1" width="89" height="22.3"/>
	<rect x="55.8" y="122.5" width="89" height="22.3"/>
	<rect x="55.8" y="55.8" width="89" height="22.3"/>
	<path d="M167.1,11.3H33.6c-12.3,0-22.3,10-22.3,22.3V167c0,12.3,10,22.3,22.3,22.3h133.5c12.3,0,22.3-10,22.3-22.3V33.5
		C189.3,21.2,179.4,11.3,167.1,11.3z M167.1,157.5c0,5.3-4.3,9.5-9.5,9.5H43.1c-5.3,0-9.5-4.3-9.5-9.5V43.1c0-5.3,4.3-9.5,9.5-9.5
		h114.4c5.3,0,9.5,4.3,9.5,9.5V157.5z"/>
</g>
</svg>
