<?xml version="1.0" encoding="utf-8"?>
<!-- Generator: Adobe Illustrator 19.1.0, SVG Export Plug-In . SVG Version: 6.00 Build 0)  -->
<!DOCTYPE svg PUBLIC "-//W3C//DTD SVG 1.1//EN" "http://www.w3.org/Graphics/SVG/1.1/DTD/svg11.dtd">
<svg version="1.1" id="Layer_1" xmlns="http://www.w3.org/2000/svg" xmlns:xlink="http://www.w3.org/1999/xlink" x="0px" y="0px"
	 viewBox="89 -89 200 200" style="enable-background:new 89 -89 200 200;" xml:space="preserve">
<g>
	<g>
		<path d="M268.4,97.1c-0.1,0-0.3,0-0.4,0c-2.8-0.1-5.7-0.1-9.4-0.1c-2.2,0-4.4,0-6.6,0c-2.2,0-4.4,0-6.6,0H245
			c-4.9,0-8-2.9-8.2-7.8c-1.7-28.9-11.6-54.6-29.5-76.6c-19-23.3-43.5-38.7-73-45.7c-7.5-1.8-15.5-2.9-23.9-3.3
			c-3.9-0.2-6.9-3.3-7.1-7.3c-0.1-1.9-0.1-3.8-0.1-5.6c0-0.7,0-1.5,0-2.2c0-5.6,0-11.3,0-16.9c0-5.7,3.3-8.8,8.9-8.5
			c21.5,1,42.1,5.8,61.4,14.2c18.6,8.2,35.5,19.3,50,33.2c25.1,24,41.8,53.3,49.7,87.1c1.9,8.4,3.2,17.1,3.8,25.9
			c0,0.1,0.1,0.3,0.1,0.5c0,0.1,0.1,0.3,0.1,0.4v0.3v6.7l-0.1,0.2C275.7,95.3,272.8,97.1,268.4,97.1z M258.6,95c3.7,0,6.7,0,9.4,0.1
			h0.4c3.6,0,5.7-1.3,6.9-4.2v-6.1c0-0.1,0-0.1-0.1-0.2c-0.1-0.3-0.2-0.6-0.2-1c-0.6-8.7-1.9-17.3-3.8-25.6
			c-7.7-33.4-24.3-62.4-49.1-86.1c-14.3-13.7-31-24.8-49.4-32.8C153.7-69.2,133.3-74,112-75c-4.5-0.2-6.8,2-6.8,6.5
			c0,5.6,0,11.3,0,16.9c0,0.8,0,1.5,0,2.3c0,1.8,0,3.7,0.1,5.5c0.1,3,2.3,5.2,5.2,5.4c8.5,0.4,16.6,1.5,24.3,3.4
			c29.9,7.1,54.8,22.7,74.1,46.4c18.2,22.3,28.2,48.5,29.9,77.8c0.2,3.9,2.4,5.9,6.3,5.9h0.4c2.2,0,4.4,0,6.6,0
			C254.2,95.1,256.4,95,258.6,95z"/>
		<path d="M268.4,99.1H268c-2.8-0.1-5.7-0.1-9.4-0.1H245c-6,0-10-3.8-10.2-9.7c-1.7-28.4-11.4-53.8-29.1-75.4
			c-18.8-23-42.9-38.1-71.9-45c-7.3-1.8-15.3-2.9-23.5-3.2c-4.9-0.3-8.8-4.2-9-9.2c-0.1-1.9-0.1-3.9-0.1-5.7v-19.1c0-3.4,1-6.1,3-8
			c1.9-1.8,4.7-2.7,8-2.5c21.6,1,42.5,5.8,62.1,14.4c19.1,8.4,36.1,19.7,50.6,33.6c25.4,24.2,42.3,53.9,50.3,88.1
			c1.9,8.6,3.2,17.4,3.8,26.1c0,0.1,0.1,0.3,0.1,0.5c0.1,0.2,0.1,0.4,0.1,0.7v7.5l-0.3,0.5C277.7,95.5,274.9,99.1,268.4,99.1z
			 M258.6,93c3.8,0,6.7,0,9.5,0.1l0.3,0c3,0,4.1-1,4.9-2.6v-5.3c-0.1-0.3-0.3-0.9-0.3-1.5c-0.6-8.4-1.8-16.9-3.8-25.2
			c-7.6-33-23.9-61.6-48.5-85.1c-14.2-13.6-30.6-24.5-48.8-32.4c-18.9-8.3-39.1-13-60-13.9c-1.7-0.1-2.9,0.2-3.6,0.9
			c-0.7,0.7-1.1,1.9-1.1,3.6v19.2c0,1.8,0,3.6,0.1,5.4c0.1,2,1.4,3.4,3.3,3.5c8.7,0.4,17,1.6,24.6,3.5c30.3,7.2,55.6,23,75.2,47.1
			c18.4,22.6,28.6,49.1,30.3,78.9c0.1,2.8,1.4,4,4.3,4h7c1,0,2.1,0,3.1,0C256.3,93,257.5,93,258.6,93z"/>
	</g>
	<g>
		<path d="M268.4,98.6H268c-2.8-0.1-5.7-0.1-9.4-0.1H245c-5.8,0-9.5-3.5-9.7-9.2c-1.7-28.5-11.5-54-29.2-75.7
			C187.3-9.5,163-24.7,134-31.6c-7.4-1.8-15.3-2.9-23.6-3.3c-4.7-0.2-8.3-3.9-8.5-8.7c-0.1-1.9-0.1-3.8-0.1-5.7v-19.1
			c0-3.2,1-5.8,2.8-7.6c1.8-1.7,4.5-2.6,7.7-2.4c21.5,1,42.4,5.8,61.9,14.3c19,8.4,36,19.7,50.4,33.5c25.3,24.2,42.2,53.7,50.1,87.8
			c1.9,8.6,3.2,17.4,3.8,26c0,0.1,0.1,0.3,0.1,0.5c0.1,0.2,0.1,0.4,0.1,0.6v7.4l-0.2,0.4C276.8,96.4,273.5,98.6,268.4,98.6z
			 M258.6,93.5c3.8,0,6.7,0,9.5,0.1l0.3,0c2.9,0,4.4-0.8,5.4-3l0-5.5c-0.1-0.3-0.3-0.8-0.3-1.4c-0.6-8.4-1.9-17-3.8-25.3
			c-7.6-33.1-24-61.8-48.7-85.4c-14.2-13.6-30.7-24.6-49-32.5c-19-8.3-39.2-13-60.2-14c-1.8-0.1-3.2,0.3-4,1.1
			c-0.8,0.8-1.2,2.1-1.2,3.9v19.2c0,1.8,0,3.7,0.1,5.4c0.1,2.2,1.6,3.8,3.8,4c8.7,0.4,17,1.6,24.6,3.4c30.2,7.2,55.4,23,74.9,46.9
			c18.3,22.5,28.5,48.9,30.2,78.7c0.2,3.1,1.7,4.5,4.8,4.5h7c1,0,2.1,0,3.1,0C256.4,93.5,257.5,93.5,258.6,93.5z"/>
		<path d="M268.4,100.6H268c-2.9-0.1-5.7-0.1-9.4-0.1H245c-6.8,0-11.4-4.4-11.7-11.2c-1.7-28.1-11.3-53.1-28.7-74.5
			C186-7.9,162.1-22.9,133.5-29.7c-7.3-1.7-15.1-2.8-23.3-3.2c-5.8-0.3-10.1-4.8-10.4-10.6c-0.1-2-0.1-3.9-0.1-5.8v-19.1
			c0-3.8,1.2-6.9,3.4-9c2.2-2.1,5.4-3.1,9.1-2.9c21.8,1,42.9,5.9,62.6,14.5c19.3,8.5,36.4,19.9,51,33.9
			c25.6,24.5,42.6,54.3,50.7,88.8c2,8.6,3.3,17.4,3.9,26.2c0,0.1,0.1,0.2,0.1,0.4c0.1,0.3,0.2,0.6,0.2,1.1v7.8l-0.4,0.8
			C278.4,98,274.2,100.6,268.4,100.6z M111.4-76.4c-2.3,0-4.2,0.6-5.5,1.9c-1.4,1.4-2.2,3.5-2.2,6.1v19.1c0,1.8,0,3.7,0.1,5.6
			c0.2,3.8,3,6.6,6.6,6.8c8.4,0.4,16.5,1.5,24,3.3c29.5,7,54.2,22.4,73.3,45.9c17.9,22.1,27.9,47.9,29.6,76.9c0.2,4.7,3,7.4,7.7,7.4
			h13.6c3.7,0,6.6,0,9.5,0.1l0.3,0c4.2,0,6.9-1.7,8.2-5.1l0.1-0.2v-6.9l-0.1-0.4c0-0.1,0-0.1,0-0.2l-0.1-0.4
			c-0.6-8.6-1.9-17.2-3.8-25.7c-7.9-33.7-24.6-62.9-49.6-86.8c-14.3-13.7-31-24.8-49.9-33.1c-19.3-8.4-39.9-13.2-61.2-14.2
			C111.9-76.4,111.6-76.4,111.4-76.4z M268.1,95.6c-2.8-0.1-5.7-0.1-9.5-0.1c-1.1,0-2.2,0-3.3,0c-1.1,0-2.2,0-3.2,0h-7
			c-4.2,0-6.6-2.3-6.8-6.4c-1.7-29.3-11.7-55.4-29.8-77.5c-19.2-23.6-44.1-39.2-73.8-46.2c-7.5-1.8-15.6-3-24.2-3.4
			c-3.2-0.2-5.6-2.7-5.7-5.9c-0.1-1.8-0.1-3.7-0.1-5.5v-19.2c0-2.4,0.6-4.2,1.9-5.4c1.2-1.2,3.1-1.7,5.5-1.6
			c21.2,1,41.7,5.8,60.9,14.1c18.5,8,35.1,19.1,49.5,32.9c25,23.9,41.5,52.9,49.2,86.3c1.9,8.5,3.2,17.1,3.8,25.6l0,0.1
			c0,0.3,0.1,0.5,0.2,0.8l0.1,0.3l0,6.3l-0.2,0.4c-1.3,2.9-3.5,4.2-7.2,4.2L268.1,95.6z M258.6,91.5c3.8,0,6.8,0,9.5,0.1l0.3,0
			c2.1,0,2.9-0.5,3.4-1.5l0-4.7c-0.1-0.4-0.3-1-0.3-1.7c-0.6-8.3-1.8-16.7-3.7-25c-7.5-32.7-23.7-61-48.1-84.4
			c-14.1-13.5-30.3-24.3-48.4-32.1c-18.8-8.2-38.8-12.8-59.5-13.8c-1.2-0.1-2.1,0.1-2.5,0.5c-0.4,0.4-0.6,1.3-0.6,2.5v19.2
			c0,1.8,0,3.6,0.1,5.3c0,1.2,0.8,2,1.9,2.1c8.8,0.4,17.2,1.6,24.9,3.5c30.6,7.3,56.2,23.3,76,47.6C230.2,32,240.5,58.8,242.3,89
			c0.1,2,0.8,2.6,2.8,2.6h7c1,0,2,0,3.1,0C256.3,91.5,257.5,91.5,258.6,91.5z"/>
	</g>
</g>
<g>
	<g>
		<path d="M122.2,99c-10.6,0-19.1-7-21.2-17.4c0-0.1-0.1-0.2-0.1-0.3s-0.1-0.2-0.1-0.3l-0.1-0.2v-6.5l0.1-0.2
			c0.2-0.5,0.3-1.1,0.5-1.6c0.4-1.2,0.7-2.4,1.2-3.6c3.3-7.8,11-12.8,19.6-12.8c1.7,0,3.5,0.2,5.2,0.6c10,2.5,16.9,12,16.1,22.3
			c-0.8,10.7-9.3,19.2-19.8,19.9C123.2,99,122.7,99,122.2,99z M102.7,80.4L102.7,80.4c0.1,0.2,0.2,0.5,0.3,0.8
			c2,9.9,10.3,16.4,20.5,15.8c9.4-0.6,17.1-8.3,17.9-18c0.7-9.3-5.5-18-14.6-20.2c-1.5-0.4-3.1-0.6-4.7-0.6
			c-7.8,0-14.8,4.5-17.8,11.5c-0.5,1.1-0.8,2.2-1.2,3.4c-0.2,0.5-0.3,1-0.5,1.5L102.7,80.4L102.7,80.4z"/>
		<path d="M122.2,101c-11.5,0-20.8-7.6-23.1-18.9c0-0.1-0.1-0.2-0.1-0.3c0,0,0-0.1-0.1-0.1l-0.2-0.4v-7.4l0.3-0.5
			c0.1-0.2,0.1-0.3,0.2-0.5c0.1-0.3,0.2-0.7,0.3-1c0.1-0.4,0.2-0.7,0.3-1.1c0.3-0.8,0.5-1.7,0.9-2.6c3.6-8.5,12-14,21.4-14
			c1.9,0,3.8,0.2,5.7,0.7c10.9,2.7,18.5,13.2,17.6,24.4c-0.9,11.6-10.1,20.9-21.5,21.7C123.3,101,122.7,101,122.2,101z M104.6,79.7
			c0.1,0.3,0.2,0.5,0.3,0.8l0.1,0.2c1.8,9,9.2,14.7,18.4,14.2c8.4-0.5,15.3-7.5,16-16.2c0.6-8.4-5-16.1-13.1-18.1
			c-1.4-0.4-2.8-0.5-4.2-0.5c-7,0-13.3,4-16,10.3c-0.3,0.8-0.6,1.5-0.8,2.3c-0.1,0.3-0.2,0.6-0.3,0.9l0,0.1
			c-0.1,0.2-0.1,0.4-0.2,0.6c-0.1,0.2-0.1,0.4-0.2,0.5V79.7z"/>
	</g>
	<g>
		<path d="M122.2,100.5c-11.3,0-20.4-7.4-22.6-18.5c0-0.1-0.1-0.2-0.1-0.3c0,0,0-0.1-0.1-0.2l-0.2-0.4v-7.2l0.2-0.5
			c0.1-0.2,0.1-0.4,0.2-0.6c0.1-0.3,0.2-0.7,0.3-1c0.1-0.3,0.2-0.7,0.3-1.1c0.3-0.8,0.5-1.7,0.9-2.5c3.5-8.3,11.8-13.7,21-13.7
			c1.8,0,3.8,0.2,5.5,0.6c10.7,2.7,18.1,12.9,17.3,23.9c-0.8,11.3-9.9,20.5-21.1,21.3C123.3,100.5,122.7,100.5,122.2,100.5z
			 M104.1,79.9c0.1,0.3,0.2,0.6,0.3,0.9l0.1,0.2c1.9,9.3,9.5,15.2,18.9,14.6c8.7-0.6,15.8-7.7,16.5-16.6c0.6-8.6-5.1-16.6-13.5-18.6
			c-1.4-0.4-2.9-0.6-4.3-0.6c-7.2,0-13.7,4.2-16.4,10.6c-0.3,0.8-0.6,1.5-0.9,2.4c-0.1,0.3-0.2,0.6-0.3,0.9
			c-0.1,0.3-0.2,0.5-0.2,0.7c-0.1,0.2-0.1,0.4-0.2,0.6V79.9z"/>
		<path d="M122.2,102.5c-12.2,0-22-8-24.6-19.9c0-0.1-0.1-0.2-0.1-0.3c0,0,0,0,0,0l-0.3-0.7v-8.1l0.4-0.8c0-0.1,0-0.2,0.1-0.2
			c0.1-0.4,0.2-0.8,0.4-1.2c0.1-0.3,0.2-0.6,0.3-1c0.3-0.8,0.5-1.8,0.9-2.7c3.8-9.1,12.8-15,22.8-15c2,0,4.1,0.2,6,0.7
			c11.6,2.9,19.7,14.1,18.8,26c-0.9,12.3-10.7,22.2-22.8,23.1C123.4,102.5,122.8,102.5,122.2,102.5z M101.2,80.7l0.3,0.9
			c2.1,10.1,10.4,16.9,20.7,16.9c0.5,0,0.9,0,1.2-0.1l0.3,0c10.2-0.7,18.5-9.1,19.2-19.4c0.8-10-6-19.3-15.7-21.8
			c-1.6-0.4-3.4-0.6-5.1-0.6c-8.4,0-15.9,4.9-19.1,12.5c-0.3,0.8-0.6,1.6-0.8,2.3c-0.1,0.4-0.2,0.8-0.3,1.1l0,0.1
			c-0.1,0.2-0.2,0.5-0.2,0.7c-0.1,0.3-0.2,0.6-0.2,0.8l-0.1,0.2V80.7z M122.2,97.5c-9.8,0-17.6-6.4-19.7-16.2l0-0.1
			c-0.1-0.2-0.1-0.4-0.2-0.6l-0.2-0.4v-5.8l0.1-0.3c0.1-0.2,0.1-0.3,0.2-0.5c0.1-0.3,0.2-0.5,0.3-0.8c0.1-0.3,0.2-0.6,0.3-0.8
			c0.3-0.9,0.6-1.7,0.9-2.6c3.1-7.1,10.2-11.8,18.2-11.8c1.7,0,3.3,0.2,4.9,0.6c9.2,2.2,15.7,11.1,14.9,20.7
			c-0.8,9.9-8.7,17.9-18.4,18.5C123.1,97.5,122.6,97.5,122.2,97.5z M106.1,79.5c0.1,0.2,0.1,0.4,0.2,0.6l0.1,0.4
			c1.7,8.3,8.5,13.5,16.9,13c7.7-0.5,14-6.9,14.6-14.8c0.6-7.6-4.6-14.7-11.9-16.5c-1.3-0.3-2.6-0.5-3.9-0.5
			c-6.4,0-12.1,3.7-14.6,9.4c-0.3,0.7-0.5,1.4-0.8,2.2c-0.1,0.3-0.2,0.6-0.3,1l0,0.1c-0.1,0.2-0.1,0.4-0.2,0.5
			c0,0.1-0.1,0.3-0.1,0.4V79.5z"/>
	</g>
</g>
<g>
	<g>
		<path d="M186.2,97.1c-1.7,0-3.5,0-5.2,0c-4.6,0-7.6-2.8-8-7.4c-2.6-30.2-26.3-56-56.1-61.4c-2.4-0.4-4.7-0.7-6.5-0.9
			c-4.1-0.5-6.9-3.4-7-7.2c-0.1-9.6-0.1-18.9,0-27.6c0.1-4.4,3.6-7.5,8.3-7.2c25.8,1.8,48.6,11.5,67.6,28.8
			c19.1,17.5,30.9,39.6,34.9,65.6c0.5,3,0.7,6.1,0.9,9.1c0.2,2.2-0.5,4.3-1.9,5.9c-1.4,1.5-3.4,2.4-5.7,2.4c-1.7,0-3.4,0-5.2,0h-7.2
			L186.2,97.1z M111-12.7c-3.3,0-5.6,2.2-5.7,5.3c-0.1,8.8-0.1,18.1,0,27.6c0,2.8,2.1,4.9,5.2,5.2c1.8,0.2,4.2,0.5,6.6,0.9
			c30.8,5.5,55.1,32.1,57.8,63.2c0.3,3.6,2.4,5.5,6.1,5.6c1.7,0,3.5,0,5.2,0h7.9h8.1c1.7,0,3.4,0,5.2,0c1.7,0,3.2-0.6,4.2-1.8
			c1-1.1,1.5-2.7,1.4-4.3c-0.2-2.9-0.5-6-0.9-8.9c-4-25.6-15.5-47.2-34.3-64.4c-18.7-17.1-41-26.6-66.3-28.3
			C111.3-12.6,111.1-12.7,111-12.7z"/>
		<path d="M207.5,99.2h-12.4l-8.9-0.1H181c-5.6,0-9.5-3.6-10-9.2c-2.5-29.3-25.4-54.3-54.5-59.6c-2.6-0.4-4.9-0.7-6.4-0.9
			c-5.1-0.6-8.7-4.3-8.8-9.1c-0.1-9.7-0.1-19,0-27.7c0.1-2.6,1.1-5,2.9-6.7c1.9-1.8,4.6-2.7,7.5-2.5c26.3,1.8,49.5,11.7,68.8,29.3
			c19.5,17.9,31.5,40.3,35.5,66.8c0.5,3,0.7,6.1,0.9,9.1l0,0.2c0.2,2.7-0.6,5.3-2.4,7.3C212.8,98.1,210.3,99.2,207.5,99.2z
			 M110.8-10.7c-2.1,0.1-3.4,1.4-3.5,3.4c-0.1,8.8-0.1,18,0,27.5c0,1.8,1.3,3,3.4,3.2c1.7,0.2,4.2,0.5,6.7,0.9
			c31.7,5.7,56.7,33,59.5,65c0.2,2.6,1.5,3.7,4.2,3.8l26.3,0c0.8,0,1.9-0.2,2.7-1.1c0.7-0.7,1-1.8,0.9-2.9c-0.2-3.1-0.5-6.1-0.9-8.8
			c-3.9-25.1-15.2-46.3-33.7-63.2c-18.3-16.8-40.2-26.1-65-27.8C111.2-10.6,110.9-10.7,110.8-10.7z"/>
	</g>
	<g>
		<path d="M207.5,98.7h-12.4l-8.9-0.1H181c-5.4,0-9-3.4-9.5-8.8c-2.5-29.5-25.6-54.8-54.9-60.1c-2.6-0.4-4.9-0.7-6.4-0.9
			c-4.9-0.6-8.2-4.1-8.3-8.7c-0.1-9.6-0.1-18.9,0-27.7c0.1-2.5,1-4.7,2.8-6.3c1.8-1.7,4.4-2.5,7.1-2.3C138-14.3,161-4.4,180.3,13.1
			c19.4,17.8,31.3,40.2,35.4,66.5c0.5,3,0.7,6.1,0.9,9.1l0,0.2c0.2,2.6-0.6,5-2.3,7C212.6,97.7,210.2,98.7,207.5,98.7z M110.8-11.2
			c-2.4,0.1-4,1.6-4,3.8c-0.1,8.8-0.1,18,0,27.5c0,2,1.5,3.5,3.8,3.7c1.7,0.2,4.2,0.5,6.7,0.9c31.5,5.6,56.3,32.8,59,64.5
			c0.2,2.8,1.7,4.2,4.6,4.2l26.4,0c0.9,0,2.2-0.2,3-1.3c0.8-0.8,1.1-2,1.1-3.2c-0.2-3.1-0.5-6.1-0.9-8.8
			c-3.9-25.2-15.3-46.6-33.8-63.5C158.4,0,136.4-9.4,111.4-11.1C111.2-11.1,111-11.2,110.8-11.2z"/>
		<path d="M207.5,100.7h-12.4l-8.9-0.1H181c-6.4,0-10.9-4.2-11.5-10.6c-2.5-28.6-24.9-53.1-53.2-58.3c-2.5-0.4-4.8-0.7-6.3-0.9
			c-5.9-0.7-10-5-10.1-10.6c-0.1-9.7-0.1-19,0-27.7c0.1-3.1,1.3-5.8,3.4-7.8c2.2-2.1,5.3-3.1,8.6-2.9c26.7,1.9,50.1,11.9,69.7,29.7
			c19.8,18.1,31.9,40.9,36,67.7c0.5,3.1,0.7,6.2,0.9,9.2l0,0.2c0.3,3.1-0.7,6.1-2.8,8.4C213.7,99.4,210.7,100.7,207.5,100.7z
			 M111.1-14.1c-2,0-3.8,0.6-5.1,1.8c-1.3,1.2-2.1,3-2.1,4.9c-0.1,8.7-0.1,18,0,27.6c0.1,3.6,2.7,6.2,6.6,6.7
			c1.5,0.2,3.8,0.5,6.5,0.9c30.2,5.5,53.9,31.5,56.5,61.9c0.4,4.3,3.2,6.9,7.5,6.9h5.2l8.9,0.1h12.4c2.1,0,4-0.8,5.4-2.3
			c1.3-1.5,1.9-3.4,1.7-5.4l0-0.2c-0.2-2.9-0.4-6-0.9-8.9C209.7,54,198,32,179,14.6C160-2.7,137.4-12.3,111.7-14.1
			C111.5-14.1,111.3-14.1,111.1-14.1z M181,95.6c-4-0.1-6.3-2.3-6.6-6.1c-2.7-30.9-26.8-57.3-57.4-62.7c-2.5-0.4-4.9-0.7-6.6-0.9
			c-3.4-0.3-5.6-2.6-5.6-5.7c-0.1-9.5-0.1-18.8,0-27.6c0.1-3.4,2.5-5.7,6-5.8l0.3,0l0.3,0.1c0,0,0.1,0,0.1,0
			c25.5,1.7,47.9,11.3,66.6,28.4c18.9,17.2,30.4,39,34.5,64.7c0.4,2.8,0.7,5.8,0.9,9c0.1,1.8-0.5,3.5-1.6,4.7
			c-1,1.2-2.6,1.9-4.5,1.9L181,95.6z M110.7-9.2c-0.9,0.1-1.8,0.5-1.9,1.9c-0.1,8.7-0.1,18,0,27.5c0,1.4,1.3,1.7,2,1.8
			c1.7,0.2,4.3,0.5,6.8,0.9c32.4,5.8,57.9,33.7,60.7,66.3c0.1,1.6,0.6,2.3,2.7,2.4l26.3,0c0.7,0,1.2-0.2,1.5-0.5
			c0.4-0.5,0.6-1.1,0.6-1.8c-0.2-3-0.5-6-0.9-8.6c-3.9-24.7-15-45.7-33.2-62.3C157.4,1.8,135.8-7.5,111.3-9.1
			C111.1-9.1,110.9-9.1,110.7-9.2z"/>
	</g>
</g>
</svg>
