<?xml version="1.0" encoding="utf-8"?>
<!-- Generator: Adobe Illustrator 18.1.1, SVG Export Plug-In . SVG Version: 6.00 Build 0)  -->
<!DOCTYPE svg PUBLIC "-//W3C//DTD SVG 1.1//EN" "http://www.w3.org/Graphics/SVG/1.1/DTD/svg11.dtd">
<svg version="1.1" id="Layer_1" xmlns="http://www.w3.org/2000/svg" xmlns:xlink="http://www.w3.org/1999/xlink" x="0px" y="0px"
	 viewBox="0 0 200 200" enable-background="new 0 0 200 200" xml:space="preserve">
<g>
	<path d="M63.3,131.1c6.2-4.9,9.3-11.6,9.3-20.1c0-4.3-0.8-8.1-2.3-11.3c-1.5-3.2-3.9-6.1-7.2-8.6c-3.3-2.5-8.4-5.3-15.5-8.2
		c-6.3-2.6-10.6-4.7-13-6.2c-2.4-1.6-4.1-3.2-5.2-5c-1-1.8-1.6-3.9-1.6-6.4c0-3.6,1.3-6.6,3.9-8.8c2.6-2.2,6.5-3.3,11.6-3.3
		c6.7,0,14.3,1.8,22.8,5.4l5-12.8c-9.1-4-18.2-6-27.4-6c-9.6,0-17.2,2.3-22.9,6.9c-5.7,4.6-8.5,10.9-8.5,18.9
		c0,6.4,1.8,11.9,5.4,16.4c3.6,4.6,9.8,8.6,18.5,12.1c8.5,3.4,14.1,6.4,16.8,8.9c2.7,2.5,4.1,5.5,4.1,9.1c0,4-1.5,7.2-4.4,9.5
		c-3,2.4-7.5,3.5-13.8,3.5c-4.2,0-8.8-0.6-13.8-1.8c-4.9-1.2-9.6-2.8-13.9-4.9v14.8c6.9,3.4,15.8,5.1,26.6,5.1
		C48.6,138.3,57.1,135.9,63.3,131.1z"/>
	<path d="M114.2,137h15.4v-96h-12.9L88.6,63.3l7.7,9.8c8.4-6.8,13.3-10.8,14.7-12.1c1.5-1.3,2.7-2.4,3.7-3.5
		c-0.4,4.3-0.5,10.2-0.5,17.6V137z"/>
	<path d="M168.2,23.7C150.8,9.3,125.2,8.9,100,20v10.3c22.3-10,44.9-9.8,60.3,2.9c25.4,20.9,21.3,67.8-9.2,104.7
		s-75.7,49.8-101,28.9c-3.9-3.2-7-7-9.5-11.2h-13c3.1,8.2,8,15.3,14.7,20.8c29,23.9,80.7,9.1,115.4-33
		C192.5,101.1,197.1,47.6,168.2,23.7z"/>
</g>
</svg>
