<?xml version="1.0" encoding="utf-8"?>
<!-- Generator: Adobe Illustrator 18.1.1, SVG Export Plug-In . SVG Version: 6.00 Build 0)  -->
<!DOCTYPE svg PUBLIC "-//W3C//DTD SVG 1.1//EN" "http://www.w3.org/Graphics/SVG/1.1/DTD/svg11.dtd">
<svg version="1.1" id="Layer_1" xmlns="http://www.w3.org/2000/svg" xmlns:xlink="http://www.w3.org/1999/xlink" x="0px" y="0px"
	 viewBox="0 0 200 200" enable-background="new 0 0 200 200" xml:space="preserve">
<g>
	<path fill-rule="evenodd" clip-rule="evenodd" d="M159.2,118.6l-56.8,56.5c-0.8,0.7-1.6,1.6-2.4,2.5c-0.8-1-1.7-1.9-2.5-2.6
		l-56.8-56.8c-3.1-3.1-8.1-7.6-11.6-4.1c-3.9,3.9,1.1,8.5,4.1,11.6l56.8,56.8c2,2,4.6,4.9,7.3,5.6c0.8,0.5,1.8,0.8,2.9,0.8
		c1.3,0,2.4-0.4,3.4-1.1c2.3-1,4.6-3.5,6.3-5.2l56.8-56.5c3.1-3,8-7.6,4.1-11.5C167.3,111.1,162.3,115.6,159.2,118.6z"/>
	<path fill-rule="evenodd" clip-rule="evenodd" d="M40.8,81.4l56.8-56.5c0.8-0.7,1.6-1.6,2.4-2.5c0.8,1,1.7,1.9,2.5,2.6l56.8,56.8
		c3.1,3.1,8.1,7.6,11.6,4.1c3.9-3.9-1.1-8.5-4.1-11.6l-56.8-56.8c-2-2-4.6-4.9-7.3-5.6c-0.8-0.5-1.8-0.8-2.9-0.8
		c-1.3,0-2.4,0.4-3.4,1.1c-2.3,1-4.6,3.5-6.3,5.2L33.3,74c-3.1,3-8,7.6-4.1,11.5C32.7,88.9,37.7,84.4,40.8,81.4z"/>
</g>
</svg>
