<?xml version="1.0" encoding="utf-8"?>
<!-- Generated by IcoMoon.io -->
<!DOCTYPE svg PUBLIC "-//W3C//DTD SVG 1.1//EN" "http://www.w3.org/Graphics/SVG/1.1/DTD/svg11.dtd">
<svg version="1.1" xmlns="http://www.w3.org/2000/svg" xmlns:xlink="http://www.w3.org/1999/xlink" width="32" height="32" viewBox="0 0 32 32">
<path d="M17.296 14.496c-0.416 0-0.816 0.352-1.136 0.656 0 0-6.352 6.32-6.384 6.352-0.032-0.032-0.064-0.080-0.112-0.112l-6.272-6.272c-0.304-0.304-0.72-0.672-1.136-0.672-0.192 0-0.352 0.064-0.496 0.208s-0.224 0.32-0.224 0.528c0 0.416 0.368 0.8 0.656 1.072l6.4 6.4c0.224 0.224 0.496 0.496 0.8 0.592 0.128 0.064 0.272 0.112 0.416 0.112 0.176 0 0.352-0.048 0.48-0.16 0.256-0.112 0.496-0.352 0.672-0.544l6.4-6.384c0.272-0.272 0.656-0.64 0.656-1.056 0-0.192-0.080-0.368-0.224-0.512-0.144-0.128-0.304-0.208-0.496-0.208z" fill="#000000"></path>
<path d="M2.256 10.4c0.416 0 0.816-0.352 1.136-0.656l6.288-6.256c0.032-0.032 0.064-0.064 0.096-0.096 0.032 0.032 0.064 0.080 0.112 0.112l6.272 6.272c0.304 0.304 0.72 0.672 1.136 0.672 0.192 0 0.352-0.064 0.496-0.208s0.224-0.32 0.224-0.528c0-0.416-0.368-0.8-0.656-1.072l-6.4-6.4c-0.224-0.224-0.496-0.496-0.8-0.592-0.128-0.064-0.272-0.112-0.416-0.112-0.176 0-0.352 0.048-0.48 0.16-0.256 0.112-0.496 0.352-0.672 0.544l-6.4 6.384c-0.272 0.272-0.656 0.64-0.656 1.056 0 0.192 0.080 0.368 0.224 0.512 0.144 0.128 0.304 0.208 0.496 0.208z" fill="#000000"></path>
</svg>
