<?xml version="1.0" encoding="utf-8"?>
<!-- Generator: Adobe Illustrator 18.1.1, SVG Export Plug-In . SVG Version: 6.00 Build 0)  -->
<!DOCTYPE svg PUBLIC "-//W3C//DTD SVG 1.1//EN" "http://www.w3.org/Graphics/SVG/1.1/DTD/svg11.dtd">
<svg version="1.1" id="Layer_1" xmlns="http://www.w3.org/2000/svg" xmlns:xlink="http://www.w3.org/1999/xlink" x="0px" y="0px"
	 viewBox="0 0 200 200" enable-background="new 0 0 200 200" xml:space="preserve">
<g>
	<path fill-rule="evenodd" clip-rule="evenodd" d="M16.8,77.8h11.3c3.1,0,5.7,2.5,5.7,5.7v11.3c0,3.1-2.5,5.7-5.7,5.7H16.8
		c-3.1,0-5.7-2.5-5.7-5.7V83.4C11.1,80.3,13.6,77.8,16.8,77.8z"/>
	<path fill-rule="evenodd" clip-rule="evenodd" d="M61.5,89.2H183c3.3,0,5.9-0.9,5.9,5.3c0,6.2-2.6,5.9-5.9,5.9H61.5
		c-3.3,0-5.9,0.3-5.9-5.9C55.5,88.3,58.2,89.2,61.5,89.2z"/>
	<path fill-rule="evenodd" clip-rule="evenodd" d="M61.5,44.7H183c3.3,0,5.9-0.9,5.9,5.3c0,6.2-2.6,5.9-5.9,5.9H61.5
		c-3.3,0-5.9,0.3-5.9-5.9C55.5,43.8,58.2,44.7,61.5,44.7z"/>
	<path fill-rule="evenodd" clip-rule="evenodd" d="M61.5,133.6H183c3.3,0,5.9-0.9,5.9,5.3c0,6.2-2.6,5.9-5.9,5.9H61.5
		c-3.3,0-5.9,0.3-5.9-5.9C55.5,132.7,58.2,133.6,61.5,133.6z"/>
	<path fill-rule="evenodd" clip-rule="evenodd" d="M16.8,122.6h11.3c3.1,0,5.7,2.5,5.7,5.7v10.9c0,3.1-2.5,5.7-5.7,5.7H16.8
		c-3.1,0-5.7-2.5-5.7-5.7v-10.9C11.1,125.2,13.6,122.6,16.8,122.6z"/>
	<path fill-rule="evenodd" clip-rule="evenodd" d="M16.8,33.4h11.3c3.1,0,5.7,2.5,5.7,5.7v11.3c0,3.1-2.5,5.7-5.7,5.7H16.8
		c-3.1,0-5.7-2.5-5.7-5.7V39C11.1,35.9,13.6,33.4,16.8,33.4z"/>
</g>
</svg>
