<?xml version="1.0" encoding="utf-8"?>
<!-- Generator: Adobe Illustrator 18.1.1, SVG Export Plug-In . SVG Version: 6.00 Build 0)  -->
<!DOCTYPE svg PUBLIC "-//W3C//DTD SVG 1.1//EN" "http://www.w3.org/Graphics/SVG/1.1/DTD/svg11.dtd">
<svg version="1.1" id="Layer_1" xmlns="http://www.w3.org/2000/svg" xmlns:xlink="http://www.w3.org/1999/xlink" x="0px" y="0px"
	 viewBox="0 0 200 200" enable-background="new 0 0 200 200" xml:space="preserve">
<g>
	<path fill-rule="evenodd" clip-rule="evenodd" d="M147,112.8c-2.6,0-5.1,2.2-7.1,4.1c0,0-39.7,39.5-39.9,39.7
		c-0.2-0.2-0.4-0.5-0.7-0.7l-39.3-39.3c-1.9-1.9-4.5-4.2-7.1-4.2c-1.2,0-2.2,0.4-3.1,1.3c-0.9,0.9-1.4,2-1.4,3.3
		c0,2.6,2.3,5,4.1,6.7l39.5,39.5l0.5,0.5c1.4,1.4,3.1,3.1,5,3.7c0.8,0.4,1.7,0.7,2.6,0.7c1.1,0,2.2-0.3,3-1c1.6-0.7,3.1-2.2,4.2-3.4
		l40-39.9c1.7-1.7,4.1-4,4.1-6.6c0-1.2-0.5-2.3-1.4-3.2C149.2,113.3,148.2,112.8,147,112.8z"/>
	<path fill-rule="evenodd" clip-rule="evenodd" d="M53,87.2c2.6,0,5.1-2.2,7.1-4.1l39.3-39.1c0.2-0.2,0.4-0.4,0.6-0.6
		c0.2,0.2,0.4,0.5,0.7,0.7l39.3,39.3c1.9,1.9,4.5,4.2,7.1,4.2c1.2,0,2.2-0.4,3.1-1.3c0.9-0.9,1.4-2,1.4-3.3c0-2.6-2.3-5-4.1-6.7
		l-39.5-39.5l-0.5-0.5c-1.4-1.4-3.1-3.1-5-3.7c-0.8-0.4-1.7-0.7-2.6-0.7c-1.1,0-2.2,0.3-3,1c-1.6,0.7-3.1,2.2-4.2,3.4L52.6,76
		c-1.7,1.7-4.1,4-4.1,6.6c0,1.2,0.5,2.3,1.4,3.2C50.8,86.7,51.8,87.2,53,87.2z"/>
</g>
</svg>
