<?xml version="1.0" encoding="utf-8"?>
<!-- Generator: Adobe Illustrator 19.1.0, SVG Export Plug-In . SVG Version: 6.00 Build 0)  -->
<!DOCTYPE svg PUBLIC "-//W3C//DTD SVG 1.1//EN" "http://www.w3.org/Graphics/SVG/1.1/DTD/svg11.dtd">
<svg version="1.1" id="Layer_1" xmlns="http://www.w3.org/2000/svg" xmlns:xlink="http://www.w3.org/1999/xlink" x="0px" y="0px"
	 viewBox="0 0 16 16" style="enable-background:new 0 0 16 16;" xml:space="preserve">
<rect x="14.4" y="5.2" width="1" height="2"/>
<polygon points="15.4,15.1 0.9,15.1 0.9,12.8 1.9,12.8 1.9,14.1 14.4,14.1 14.4,12.8 15.4,12.8 "/>
<rect x="0.9" y="5.2" width="1" height="2"/>
<circle cx="8" cy="3.9" r="0.7"/>
<polygon points="14.7,5.8 11.1,2.3 5.1,2.3 1.7,5.8 1,5.1 4.7,1.3 11.6,1.3 15.3,5.1 "/>
<g>
	<rect x="3.4" y="8.8" transform="matrix(0.7071 0.7071 -0.7071 0.7071 8.956 -2.9351)" width="9.3" height="1"/>
	<rect x="7.5" y="4.7" transform="matrix(0.7071 0.7071 -0.7071 0.7071 8.9556 -2.9351)" width="1" height="9.3"/>
</g>
</svg>
