<?xml version="1.0" encoding="utf-8"?>
<!-- Generated by IcoMoon.io -->
<!DOCTYPE svg PUBLIC "-//W3C//DTD SVG 1.1//EN" "http://www.w3.org/Graphics/SVG/1.1/DTD/svg11.dtd">
<svg version="1.1" xmlns="http://www.w3.org/2000/svg" xmlns:xlink="http://www.w3.org/1999/xlink" width="32" height="32" viewBox="0 0 32 32">
<path d="M13.008 1.792h-9.824v-0.016h-1.408v12.448h5.616v3.552h-4.208v-0.016h-1.408v12.464h12.448v-12.464h-1.216v0.016h-4.208v-3.552h5.424v-12.448h-1.216v0.016zM12.448 19.552v8.88h-8.896v-8.88h8.896zM12.448 12.448h-8.896v-8.896h8.88v8.896z" fill="#000000"></path>
<path d="M16 3.552h14.224v1.776h-14.224v-1.776z" fill="#000000"></path>
<path d="M16 7.12h7.104v1.776h-7.104v-1.776z" fill="#000000"></path>
<path d="M24.88 7.12h5.328v1.776h-5.328v-1.776z" fill="#000000"></path>
<path d="M16 10.672h7.104v1.776h-7.104v-1.776z" fill="#000000"></path>
<path d="M24.88 10.672h5.328v1.776h-5.328v-1.776z" fill="#000000"></path>
<path d="M16 19.552h14.224v1.776h-14.224v-1.776z" fill="#000000"></path>
<path d="M16 23.104h7.104v1.776h-7.104v-1.776z" fill="#000000"></path>
<path d="M24.88 23.104h5.328v1.776h-5.328v-1.776z" fill="#000000"></path>
<path d="M16 26.672h7.104v1.776h-7.104v-1.776z" fill="#000000"></path>
<path d="M24.88 26.672h5.328v1.776h-5.328v-1.776z" fill="#000000"></path>
<path d="M5.328 8.896h1.776v1.776h1.776v-1.776h1.792v-1.776h-1.792v-1.776h-1.776v1.776h-1.776z" fill="#000000"></path>
<path d="M7.104 21.328v1.776h-1.776v1.792h1.776v1.776h1.776v-1.776h1.792v-1.792h-1.792v-1.776z" fill="#000000"></path>
</svg>
