<?xml version="1.0" encoding="utf-8"?>
<!-- Generator: Adobe Illustrator 18.0.0, SVG Export Plug-In . SVG Version: 6.00 Build 0)  -->
<!DOCTYPE svg PUBLIC "-//W3C//DTD SVG 1.1//EN" "http://www.w3.org/Graphics/SVG/1.1/DTD/svg11.dtd">
<svg version="1.1" id="Layer_1" xmlns="http://www.w3.org/2000/svg" xmlns:xlink="http://www.w3.org/1999/xlink" x="0px" y="0px"
	 viewBox="0 0 200 200" enable-background="new 0 0 200 200" xml:space="preserve">
<g>
	<g>
		<ellipse fill="none" cx="87.2" cy="58.6" rx="38" ry="35.6"/>
		<g>
			<ellipse fill="none" cx="87.2" cy="58.6" rx="38" ry="35.6"/>
			<path d="M87.2,11.1c-28,0-50.6,21.3-50.6,47.5c0,26.2,22.7,47.5,50.6,47.5c28,0,50.6-21.3,50.6-47.5
				C137.8,32.4,115.2,11.1,87.2,11.1z M87.2,94.2c-21,0-38-15.9-38-35.6c0-19.7,17-35.6,38-35.6c21,0,38,15.9,38,35.6
				C125.2,78.3,108.2,94.2,87.2,94.2z"/>
		</g>
		<path d="M93.5,106.1c-45.5,0-82.3,37.2-82.3,83.1c4.4,0,8.6,0,12.7,0c0-27.4,15.5-51.1,38.2-62.7V125h3c8.7-3.9,18.3-6.1,28.4-6.1
			c10.1,0,19.8,2.2,28.4,6.1h23.8C131.6,113.2,113.4,106.1,93.5,106.1z"/>
		<path d="M62,126.5c1-0.5,2-1,3-1.5h-3V126.5z"/>
	</g>
	<path fill-rule="evenodd" clip-rule="evenodd" d="M155.5,176.7V156H77.9v-12.7h77.6v-22.2l33.3,27.8L155.5,176.7
		C155.5,176.7,156.3,168.5,155.5,176.7z"/>
</g>
</svg>
