<?xml version="1.0" encoding="utf-8"?>
<!-- Generated by IcoMoon.io -->
<!DOCTYPE svg PUBLIC "-//W3C//DTD SVG 1.1//EN" "http://www.w3.org/Graphics/SVG/1.1/DTD/svg11.dtd">
<svg version="1.1" xmlns="http://www.w3.org/2000/svg" xmlns:xlink="http://www.w3.org/1999/xlink" width="32" height="32" viewBox="0 0 32 32">
<path d="M13.952 1.776c-4.48 0-8.096 3.408-8.096 7.6s3.632 7.6 8.096 7.6c4.48 0 8.096-3.408 8.096-7.6s-3.616-7.6-8.096-7.6zM13.952 15.072c-3.36 0-6.080-2.544-6.080-5.696s2.72-5.696 6.080-5.696c3.36 0 6.080 2.544 6.080 5.696s-2.72 5.696-6.080 5.696z" fill="#000000"></path>
<path d="M14.96 16.976c-7.28 0-13.168 5.952-13.168 13.296 0.704 0 1.376 0 2.032 0 0-4.384 2.48-8.176 6.112-10.032v-0.24h0.48c1.392-0.624 2.928-0.976 4.544-0.976s3.168 0.352 4.544 0.976h3.808c-2.256-1.888-5.168-3.024-8.352-3.024z" fill="#000000"></path>
<path d="M9.92 20.24c0.16-0.080 0.32-0.16 0.48-0.24h-0.48v0.24z" fill="#000000"></path>
<path d="M24.88 28.272v-3.312h-12.416v-2.032h12.416v-3.552l5.328 4.448-5.328 4.448c0 0 0.128-1.312 0 0z" fill="#000000"></path>
</svg>
