<?xml version="1.0" encoding="utf-8"?>
<!-- Generator: Adobe Illustrator 18.1.1, SVG Export Plug-In . SVG Version: 6.00 Build 0)  -->
<!DOCTYPE svg PUBLIC "-//W3C//DTD SVG 1.1//EN" "http://www.w3.org/Graphics/SVG/1.1/DTD/svg11.dtd">
<svg version="1.1" id="Layer_1" xmlns="http://www.w3.org/2000/svg" xmlns:xlink="http://www.w3.org/1999/xlink" x="0px" y="0px"
	 viewBox="0 0 200 200" enable-background="new 0 0 200 200" xml:space="preserve">
<g>
	<g>
		<ellipse fill="none" cx="112.9" cy="58.6" rx="38" ry="35.6"/>
		<g>
			<ellipse fill="none" cx="112.9" cy="58.6" rx="38" ry="35.6"/>
			<path d="M62.3,58.6c0,26.2,22.7,47.5,50.6,47.5c28,0,50.6-21.3,50.6-47.5c0-26.2-22.7-47.5-50.6-47.5
				C84.9,11.1,62.3,32.4,62.3,58.6z M74.9,58.6c0-19.7,17-35.6,38-35.6c21,0,38,15.9,38,35.6c0,19.7-17,35.6-38,35.6
				C91.9,94.2,74.9,78.3,74.9,58.6z"/>
		</g>
		<path d="M106.6,106.1c45.5,0,82.3,37.2,82.3,83.1c-4.4,0-8.6,0-12.7,0c0-27.4-15.5-51.1-38.2-62.7V125h-3
			c-8.7-3.9-18.3-6.1-28.4-6.1c-10.1,0-19.8,2.2-28.4,6.1H54.3C68.5,113.2,86.7,106.1,106.6,106.1z"/>
		<path d="M138.1,126.5c-1-0.5-2-1-3-1.5h3V126.5z"/>
	</g>
	<path fill-rule="evenodd" clip-rule="evenodd" d="M44.5,176.7l-33.3-27.8l33.3-27.8v22.2h77.6V156H44.5V176.7
		C43.8,168.5,44.5,176.7,44.5,176.7z"/>
</g>
</svg>
