<?xml version="1.0" encoding="utf-8"?>
<!-- Generator: Adobe Illustrator 18.1.1, SVG Export Plug-In . SVG Version: 6.00 Build 0)  -->
<!DOCTYPE svg PUBLIC "-//W3C//DTD SVG 1.1//EN" "http://www.w3.org/Graphics/SVG/1.1/DTD/svg11.dtd">
<svg version="1.1" id="Layer_1" xmlns="http://www.w3.org/2000/svg" xmlns:xlink="http://www.w3.org/1999/xlink" x="0px" y="0px"
	 viewBox="0 0 200 200" enable-background="new 0 0 200 200" xml:space="preserve">
<g>
	<polygon points="88.9,77.8 88.9,133.3 100,133.3 100,77.8 122.2,77.8 122.2,66.7 100,66.7 88.9,66.7 66.7,66.7 66.7,77.8 	"/>
	<path d="M166.7,44.5h-22.2V11.1h0h-11.1H55.5H44.4v11.1v22.2H22.2H11.1v11.1v88.9v11.1v0h33.3v22.2v11.1v0h100v0h0v-33.3h33.3v0
		v-11.1V55.6V44.5H166.7z M55.5,22.2h77.8v22.2H55.5V22.2z M133.3,55.6v88.9H55.5V55.6H133.3z M22.2,144.5V55.6h22.2v88.9H22.2z
		 M133.3,177.8H55.5v-22.2h77.8V177.8z M166.7,144.5h-22.2V55.6h22.2V144.5z"/>
</g>
</svg>
