<?xml version="1.0" encoding="utf-8"?>
<!-- Generator: Adobe Illustrator 18.1.1, SVG Export Plug-In . SVG Version: 6.00 Build 0)  -->
<!DOCTYPE svg PUBLIC "-//W3C//DTD SVG 1.1//EN" "http://www.w3.org/Graphics/SVG/1.1/DTD/svg11.dtd">
<svg version="1.1" id="Layer_1" xmlns="http://www.w3.org/2000/svg" xmlns:xlink="http://www.w3.org/1999/xlink" x="0px" y="0px"
	 viewBox="0 0 200 200" enable-background="new 0 0 200 200" xml:space="preserve">
<g>
	<path d="M131,73.7c-0.2,1-0.4,2-0.5,2.8c-0.1,0.8-0.2,1.7-0.2,2.6c0,2.9,0.9,5,2.6,6.6c1.7,1.5,4.5,2.3,8.3,2.3
		c3.3,0,6.2-0.4,8.7-1.2c2.5-0.8,5.1-1.7,7.9-2.8l1-4.3c-1,0.4-2.5,0.7-4.3,1c-1.9,0.3-3.3,0.4-4.3,0.4c-2.9,0-4.8-0.5-5.9-1.5
		c-1.1-1-1.6-2.6-1.6-4.8c0-1,0.1-2.2,0.4-3.6c0.2-1.4,0.5-2.9,0.9-4.4l7.7-32.8h16.4l1.2-5.4h-16.6l4-17.4h-10.7l-4.1,17.4h-10.9
		l-1.3,5.4h10.6L131,73.7z"/>
	<path d="M177.8,99.1H102V73.4c0-30.3-16-46.3-35.6-46.3s-35.6,16-35.6,35.6v26.2h10.2V62.7c0-14,11.4-25.5,25.5-25.5
		c14.1,0,25.5,11.4,25.5,36.1v25.7H85V67.4c0-14.2-8.3-22.5-18.6-22.5c-10.2,0-18.6,8.3-18.6,22.5v31.7H11.1v24.4h80.8v21
		c0,9,16,25,35.6,25c19.7,0,35.6-16,35.6-28.9v-17.1h14.6V99.1z M153,140.5c0,7.3-11.4,18.8-25.5,18.8S102,147.9,102,144.5v-21h51
		V140.5z"/>
</g>
</svg>
