<?xml version="1.0" encoding="utf-8"?>
<!-- Generator: Adobe Illustrator 19.2.1, SVG Export Plug-In . SVG Version: 6.00 Build 0)  -->
<svg version="1.0" id="Layer_1" xmlns="http://www.w3.org/2000/svg" xmlns:xlink="http://www.w3.org/1999/xlink" x="0px" y="0px"
	 viewBox="0 0 200 200" enable-background="new 0 0 200 200" xml:space="preserve">
<path fill="#010202" d="M185.805,53.987c-0.003-2.836-1.639-5.412-4.21-6.62l-78.129-36.7c-0.143-0.067-0.297-0.084-0.444-0.145
	c-0.287-0.114-0.58-0.208-0.878-0.284c-0.301-0.076-0.597-0.133-0.9-0.17c-0.297-0.035-0.589-0.054-0.89-0.054
	c-0.308,0-0.611,0.018-0.919,0.058c-0.295,0.038-0.581,0.093-0.872,0.166c-0.304,0.079-0.597,0.173-0.892,0.292
	c-0.145,0.057-0.299,0.075-0.442,0.142L19.17,47.52c-2.564,1.21-4.2,3.791-4.197,6.628l0.083,88.537
	c0,0.173,0.051,0.332,0.065,0.503c-0.296,2.998,1.263,5.992,4.146,7.345l78.129,36.704c0.24,0.112,0.487,0.165,0.731,0.247
	c0.189,0.067,0.369,0.143,0.564,0.196c0.605,0.155,1.214,0.256,1.821,0.256c0.002,0,0.004,0,0.004,0s0.002,0,0.004,0
	c0.607-0.001,1.216-0.103,1.819-0.259c0.198-0.051,0.377-0.128,0.569-0.197c0.24-0.085,0.485-0.136,0.723-0.248l78.062-36.851
	c2.88-1.358,4.429-4.353,4.132-7.352c0.014-0.169,0.063-0.33,0.062-0.503l-0.083-88.537H185.805z M100.644,176.496l-68.743-32.364
	l68.232-32.188l68.743,32.364L100.644,176.496z M174.636,134.578l-68.864-32.335l0.095-78.085l68.864,32.331L174.636,134.578z
	 M26.198,56.438L94.68,24.111l0.066,77.985l-68.47,32.502L26.198,56.438z"/>
</svg>
