<?xml version="1.0" encoding="utf-8"?>
<!-- Generator: Adobe Illustrator 18.1.1, SVG Export Plug-In . SVG Version: 6.00 Build 0)  -->
<!DOCTYPE svg PUBLIC "-//W3C//DTD SVG 1.1//EN" "http://www.w3.org/Graphics/SVG/1.1/DTD/svg11.dtd">
<svg version="1.1" id="Layer_1" xmlns="http://www.w3.org/2000/svg" xmlns:xlink="http://www.w3.org/1999/xlink" x="0px" y="0px"
	 viewBox="0 0 200 200" enable-background="new 0 0 200 200" xml:space="preserve">
<path fill-rule="evenodd" clip-rule="evenodd" d="M180.8,40.5c-10.4-10.6-12.7-2.7-18,2.7l-93.3,95.3L35,103.2
	c-5.3-5.4-10.7-10.6-16.9-4.3c-7,7.2-1.8,12.5,3.5,17.9l38.8,41c0.6,0.6,1.1,1.2,1.7,1.7c0.3,0.4,0.7,0.8,1.1,1.2
	c1.9,1.9,3.5,3,5.1,3.4c2.8,1.1,5.8,0.7,9.1-2.7c0.8-0.8,1.4-1.6,1.8-2.4c0.5-0.5,1-1,1.4-1.5l96.9-99.1
	C182.9,53,190.1,50,180.8,40.5z"/>
</svg>
