<?xml version="1.0" encoding="utf-8"?>
<!-- Generated by IcoMoon.io -->
<!DOCTYPE svg PUBLIC "-//W3C//DTD SVG 1.1//EN" "http://www.w3.org/Graphics/SVG/1.1/DTD/svg11.dtd">
<svg version="1.1" xmlns="http://www.w3.org/2000/svg" xmlns:xlink="http://www.w3.org/1999/xlink" width="32" height="32" viewBox="0 0 32 32">
<path d="M16 1.776c-7.856 0-14.224 6.368-14.224 14.224 0 3.6 1.344 6.896 3.552 9.408v0l0.032 0.032c0.368 0.416 0.784 0.816 1.2 1.2l0.032 0.032c2.512 2.208 5.792 3.552 9.408 3.552 7.856 0 14.224-6.368 14.224-14.224s-6.368-14.224-14.224-14.224zM24.64 24.944l-2.048-2.048-1.264 1.264 1.936 1.936c-2.048 1.472-4.56 2.352-7.28 2.352v-3.552h-1.76v3.424c-2.416-0.352-4.608-1.392-6.368-2.912l1.248-1.248-1.264-1.264-1.248 1.248c-1.52-1.76-2.56-3.952-2.912-6.368h3.424v-1.776h-3.552c0-2.72 0.88-5.232 2.352-7.28l1.936 1.952 1.264-1.264-2.048-2.048c1.872-1.936 4.368-3.264 7.168-3.68v3.424h1.776v-3.552c6.88 0 12.448 5.568 12.448 12.448h-3.552v1.776h3.424c-0.4 2.8-1.744 5.296-3.68 7.168z" fill="#000000"></path>
<path d="M16 8.896h-1.776v8.88h7.104v-1.776h-5.328z" fill="#000000"></path>
<path d="M21.327 9.407l2.512-2.512 1.256 1.256-2.512 2.512-1.256-1.256z" fill="#000000"></path>
</svg>
