<?xml version="1.0" encoding="utf-8"?>
<!-- Generator: Adobe Illustrator 18.1.1, SVG Export Plug-In . SVG Version: 6.00 Build 0)  -->
<!DOCTYPE svg PUBLIC "-//W3C//DTD SVG 1.1//EN" "http://www.w3.org/Graphics/SVG/1.1/DTD/svg11.dtd">
<svg version="1.1" id="Layer_1" xmlns="http://www.w3.org/2000/svg" xmlns:xlink="http://www.w3.org/1999/xlink" x="0px" y="0px"
	 viewBox="0 0 200 200" enable-background="new 0 0 200 200" xml:space="preserve">
<g>
	<polygon fill-rule="evenodd" clip-rule="evenodd" points="166.7,155.6 166.6,155.6 166.6,133.3 155.5,133.3 155.5,155.6 
		133.3,155.6 133.3,166.7 155.5,166.7 155.5,177.8 155.5,188.9 166.6,188.9 166.6,177.8 166.6,166.7 166.7,166.7 177.8,166.7 
		188.9,166.7 188.9,155.6 177.8,155.6 	"/>
	<path fill-rule="evenodd" clip-rule="evenodd" d="M177.8,11.1h-44.4h-11.1H77.8H66.7H22.2H11.1v11.1v22.2v33.3v11.1v33.3v11.1v33.3
		v11.1h111.1v-11.1H77.8v-33.3h44.4v11.1h11.1v-11.1h11.1v-11.1h-11.1V88.9h44.4v44.4h11.1V88.9V77.8V44.5V22.2V11.1H177.8z
		 M122.2,44.5v33.3H77.8V44.5H122.2z M22.2,44.5h44.4v33.3H22.2V44.5z M22.2,88.9h44.4v33.3H22.2V88.9z M66.7,166.7H22.2v-33.3h44.4
		V166.7z M122.2,122.2H77.8V88.9h44.4V122.2z M177.8,77.8h-44.4V44.5h44.4V77.8z"/>
</g>
</svg>
