<?xml version="1.0" encoding="utf-8"?>
<!-- Generator: Adobe Illustrator 18.1.1, SVG Export Plug-In . SVG Version: 6.00 Build 0)  -->
<!DOCTYPE svg PUBLIC "-//W3C//DTD SVG 1.1//EN" "http://www.w3.org/Graphics/SVG/1.1/DTD/svg11.dtd">
<svg version="1.1" id="Layer_1" xmlns="http://www.w3.org/2000/svg" xmlns:xlink="http://www.w3.org/1999/xlink" x="0px" y="0px"
	 viewBox="0 0 200 200" enable-background="new 0 0 200 200" xml:space="preserve">
<g>
	<path fill-rule="evenodd" clip-rule="evenodd" d="M166.7,189.6H33.3c-12.3,0-22.2-9.9-22.2-22.2v-134c0-12.3,9.9-22.2,22.2-22.2
		h133.3c12.3,0,22.2,9.9,22.2,22.2v134C188.9,179.7,178.9,189.6,166.7,189.6z M166.7,76.3l-62.4,62.4c-3.1,4-7.9,6.5-13.3,6.5
		c-4.7,0-9-1.9-12.1-5.1h0l-25.1-25.1c0,0,0,0,0,0l-4.6-4.6c-6.6-6.6-6.6-17.4,0-24.1c6.6-6.6,17.4-6.6,24.1,0l17.8,17.8L151,44
		c3.8-3.8,8.9-5.2,13.8-4.6c-2-3.2-5.3-5.4-9.3-5.4H44.4c-6.1,0-11.1,5-11.1,11.1v111.1c0,6.1,5,11.1,11.1,11.1h111.1
		c6.1,0,11.1-5,11.1-11.1V76.3z"/>
</g>
</svg>
