<?xml version="1.0" encoding="utf-8"?>
<!-- Generator: Adobe Illustrator 18.1.1, SVG Export Plug-In . SVG Version: 6.00 Build 0)  -->
<!DOCTYPE svg PUBLIC "-//W3C//DTD SVG 1.1//EN" "http://www.w3.org/Graphics/SVG/1.1/DTD/svg11.dtd">
<svg version="1.1" id="Layer_2" xmlns="http://www.w3.org/2000/svg" xmlns:xlink="http://www.w3.org/1999/xlink" x="0px" y="0px"
	 viewBox="0 0 200 200" enable-background="new 0 0 200 200" xml:space="preserve">
<path d="M165.1,35.2c-17.4-17.4-40.4-27.1-65-27.1C49.7,8.2,8.5,49.2,8.3,99.7c-0.1,24.4,9.5,47.5,26.8,64.9
	c17.4,17.5,40.5,27.1,64.9,27.1h0.1c24.5,0,47.6-9.7,65-27.1c17.3-17.4,26.8-40.4,26.7-64.6C192,75.6,182.5,52.6,165.1,35.2z
	 M167,139.4c0.5,0.7,0.9,1.4,1.3,2.1c-13.5,23-40,38.4-66.5,38.4c-0.7,0-1.3,0-2,0c-0.2-0.5-0.5-0.9-1-1.4
	c-2.8-3.1-3.3-6.6-1.5-10.8c0.7-1.6,2-3.2,3.3-4.8c0.4-0.5,0.8-1,1.2-1.5c1.5-2,3-3.8,5.2-4.9c1.7-0.9,2.4-2.6,2.9-3.9
	c0.1-0.2,0.2-0.5,0.3-0.7c0.4-0.8,0.5-1.6,0.7-2.3c0-0.2,0.1-0.4,0.1-0.6c0.2-0.6,0.3-0.7,0.5-0.8c1.2-0.5,2-1.3,2.5-1.9
	c0.1-0.1,0.3-0.3,0.4-0.4c0.4-0.4,0.8-0.8,1.3-1.3c0.7-0.8,1.2-1.4,1.7-1.8c2.3-2.5,2.5-3.3,2.5-7.1c0-0.4,0-0.9,0-1.5
	c0-1.4,0.4-2.5,1.4-3.6c1.3-1.4,5.1-5.5,3.3-11c-0.2-0.8-1.2-3.4-3.5-4.6c-2.5-1.4-5.1-2.5-7.6-3.5l-1.4-0.6
	c-0.9-0.4-1.8-0.7-2.6-1.1c-1-0.4-1.9-0.7-2.8-1.1c0,0,0,0,0-0.1c-0.9-2.5-2.6-7.3-7.8-8.8c-0.3-0.1-0.7-0.3-1.3-0.3l-0.3,0l-0.2,0
	c-0.1,0-0.1,0-0.2,0c-0.4,0-1-0.5-1.8-1.3c-0.2-0.2-0.5-0.5-0.7-0.6c0,0-0.1-0.1-0.1-0.2c-0.9-2.7-3-4.3-5.7-4.3
	c-0.4,0-0.9,0-1.3,0.1c-0.8,0.1-1.4,0.2-1.9,0.2c-1.1,0-1.9-0.3-2.6-0.9c-1.2-1.1-2.7-1.7-4.4-1.7c-1.1,0-2.2,0.3-3.3,0.8
	c-1.2,0.6-2.4,1.3-3.5,2c-0.5,0.3-1.1,0.6-1.6,1c0.3-2.1-0.1-3.9-1.1-5.3c-0.5-0.7-1.2-1.2-2-1.7c0.1-0.2,0.1-0.4,0.2-0.6
	c0.1-0.4,0.2-0.7,0.3-1.1c0.8,0.3,1.7,0.5,2.5,0.5c2.7,0,4.9-1.9,5.5-4.7c0.5-2.3,0.5-4.6,0.5-6.6c0.1-0.1,0.2-0.1,0.3-0.2
	c0.4-0.2,0.7-0.4,1.2-0.7c2.3-1.5,5.2-3.3,6.4-7.2c0.2-0.3,0.9-0.7,1.3-1c0.4-0.3,0.9-0.6,1.3-1c0.1-0.1,0.4-0.3,0.6-0.4
	c0.4-0.3,1-0.6,1.5-1c0.8-0.7,1.9-1.7,2.2-3.2c0.2-0.8,0.6-1.4,2.1-2.2c0.5-0.2,1-0.5,1.6-0.7c0.6-0.2,1.2-0.5,1.9-0.8
	c0.7-0.4,1.3-0.8,1.9-1.1c0.3-0.2,0.5-0.4,0.8-0.5l0.4-0.3c0.3-0.2,0.6-0.4,0.8-0.4c2.4-0.8,6-2,8.1-5.6c0.1-0.1,0.3-0.3,0.5-0.4
	c0.2-0.2,0.4-0.4,0.6-0.5c1.9-1.8,2.2-3.6,2.1-4.8c-0.1-1.2-0.6-2.9-2.5-4.5c0,0-0.1-0.1-0.1-0.2c0-0.3,0-0.9-0.2-1.4
	c-0.1-0.2-0.1-0.3-0.1-0.4c0,0,0.1-0.1,0.2-0.2c0.8-0.9,1.3-1.5,2-1.8c0,0,0.1,0,0.1-0.1c1.3,3.7,3.8,6.2,7.3,7.3
	c0.9,0.3,1.7,0.4,2.4,0.4c1.3,0,2.5-0.4,3.5-1.2c1.5-1.2,3.2-2.7,4.7-4.4c1-1.1,1.4-1.6,2.2-1.7c1.9-0.5,3.7-1.1,5.4-1.8
	c0,0,0,0,0.1,0c1.6,3.9,4.7,4.8,7.1,4.8c0.6,0,1.2,0,1.9-0.1c0.1,0,0.2,0,0.3,0c0.1,0,0.2,0,0.3,0.1c0.4,0.3,0.7,0.6,1.1,0.8
	c-0.1,0.1-0.1,0.1-0.2,0.2c-0.8,0.7-1.9,1.8-2,3.6c0,0.2-0.2,0.5-0.3,0.8c-0.6,1.2-2.4,5,1.7,7.7c0.4,0.3,0.9,0.5,1.4,0.7
	c-0.9,0.5-1.7,1.2-2.3,2.2c-0.8,1.2-0.8,2.6-0.9,3.5l0,0.4c0,0.6,0,1.1,0,1.6c0,0.3,0,0.6,0,0.7c-0.4,1.5-1.1,4.5,0.3,7.3
	c-0.7,0.9-1.4,1.9-1.8,3.2c-0.2,0.6-0.4,0.9-1.3,1.6c-1.4,1.2-2.5,2.5-3.3,3.8c-1,1.6-1.9,3.3-2.8,5c-0.4,0.8-0.8,1.5-1.3,2.3
	c-1.2,2.2-1,4.6,0.6,6.4c0,0.1,0,0.2-0.1,0.4c-0.1,0.2-0.1,0.5-0.2,0.7c-0.2,0.9-0.4,1.8-0.6,2.8c-0.2,1.5-0.7,6,3.1,9.5
	c0.7,0.6,1.3,1.5,2,2.4c0.4,0.6,0.8,1.1,1.3,1.7c0.5,0.6,1,1.2,1.5,1.7l0.6,0.6c2.4,2.6,5,3.9,8,3.9c1.1,0,2.3-0.2,3.4-0.6
	c2.6-0.8,4.8-1.4,7-1.8c0.5-0.1,0.9-0.1,1.3-0.1c0.9,0,2.9,0,3.3,3.7c0.3,2.1,0.8,4.4,1.5,6.7c1,3.2,1.7,5.8,1.1,8.4
	c-0.2,1.1-0.6,2-1.1,2.8C166,133.8,165,136.2,167,139.4z M161.7,98.6c-2.4,0-4.9,0.6-7.3,1.7c-0.8,0.4-1.8,0.5-3,0.6
	c-0.1,0-0.2,0-0.3,0l-0.4-0.5c-1.7-2-3.5-4-5.2-6c0-0.1,0.1-0.2,0.1-0.4c1-3.2,1.1-5.9,0.4-8.5c1.6-3.1,2.7-5.1,5-6.1
	c2.2-0.9,3.5-3.1,3.2-5.6c0.1-0.1,0.2-0.2,0.2-0.2c0.7-0.9,1.7-1.2,4-1.3c2-0.1,3.9-0.7,5.7-1.2c0.3-0.1,0.6-0.2,0.9-0.3
	c0.5,1.7,1.9,2.9,4.4,3.9c1.6,0.6,3.1,1.3,4.7,2.1c3,9.5,4.1,19.5,3.3,29.6c-0.1,1.7-0.3,3.5-0.6,5.2c-0.2-0.7-0.3-1.5-0.4-2.2
	c-0.2-1.1-0.4-2.1-0.6-3.2c-0.3-1.6-1.5-2.6-2-3C169.6,100.1,165.7,98.6,161.7,98.6z M86.9,154.4c-0.1-4.3-0.3-8.6-0.6-12.8
	c-0.5-6.5-3.7-11.4-9.3-14.1c-1.3-2.5-2.6-5.1-3.9-7.7l-0.5-1c0.5-1.3,0.4-2.8-0.1-4.3c0.3-0.5,0.6-1.1,1-1.6c2-3,2.9-5.9,2.7-8.9
	c0.1-0.1,0.3-0.3,0.4-0.4c0.2,0,0.5,0,0.7,0c0.2,0,0.5,0,0.6,0.1c1.1,1,2.6,1,3.1,1l0.6,0c0.9,0,1.7,0,2.6,0c0.4,0,0.8,0,1.3,0
	c0.1,0.1,0.3,0.3,0.4,0.4c0.9,0.9,1.8,1.7,2.4,2.6c1.4,2,3.3,2.9,5.5,2.9c0.3,0,0.7,0,1.1-0.1c0.1,0,0.1,0,0.1,0
	c0,0,0.4,0.9,0.4,0.9c0.2,2.1,1.4,5.1,5.4,6.8c1.7,0.8,3.5,1.5,5.2,2.1c1,0.4,1.9,0.7,2.9,1.1c0.9,0.3,1.7,0.7,2.5,1.1
	c0.2,0.1,0.4,0.2,0.6,0.3c-2.9,3.3-4.2,7.3-3.9,12c0,0.3,0,0.4,0,0.4c-0.6,0.5-1.2,1-1.7,1.5c-0.8,0.7-1.5,1.3-2.3,1.9
	c-3,2.3-4.1,5.5-4.7,8c-0.1,0.6-0.3,0.7-0.7,1c-2.8,1.7-4.6,4.1-6.2,6.2c-0.6,0.7-1.1,1.5-1.7,2.1c-1.6,1.9-2.9,3.9-4.1,6
	c0-0.3,0-0.6,0-0.9C86.9,159,86.9,156.7,86.9,154.4z M57.8,35c0.3,0,0.6,0,0.8,0c2.9,0,5.1-1.3,6.5-3.9c1.7-0.2,3-0.9,4-1.7
	c0.1,0.1,0.3,0.3,0.4,0.4c0.4,0.4,0.9,0.8,1.4,1.2c-0.5,0.4-0.9,0.8-1.4,1.2c-2.6,2.4-2.7,5.8-0.2,8.6l0.1,0.1
	c0.2,0.3,0.6,0.8,1.3,1.2c1.8,1.1,2.8,3,4,5.1c0.4,0.7,0.8,1.4,1.2,2c1.1,1.9,3.1,2.9,5.3,2.9c0.2,0,0.3,0,0.5,0
	c-0.6,0.8-1.1,1.6-1.5,2.5l-0.8,0.6c-1.5,1.2-3,2.5-4.5,3.7c-1.1,0.9-2.6,2.3-2.9,4.5c-0.7,0.5-1.5,1-2.3,1.5
	c-0.5,0.3-1.1,0.7-1.7,1.1c-0.5,0.3-1.4,0.9-1.9,1.9c-0.2,0-0.4-0.1-0.7-0.1L65,67.7c-0.9-0.1-1.8-0.3-2.8-0.3c-1.6,0-3,0.4-4.2,1.2
	c-0.6-0.1-1.2-0.1-1.8-0.1c-3,0-5.8,1.3-8,3.7c-1.8,2-3.1,4.1-3.8,6.4c-0.4-0.8-0.9-1.6-1.4-2.3c-1.3-1.9-1.9-3.1-1.8-4.5
	c0.2-3-2-5.4-5.2-5.9c0,0-0.1-0.1-0.1-0.1l0-0.9c-0.1-1.4-0.1-2.7-0.1-4c0-0.4,0.2-0.9,0.4-1.2c1.6-2.4,3.3-5,3.7-8.3
	C45,44.9,51,39.4,57.8,35z M25.5,71.4c0.1,0.1,0.2,0.3,0.3,0.4c0.9,1.3,2,2.5,3,3.6c0.4,0.5,0.9,1,1.3,1.6c0.1,0.2,0.2,0.5,0.4,0.9
	c0.4,0.7,0.8,1.4,1.2,2.1c0.5,0.9,1.1,1.9,1.6,2.8l0.1,0.1c0.5,0.9,1,1.8,1.3,2.6c0.3,0.8,0.6,1.7,0.8,2.6c0.2,0.7,0.4,1.4,0.7,2
	c0.2,0.6,0.7,1.7,1.7,2.5c3.3,2.6,7,5.1,11.9,5.2c0.7,0.4,1.4,0.7,2.1,1.1c1,0.5,2,1.1,3,1.6l0,0c0.2,1.8,1.5,3.3,2.6,3.9
	c1.8,1.1,3.6,2.2,5.5,3.3c-1.7,2.6-2.5,5.2-2.3,8c0,0.1-0.1,0.3-0.3,0.6c-1.1,2.2-0.9,4.4,0.5,6.4c2.7,3.8,4.7,7.5,6.2,11.4
	c0.6,1.5,2.1,2.9,3.7,3.4c2.4,0.8,3.9,2.2,4.1,6.9c0.1,1.2,0,2.5,0,3.8c0,1.2,0,2.5,0,3.8c0.1,3.9,0.3,8,0.6,12.1
	c0.1,1.4,0.5,2.7,0.9,3.9c0.2,0.6,0.4,1.2,0.5,1.7c0.1,0.5,0.2,1,0.3,1.5c0.1,0.7,0.2,1.5,0.4,2.3c0.3,1.3,0.6,2.3,1,3.3
	c-9.2-2.5-17.6-6.6-25.6-12.4c-9.3-6.8-16.9-15.4-22.7-25.6C16.4,114.4,18.5,89,25.5,71.4z"/>
</svg>
