<?xml version="1.0" encoding="utf-8"?>
<!-- Generator: Adobe Illustrator 19.1.0, SVG Export Plug-In . SVG Version: 6.00 Build 0)  -->
<svg version="1.1" id="Layer_1" xmlns="http://www.w3.org/2000/svg" xmlns:xlink="http://www.w3.org/1999/xlink" x="0px" y="0px"
	 viewBox="-15 136.5 16 16" style="enable-background:new -15 136.5 16 16;" xml:space="preserve">
<g>
	<path d="M-10.8,152.5h-3.2c-0.3,0-0.6-0.3-0.6-0.6v-14.7c0-0.3,0.3-0.6,0.6-0.6h3.2c0.3,0,0.6,0.3,0.6,0.6v14.7
		C-10.1,152.2-10.4,152.5-10.8,152.5z"/>
	<path d="M-9.2,140.3v-3.2c0-0.3,0.3-0.6,0.6-0.6h8.3c0.3,0,0.6,0.3,0.6,0.6v3.2c0,0.3-0.3,0.6-0.6,0.6h-8.3
		C-8.9,140.9-9.2,140.7-9.2,140.3z"/>
	<polygon points="-2.5,144.1 -0.8,141.8 1,144.1 	"/>
	<polygon points="-7,152.2 -9.2,150.4 -7,148.7 	"/>
	<path d="M-8.2,151v-1.2c5.5,0,6.9-1.4,6.9-6.9h1.2C-0.2,149-2.1,151-8.2,151z"/>
</g>
</svg>
