<?xml version="1.0" encoding="utf-8"?>
<!-- Generated by IcoMoon.io -->
<!DOCTYPE svg PUBLIC "-//W3C//DTD SVG 1.1//EN" "http://www.w3.org/Graphics/SVG/1.1/DTD/svg11.dtd">
<svg version="1.1" xmlns="http://www.w3.org/2000/svg" xmlns:xlink="http://www.w3.org/1999/xlink" width="32" height="32" viewBox="0 0 32 32">
<path d="M13.92 16.944c4.464 0 8.096-3.392 8.096-7.584s-3.616-7.584-8.096-7.584-8.096 3.408-8.096 7.584c0 4.192 3.616 7.584 8.096 7.584zM13.92 3.68c3.344 0 6.064 2.544 6.064 5.68s-2.72 5.696-6.064 5.696-6.080-2.544-6.080-5.696c0-3.136 2.72-5.68 6.080-5.68z" fill="#000000"></path>
<path d="M14.928 16.944c-7.264 0-13.152 5.936-13.152 13.28 0.704 0 1.376 0 2.016 0 0-6.208 4.976-11.232 11.12-11.232v-2.048z" fill="#000000"></path>
<path d="M29.664 15.312c1.136 1.152 0.256 1.536-0.384 2.192l-11.872 12c-0.656 0.656-1.232 1.312-2.144 0.384-0.96-0.96-0.272-1.52 0.384-2.192l11.808-12.064c0.656-0.656 0.944-1.616 2.208-0.32z" fill="#000000"></path>
<path d="M17.008 29.968c0.72-0.752 0.208-1.456-0.448-2.112l-4.752-4.88c-0.64-0.656-1.312-1.296-2.064-0.528-0.864 0.88-0.224 1.536 0.432 2.192l4.752 4.88c0.64 0.672 1.28 1.28 2.080 0.448z" fill="#000000"></path>
</svg>
