<?xml version="1.0" encoding="utf-8"?>
<!-- Generator: Adobe Illustrator 18.1.1, SVG Export Plug-In . SVG Version: 6.00 Build 0)  -->
<!DOCTYPE svg PUBLIC "-//W3C//DTD SVG 1.1//EN" "http://www.w3.org/Graphics/SVG/1.1/DTD/svg11.dtd">
<svg version="1.1" id="Layer_1" xmlns="http://www.w3.org/2000/svg" xmlns:xlink="http://www.w3.org/1999/xlink" x="0px" y="0px"
	 viewBox="0 0 200 200" enable-background="new 0 0 200 200" xml:space="preserve">
<g>
	<rect x="11.1" y="77.8" width="11.1" height="33.3"/>
	<rect x="177.8" y="77.8" width="11.1" height="33.3"/>
	<polygon points="22.2,55.6 109.8,55.6 120.9,44.5 22.2,44.5 11.1,44.5 11.1,55.6 11.1,66.7 22.2,66.7 	"/>
	<polygon points="179.1,44.5 167.9,55.6 177.8,55.6 177.8,66.7 188.9,66.7 188.9,55.6 188.9,44.5 	"/>
	<polygon points="32,133.3 22.2,133.3 22.2,122.2 11.1,122.2 11.1,133.3 11.1,144.5 20.9,144.5 	"/>
	<polygon points="177.8,133.3 90.2,133.3 79.1,144.5 177.8,144.5 188.9,144.5 188.9,133.3 188.9,122.2 177.8,122.2 	"/>
	<rect x="-27.3" y="94.5" transform="matrix(0.7071 -0.7071 0.7071 0.7071 -43.0584 96.0679)" width="243.5" height="11.1"/>
</g>
</svg>
