<?xml version="1.0" encoding="utf-8"?>
<!-- Generated by IcoMoon.io -->
<!DOCTYPE svg PUBLIC "-//W3C//DTD SVG 1.1//EN" "http://www.w3.org/Graphics/SVG/1.1/DTD/svg11.dtd">
<svg version="1.1" xmlns="http://www.w3.org/2000/svg" xmlns:xlink="http://www.w3.org/1999/xlink" width="32" height="32" viewBox="0 0 32 32">
<path d="M18.272 14.672l3.472-3.472c0.688-0.688 1.36-1.344 0.448-2.256-0.8-0.8-1.504-0.144-2.176 0.528l-3.488 3.472-3.904-3.888c-0.72-0.72-1.472-1.408-2.32-0.56-0.96 0.96-0.24 1.664 0.48 2.384l3.92 3.904-3.968 3.968c-0.688 0.688-1.232 1.408-0.464 2.176 0.848 0.864 1.52 0.224 2.192-0.448l3.968-3.968 3.936 3.92c0.72 0.72 1.424 1.376 2.336 0.48 0.816-0.816 0.224-1.568-0.496-2.288l-3.936-3.952z" fill="#000000"></path>
<path d="M28.64 6.16l-3.616-3.616c-1.040-1.040-2.848-1.040-3.888 0l-5.52 5.52 1.504 1.504 5.52-5.52c0.112-0.128 0.288-0.192 0.448-0.192 0.176 0 0.336 0.064 0.448 0.192l2.56 2.56 1.040 1.056c0.24 0.256 0.24 0.656 0 0.896l-5.504 5.52 1.504 1.504 0.64-0.64 4.864-4.88c1.072-1.072 1.072-2.832 0-3.904z" fill="#000000"></path>
<path d="M13.456 22.288l-4.88 4.896c-0.24 0.24-0.656 0.24-0.896 0l-3.616-3.616c-0.24-0.256-0.24-0.656 0-0.896l5.536-5.52-1.504-1.504-5.52 5.52c-1.072 1.072-1.072 2.832 0 3.904l3.616 3.616c0.528 0.528 1.216 0.8 1.952 0.8s1.424-0.288 1.952-0.8l5.52-5.536-1.504-1.504-0.656 0.64z" fill="#000000"></path>
</svg>
