<?xml version="1.0" encoding="utf-8"?>
<!-- Generated by IcoMoon.io -->
<!DOCTYPE svg PUBLIC "-//W3C//DTD SVG 1.1//EN" "http://www.w3.org/Graphics/SVG/1.1/DTD/svg11.dtd">
<svg version="1.1" xmlns="http://www.w3.org/2000/svg" xmlns:xlink="http://www.w3.org/1999/xlink" width="32" height="32" viewBox="0 0 32 32">
<path d="M2.32 12.976c0.144 0 0.272-0.048 0.384-0.16l0.96-0.96c2.256 1.984 4.208 3.904 5.76 5.92l1.312-1.312c-1.392-1.984-3.152-3.872-5.36-5.808l5.328-5.328c1.952 2.208 3.84 3.984 5.808 5.36l1.296-1.296c-2.016-1.552-3.936-3.504-5.92-5.744l0.96-0.96c0.208-0.208 0.208-0.544 0-0.752s-0.544-0.208-0.752 0l-1.312 1.312c0 0 0 0 0 0l-8.848 8.816c-0.208 0.208-0.208 0.544 0 0.752 0.112 0.096 0.24 0.16 0.384 0.16z" fill="#000000"></path>
<path d="M23.12 17.776l4.976-4.896c0.208-0.208 0.208-0.544 0-0.752s-0.544-0.208-0.752 0l-1.040 1.040c-1.44-0.208-2.8-0.592-4.096-1.136l-1.136 1.136c1.2 0.464 2.48 0.816 3.824 1.072l-10.656 10.656c-0.256-1.344-0.608-2.608-1.072-3.824l-1.136 1.136c0.544 1.296 0.928 2.64 1.136 4.080l-1.040 1.040c-0.208 0.208-0.208 0.544 0 0.752 0.112 0.112 0.24 0.16 0.384 0.16s0.272-0.048 0.384-0.16l4.912-4.976 12.432 7.104-7.12-12.432zM21.216 19.744l5.44 6.928-6.928-5.44 1.488-1.488z" fill="#000000"></path>
<path d="M1.773 27.673l25.897-25.897 1.256 1.256-25.897 25.897-1.256-1.256z" fill="#000000"></path>
</svg>
