<?xml version="1.0" encoding="utf-8"?>
<!-- Generated by IcoMoon.io -->
<!DOCTYPE svg PUBLIC "-//W3C//DTD SVG 1.1//EN" "http://www.w3.org/Graphics/SVG/1.1/DTD/svg11.dtd">
<svg version="1.1" xmlns="http://www.w3.org/2000/svg" xmlns:xlink="http://www.w3.org/1999/xlink" width="32" height="32" viewBox="0 0 32 32">
<path d="M26.672 14.112h-7.12v1.888h7.12v12.448h-22.992v-12.448h6.992v-1.888h-8.896v16.112h26.784v-16.112z" fill="#000000"></path>
<path d="M20.992 10.432l1.36 1.36 1.344-1.36-1.344-1.36-1.36-1.344-1.36-1.36-1.344-1.36-1.36-1.344-1.872-1.888-1.76 1.888-1.36 1.344-1.36 1.36-1.344 1.36-1.36 1.344-1.36 1.36 1.36 1.36 1.36-1.36 1.344-1.36 1.36-1.344 1.36-1.36 0.928-0.816v21.12h1.776v-21.232l3.632 3.632z" fill="#000000"></path>
</svg>
