<?xml version="1.0" encoding="utf-8"?>
<!-- Generator: Adobe Illustrator 18.1.1, SVG Export Plug-In . SVG Version: 6.00 Build 0)  -->
<!DOCTYPE svg PUBLIC "-//W3C//DTD SVG 1.1//EN" "http://www.w3.org/Graphics/SVG/1.1/DTD/svg11.dtd">
<svg version="1.1" id="Layer_1" xmlns="http://www.w3.org/2000/svg" xmlns:xlink="http://www.w3.org/1999/xlink" x="0px" y="0px"
	 viewBox="0 0 200 200" enable-background="new 0 0 200 200" xml:space="preserve">
<g>
	<path d="M22.2,144.5H11.1v11.1v22.2v11.1h11.1h22.2h11.1v-11.1v-22.2v-11.1H44.4H22.2z M44.4,177.8H22.2v-22.2h22.2V177.8z"/>
	<path d="M88.9,122.2v-11.1V88.9V77.8H77.8H55.5H44.4v11.1v22.2v11.1h11.1h22.2H88.9z M55.5,88.9h22.2v22.2H55.5V88.9z"/>
	<path d="M111.1,77.8v11.1v22.2v11.1h11.1h22.2h11.1v-11.1V88.9V77.8h-11.1h-22.2H111.1z M144.4,111.1h-22.2V88.9h22.2V111.1z"/>
	<path d="M111.1,55.6h11.1V44.5V22.2V11.1h-11.1H88.9H77.8v11.1v22.2v11.1h11.1H111.1z M88.9,22.2h22.2v22.2H88.9V22.2z"/>
	<path d="M88.9,144.5H77.8v11.1v22.2v11.1h11.1h22.2h11.1v-11.1v-22.2v-11.1h-11.1H88.9z M111.1,177.8H88.9v-22.2h22.2V177.8z"/>
	<path d="M177.8,144.5h-22.2h-11.1v11.1v22.2v11.1h11.1h22.2h11.1v-11.1v-22.2v-11.1H177.8z M177.8,177.8h-22.2v-22.2h22.2V177.8z"
		/>
</g>
</svg>
