<?xml version="1.0" encoding="utf-8"?>
<!-- Generated by IcoMoon.io -->
<!DOCTYPE svg PUBLIC "-//W3C//DTD SVG 1.1//EN" "http://www.w3.org/Graphics/SVG/1.1/DTD/svg11.dtd">
<svg version="1.1" xmlns="http://www.w3.org/2000/svg" xmlns:xlink="http://www.w3.org/1999/xlink" width="32" height="32" viewBox="0 0 32 32">
<path d="M19.584 23.12c-0.704-1.728-2.416-2.896-4.336-2.896-2.576 0-4.688 2.096-4.688 4.688s2.096 4.688 4.688 4.688c2.192 0 4.096-1.52 4.576-3.648h0.016l0.032-0.128c0.048-0.208 0.064-0.416 0.080-0.624h4.944v3.264h1.776v-3.264h1.776v5.040h1.776v-7.104h-10.64zM15.248 27.632c-1.504 0-2.736-1.232-2.736-2.736s1.232-2.736 2.736-2.736 2.736 1.232 2.736 2.736c0 1.504-1.232 2.736-2.736 2.736z" fill="#000000"></path>
<path d="M13.92 16.944c4.464 0 8.096-3.392 8.096-7.584s-3.616-7.584-8.096-7.584-8.096 3.408-8.096 7.584c0 4.192 3.616 7.584 8.096 7.584zM13.92 3.68c3.344 0 6.064 2.544 6.064 5.68s-2.72 5.696-6.064 5.696-6.080-2.544-6.080-5.696c0-3.136 2.72-5.68 6.080-5.68z" fill="#000000"></path>
<path d="M14.928 16.944c-7.264 0-13.152 5.936-13.152 13.28 0.704 0 1.376 0 2.016 0 0-6.208 4.976-11.232 11.12-11.232v-2.048z" fill="#000000"></path>
</svg>
