<?xml version="1.0" encoding="utf-8"?>
<!-- Generator: Adobe Illustrator 18.1.1, SVG Export Plug-In . SVG Version: 6.00 Build 0)  -->
<!DOCTYPE svg PUBLIC "-//W3C//DTD SVG 1.1//EN" "http://www.w3.org/Graphics/SVG/1.1/DTD/svg11.dtd">
<svg version="1.1" id="Layer_1" xmlns="http://www.w3.org/2000/svg" xmlns:xlink="http://www.w3.org/1999/xlink" x="0px" y="0px"
	 viewBox="0 0 200 200" enable-background="new 0 0 200 200" xml:space="preserve">
<g>
	<path d="M149.4,122.2c0-27.3-22.2-49.4-49.4-49.4c-27.3,0-49.4,22.2-49.4,49.4c0,18.2,9.9,34.2,24.7,42.8
		c-15.8,4.3-30,12.7-41.3,23.9h15.2c14.1-10.8,31.7-17.2,50.8-17.2s36.7,6.4,50.8,17.2H166c-11.3-11.2-25.5-19.6-41.3-23.9
		C139.5,156.4,149.4,140.5,149.4,122.2z M60.5,122.2c0-21.7,17.7-39.4,39.4-39.4c21.7,0,39.4,17.7,39.4,39.4
		c0,21.7-17.7,39.4-39.4,39.4C78.2,161.7,60.5,144,60.5,122.2z"/>
	<path d="M82.8,44.5c0-21.1-17.2-38.3-38.3-38.3S6.1,23.3,6.1,44.5c0,13.7,7.2,25.7,18,32.4C14.2,81.3,6.5,89.2,1.5,100h11.3
		c0.6-1,1.3-2.1,2-3c6.8-9.4,16.8-14.2,29.7-14.2C65.6,82.8,82.8,65.6,82.8,44.5z M16.1,44.5c0-15.6,12.7-28.3,28.3-28.3
		s28.3,12.7,28.3,28.3S60.1,72.8,44.4,72.8S16.1,60.1,16.1,44.5z"/>
	<path d="M175.9,76.9c10.8-6.8,18-18.8,18-32.4c0-21.1-17.2-38.3-38.3-38.3s-38.3,17.2-38.3,38.3s17.2,38.3,38.3,38.3l0,0
		c12.9,0,22.9,4.8,29.7,14.2c0.7,1,1.3,2,2,3h11.3C193.5,89.2,185.8,81.3,175.9,76.9z M127.2,44.5c0-15.6,12.7-28.3,28.3-28.3
		s28.3,12.7,28.3,28.3s-12.7,28.3-28.3,28.3S127.2,60.1,127.2,44.5z"/>
</g>
</svg>
