<?xml version="1.0" encoding="utf-8"?>
<!-- Generator: Adobe Illustrator 18.1.1, SVG Export Plug-In . SVG Version: 6.00 Build 0)  -->
<!DOCTYPE svg PUBLIC "-//W3C//DTD SVG 1.1//EN" "http://www.w3.org/Graphics/SVG/1.1/DTD/svg11.dtd">
<svg version="1.1" id="Layer_1" xmlns="http://www.w3.org/2000/svg" xmlns:xlink="http://www.w3.org/1999/xlink" x="0px" y="0px"
	 viewBox="0 0 200 200" enable-background="new 0 0 200 200" xml:space="preserve">
<g>
	<path d="M180,137.5c-1.2-9.6-3.8-18.8-8.7-27.3c-5.3-9.2-12.9-15.2-23.4-17c-3.6-0.6-7.3-1-10.6,1.5c-3.1,2.3-6.3,4.4-9.6,6.3
		c-13.8,7.9-28.2,10.1-43.6,5.2c-7.7-2.4-14.2-6.8-20.8-11.1c-1.6-1-3.4-2.2-5.2-2.2c-4.3-0.2-8.6,0.7-12.6,2.3
		c-8.8,3.5-14.5,10.1-18.4,18.4c-7.5,16.1-9.4,33.1-8.1,50.6c0.9,12,9.5,21.4,21.2,23.8c3.4,0.7,7,1.1,10.4,1.1
		c16.5,0.1,33,0,49.5,0c0-0.1,0-0.2,0-0.3c18.6,0,37.2,0.2,55.7-0.1c6.6-0.1,12.5-3,17.4-7.7c5.8-5.6,8.4-12.7,8.3-20.5
		C181.4,152.7,180.9,145.1,180,137.5z"/>
	<path d="M100.1,100.1c24.8,0.1,44.5-20.5,44.5-44.2c-0.1-25-19.7-44.9-44.5-44.8c-24.7,0.1-44.4,19.7-44.4,44.3
		C55.5,80.3,75.3,100,100.1,100.1z"/>
</g>
</svg>
