<?xml version="1.0" encoding="utf-8"?>
<!-- Generated by IcoMoon.io -->
<!DOCTYPE svg PUBLIC "-//W3C//DTD SVG 1.1//EN" "http://www.w3.org/Graphics/SVG/1.1/DTD/svg11.dtd">
<svg version="1.1" xmlns="http://www.w3.org/2000/svg" xmlns:xlink="http://www.w3.org/1999/xlink" width="32" height="32" viewBox="0 0 32 32">
<path d="M8.912 1.776l-6.64 0.016c-0.272 0-0.496 0.224-0.496 0.512v11.44c0 0.288 0.224 0.512 0.496 0.512h11.744c0.272 0 0.272-0.224 0.272-0.512v-6.512l-5.376-5.456zM12.512 7.136l-3.568-0.016-0.016-3.552 3.584 3.568zM12.528 8.928v0h-0.016v3.536h-8.96v-8.864l3.552-0.016 0.016 3.536c0 1.68 1.52 1.792 1.792 1.792l3.616 0.016z" fill="#000000"></path>
<path d="M8.912 17.744l-6.64 0.016c-0.272 0-0.496 0.224-0.496 0.512v11.44c0 0.288 0.224 0.512 0.496 0.512h11.744c0.272 0 0.272-0.224 0.272-0.512v-6.512l-5.376-5.456zM12.512 23.088l-3.568-0.016-0.032-3.552 3.6 3.568zM12.528 24.896v0h-0.016v3.536h-8.96v-8.864l3.552-0.016 0.016 3.536c0 1.68 1.52 1.792 1.792 1.792l3.616 0.016z" fill="#000000"></path>
<path d="M30.288 7.232l-5.376-5.456-6.64 0.016c-0.272 0-0.496 0.224-0.496 0.512v11.44c0 0.288 0.224 0.512 0.496 0.512h11.744c0.272 0 0.272-0.224 0.272-0.512v-6.512zM28.496 7.136l-3.568-0.016-0.016-3.552 3.584 3.568zM28.512 8.928v0h-0.016v3.536h-8.944v-8.864l3.552-0.016 0.016 3.536c0 1.68 1.52 1.792 1.792 1.792l3.6 0.016z" fill="#000000"></path>
<path d="M24.912 17.744l-6.64 0.016c-0.272 0-0.496 0.224-0.496 0.512v11.44c0 0.288 0.224 0.512 0.496 0.512h11.744c0.272 0 0.272-0.224 0.272-0.512v-6.512l-5.376-5.456zM28.496 23.088l-3.568-0.016-0.016-3.552 3.584 3.568zM28.512 24.896v0h-0.016v3.536h-8.944v-8.864l3.552-0.016 0.016 3.536c0 1.68 1.52 1.792 1.792 1.792l3.6 0.016z" fill="#000000"></path>
</svg>
