<?xml version="1.0" encoding="utf-8"?>
<!-- Generator: Adobe Illustrator 18.1.1, SVG Export Plug-In . SVG Version: 6.00 Build 0)  -->
<!DOCTYPE svg PUBLIC "-//W3C//DTD SVG 1.1//EN" "http://www.w3.org/Graphics/SVG/1.1/DTD/svg11.dtd">
<svg version="1.1" xmlns="http://www.w3.org/2000/svg" xmlns:xlink="http://www.w3.org/1999/xlink" x="0px" y="0px"
	 viewBox="0 0 200 200" enable-background="new 0 0 200 200" xml:space="preserve">
<g id="Layer_1">
</g>
<g id="Layer_2">
	<g>
		<path d="M188.9,127.8c0-32.1-24.9-58.5-56.5-60.9l0.9-0.3l0-10.6l-44.5-45H14.2c-1.7,0-3.1,1.4-3.1,3.2v171.6
			c0,1.8,1.4,3.2,3.1,3.2h117.4c0.5,0,0.9-0.2,1.1-0.4l-0.1,0C164.1,186.2,188.9,159.9,188.9,127.8z M122.2,55.4H89l-0.1-33.2
			L122.2,55.4z M22.2,177.9V22.4h55.4l0.1,33.1c0,10.5,9.5,11.2,11.2,11.2h33.3l0,0.4c-18.4,1.7-34.5,11.5-44.6,25.9v-4H33.6v11.2
			h39.9c-1.8,3.5-3.2,7.2-4.3,11H33.6v11.2H67c-0.2,1.8-0.3,3.6-0.3,5.5c0,1.9,0.1,3.7,0.3,5.5H33.6v11.2h35.6
			c3.9,13.7,12.4,25.4,23.8,33.3H22.2z M127.8,177.9c-27.6,0-50.1-22.5-50.1-50s22.5-50,50.1-50s50,22.5,50,50
			S155.4,177.9,127.8,177.9z"/>
		<rect x="122.2" y="111.1" width="11.1" height="55.5"/>
		<rect x="122.2" y="88.9" width="11.1" height="11.1"/>
	</g>
</g>
</svg>
