<?xml version="1.0" encoding="utf-8"?>
<!-- Generator: Adobe Illustrator 18.1.1, SVG Export Plug-In . SVG Version: 6.00 Build 0)  -->
<!DOCTYPE svg PUBLIC "-//W3C//DTD SVG 1.1//EN" "http://www.w3.org/Graphics/SVG/1.1/DTD/svg11.dtd">
<svg version="1.1" id="Layer_1" xmlns="http://www.w3.org/2000/svg" xmlns:xlink="http://www.w3.org/1999/xlink" x="0px" y="0px"
	 viewBox="0 0 200 200" enable-background="new 0 0 200 200" xml:space="preserve">
<path fill-rule="evenodd" clip-rule="evenodd" d="M188.9,40.2l-95-17.9L15.2,88.4h-4.1V100h4.1l78.7,64.2l95-24.1L188.9,40.2z
	 M95.7,100c0.8,3.2,2.5,6.3,5,8.8c7.4,7.5,19.5,7.5,26.9,0c7.4-7.6,7.4-21.8,0-29.4c-7.4-7.5-19.5-7.5-26.9,0
	c-2.5,2.6-4.2,5.7-5,8.9H39.3l56.5-45.9l82,15.8v65l-82.7,20.1L39.2,100H95.7z"/>
</svg>
