<?xml version="1.0" encoding="utf-8"?>
<!-- Generated by IcoMoon.io -->
<!DOCTYPE svg PUBLIC "-//W3C//DTD SVG 1.1//EN" "http://www.w3.org/Graphics/SVG/1.1/DTD/svg11.dtd">
<svg version="1.1" xmlns="http://www.w3.org/2000/svg" xmlns:xlink="http://www.w3.org/1999/xlink" width="32" height="32" viewBox="0 0 32 32">
<path d="M29.776 26.912l-9.072-8.976c-0.32-0.32-0.848-0.32-1.168-0.016-0.32 0.32-0.32 0.832 0.016 1.152l9.072 8.976c0.32 0.32 0.848 0.32 1.168 0.016s0.304-0.832-0.016-1.152z" fill="#000000"></path>
<path d="M11.584 1.776c-5.424 0-9.808 4.288-9.808 9.6s4.4 9.616 9.824 9.616c5.424 0 9.808-4.288 9.808-9.6 0-5.296-4.4-9.6-9.824-9.616zM11.6 19.472c-4.56 0-8.256-3.632-8.272-8.096 0-4.464 3.68-8.080 8.256-8.080 4.56 0 8.272 3.632 8.272 8.096s-3.696 8.080-8.256 8.080z" fill="#000000"></path>
<path d="M7.104 10.672h8.88v1.776h-8.88v-1.776z" fill="#000000"></path>
</svg>
