<?xml version="1.0" encoding="utf-8"?>
<!-- Generated by IcoMoon.io -->
<!DOCTYPE svg PUBLIC "-//W3C//DTD SVG 1.1//EN" "http://www.w3.org/Graphics/SVG/1.1/DTD/svg11.dtd">
<svg version="1.1" xmlns="http://www.w3.org/2000/svg" xmlns:xlink="http://www.w3.org/1999/xlink" width="32" height="32" viewBox="0 0 32 32">
<path d="M15.104 1.776c-7.36 0-13.328 5.968-13.328 13.328s5.968 13.328 13.328 13.328 13.328-5.968 13.328-13.328c0.016-7.36-5.952-13.328-13.328-13.328zM15.104 26.784c-6.448 0-11.664-5.216-11.664-11.664s5.216-11.664 11.664-11.664 11.664 5.216 11.664 11.664c0 6.432-5.216 11.664-11.664 11.664z" fill="#000000"></path>
<path d="M8.88 8.896h1.776v12.448h-1.776v-12.448z" fill="#000000"></path>
<path d="M14.224 7.12h1.776v16h-1.776v-16z" fill="#000000"></path>
<path d="M19.552 8.896h1.776v12.448h-1.776v-12.448z" fill="#000000"></path>
</svg>
